/* XPM */
static char *result[] = {
/* columns rows colors chars-per-pixel */
"40 40 163 2 ",
"   c black",
".  c #070707",
"X  c #1B1B1B",
"o  c #313131",
"O  c gray21",
"+  c #373737",
"@  c #3E3E3E",
"#  c #494949",
"$  c #4E4E4E",
"%  c gray32",
"&  c #535353",
"*  c gray33",
"=  c #5B5B5B",
"-  c gray37",
";  c #626262",
":  c gray39",
">  c #646464",
",  c #656565",
"<  c DimGray",
"1  c #6A6A6A",
"2  c gray42",
"3  c #717171",
"4  c #727272",
"5  c gray45",
"6  c #747474",
"7  c gray46",
"8  c #767676",
"9  c gray47",
"0  c gray48",
"q  c #7B7B7B",
"w  c #7B7C7B",
"e  c #7C7C7C",
"r  c gray49",
"t  c #808080",
"y  c #818181",
"u  c gray51",
"i  c #848484",
"p  c gray52",
"a  c gray53",
"s  c #888888",
"d  c #898989",
"f  c gray54",
"g  c #8B8B8B",
"h  c gray55",
"j  c #8D8D8D",
"k  c #8E8E8E",
"l  c #909090",
"z  c gray57",
"x  c #929292",
"c  c gray58",
"v  c #959595",
"b  c gray59",
"n  c #979797",
"m  c #989898",
"M  c #999A9A",
"N  c #9A9A9A",
"B  c #9B9B9B",
"V  c #9C9B9C",
"C  c #9D9D9D",
"Z  c gray62",
"A  c #9F9F9F",
"S  c #A09FA0",
"D  c #A0A0A0",
"F  c gray63",
"G  c #A2A2A2",
"H  c gray64",
"J  c #A4A4A4",
"K  c #A5A5A5",
"L  c gray65",
"P  c gray66",
"I  c #A9A9A9",
"U  c #AAAAAA",
"Y  c gray67",
"T  c #ACACAC",
"R  c gray68",
"E  c #AEAEAE",
"W  c #AFAFAF",
"Q  c gray69",
"!  c #B1B1B1",
"~  c #B2B2B2",
"^  c #B4B4B4",
"/  c gray71",
"(  c #B6B6B6",
")  c #B7B7B7",
"_  c gray72",
"`  c #B9B9B9",
"'  c gray73",
"]  c #BBBBBB",
"[  c #BCBCBC",
"{  c gray74",
"}  c gray",
"|  c gray75",
" . c #C0C0C0",
".. c gray76",
"X. c gray77",
"o. c #C5C5C5",
"O. c #C6C6C6",
"+. c gray78",
"@. c #C8C8C8",
"#. c gray79",
"$. c #CACACA",
"%. c #CBCBCB",
"&. c gray80",
"*. c #CDCDCD",
"=. c #CECDCE",
"-. c #CECECE",
";. c gray81",
":. c #D0D0D0",
">. c gray82",
",. c #D2D2D2",
"<. c LightGray",
"1. c gray83",
"2. c #D5D5D5",
"3. c gray84",
"4. c #D8D8D8",
"5. c gray85",
"6. c #DADADA",
"7. c gray86",
"8. c gainsboro",
"9. c #DDDDDD",
"0. c gray87",
"q. c #DFDFDF",
"w. c #E0DFE0",
"e. c gray88",
"r. c #E1E1E1",
"t. c #E2E2E2",
"y. c gray89",
"u. c #E4E4E4",
"i. c gray90",
"p. c #E6E6E6",
"a. c #E7E7E7",
"s. c gray91",
"d. c #E9E8E9",
"f. c #E9E9E9",
"g. c #EAEAEA",
"h. c #EAEBEA",
"j. c gray92",
"k. c #ECECEC",
"l. c gray93",
"z. c #EEEEEE",
"x. c #EFEFEF",
"c. c #F0EFF0",
"v. c gray94",
"b. c #F1F0F1",
"n. c #F1F1F1",
"m. c gray95",
"M. c #F3F3F3",
"N. c #F4F4F4",
"B. c gray96",
"V. c #F6F6F6",
"C. c gray97",
"Z. c #F8F8F8",
"A. c #F9F8F9",
"S. c #F9F9F9",
"D. c gray98",
"F. c #FBFBFB",
"G. c gray99",
"H. c #FDFCFD",
"J. c #FDFDFD",
"K. c #FEFDFE",
"L. c #FEFEFE",
"P. c #FEFFFE",
"I. c white",
/* pixels */
"I.I.I.I.I.I.I.I.I.I.I.I.I.I.I.I.I.L.L.L.L.I.I.L.L.I.I.I.I.I.I.I.I.I.I.I.I.v.t.I.",
"I.I.I.I.I.I.I.I.I.I.I.I.I.I.I.L.I.I.I.I.I.I.I.I.I.L.L.I.I.I.I.I.I.I.I.I.I.F.M.I.",
"I.I.I.I.I.I.I.I.I.I.I.I.I.I.I.I.I.Z.v.g.6.[ | l.D.I.I.I.I.I.I.J.0.l.I.L.I.I.I.I.",
"I.I.I.I.I.I.I.I.I.I.L.I.I.J.I.x.^ K Y ^ ( Q T H T ' u.C.F.I.L.J.s.m.I.L.I.I.I.I.",
"I.I.I.I.I.I.I.I.I.L.I.F.7.o...` T _ w.J.I.I.J.8.E D O.<.2.I.I.L.I.I.I.I.I.I.I.I.",
"I.I.I.I.I.I.I.I.L.I.J.%.W P ! u.G.G.I.I.I.I.I.I.A.S.I.I.V.s.v.I.I.L.I.I.I.I.I.I.",
"I.I.I.I.I.I.I.I.I.Z.&.F ^ #.h.I.I.I.I.I.I.I.I.I.I.I.L.J.I.g.Z X.H.I.I.I.I.I.I.I.",
"I.I.I.I.I.I.I.L.I.d.y N ( c.I.L.L.I.I.I.I.I.I.I.L.L.I.I.I.I.D + 2.I.L.I.I.I.I.I.",
"I.I.I.I.I.I.I.I.I.J.d c $.I.L.I.I.I.I.I.I.I.I.I.I.I.I.I.J.e.h < i.I.I.I.I.I.I.I.",
"I.I.I.I.I.L.G.S.C.6.b ~ x.I.L.I.I.I.I.I.I.I.I.I.I.I.I.I.I.q.F n 3.p.C.I.I.I.I.I.",
"I.I.I.L.I.x.-. .9 r I #.L.I.I.I.I.I.I.I.I.I.I.I.I.I.I.I.I.D.$.P q 6 u.I.L.I.I.I.",
"I.I.I.L.I.B.| b 2 u J +.J.I.L.L.I.I.I.I.L.L.P.I.I.I.L.L.I.Z.+.G 5 z N.I.L.I.I.I.",
"I.I.I.I.K.I.!   & x U } z.I.I.I.I.D.F.I.I.I.I.S.S.I.I.I.I.s.{ H 0 N Z.I.L.I.I.I.",
"I.I.I.I.J.I. .  $ v ~ (  .u.M.m.B.r.z.S.f.g.Z.s.t.C.n.N.0.] ) W 1 ; t.I.L.I.I.I.",
"I.I.I.I.I.I.6.: % f L A F $.s.g.D.I.I.n.9.0.M.I.I.S.s.a.o.F S P D N i.I.L.I.I.I.",
"I.L.I.x.g n n.;.6 ; h b U N.I.I.I.L.L.I.I.I.I.I.L.I.I.I.g.P > c D.L.I.I.I.I.I.I.",
"I.L.I.f., F I.s.a = -.v.v.I.L.L.I.I.I.L.L.L.L.I.I.I.L.I.J.n.5.8.I.I.I.I.I.I.I.I.",
"I.L.I.g.e ^ I.f.r s I.I.I.L.I.I.I.I.I.I.I.I.I.I.I.I.I.I.I.I.I.I.D.L.I.I.I.I.I.I.",
"I.L.I.g.e ^ I.j.e l I.I.J.I.I.I.I.I.I.I.I.I.I.I.I.I.I.I.I.L.I.I.s.C.I.I.I.I.I.I.",
"I.I.I.J.V F I.f.A b +.v.I.L.L.I.I.I.I.I.I.I.I.I.I.I.I.I.I.I.N.a.S.L.I.I.I.I.I.I.",
"I.I.L.I.v.9.3. .K J  .x.I.I.I.L.I.I.I.I.I.I.I.I.I.I.I.I.I.I.m.0.G.I.I.I.I.I.I.I.",
"I.I.I.J.I.v.8 h x K I.I.` ~ L.I.I.I.I.I.I.I.I.I.I.I.I.S.F %.I.L.g.L.I.I.I.I.I.I.",
"I.I.I.L.I.C.R 7 f C 3.S.j.0.D.I.I.I.I.I.I.I.I.I.I.I.I.F.9.x.Z.v.J.I.I.I.I.I.I.I.",
"L.L.I.I.I.I.I.:.0 k + @.I.I.I.I.I.I.I.I.I.I.I.I.I.I.I.I.I.I.2.( I.G.L.I.I.I.I.I.",
"I.I.I.I.I.I.L.I.9.x * ,.I.L.I.L.I.I.I.I.I.I.I.I.I.I.I.L.G.I.6.j G.I.I.I.I.I.I.I.",
"g.v.L.I.I.I.L.I.s.3.h.I.I.B.V.I.I.I.I.I.I.I.I.I.I.I.I.l.I.I.F.y.r.j.r.7.F.I.I.I.",
"<.y.I.I.I.L.I.&.l D.I.L.Z.3.x.I.L.I.I.I.I.I.I.I.I.I.I.F.Z.m.L.I.b.k w 8.I.I.I.I.",
"I.I.I.I.I.J.n.N 4 2.N.=.9 1.I.J.I.I.I.I.I.I.I.I.I.I.J.I.y.3 o.B.<.m &.I.I.I.I.I.",
"I.I.I.L.I.v.~ J i 6 t 2   I I.I.I.I.I.I.I.I.I.I.I.I.I.D.U . - p ` M.I.I.I.I.I.I.",
"I.I.I.I.I.Z.s.g.) f / / v 3.G.I.I.I.I.L.L.L.P.I.I.I.I.v.I B O.$.v.I.L.I.I.I.I.I.",
"I.I.I.I.I.I.I.I.y.%.I.m.0.I.L.L.L.L.L.I.I.I.I.L.L.L.J.I.Z.m.I.I.I.L.I.I.I.G.Z.I.",
"I.I.I.I.I.I.J.I.l.3.I.u.} N.I.I.I.I.I.x.,.3.N.I.I.I.I.I.i.p.I.J.L.I.I.I.I.B.i.I.",
"I.I.I.I.I.I.I.I.G.S.I.z.B U l.v.x.m.G.Z.i.a.C.V.z.z.n.x.F 4.I.L.I.I.I.I.I.I.L.I.",
"I.I.I.I.I.I.I.I.I.I.I.I.q.c # O @ H N.I.I.I.I.*.&   o X L J.I.L.I.I.I.I.I.I.I.I.",
"I.I.I.I.I.I.I.I.I.I.I.L.I.l.~ M { V.I.L.L.I.I.F.>.Y A Y k.I.L.I.I.I.I.I.I.I.I.I.",
"I.I.I.I.I.I.I.I.I.I.I.I.L.I.I.D.I.I.I.I.I.B.l.I.I.I.I.I.I.L.I.I.I.I.L.F.L.I.I.I.",
"I.I.I.I.I.I.I.I.I.I.I.I.I.L.I.I.I.L.I.L.I.j.0.I.L.L.J.L.L.I.I.I.I.I.S.7.C.I.L.I.",
"I.I.I.I.I.I.I.I.I.I.I.I.I.I.I.L.I.I.I.I.I.I.I.I.I.I.I.I.I.I.I.I.I.I.I.I.I.I.I.I.",
"I.I.I.I.I.I.I.I.I.I.I.I.I.I.I.I.I.I.I.I.I.I.P.I.I.I.I.I.I.I.I.I.I.I.I.L.I.I.I.I.",
"I.I.I.I.I.I.I.I.I.I.I.I.I.I.I.I.I.I.I.I.I.I.I.I.I.I.I.I.I.I.I.I.I.I.I.I.I.I.I.I."
};
