/* XPM */
static char *result[] = {
/* columns rows colors chars-per-pixel */
"40 40 189 2 ",
"   c black",
".  c #202020",
"X  c #363536",
"o  c #373737",
"O  c gray22",
"+  c #393939",
"@  c gray23",
"#  c #3F3F3F",
"$  c gray25",
"%  c #414141",
"&  c #444444",
"*  c #494949",
"=  c #4B4B4B",
"-  c #4C4C4C",
";  c gray30",
":  c gray31",
">  c #505050",
",  c #515151",
"<  c gray32",
"1  c #535353",
"2  c gray33",
"3  c #555555",
"4  c #565656",
"5  c #585858",
"6  c gray36",
"7  c #5F5F5F",
"8  c gray38",
"9  c gray39",
"0  c gray40",
"q  c DimGray",
"w  c #6C6C6C",
"e  c #6F6F6F",
"r  c #717171",
"t  c #767676",
"y  c #777777",
"u  c gray47",
"i  c #797979",
"p  c gray48",
"a  c #7B7B7B",
"s  c #7C7C7C",
"d  c gray49",
"f  c #7E7E7E",
"g  c gray50",
"h  c gray51",
"j  c #838383",
"k  c #848484",
"l  c gray52",
"z  c #868686",
"x  c gray53",
"c  c #888888",
"v  c #898989",
"b  c gray54",
"n  c #8B8B8B",
"m  c gray55",
"M  c #8D8D8D",
"N  c #8E8E8E",
"B  c gray56",
"V  c #909090",
"C  c gray57",
"Z  c #929292",
"A  c #939393",
"S  c gray58",
"D  c #959595",
"F  c #959695",
"G  c gray59",
"H  c #979797",
"J  c #989898",
"K  c gray60",
"L  c #9A9A9A",
"P  c #9B9B9B",
"I  c gray61",
"U  c #9C9D9C",
"Y  c #9D9D9D",
"T  c gray62",
"R  c #9F9F9F",
"E  c #A0A0A0",
"W  c gray63",
"Q  c #A2A1A2",
"!  c #A2A2A2",
"~  c gray64",
"^  c #A4A4A4",
"/  c #A4A5A4",
"(  c #A5A5A5",
")  c #A6A5A6",
"_  c gray65",
"`  c #A7A6A7",
"'  c #A7A7A7",
"]  c gray66",
"[  c #A9A8A9",
"{  c #A9A9A9",
"}  c #AAAAAA",
"|  c gray67",
" . c #ACACAC",
".. c gray68",
"X. c #AEAEAE",
"o. c #AFAEAF",
"O. c #AFAFAF",
"+. c gray69",
"@. c #B1B1B1",
"#. c #B2B2B2",
"$. c #B3B2B3",
"%. c gray70",
"&. c #B4B4B4",
"*. c gray71",
"=. c #B6B6B6",
"-. c #B7B7B7",
";. c gray72",
":. c #B9B9B9",
">. c gray73",
",. c #BABBBA",
"<. c #BBBBBB",
"1. c #BCBCBC",
"2. c gray74",
"3. c gray",
"4. c #BEBFBE",
"5. c gray75",
"6. c #C0C0C0",
"7. c #C1C1C1",
"8. c gray76",
"9. c #C3C2C3",
"0. c #C3C3C3",
"q. c gray77",
"w. c #C4C5C4",
"e. c #C5C5C5",
"r. c #C6C6C6",
"t. c gray78",
"y. c #C8C8C8",
"u. c #CACACA",
"i. c #CBCBCB",
"p. c gray80",
"a. c #CDCDCD",
"s. c #CECECE",
"d. c gray81",
"f. c #D0D0D0",
"g. c gray82",
"h. c #D2D2D2",
"j. c LightGray",
"k. c gray83",
"l. c #D5D5D5",
"z. c gray84",
"x. c #D7D7D7",
"c. c #D8D8D8",
"v. c gray85",
"b. c #D9DAD9",
"n. c #DADADA",
"m. c gray86",
"M. c gainsboro",
"N. c #DDDDDD",
"B. c #DDDEDD",
"V. c gray88",
"C. c #E1E1E1",
"Z. c #E2E2E2",
"A. c gray89",
"S. c #E4E4E4",
"D. c #E4E5E4",
"F. c gray90",
"G. c #E6E6E6",
"H. c #E7E6E7",
"J. c #E7E7E7",
"K. c gray91",
"L. c #E9E9E9",
"P. c #EAEAEA",
"I. c #ECECEC",
"U. c gray93",
"Y. c #EEEEEE",
"T. c #EFEEEF",
"R. c #EFEFEF",
"E. c gray94",
"W. c #F1F1F1",
"Q. c gray95",
"!. c #F3F3F3",
"~. c #F4F4F4",
"^. c #F5F4F5",
"/. c gray96",
"(. c #F6F6F6",
"). c #F6F7F6",
"_. c gray97",
"`. c #F8F8F8",
"'. c #F9F9F9",
"]. c gray98",
"[. c #FAFBFA",
"{. c #FBFBFB",
"}. c gray99",
"|. c #FCFDFC",
" X c #FDFDFD",
".X c #FEFEFE",
"XX c #FEFFFE",
"oX c #FFFEFF",
"OX c white",
/* pixels */
"OXOXOXOXOXOXOXOXOXOXOXOXOXOXOXOXOXOXOXOXOXOXOXOXOXOXOXOXOXOXOXOXOXOXOXOXOXOX.X.X",
"OXOXOXOXOXOXOXOXOXOXOXOXOXOX.XOXOXOXOXOXOXOXOXOXOXOXOXOXOXOXOXOXOXOXOXOXOXOXOXOX",
"OXOXOXOXOXOXOXOXOX.X.X.X.XOXOXOXOX.X X.XOXOXOX.X XOXOXOXOXOXOXOXOXOXOXOXOXOXQ.(.",
"OXOXOXOXOXOXOXOX.XOXOXOXOX'.~.'.OXOXOXOXOXOXOXOXOXOXOXOX.XOXOXOXOX.XOXOX.XOXn.S.",
"OXOXOXOXOXOXOX.XOX(.U.(.C.B f n ( 8.g.i.6...Q | e.'.OXOXOXOX.XOXOXOXOXOXOXOX(.(.",
"OXOXOXOXOXOX XOXF.A i B ' 5.<.7.m.F.V.C.L.A.y.+.^ K.OX~.q.(.OX.X}.A.R.OX.XoXOXOX",
"OXOXOXOXOXOXOXW.B l l _ F.OXOXOXOXOXOXOXOXOXOXOXOXOXOX}.V.s.R.OXOXA.R.OX.XOXOXOX",
"OXOXOX.XOX|.F.K j >.J.}.OX.X.X.X.X.X.X.X.X.X.X.X.XOXOXOXOX_.f.5.k.(.OXOXOXOXOXOX",
"OXOXOX.XOX4.$ v P c.OXOX.XOXOXOXOXOXOXOXOXOXOXOXOXOXOXOX.XOXa.> ; Z.OX.XOXOXOXOX",
"OXOXOX X[.q.5 Y 1.Q.OX.XOXOXOXOXOXOXOXOXOXOXOXOXOXOX.XOXW.;.' p t p.}.OXOXOXOXOX",
"OX.XOXC.d L E @.n.{.OXOXOXOXOXOXOXOXOXOXOXOXOXOXOXOXOXOXOXn.-.{ D 7 a.OX XOXOXOX",
"OX XOXa.+ Z ,.O.] 7.!.OXOXOXOXOXOXOXOXOXOXOXOXOXOXOXOX}.f...o.3.' # >.OX.XOXOXOX",
"OX.XOXh.- G :._ j A J.OX.XOXOXOXOXOXOXOXOXOXOXOXOX.XOX/.! p E <./ < 7.OX.XOXOXOX",
"OX.XOXg.- K >.{ Z A 9.!.OXOXOXOXOXOXOXOXOXOXOXOXOXOX].j.K n ^ <.) = 0.OX XOXOXOX",
"OX.XOXj.o Z 1. .D b Z r.}.OX.XOXOXOXOXOXOXOXOXOXXX.Xx.P x B ' 6._ O e.OX XOXOXOX",
"OX.XOX!.5.' J ^ T V A *.I.OXOX.XOXOXOXOXOXOX.XOXOX(.8.F N P ] P K q.E.OX.XOXOXOX",
"OXOXOXOXOXf.3 I &.! D J %.N. XOX.X.XOXOXOX.XOXOXK.1.Y S T X.] 0 B .XOX.XOXOXOXOX",
"OXOXOX XOXx.% P 5.| S c G O.f.Y.OXOXOXOXOXOX(.x.=.L n C ' >.} 6 d /.OX.XOXOXOXOX",
"OXOXOX.XOXv.* H q. .A v R +. .2.S.!././.~.K.q.| X.( M B ' 3.| 4 $.OXOXOXOXOXOXOX",
"OXOXOXOXOX XE.O.z ( ! D P ' | O.%.;.:.:.<.=.O.| ' Y D U ..A u ;.(.OX.XOXOXOXOXOX",
"OXOXOXOXOXOXOXk.& J ..} H m W +.X.} } } } X.#.[ S G ] ..W q e R.OX.XOXOXOXOXOXOX",
"OXOXOXOXOX).`.OXr.6 u A N m R O.@.+.+.@.+.@.O.` C M G s , ' (.`.I.OXOXOXOXOXOXOX",
"OX}..X.XOXx.g.OXM.X - w g K K P _ O.+.+.+.} T G G l r 5 @ :.OXn.} .XOXOXOXOXOXOX",
"OX~. XOXOX X.XQ.x.B.S.J.j.k y Z ~ O.+.O.+.{ D a a r.G.G.A.k.k.OX}..XOXOXOXOXOXOX",
"OXOXOXOX.XOXOX]. XOXOXOXOXb.k 7 k X.=.&.#.B 8 i 8. XOXOXOX{.Z.OXOX.XOXOXOXOXOXOX",
"OX.X.X.XOXW.f.OXOXOX.X.X.XOXK.3.:._ ] | ] +.1.N.OXOX.X.X.XOXOXg.Z.OXOXOXOXOXOXOX",
"OXOXOXOXOXU.z.OX X}.OXOXOX.XOXOXOX_ t c A ].OXOX.XOXOXOX}.}.OXG.m..X'.OXOXOXOXOX",
"OXR.~.c.X.!.OXT.v ^ {.OXOXOX.X XOX..w h n }..X.XOXOX.XOXh.b P.OXOXH W OX X XOXOX",
"OXm.V.H.l.r.B 1   z {.OX.XOXOXOXOX_ : 9 Z }.OXOXOXOX XOXu.  < f I C.E. XW.}.OXOX",
"OX].OXOXOXE.u.*.1 Y .XOXOXOXOXOXOXL.j.k.G.OXOXOXOXOX.XOXN...a.6.N.OXOXOXOXOXOXOX",
"OXOXOXXX.XOXOXOXG y.OX XOXOXOXOXXXOXOXOXOXOXOXOXOXOX.XOX{..XOXOXOX.X.XOXOXOXOXOX",
"OXOXOXOXOX.X}.OXh.<.OX.X X.XOXOXOXOX.X.XOXOXOXOX.X XOXOXa./.OX X.XOXOXOXOXOXOXOX",
"OXOXOXOXOXOX.XOX~.2 O.OXOXOXOX.X]. X X X X{.OXOXOXOXOXk.. d.OX.XOXOXOXOXOXOX].].",
"OXOXOXOXOXOXOXOX.XL.n.i.t.m.OXP.p.M.N.M.N.k.I.OXP.a.g.e.I a.OX.XOXOXOXOX.XOXR.W.",
"OXOXOXOXOXOXOXOXOXOXOXw.~ z.OX].`.'.'.'.'.'.].OXD. .3./.K.R.OXOXOXOXOXOXOXOXOXOX",
"OXOXOXOXOXOXOXOXOX.X.XOXOXOXOXOXOXOXOXOXOXOXOX.XOX`.I.c.q._.OXOXOXOXOXOXOXOXOXOX",
"OXOXOXOXOXOXOXOXOXOXOX.X.X.XOXOXOXOXOXOXOXOXOXOXOX].!./.^.OXOXOXOXOXOXOXOXOXOXOX",
"OXOXOXOXOXOXOXOXOXOXOXOXOXOXOXOXOXOXOXOXOXOXOXJ.~.OXOXOXOXOXOXOXOXOXOX X/.OXOXOX",
"OXOXOXOXOXOXOXOXOXOXOXOXOXOXOXOXOXOXOXOXOXOXOXV.!.OX.XOXOXOXOXOXOXOXOX{.S. XOXOX",
"OXOXOXOXOXOXOXOXOXOXOXOXOXOXOXOXOXOXOXOXOXOXOX X.XOXOXOXOXOXOXOXOXOXOX.X.XOXOXOX"
};
