/* XPM */
static char *ef3552c4861740fafe47a923b69bef96YFE8Cvi9iwcrGxeM[] = {
/* columns rows colors chars-per-pixel */
"40 40 64 1 ",
"  c #444444",
". c gray30",
"X c #5D5D5D",
"o c gray38",
"O c #646464",
"+ c #6C6C6C",
"@ c gray43",
"# c gray45",
"$ c #797979",
"% c #7E7E7E",
"& c #838383",
"* c #848484",
"= c gray53",
"- c gray54",
"; c #8E8F8E",
": c #929292",
"> c gray58",
", c #989898",
"< c gray61",
"1 c #9F9F9F",
"2 c gray64",
"3 c #A7A7A7",
"4 c gray66",
"5 c gray67",
"6 c #ACABAC",
"7 c gray68",
"8 c gray70",
"9 c #B4B4B4",
"0 c gray71",
"q c gray72",
"w c gray74",
"e c gray75",
"r c #C0C0C0",
"t c #C3C3C3",
"y c gray77",
"u c #C6C6C6",
"i c #CBCBCB",
"p c gray80",
"a c #CDCDCD",
"s c #D0D0D0",
"d c gray82",
"f c LightGray",
"g c #D7D7D7",
"h c gray86",
"j c gainsboro",
"k c gray87",
"l c #E0DFE0",
"z c #E2E2E2",
"x c gray89",
"c c #E6E6E6",
"v c #E7E7E7",
"b c gray91",
"n c #E9E9E9",
"m c gray92",
"M c #EEEEEE",
"N c #F0EFF0",
"B c gray95",
"V c #F4F4F4",
"C c gray96",
"Z c gray97",
"A c #F8F8F8",
"S c #FBFBFB",
"D c gray99",
"F c white",
/* pixels */
"FFFFFFFFFFFFFFFFFFFFFFFFFFFFFFFFFFFFFFFF",
"FFFFFFFFFFFFFFFFFFFFFFFFFFFFFFFFFFFFFFFF",
"FFFFFFFFFFFFFFFFFFFFFFFFFFFFFFFFFFFFFFFF",
"FFFFFFFFFFFFFFFFFFFFFFFFFFFFFFFFFFFFFFFF",
"FFFFFFFFFFFFFFFFFFFFFFFFFFFFFFFFFFFFFFFF",
"FFFFFFFFFFFFFFFFFFFFFFFFFFFFFFFFFFFFAcFF",
"FFFFFFFFFFFFFFFFFFFFFBccBFFFFFFAAFFFFFFF",
"FFFFFFFFFFFFFFMMCCMBFkutnFFMcFFBdAFFFFFF",
"FFFFFFFFFFCAFFct2qdcFFFFFFFdaFFACFFFFFFF",
"FFFFFFFFFFBncFFBknFFFFFFFFFFFCFFFFFFFFFF",
"FFFFFFFCCFFFAFCAFFFFFFFFFFFFFAkAFFFFFFFF",
"FFFFncFFFFFFFBcFFFFFFFFFFFFFFFzAFFFFFFFF",
"FFFc*dFFFFFFAMBFFFFFFFFFFFFFFFFFFAFFFFFF",
"FFFk2nFFFFCu3MFFFFFFFFFFFFFFFFFFngFFFFFF",
"FFh5nFFFzie,%zFFAFFFFFFFFFFFkeiatnFFFFFF",
"FFq,AFFd65573uBFFFFFFCFFFFFFc5>:lFFFFFFF",
"CttMFFC7507877ehcFFFFFFFFFFFFFhcFFFFFFFF",
"n&iFFAg83-;787757dczkiqFFFFFFFcBFAFFFFFF",
"n-iFFz62*0t&588776533*OAFFFFFFcBFFFFFFFF",
"M,iFFc0;XcFtO100871dAMkAFFFFFFzBFFFFFFFF",
"AqiFFc1-dFFFd:*>882nFFFFFFFFFFAFFFFFFFFF",
"FniBFc+>FFFFFz*o&;$dFFFFFFFFFFFFFFFFFFFF",
"AFk5CC>&MACFFFAM8XX&0hFFFFFFFFFFFFFFFFFF",
"FFCtzFM:-58CFFFFFMCu+kABFFFFFFFFFFFFFFFF",
"FFFFcnM3:>#tFFFFFFFCukCCFFFFFFFFFFFFFFFF",
"FFFFFz1%1,-%7AFFFFFFFCFFFFFFFFFFFFFFFFFF",
"FFFFFFMB, X .nFFFFFCCFFFFFFFFFFFFFFAFFFF",
"BggcFFFFBhzkcFFFFFFBhFFFFFFFFizFFFBMFFFF",
"CcnCFFAFFFFFFFFFFCFFndFczFFFciCFFFFAFFFF",
"FFFFFFFzgkzFFFAndeFFN0FgdFFFqMFFFFFFFFFF",
"FFFFFFFckdaFFFCkkhFFFa2iFFFt0FFFFFFFFFFF",
"FFFFFFFFFCaCFFFFFFFCFCukFFF5kFFFFFFFFCBF",
"FFFFFFFFFFhBFFFFFFFMMFFFFFciCFFFFFFFFccF",
"FFFFFFFFFFAFFFFFFFFFAkte800aAFFFFFFFFFFF",
"FFFFFFFFFFFFFFFFFFFFFCza0edhCFFFFFFFFFFF",
"FFFFFFFFFFFFFFFFFFFFFFFFFFFCFFFFFFFFFFFF",
"FFFFFFFFFFFFFFFFFFFFFFhCFFFFFFFFFFMMFFFF",
"FFFFFFFFFFFFFFFFFFFFFFCAFFFFFFFFFFACFFFF",
"FFFFFFFFFFFFFFFFFFFFFFFFFFFFFFFFFFFFFFFF",
"FFFFFFFFFFFFFFFFFFFFFFFFFFFFFFFFFFFFFFFF"
};
