/* XPM */
static char *result[] = {
/* columns rows colors chars-per-pixel */
"40 40 145 2 ",
"   c #040404",
".  c gray21",
"X  c gray24",
"o  c #444444",
"O  c gray30",
"+  c #535353",
"@  c #5F5F5F",
"#  c #676767",
"$  c DimGray",
"%  c #6A6A6A",
"&  c #6D6D6D",
"*  c #717171",
"=  c #717271",
"-  c #747474",
";  c #767676",
":  c gray48",
">  c #7C7C7C",
",  c gray49",
"<  c #7E7E7E",
"1  c gray50",
"2  c #808080",
"3  c #818181",
"4  c gray51",
"5  c #838383",
"6  c #858485",
"7  c gray52",
"8  c gray53",
"9  c #888888",
"0  c #888988",
"q  c #898989",
"w  c gray54",
"e  c #8E8E8E",
"r  c gray56",
"t  c #909090",
"y  c #929292",
"u  c #939393",
"i  c gray58",
"p  c #959595",
"a  c gray59",
"s  c #979797",
"d  c #989898",
"f  c #9A9A9A",
"g  c #9B9B9B",
"h  c gray62",
"j  c #9F9F9F",
"k  c #A0A0A0",
"l  c gray63",
"z  c #A2A2A2",
"x  c gray64",
"c  c #A4A3A4",
"v  c #A4A4A4",
"b  c #A5A5A5",
"n  c gray65",
"m  c #A7A7A7",
"M  c gray66",
"N  c #A9A9A9",
"B  c #AAAAAA",
"V  c gray67",
"C  c #ACABAC",
"Z  c #ACACAC",
"A  c gray68",
"S  c #AEAEAE",
"D  c #AFAEAF",
"F  c #AFAFAF",
"G  c gray69",
"H  c #B1B1B1",
"J  c #B2B2B2",
"K  c gray70",
"L  c #B4B4B4",
"P  c gray71",
"I  c #B6B6B6",
"U  c #B7B7B7",
"Y  c gray72",
"T  c gray73",
"R  c #BBBBBB",
"E  c #BCBCBC",
"W  c gray74",
"Q  c gray75",
"!  c #C0C0C0",
"~  c gray76",
"^  c #C3C3C3",
"/  c gray77",
"(  c #C5C5C5",
")  c #C6C6C6",
"_  c gray78",
"`  c #C8C8C8",
"'  c gray79",
"]  c #CACACA",
"[  c #CBCBCB",
"{  c #CDCDCD",
"}  c #CECECE",
"|  c gray81",
" . c #D0D0D0",
".. c gray82",
"X. c #D2D2D2",
"o. c LightGray",
"O. c #D5D5D5",
"+. c gray84",
"@. c #D7D7D7",
"#. c #D8D8D8",
"$. c gray85",
"%. c #DADADA",
"&. c gray86",
"*. c gainsboro",
"=. c #DDDDDD",
"-. c gray87",
";. c #DFDFDF",
":. c gray88",
">. c #E1E1E1",
",. c #E2E2E2",
"<. c #E3E2E3",
"1. c gray89",
"2. c #E4E4E4",
"3. c gray90",
"4. c #E6E6E6",
"5. c #E7E7E7",
"6. c gray91",
"7. c #E9E9E9",
"8. c #EAEAEA",
"9. c gray92",
"0. c #ECECEC",
"q. c gray93",
"w. c #EEEEEE",
"e. c #EFEFEF",
"r. c gray94",
"t. c #F1F1F1",
"y. c gray95",
"u. c #F3F3F3",
"i. c #F4F4F4",
"p. c gray96",
"a. c #F6F6F6",
"s. c gray97",
"d. c #F8F8F8",
"f. c #F9F9F9",
"g. c #F9FAF9",
"h. c gray98",
"j. c #FAFAFB",
"k. c #FBFBFB",
"l. c gray99",
"z. c #FDFDFD",
"x. c #FEFDFE",
"c. c #FEFEFE",
"v. c #FEFFFE",
"b. c #FFFEFF",
"n. c white",
/* pixels */
"n.n.n.n.n.n.n.n.n.n.n.n.n.n.n.n.n.n.n.n.n.n.n.n.n.n.n.n.n.n.n.n.n.n.n.c.n.w.a.n.",
"n.n.n.n.n.n.n.n.n.n.n.n.n.n.n.n.n.n.n.n.n.n.n.n.n.n.n.n.n.n.n.n.n.n.n.c.n.;.w.n.",
"n.n.n.n.n.n.n.n.n.n.n.n.n.n.n.n.n.n.n.n.n.n.n.n.n.n.n.n.n.n.n.n.n.c.n.n.n.l.c.n.",
"n.n.n.n.n.n.n.n.c.n.n.n.n.n.n.n.n.n.n.n.n.n.h.+.6.n.c.n.n.n.c.n.1.@.n.n.n.n.n.n.",
"n.n.n.n.n.n.n.n.n.n.n.n.n.c.n.d.l.n.c.c.c.c.n.n.n.n.n.n.n.n.n.n.p.t.n.b.n.n.n.n.",
"n.n.n.n.n.n.n.c.p.f.d.y.i.i.a.{ 3.n.n.n.n.n.l.p.l.n.c.n.n.n.c.c.n.n.n.n.n.n.n.n.",
"n.n.n.c.n.n.n.k.1.e.c.n.n.n.n.l.c.n.u.9.=.X.*.&.p.n.n.n.z.n.n.n.n.c.n.n.n.n.n.n.",
"n.n.n.n.n.e.f.n.n.n.n.n.n.n.n.n.n.n.0.O.! Y 1.n.n.q.3.7.,.3.p.d.c.n.c.n.n.n.n.n.",
"n.n.n.9.Q 3.n.n.n.n.n.n.n.n.n.n.n.n.n.n.n.n.u.s.n.6.%.i.n.w.{ / -.n.n.n.n.n.n.n.",
"n.n.n.:.^ a.n.n.n.n.n.n.n.n.n.n.n.n.n.c.c.c.z.w.0.n.n.n.n.n.p.0.3.#.e.n.n.n.n.n.",
"n.n.n.z.n.n.c.n.n.n.n.n.n.n.n.n.n.n.n.n.n.c.n.y. .k.n.n.c.c.n.n.n.9.J Q z.n.n.n.",
"n.n.n.n.n.n.n.n.n.n.n.n.n.n.n.n.n.n.n.n.n.n.n.c.y.7.6.p.n.n.n.c.c.n.V $ e.n.c.n.",
"n.n.z.z.n.u.r.k.h.n.n.n.a.c.n.n.n.n.n.n.n.n.c.c.n.^ > H 7.s.k.n.c.n.,.K  .f.n.c.",
"n.n.n.j.J q f V w.n.c.n.a.c.n.n.n.n.n.n.c.n.n.n.d.T t b J J ! w.n.c.n.w.1 ..n.c.",
"n.n.n.k.T V U 5.n.b.n.n.n.n.z.c.c.c.c.c.n.n.c.i.] F Z G H G B Y w.n.n.i.N R f.n.",
"n.n.n.n.n.n.n.n.n.n.n.n.c.n.<.n.n.n.n.n.s.$.{ ~ G G K S M V Z V %.n.n.n.s.m M h.",
"n.n.n.n.c.c.c.c.n.n.n.n.n.f.Z / `  .-.=.' V n S G G H v 5 w m H R =.z.n.n.M < a.",
"n.n.n.n.n.n.n.n.n.n.n.c.n.q.1 s v N M n V D H H H J r > { ~ > s x K d.n.z.v 3 a.",
"n.n.n.n.n.n.n.n.n.n.n.n.n.h.;.l.c.k.R h G G H L V 8 + Z n.@.  5 C E h.n.z.x 4 a.",
"n.n.n.n.n.n.n.n.n.n.n.n.n.n.n.n.c.n.) i U V 3 & : p ( s.n.6.e 6 u I h.n.n.m : p.",
"n.n.n.n.n.n.n.n.n.n.n.n.n.c.z.n.n.n.S ; y h L M A 0.n.n.z.n.9.4 O n d.n.s.H L k.",
"n.n.n.n.n.n.n.n.n.n.n.n.n.n.n.:.) ! , @ o A k.k.f.n.c.n.n.n.:., # ^ n.s.P ) h.n.",
"n.n.n.n.n.n.n.n.n.n.n.n.c.7.a.n.a 9 2.3.=.p.n.n.n.c.n.h.s. .; 9 #.n.n.4.k -.n.c.",
"n.n.n.n.c.n.n.n.n.n.n.n.s.g ( s.S W n.n.n.n.n.c.c.n.3.f q 2 3 x 4.n.,.J ;.n.n.n.",
"n.n.n.n.n.n.n.n.n.n.n.n.c.n.6. .f.n.c.c.n.p.k.n.n.@.i * * g H p s  .~ S h.n.c.n.",
"n.n.z.%.} =.k.n.n.n.n.n.c.c.n.n.n.n.n.n.n.@.0.n.s.q X - $ % @ > _ r.y. .d.n.n.n.",
"n.n.c.0.5.e.e.s.n.n.n.n.n.n.z.n.t.3.n.c.n.e.s.n.c.W 2 M ~ T P -.n.n.n.p.z.n.n.n.",
"n.n.n.n.n.n.8.1.n.c.n.n.] y.n.q.Y 8.n.n.z.n.n.c.n.>. .n.n.n.n.n.c.c.n.n.n.n.n.n.",
"n.n.n.c.z.n.8.Z u.n.n.l.- ;.n.Y n n.n.t.P i.n.c.n.7.4.n.z.z.x.c.n.n.n.c.n.n.n.n.",
"n.n.n.n.n.n.k.d ! n.z.n.o.,.r.v V n.n.0.c u.n.c.n.c.z.n.z.v.n.n.n.n.n.n.n.c.k.n.",
"n.n.n.n.n.c.n.u.) f.n.z.n.} . = E l.z.k.u.c.n.n.n.n.n.u.| k.n.n.n.n.n.c.n.5.O.z.",
"n.n.n.n.n.n.c.n.n.n.n.z.n.=.e M z j ,.n.n.n.n.n.n.n.l.6.[ k.n.n.n.n.n.n.n.z.l.n.",
"n.n.n.n.n.n.n.c.n.g.L , l S F n v -.c.n.c.n.n.c.n.9. .[ _ l.n.n.n.n.n.n.n.n.n.n.",
"n.n.n.n.n.n.n.n.n.n.d.' q 0 7 S t.n.n.n.n.n.n.n.n.t.2.3.4.z.n.n.n.n.n.n.n.n.n.n.",
"n.n.n.n.n.n.n.n.n.n.n.n.h.s.a.k.n.c.n.n.n.n.n.e.w.n.n.n.n.n.n.n.n.n.c.p.z.n.n.n.",
"n.n.n.n.n.n.n.n.n.n.n.c.n.n.n.n.c.n.n.n.n.c.n.,.>.n.z.c.c.n.n.n.n.n.z.+.s.n.n.n.",
"n.n.n.n.n.n.n.n.n.n.n.n.c.c.c.b.n.n.n.n.n.n.n.z.h.n.n.n.n.n.n.n.n.n.n.z.c.n.n.n.",
"n.n.n.n.n.n.n.n.n.n.n.n.n.n.n.n.n.n.n.n.n.n.n.n.n.n.n.n.n.n.n.n.n.n.n.n.n.n.n.n.",
"n.n.n.n.n.n.n.n.n.n.n.n.n.n.n.n.n.n.n.n.n.n.n.n.n.n.n.n.n.n.n.n.n.n.n.n.n.n.n.n.",
"n.n.n.n.n.n.n.n.n.n.n.n.n.n.n.n.n.n.n.n.n.n.n.n.n.n.n.n.n.n.n.n.n.n.n.n.n.n.n.n."
};
