/* XPM */
static char *result[] = {
/* columns rows colors chars-per-pixel */
"40 40 55 1 ",
"  c #003E01",
". c #024403",
"X c #044905",
"o c #0C4B05",
"O c #044E08",
"+ c #0E4E08",
"@ c #114E06",
"# c #124F09",
"$ c #0F5107",
"% c #0E520A",
"& c #115107",
"* c #155309",
"= c #1A560A",
"- c #165A0B",
"; c #1C5B0B",
": c #1E5E10",
"> c #215E0C",
", c #205F10",
"< c #1E600C",
"1 c #24620D",
"2 c #29660E",
"3 c #2E6C0E",
"4 c #316E0F",
"5 c #32710F",
"6 c #246511",
"7 c #2C6B11",
"8 c #316E10",
"9 c #2E7113",
"0 c #347312",
"q c #387714",
"w c #367A15",
"e c #3B7C15",
"r c #337618",
"t c #367919",
"y c #3A7D1A",
"u c #3E8117",
"i c #3E831A",
"p c #418317",
"a c #42851B",
"s c #458A1C",
"d c #498E1D",
"f c #4C931E",
"g c #4F981F",
"h c #50971F",
"j c #529C1F",
"k c #468A20",
"l c #488E20",
"z c #4D9521",
"x c #4F9920",
"c c #519721",
"v c #539E21",
"b c #539C28",
"n c #55A023",
"m c #59A325",
"M c #59A228",
/* pixels */
"4444444444443ecmjvhq01.*dnjngu52@@qMcq44",
"4444443334434ejnjvhq71.$fvjnju33##ebcq44",
"444esaassspw3egjjvf2;9tifvjnju332>4dp044",
"443sjjjjjjgu3evnjvz=.rxvvvvnju3544445444",
"443svjvvvnju3ezvvvd<.tnnvvvche4844444444",
"444qpsjjvvjdsitrsnfiudjjjvft004444444444",
"444430cvnvvxnkOXyMnnjjjjnnp%.28444444444",
"444440fcgvjnnk%+tbxnjjnjxvy=@28444444444",
"44444488pcbcns%+69wgnxvvt97>274444444454",
"444343= 8cmnnk%o+.-fnvnc,.=8884444444444",
"444443=orzvjns-$-&6fnxvz6+>344444q444q44",
"44444422639sngiiiisgmi732224344444444444",
"44444444>.@innvnnvvjnrXX2344444544404555",
"444444442>6snjvvnnnjny;18q44448444444554",
"44444444qadhnjjjgjjjnfssddp0445445455454",
"44444432pbbvjvnnmnnvvvvvmMd0445445444544",
"545555wwsnnjnxzzzzzvvvnvcca0344444554445",
"f54335sffjjjnk6:6:9zvjjj7:23448444444544",
"f03535gmnvxnnk..X.-dvjvv: =3444444444544",
"sewe5ugjgfzxnk1;;-1schhl6*23444544444444",
"3sxxggvni<<sngzze27qqq0q7234444444444444",
"<znvnjnjiX%injnba34334444874444433444444",
"0gvjjjnji67dnjfsu444444445444430ee044440",
"fjnjnjjnjffxnfe5044444444444444qfcp4444e",
"nnbnvjnjvnvnjf53343888453373443evva4443u",
"aaakfdjjvjjvnfuuuyw32347eeeue010vby13epd",
";;-24ehnvvvnjvjjjvk=@130zvvvz7.7znrO>svj",
"o..;20hjvvvvvvnvvvz=o>30znvnv9.6xnr.;fnj",
">26wuupakyszbxaisdp>=234uidvxy6rgni6wfng",
"tvnjjh1o@o-ink*o28888854;.9xbvvnjnvnjvvn",
"wcvvnz>.@o-aMk&o18844453=.9xmvnjjjjnvvnn",
"0ssfnxy76@*tly>;284444531=6wufvvnjvvgiwy",
"504svvvbu*@2044444444444886*-abvvjvvz<+=",
"443svjvMe=#244444444444488>@%anvvjjvz-.$",
"444epsspq>>24444444444442>>#=anvjjjnxyt7",
"444444444444444444444444*o@o%unvnnjnnxxt",
"448888448444444444408888=#=#=knjjjvvvvni",
"0psssssse8444444545ad0>>tyyyyznjjnsrtznd",
"ehvvvvmmd034444443ecbe.#lmbvbvvjngw -lnn",
"ehvvvjvvd044444443ehmto*zbvnvvvvnvt.;lMx"
};
