/* XPM */
static char *e42716e282ec400deb741be93c108f45BqV83Kg2h2QAZKXf[] = {
/* columns rows colors chars-per-pixel */
"40 40 215 2 ",
"   c None",
".  c #000000",
"X  c #0C0301",
"o  c #000A0E",
"O  c #160000",
"+  c #190000",
"@  c #1F0A09",
"#  c #1F1511",
"$  c #00181A",
"%  c #250100",
"&  c #2A0000",
"*  c #370B00",
"=  c #23180E",
"-  c #27140A",
";  c #241912",
":  c #2B1D15",
">  c #2E1E18",
",  c #341E15",
"<  c #3E2303",
"1  c #2E221B",
"2  c #26261F",
"3  c #352115",
"4  c #3B2316",
"5  c #32241C",
"6  c #3B251B",
"7  c #3D291F",
"8  c #322D1E",
"9  c #312621",
"0  c #352A23",
"q  c #3C2C25",
"w  c #3C2E28",
"e  c #3F3A2B",
"r  c #442B1C",
"t  c #482C1C",
"y  c #42251D",
"u  c #502F1D",
"i  c #4E301E",
"p  c #54331E",
"a  c #59331F",
"s  c #422C22",
"d  c #552F20",
"f  c #453123",
"g  c #4C3222",
"h  c #44342A",
"j  c #4C352A",
"k  c #4C392D",
"l  c #543322",
"z  c #5B3522",
"x  c #5D3924",
"c  c #543A2A",
"v  c #5C3C2B",
"b  c #573B27",
"n  c #4F3D30",
"m  c #513E32",
"M  c #623B25",
"N  c #653D29",
"B  c #5E402A",
"V  c #4D4132",
"C  c #4A4A30",
"Z  c #554135",
"A  c #594336",
"S  c #554C3A",
"D  c #5A4838",
"F  c #5C553D",
"G  c #63422D",
"H  c #6B442C",
"J  c #6A482C",
"K  c #6A4324",
"L  c #76492F",
"P  c #75482E",
"I  c #7C5328",
"U  c #654432",
"Y  c #6A4631",
"T  c #6D4A31",
"R  c #6E4D39",
"E  c #64483A",
"W  c #734C33",
"Q  c #7A4F36",
"!  c #724D3E",
"~  c #60563F",
"^  c #775134",
"/  c #7B5336",
"(  c #75503A",
")  c #7B5339",
"_  c #383F44",
"`  c #5D4F41",
"'  c #554A49",
"]  c #45595E",
"[  c #50545B",
"{  c #655A42",
"}  c #6B5D45",
"|  c #635646",
" . c #7A5A47",
".. c #6A604A",
"X. c #686049",
"o. c #73684D",
"O. c #73654A",
"+. c #7B6D52",
"@. c #766656",
"#. c #7E7053",
"$. c #60676B",
"%. c #6D7070",
"&. c #845436",
"*. c #835539",
"=. c #85593B",
"-. c #8B5A3D",
";. c #8B573A",
":. c #945F3F",
">. c #82552B",
",. c #97612A",
"<. c #AA7235",
"1. c #895E42",
"2. c #835C4A",
"3. c #855B44",
"4. c #88664B",
"5. c #946240",
"6. c #986748",
"7. c #876656",
"8. c #936651",
"9. c #966D55",
"0. c #837255",
"q. c #8C7B5C",
"w. c #86785B",
"e. c #987259",
"r. c #A36D49",
"t. c #AC724C",
"y. c #A5704A",
"u. c #A27055",
"i. c #A3745B",
"p. c #A9795D",
"a. c #B07A5F",
"s. c #8E7F60",
"d. c #947663",
"f. c #9A7C66",
"g. c #A87D64",
"h. c #B67F61",
"j. c #BD851C",
"k. c #C98F30",
"l. c #DFA23E",
"z. c #908060",
"x. c #9E9278",
"c. c #AD866F",
"v. c #A6816D",
"b. c #B38165",
"n. c #BB8365",
"m. c #BD876A",
"M. c #BC8A6B",
"N. c #B3856B",
"B. c #AA8774",
"V. c #AC8B76",
"C. c #B28B73",
"Z. c #BA8E73",
"A. c #BB927A",
"S. c #B69078",
"D. c #A5997E",
"F. c #C48B6D",
"G. c #CA906F",
"H. c #CB9575",
"J. c #C89578",
"K. c #D29677",
"L. c #D39975",
"P. c #D19779",
"I. c #D59E7C",
"U. c #DD9E7B",
"Y. c #C5AB7F",
"T. c #DBA17E",
"R. c #798287",
"E. c #999580",
"W. c #A88E82",
"Q. c #AC9C84",
"!. c #A79D84",
"~. c #BF9782",
"^. c #ADA29E",
"/. c #BAAE94",
"(. c #BCB39A",
"). c #B5B9B9",
"_. c #C69C83",
"`. c #C79C85",
"'. c #D99F81",
"]. c #CDA58B",
"[. c #C8A78B",
"{. c #D4A285",
"}. c #DBA382",
"|. c #DBAA8C",
" X c #DAA789",
".X c #CCA990",
"XX c #D4AC93",
"oX c #D9B697",
"OX c #CAB694",
"+X c #E2A684",
"@X c #E2A884",
"#X c #E9AA84",
"$X c #E4AC8B",
"%X c #E9AE8C",
"&X c #EDB18E",
"*X c #F5B58E",
"=X c #F8B88F",
"-X c #E3AF90",
";X c #E4B495",
":X c #E9B393",
">X c #F5B792",
",X c #F5B995",
"<X c #FABA95",
"1X c #E1BBA6",
"2X c #FDC19C",
"3X c #DFD0AF",
"4X c #DDCCB8",
"5X c #DED0B2",
"6X c #DCCBAA",
"7X c #FBCDB1",
"8X c #EAD9B6",
"9X c #FCC9AA",
"0X c #E7DAD2",
"qX c #F3E5C3",
"wX c #F4F4F0",
/* pixels */
"                                      y t t t t x                               ",
"                          7 t i p z x M M N a H Y :.=.                          ",
"                      *.^ a M M M M x M M l t ( b J t.B                         ",
"                      6.P a x x z z z z t q T / B i 4.*.                        ",
"                      :.M x x x x z u 6 l ( ( / B J U /                         ",
"                    g r.H z x z a g c H ( ^ W W U U W U                         ",
"                    g 6.K t t y 3 i c b i g g g g s g v 3                       ",
"                    = f : ; > 5 1 3 : = : : : : : 1 3 c #                       ",
"      =.W M z x z l y , 4 , . . = s b N G G G U K G v G b Y                     ",
"  W t.=.z z x z M d I >.M b ( Y b c c x N G T T T T W W W ) ) ) / *./ ^ ^ U 1   ",
"  r.t.H p z z x z a <.,.K u.F.h.a.u.8.8.3.2.3.3.) ( R ( R g M H U 7             ",
"  U t.:.z x M z 4 K ,.I 4.K.*X*X>X&X#X+X'.J.G.G.J.P.L.+XJ.l / J                 ",
"    G 1.W M a b i.9.K J g.g.9.u.a.n.H.+X;X X*X*X$X}.H.a.3.                      ",
"          t % g.n.8.2.W p.u. .' [ $._ O * M.<X-XN.y & %.w.                      ",
"              b.n.1.8.p.G.+X%X0XwX).] %.^.U.<X;XL.D.] R.4Xd.                    ",
"              7.m.i.i.F.=X=X*X<X7X].A.1X9X#X#X<X].;XoXZ.:X7.                    ",
"                    8.h.'.&X%X$X#X&X XT.}.{.C.A.S.T.$X;XB.                      ",
"                      4.b.].XXXX.X.X X$X'.'.J.J.+X>X;XW.                        ",
"                         .8.B.A.`.~.[.]. X'.].|.|.`.B.                          ",
"                        $ 0 + q m Q.d.i.f.Q.@...|                               ",
"                      0 D A Z n X !.!.H.C.E.O ; ;                               ",
"                    5 m Z Z h m h /.4Xf.[./.* Z q 0                             ",
"                    m m m s q j ' 8X8Xx.6XOXO k 7 :                             ",
"                  h A m h - y j S 8XqX/.5X!.@ k 7 5                             ",
"                  j Z A j 9 q h V D.oXY.OX+.@ h 1 j                             ",
"                  m m n s s h h k O j.l.k.- w s 7 A -                           ",
"                  9 m E j . 2 h h #.0.4.0.V 5 h o 9 E 5                         ",
"                  '.$X#X}.M.9...o.z.q.w.w.+.+.} e.'.+Xb.`.                      ",
"                B.2X>X*X=XT.2.o.q.X.w.#.0.q.q.{ T.2XI.Z.`.                      ",
"                g.<X>X>X,XJ.. z v 8 F e { w.q.o.b.L.F.g.e.                      ",
"                4.<X<X<X>X$Xe.F }       n 0.q.+.O.N.C.].P.                      ",
"                  f.C.g.d.} +.q...        } w.0.` C.v.f.                        ",
"                          C +.q.}         } #.q.S                               ",
"                          { +.q.}         { 0.q.~                               ",
"                          | 0.z.S         ~ #.s.S                               ",
"                          S } o.v         V } } U H ^ /                         ",
"                        l Q L L *.1.r.t.5.N L L &.-.:.t.t.*.                    ",
"                        b ;.*.=.*.&.&.;.5.*.L =./ &.&.=.1.5.J                   ",
"          . . . . . X . , b v p v T T T N G s l s v H H H N l . X .             ",
"                                                                                "
};
