/* XPM */
static char *result[] = {
/* columns rows colors chars-per-pixel */
"40 40 224 2 ",
"   c #010000",
".  c #020705",
"X  c #150000",
"o  c #000011",
"O  c #111510",
"+  c #2B0203",
"@  c #2A1705",
"#  c #380E13",
"$  c #2E2A0B",
"%  c #391523",
"&  c #082123",
"*  c #1C2828",
"=  c #28292E",
"-  c #2C3826",
";  c #383833",
":  c #6D1418",
">  c #641B1B",
",  c #4B2A0A",
"<  c #521F24",
"1  c #4C2B25",
"2  c #46392B",
"3  c #493638",
"4  c #583838",
"5  c #6E312B",
"6  c #064803",
"7  c #0C4E07",
"8  c #0F5305",
"9  c #14530A",
"0  c #145409",
"q  c #155A0C",
"w  c #1B5A0C",
"e  c #185410",
"r  c #235F0D",
"t  c #235B1C",
"y  c #1E630E",
"u  c #25650E",
"i  c #29660E",
"p  c #2D6B0E",
"a  c #316E0F",
"s  c #32710F",
"d  c #266712",
"f  c #276616",
"g  c #2B6A12",
"h  c #326F10",
"j  c #306D1E",
"k  c #297012",
"l  c #337211",
"z  c #387416",
"x  c #357A15",
"c  c #3A7B15",
"v  c #3B741B",
"b  c #3A7B19",
"n  c #2D4525",
"m  c #37512C",
"M  c #374633",
"N  c #2D6521",
"B  c #3F7820",
"V  c #3A6C30",
"C  c #417C1D",
"Z  c #425633",
"A  c #4E5434",
"S  c #6B4E3B",
"D  c #457929",
"F  c #48643A",
"G  c #536C35",
"H  c #477735",
"J  c #53773B",
"K  c #736637",
"L  c #223548",
"P  c #293C51",
"I  c #355F64",
"U  c #356268",
"Y  c #484944",
"T  c #555A43",
"R  c #53514C",
"E  c #484752",
"W  c #61494A",
"Q  c #685845",
"!  c #764E5C",
"~  c #6E5E5B",
"^  c #566949",
"/  c #577947",
"(  c #50734B",
")  c #697451",
"_  c #5A5869",
"`  c #506972",
"'  c #6D6462",
"]  c #6C7667",
"[  c #717865",
"{  c #726471",
"}  c #9C3918",
"|  c #8A2D2C",
" . c #913C3E",
".. c #AA393F",
"X. c #B7393D",
"o. c #C83B39",
"O. c #9E6F1E",
"+. c #D0463B",
"@. c #8C3E42",
"#. c #A73C40",
"$. c #BB3740",
"%. c #C33D42",
"&. c #8D5A4B",
"*. c #8A5957",
"=. c #B74646",
"-. c #B85849",
";. c #86654A",
":. c #8A6A58",
">. c #94665A",
",. c #8E7C54",
"<. c #98755D",
"1. c #A66F56",
"2. c #896F6B",
"3. c #9A7868",
"4. c #AF746F",
"5. c #BC7965",
"6. c #C54545",
"7. c #C84645",
"8. c #CD4C45",
"9. c #D14F47",
"0. c #D14F48",
"q. c #C3544A",
"w. c #D3534A",
"e. c #D75748",
"r. c #DD5B4C",
"t. c #C04B5A",
"y. c #E45C4A",
"u. c #DE614F",
"i. c #E3614E",
"p. c #EA644B",
"a. c #EC664A",
"s. c #F06347",
"d. c #E56451",
"f. c #E76A54",
"g. c #EC6B53",
"h. c #F06E55",
"j. c #EE7056",
"k. c #F27157",
"l. c #F87456",
"z. c #CB7863",
"x. c #D8776B",
"c. c #3E8117",
"v. c #3E821A",
"b. c #42851A",
"n. c #458B1C",
"m. c #498E1D",
"M. c #4C931E",
"N. c #529D1F",
"B. c #47872B",
"V. c #4C9321",
"C. c #4F9920",
"Z. c #519622",
"A. c #539D21",
"S. c #55982B",
"D. c #4D8532",
"F. c #55863B",
"G. c #5C9C37",
"H. c #609B3F",
"J. c #55A023",
"K. c #5BA22A",
"L. c #5EA431",
"P. c #64A639",
"I. c #598845",
"U. c #5F894E",
"Y. c #618C46",
"T. c #628B4C",
"R. c #659649",
"E. c #778859",
"W. c #6B9154",
"Q. c #6BA244",
"!. c #75AA4E",
"~. c #74AC51",
"^. c #7BAB56",
"/. c #658063",
"(. c #788F6D",
"). c #799466",
"_. c #BB8C3F",
"`. c #8B9158",
"'. c #A2825D",
"]. c #919071",
"[. c #A78465",
"{. c #B28E6C",
"}. c #BB9475",
"|. c #99A968",
" X c #84B361",
".X c #A4A97A",
"XX c #D29F79",
"oX c #51718C",
"OX c #6E758D",
"+X c #947385",
"@X c #B27089",
"#X c #D07D81",
"$X c #718497",
"%X c #4A8AA0",
"&X c #7093B2",
"*X c #729CC1",
"=X c #8E9291",
"-X c #BA9085",
";X c #AFB39A",
":X c #9793A2",
">X c #A19EA8",
",X c #92A6B7",
"<X c #AEA3A9",
"1X c #CC978F",
"2X c #EC998D",
"3X c #DAA989",
"4X c #CFAB91",
"5X c #E0B899",
"6X c #D6B3A3",
"7X c #C5ACBA",
"8X c #EBADA3",
"9X c #F4CD9D",
"0X c #DFC2AF",
"qX c #CDC3BA",
"wX c #F0CBB3",
"eX c #97A4C1",
"rX c #B1B3C8",
"tX c #BEC4D7",
"yX c #CEC8D2",
"uX c #F7D7C4",
"iX c #E8D8D6",
"pX c #FFE3C6",
"aX c #DDE8EC",
"sX c #E6E8F2",
/* pixels */
"a a a a h a s a a a a s a a s s b.J.Z.c a c C.N.N.J.J.N.J.J.N.J.J.A.A.A.A.v.w 7 ",
"a a a a a s a s a a s a a l c c.m.J.Z.c.a x v.B.M.A.N.N.N.N.m.m.n.c.n.C.Z.n.i w ",
"a a a a a a a a a a a s l c V.Z.N.N.N.c s u q q x Z.J.J.N.M.x s u 0 y n.A.n.l i ",
"a a a a h l a s s l s s a c C.A.J.K.A.c l g q q x N.J.A.J.M.s s r 9 w b.A.V.z p ",
"s a s c b.b.b.b.b.n.c.x p c A.P.~.~.~.R.I.I.I.Y.P.K.N.N.J.M.l s i r i z n.c h a ",
"a a l m.A.Z.N.N.N.N.N.B.B.G.^.|.'.[.[.<.:.3.[.'.`. X!.P.J.M.l s h a a a s l h a ",
"a a l M.Z.N.A.J.J.P.!.E.`.].-X{.o.o.+.o.o.o.o.o.q.}..X`.!.S.s s l a a a a a a a ",
"a a s c c.n.N.N.L.^.{.=.X.=.=.w.p.p.i.i.i.i.d.p.d.q.X.=.].Y.D a h a a a a a a a ",
"a a a a a c Z.P. X`.1.w.y.e.e.y.j.j.g.g.j.g.g.h.f.r.y.e.&.[ U.D h a a a a a a a ",
"a a a a a b S.W.].&.-.f.h.g.g.g.f.a.g.g.g.g.f.f.f.g.k.g.-.&.) F.D h a a a a a a ",
"a a a a s l H ) 5 -.g.j.h.h.g.h.g.g.g.h.g.g.g.h.h.g.f.g.h. .$ T F.v a a a a a a ",
"a a h h k x ( ]  .u.k.g.d.g.g.g.g.g.g.g.g.g.g.f.g.g.d.h.l.} O ^ W.D a a a a s a ",
"a a h h z H ) :.-.f.d.w.0.0.0.0.9.9.9.9.8.w.9.8.e.d.a.i.2Xx.5 4 ) / C a a s a a ",
"a h a a C G A =.a.u.w.7.6.6.7.6.7.7.7.7.7.7.7.7.8.w.d.2XiXiX4.1 Z / D.a a l a s ",
"h h a a v G S -.j.0.7.r.d.i.i.i.i.i.i.i.i.i.y.p.e.o.#XiXaXsX7X3 - / F.z a z a a ",
"a h a a v G 5 3.4Xx.y.d.k.h.g.k.g.h.k.g.h.h.h.h.s.e.8XsX,XrXrXE - J J h a a s s ",
"a a a a z C K $X:Xx.g.p.g.g.g.g.g.g.g.p.g.g.g.d.p.s.8XyXoX` =X' ^ I.D a a l s a ",
"a a a a a C H.] = q.h.h.f.d.g.g.f.g.d.g.d.g.g.k.s.y.2XtX&XR Y [ E.D.z l a a s a ",
"C a a a a C H./ . | w.g.g.g.g.g.g.g.h.g.g.g.g.g.y.8.4.rXeX_ * ^ T.D a l l a a a ",
"b.a a a p C R.E.1 # | 8.r.y.f.k.h.h.g.h.k.d.w.0.0.%.t.@X+XE 2 ) F.v l h a a a a ",
"b.l s c s b.Q.E.1 2 S  ...$.0.i.y.r.r.r.i.0.%.$.$.X...| + @ 4 ,.Y.v l h h a a a ",
"c m.M.m.m.C.G.J X ;.>.Y 3  .$.6.%.%.%.%.6.%.$.#.#.@.3 R 3.;.2 ^ I.v h l h a a a ",
"l Z.N.N.A.J.K.I.( Q S W OX+X2.>.z.z.x.5.*.2.@X! 4 >.:.W 4X1.  m F.v h h h a a a ",
"c.N.A.N.J.A.J.P. X* O ! <X,XI A 5X5X9X4XY ` eX>X].XX5.< :.].=X].T.b.z l h a s a ",
"M.J.A.A.A.N.K.~.).; X *.7X>XQ :.uXuXpX0X, { yXqXXX5.*.  & =XqX;X~.S.B.x k h s s ",
"A.J.J.A.J.K.P.U.M :.}.{.3.>.4.3XuXuXuXwX5X6X0X3., % O O K ,.] /.R.K.C.c.l h p p ",
"v.v.v.m.m.V.P.Z . {.9X3X&.5 S >.1XwXwX5X1X1X<X:X` * .   _.O.. n R.L.V.x i g c b.",
"q w w g l b.L.Y.m ;.{.{.>.4 o % *.-X6X3X{.+XrXyX=X3 o P ;.K T ( I.S.V.k 9 g m.Z.",
"8 8 8 i a c Z.L.R.$ + 3 W >.6XiX;X= ~ 6X0XyX7X$XR $ oX%X* T (.( B.C.V.d 8 k M.J.",
"d j l c.b.b.x b D.H m . % 1.9XwX4X    >.3.[ Q $ ; OX*X` . M W.D.B.A.C.v.k v.M.J.",
"c.Z.C.C.Z.n.q 9 8 N H F 2 4 Q ;.Q ` OXOXoXoXoXI U %XoXO R (.Q.K.A.A.A.N.N.N.J.N.",
"b.Z.A.A.J.V.q 9 9 6 N T.m .   X + oX*X&X&X&X&XOX' ~ ; . (.^.L.J.N.J.N.N.J.N.C.M.",
"l c.b.M.J.M.b.b g 9 t H n + | $.| L P L L L L 4 6.=.>   /.F.J.A.A.J.N.N.J.v.v.k ",
"s a s M.A.A.A.Z.z 0 9 B H A 5 : > A G A Z ^ ^ 1 : > 4 ^ V j C.A.A.N.J.N.J.v.q 7 ",
"a a l m.N.M.M.Z.z w w g D / Z n m W.F.H B.F.T./ n M ( / t f C.N.J.N.N.J.N.v.d q ",
"a a s c c c c z l i i p l B H H D D v z z z D D H V V f 9 d V.A.N.N.N.N.C.V.V.n.",
"p p a p p i p p p h h h p l l v z a a a p a l l N e 7 6 6 y C.J.J.N.A.J.J.J.J.C.",
"l c c C c c c c l h a a h h a h a a l c c z g i d f f f f x M.J.N.N.C.V.n.V.C.C.",
"b.M.Z.M.M.N.M.Z.b.l a a a a h h h a l n.Z.b.w 0 j B.V.V.B.V.A.N.J.J.M.k q k V.J.",
"b.Z.A.A.N.N.A.A.n.s h a a a a a l h l M.A.v.q 8 l A.J.J.J.A.N.A.N.J.V.y 7 y V.A."
};
