/* XPM */
static char *result[] = {
/* columns rows colors chars-per-pixel */
"41 40 238 2 ",
"   c #080704",
".  c #16100C",
"X  c #0B1315",
"o  c #2C1711",
"O  c #122E09",
"+  c #1A221A",
"@  c #302D18",
"#  c #15252F",
"$  c #252C29",
"%  c #382925",
"&  c #2B3728",
"*  c #373928",
"=  c #2A2B35",
"-  c #5D1B1E",
";  c #731818",
":  c #672317",
">  c #432C28",
",  c #4D362F",
"<  c #4A373A",
"1  c #563334",
"2  c #692A25",
"3  c #693B39",
"4  c #0A4A07",
"5  c #114E09",
"6  c #10510A",
"7  c #14530A",
"8  c #145A0B",
"9  c #1B5B0C",
"0  c #215E0C",
"q  c #2C4817",
"w  c #1D630D",
"e  c #24640F",
"r  c #28670F",
"t  c #2D6B0E",
"y  c #316E0F",
"u  c #32700F",
"i  c #276816",
"p  c #2A6B14",
"a  c #326F10",
"s  c #396F1F",
"d  c #2D7213",
"f  c #347212",
"g  c #377716",
"h  c #3B7C15",
"j  c #347519",
"k  c #3C761C",
"l  c #3C7C1A",
"z  c #384B29",
"x  c #355131",
"c  c #2C6322",
"v  c #386B22",
"b  c #3D7623",
"n  c #3C6A33",
"m  c #3C7230",
"M  c #434734",
"N  c #4F4E3A",
"B  c #734D31",
"V  c #437A24",
"C  c #457B29",
"Z  c #4A7D2C",
"A  c #466639",
"S  c #4C7A34",
"D  c #52753D",
"F  c #1C3A5B",
"G  c #2A3445",
"H  c #4E3B44",
"J  c #763F41",
"K  c #1F455B",
"L  c #374A4B",
"P  c #365270",
"I  c #514F49",
"U  c #475A44",
"Y  c #6D4D4A",
"T  c #7D4D48",
"R  c #6A5659",
"E  c #536A46",
"W  c #577447",
"Q  c #4D6753",
"!  c #6D774E",
"~  c #676458",
"^  c #796658",
"/  c #6A7955",
"(  c #7A7957",
")  c #4B5866",
"_  c #6E5366",
"`  c #53686D",
"'  c #6C706C",
"]  c #6A6A77",
"[  c #80171D",
"{  c #971B23",
"}  c #862D31",
"|  c #9A363C",
" . c #A22E2A",
".. c #A63A3B",
"X. c #B5373A",
"o. c #C43637",
"O. c #894538",
"+. c #A2613B",
"@. c #D54A3B",
"#. c #C65438",
"$. c #953D40",
"%. c #AB3A42",
"&. c #BB3A40",
"*. c #854A48",
"=. c #954449",
"-. c #8A5348",
";. c #91564E",
":. c #96535B",
">. c #B74745",
",. c #B75749",
"<. c #AA5450",
"1. c #A55A57",
"2. c #93684C",
"3. c #966857",
"4. c #977559",
"5. c #A66958",
"6. c #AF715B",
"7. c #965A79",
"8. c #AB5765",
"9. c #867A6C",
"0. c #B37570",
"q. c #C64242",
"w. c #C94745",
"e. c #CD4B46",
"r. c #CF4E48",
"t. c #D24D43",
"y. c #D64F47",
"u. c #CA5846",
"i. c #D55649",
"p. c #DE5A4B",
"a. c #CB5856",
"s. c #D75E53",
"d. c #E45946",
"f. c #E15B4B",
"g. c #C76A59",
"h. c #D46552",
"j. c #EB654B",
"k. c #E96752",
"l. c #E76852",
"z. c #EC6B54",
"x. c #F07055",
"c. c #C45C6E",
"v. c #CF756F",
"b. c #E17761",
"n. c #F17A62",
"m. c #3E8116",
"M. c #3D821A",
"N. c #408217",
"B. c #428519",
"V. c #458B1C",
"C. c #498E1D",
"Z. c #4B921E",
"A. c #4F981F",
"S. c #519B1F",
"D. c #498529",
"F. c #528F2D",
"G. c #4D9421",
"H. c #4F9920",
"J. c #509621",
"K. c #539D21",
"L. c #54972B",
"P. c #4F8334",
"I. c #58873B",
"U. c #5A9732",
"Y. c #56A023",
"T. c #5AA229",
"R. c #5EA232",
"E. c #62A534",
"W. c #63A03C",
"Q. c #5A8745",
"!. c #5D8A44",
"~. c #5B8151",
"^. c #648C49",
"/. c #69984E",
"(. c #698857",
"). c #77885C",
"_. c #749857",
"`. c #6DA745",
"'. c #76AD52",
"]. c #768F6C",
"[. c #8B945B",
"{. c #85A45D",
"}. c #86996B",
"|. c #8D8C71",
" X c #9B8779",
".X c #A8826A",
"XX c #B6876A",
"oX c #A7877C",
"OX c #B88774",
"+X c #8CAC6D",
"@X c #92A765",
"#X c #C79577",
"$X c #CA9273",
"%X c #EF8973",
"&X c #4F6C8C",
"*X c #72778F",
"=X c #5A7DB6",
"-X c #917790",
";X c #BC6B8B",
":X c #76818A",
">X c #5C81BA",
",X c #6187A1",
"<X c #5184C3",
"1X c #6795D7",
"2X c #898485",
"3X c #958D95",
"4X c #AF938C",
"5X c #A59A94",
"6X c #97A388",
"7X c #BCA596",
"8X c #8A89A6",
"9X c #9799A8",
"0X c #98A0AE",
"qX c #B2AFB2",
"wX c #D19083",
"eX c #E7958D",
"rX c #CCA88E",
"tX c #DBA786",
"yX c #D9B498",
"uX c #E3B295",
"iX c #D0B2AE",
"pX c #F5B5AB",
"aX c #B5C9A5",
"sX c #EDC2A6",
"dX c #F5C8AB",
"fX c #EAC9B5",
"gX c #F0C7B2",
"hX c #F6D5BE",
"jX c #96A8CB",
"kX c #B2B3C7",
"lX c #DBBBC3",
"zX c #B1C1E4",
"xX c #C7C5CA",
"cX c #D5D3D4",
"vX c #E9CCC7",
"bX c #F6DAC6",
"nX c #F7E7CD",
"mX c #E2E1E8",
/* pixels */
"y y y y y u y u y u u f y f h h C.Y.S.h y f B.D.Z.K.Y.Y.S.S.C.C.B.B.V.A.J.V.r 9 f ",
"y y y y y y y y y y a a a l L.R.R.E.T.D.k k i 0 h J.Y.Y.Y.A.h u r 9 e V.K.C.f r y ",
"y y y y f y y u u y u f l U.{.@X@X@X@X[._.).! D P.Y.Y.Y.Y.Z.u u 0 5 9 B.K.C.g y y ",
"y y a h N.N.N.B.N.B.F.I._. X,.X.>.>.>.>.>.>...1.+X+XW.T.S.A.u u r 0 r k B.B.u y y ",
"y y u C.J.S.J.J.A.R.[.3.<.6.p.f.p.d.d.p.p.p.p.h.6.5..X'.T.Z.g y y t t a f a y y y ",
"u y f Z.K.K.K.K.T.'.[.e.y.y.l.x.z.z.z.z.z.z.z.j.@.@.6.}.'.J.g y a a y y u y y y y ",
"y y f h B.V.K.E./.! <.f.z.z.z.x.x.x.x.z.z.x.z.z.x.x.u.-.).^.V y y y y y u u y y y ",
"y y y a y h W.`.q O.h.z.z.z.k.k.l.l.l.k.l.l.l.z.j.x.z.i.*.( ^.V a y y y y y y y y ",
"y y y y y l I.& B #.x.j.y.w.w.w.w.w.w.w.w.w.w.w.e.j.x.j.r.1.4.P.k y y y y u y y y ",
"y y f y a V A   #.%XeXs.t.r.r.r.r.r.r.r.r.r.r.r.e.e.b.eXn. .I W Z y y y y y y u y ",
"y a a y f v x   g.vXiXa.@.z.k.k.k.k.k.k.k.k.k.z.d.@.wXmXpX[ @ n C f y f y u y u y ",
"y y y a p s n $ 5XmXvXb.d.z.x.z.z.x.x.z.z.z.z.x.j.d.eXmXcXR M D C y y u y u u u y ",
"y y a a a k (.2X*XqXlXn.f.k.z.z.k.k.z.k.k.z.k.z.k.f.eXcX,X].6X}.^.D.k y a a y f y ",
"y y a a a Z @X5X= :XiXb.t.f.z.z.k.z.k.z.k.z.z.z.d.t.eXkX&X2X5X|./ ! ^.k a y y a y ",
"y a a y k S ).1 % ` -X>.o.w.f.z.z.z.z.z.z.z.k.p.q.o.8.8X8X3X0.:.;.3.[.^.k u y y y ",
"a a y f f S E   3.~ < | &.&.w.f.z.z.k.z.z.k.y.&.&.&.} G J 4XwXg.u.,.;.).D.u u y y ",
"t y y y j C U   OX6.> < $.$.X.w.y.w.r.r.y.y.@.%.$.J 1 % - 8.v.5.,.&.=./ !.u f a y ",
"g y f y a C P.z ~ -.T ~ I J 8.=.$.%.$.%.| =.1.:.H I ^ T > $.;X3X3X8.3 W I.f u a f ",
"N.u y y y l U._.z o 3..X~ ] 9X*X% -.*.=.3 < *X8X' 6.OX1 % :XxXcXcX9XI A P.u u f y ",
"V.u u y y h K.E./.z B XX#XiXkX] % OXwXwX3.< *XxXyX$X4.   X5X9XkX9X].].^.V y y y y ",
"m.h m.m.m.m.S.K.L.I.A 2.$XsXfX7X.XdXdXdXyXoXiXfXyX3.%   yXyXoX XI * ).D.y f y y y ",
"g A.H.A.A.S.Y.K.D.m ).9.3.$XsXbXbXhXsXgXbXbXhXuX0._ #   7XhXyX4.M x D g y a a y y ",
"j H.Y.Y.Y.Y.R.`.^.A }.aX4X3..XyXfXgXtXuXfXfX7X2.-.-X` o 7XcXoXM U ^.C y y y y y y ",
"m.S.S.S.Y.T.`.+X4.1  XcXcX3X< 1 OXtXtXtXwX3.% N 3X' + OXiX*X& E /.F.m.g a y y u h ",
"Y.Y.Y.Y.Y.E.{. X4X7XoX X2X~ > ; ,.n.g.a.u...[ :.kXkX~ ^ ' G Q Q.F.H.G.M.p u y y M.",
"H.H.H.Y.Y.W.! ; yXnX4X* . - =.>.y.f.c.8.8.=.| :.3X0X]   . (.Q.b V.H.H.l t u u f M.",
"j g g m.B.F._.O.XXrX4.& Y 0.s.f.f.%.3XjX8X) < $     . 2.6X_.p 0 M.G.G.d w t M.V.S.",
"6 6 6 r a B.`.{.@   ~ 6X/ B s.n.,.G G ) ) L G # . B +.O.@XF.9 4 M.H.G.i 7 e C.K.S.",
"7 7 8 t f h J.W.Q.q '.aXE . : : - z ].~ o   . = ) ~ 2.}.`.G.0 8 M.K.G.d 8 d A.Y.S.",
"f l M.V.C.B.p p k b _.].N # X F P &XzXjX&XK G P =XK O 6XR.A.M.l Z.S.H.M.M.M.A.K.S.",
"M.J.Y.K.K.V.8 5 7 n W $ & ` ` &X=X=X>X>X=X=X1X1X<XK x +X`.T.H.Y.S.Y.S.Y.S.K.K.S.Y.",
"N.A.J.J.Y.G.w 9 i q K &X&X` ) G X X X X O P >X1X1X<XP + /.U.K.Y.Y.S.Y.S.K.S.Z.Z.Z.",
"g h N.A.S.S.V.l Z O % 7.0.H + I / E E A ! ' U < 7.;X_   W P.H.Y.H.Y.H.K.Y.V.M.w d ",
"y t u C.S.S.T.K.D.x M ; { 2 z / I.Z C C P.!.D , ; { - I A v G.Y.Y.Y.K.K.H.M.8 4 4 ",
"u u u C.A.Z.A.C.g s n @ @ z D V k f f f g k P.E M o I ~.c i H.K.S.Y.S.K.Y.V.i w 8 ",
"u u u u h f h f f p s v s v k a a a a u u u k V A c n c 7 i H.K.Y.S.K.S.H.H.G.V.d ",
"y y y t t t y t a a a f a a a a a y a t t y y f e 7 7 4 4 0 H.K.S.Y.Y.Y.Y.Y.Y.K.j ",
"f h h l h h l l k a a y t a a a y y f h h f t r i p i i i j H.K.S.S.K.V.V.V.H.H.M.",
"l A.J.J.A.J.J.J.h a y y a a a a y y f V.J.B.9 7 j F.G.G.G.G.K.Y.S.S.H.d 8 d G.K.K.",
"B.S.K.K.K.S.K.K.V.f y a t y y a y y g C.K.B.9 7 f K.K.K.K.K.K.K.Y.Y.G.w 6 w Z.Y.K."
};
