/* XPM */
static char *result[] = {
/* columns rows colors chars-per-pixel */
"40 40 245 2 ",
"   c #000001",
".  c #000E05",
"X  c #0A0F0D",
"o  c #150000",
"O  c #051C17",
"+  c #320304",
"@  c #092717",
"#  c #312E0A",
"$  c #061A22",
"%  c #192F32",
"&  c #272927",
"*  c #372726",
"=  c #2F302B",
"-  c #25353A",
";  c #353B39",
":  c #58130B",
">  c #4F2F15",
",  c #712D1F",
"<  c #711B25",
"1  c #48292A",
"2  c #562728",
"3  c #4D362C",
"4  c #553832",
"5  c #693131",
"6  c #773A3B",
"7  c #0C4C07",
"8  c #0C5407",
"9  c #125409",
"0  c #14570B",
"q  c #1B5B0D",
"w  c #115010",
"e  c #215E0C",
"r  c #20531E",
"t  c #1D6209",
"y  c #23630E",
"u  c #2A680D",
"i  c #2D6B0D",
"p  c #316E0F",
"a  c #32710E",
"s  c #256612",
"d  c #276716",
"f  c #2C6B12",
"g  c #326F10",
"h  c #366A1B",
"j  c #2C7313",
"k  c #337211",
"l  c #367616",
"z  c #3B7B15",
"x  c #3B751B",
"c  c #3B7D19",
"v  c #2B4A30",
"b  c #3C583D",
"n  c #396626",
"m  c #33682A",
"M  c #397324",
"N  c #3B6A36",
"B  c #436319",
"V  c #54482F",
"C  c #464638",
"Z  c #544B3C",
"A  c #465939",
"S  c #664839",
"D  c #784D3B",
"F  c #447B23",
"G  c #467D2A",
"H  c #466738",
"J  c #4C7834",
"K  c #527D37",
"L  c #0D3359",
"P  c #2E3C47",
"I  c #533843",
"U  c #034E5B",
"Y  c #314649",
"T  c #304E71",
"R  c #494A45",
"E  c #495845",
"W  c #4A5459",
"Q  c #565050",
"!  c #664745",
"~  c #675D4B",
"^  c #6F5051",
"/  c #775B54",
"(  c #4C6648",
")  c #576847",
"_  c #4B7542",
"`  c #567748",
"'  c #536453",
"]  c #70684C",
"[  c #776A56",
"{  c #687754",
"}  c #787A56",
"|  c #5E5C6D",
" . c #707169",
".. c #706978",
"X. c #8F0C0F",
"o. c #992B2D",
"O. c #90302F",
"+. c #8A373A",
"@. c #AA373D",
"#. c #BA393A",
"$. c #CB3938",
"%. c #8C543A",
"&. c #8D6C2F",
"*. c #C74E39",
"=. c #C46030",
"-. c #8E3B41",
";. c #B83C41",
":. c #CD3F44",
">. c #92524E",
",. c #9B594B",
"<. c #BD4241",
"1. c #B44E4F",
"2. c #B75347",
"3. c #B54E50",
"4. c #B85A52",
"5. c #8B6B55",
"6. c #98695B",
"7. c #A76A57",
"8. c #B56E59",
"9. c #8A5061",
"0. c #89776B",
"q. c #917171",
"w. c #B36C6E",
"e. c #AA7764",
"r. c #C54744",
"t. c #C94645",
"y. c #C85A47",
"u. c #D6544A",
"i. c #D8584A",
"p. c #DA5A4C",
"a. c #C75553",
"s. c #E35D49",
"d. c #E05D50",
"f. c #CA6953",
"g. c #EC6547",
"h. c #E3604E",
"j. c #E56552",
"k. c #E96551",
"l. c #E46951",
"z. c #ED6C54",
"x. c #F06E55",
"c. c #F27157",
"v. c #D2706E",
"b. c #3F8316",
"n. c #3D821B",
"m. c #418516",
"M. c #42851A",
"N. c #458B1C",
"B. c #498D1C",
"V. c #4C941E",
"C. c #4F9A1E",
"Z. c #529D1E",
"A. c #478725",
"S. c #4D9421",
"D. c #4E9728",
"F. c #509621",
"G. c #539D21",
"H. c #56982B",
"J. c #4E8234",
"K. c #4F8F33",
"L. c #53853A",
"P. c #559632",
"I. c #62983E",
"U. c #55A023",
"Y. c #5BA428",
"T. c #60A635",
"R. c #64A63B",
"E. c #70A63F",
"W. c #5C8946",
"Q. c #568352",
"!. c #64864B",
"~. c #72864D",
"^. c #669949",
"/. c #6B8556",
"(. c #788958",
"). c #6D9359",
"_. c #75995C",
"`. c #6CA645",
"'. c #72A74C",
"]. c #79A957",
"[. c #78B355",
"{. c #6A8266",
"}. c #798D6C",
"|. c #799964",
" X c #8D8456",
".X c #8A955E",
"XX c #AB904D",
"oX c #81B258",
"OX c #898966",
"+X c #8F896E",
"@X c #959C61",
"#X c #B48566",
"$X c #AC8B70",
"%X c #B88C72",
"&X c #93A767",
"*X c #8BA670",
"=X c #B2A172",
"-X c #D2B558",
";X c #CA9170",
":X c #C89679",
">X c #EA8576",
",X c #D9A27D",
"<X c #395788",
"1X c #3D679B",
"2X c #56658E",
"3X c #56749F",
"4X c #787A8D",
"5X c #4C70A2",
"6X c #5574A3",
"7X c #637DB6",
"8X c #A46F8B",
"9X c #CD7781",
"0X c #7C848A",
"qX c #6382B7",
"wX c #5E86C4",
"eX c #5499DC",
"rX c #6690D1",
"tX c #709EE4",
"yX c #848684",
"uX c #958E8A",
"iX c #AB9385",
"pX c #B19392",
"aX c #9CB38F",
"sX c #B0A792",
"dX c #9092AE",
"fX c #A09EA3",
"gX c #B1A9B0",
"hX c #CD9784",
"jX c #DAA687",
"kX c #D1AA93",
"lX c #E4B497",
"zX c #D4B5B2",
"xX c #EAC4AB",
"cX c #E8CCB9",
"vX c #F2CCB6",
"bX c #F4CCB7",
"nX c #828CC6",
"mX c #87ABDE",
"MX c #ADAECB",
"NX c #B7BBC6",
"BX c #C8BEC6",
"VX c #B7C1CC",
"CX c #E6CCCB",
"ZX c #F6DAC6",
"AX c #E0DBD8",
/* pixels */
"p p p p p p p p p p p p p p i i z S.U.N.k k N.G.U.G.Z.U.Z.U.G.U.G.U.U.Z.G.G.n.q ",
"p p p g a k p a p p a a p k z b.N.G.G.B.k k c M.N.S.U.Z.G.Z.C.N.B.M.M.N.F.G.M.u ",
"p p p p p p p g p p g p p a N.C.C.Z.G.N.a u t 8 s N.G.U.U.Z.N.a a y 0 s N.G.B.k ",
"g p p p g p p k a p a a l G P.T.T.T.T.P.A.M d 8 t b.U.Z.Z.Z.N.a i q 9 e M.H.N.l ",
"p p k z M.M.M.m.m.B.P.!.~.(..X@X&X@X@X.X(.~.~.W.K.D.Z.Z.U.Z.N.k p u e s z N.z k ",
"g p a B.G.G.Z.G.`.oX&X&X4.#.$.r.<.<.<.<.$.#.4.=X&X].E.Y.Z.U.N.a p p g g a a l p ",
"p p a B.F.C.Y.[.&X8.1.4.p.h.j.s.s.h.h.h.d.h.d.a.4.8.@X[.H.V.N.a p p p p p p g p ",
"p p a z z K.].*X6.y.p.h.l.x.z.z.z.z.z.x.z.z.z.p.s.y.7.}._.W.J.J.K G z p p p p p ",
"k p p x L._.OX6.2.l.x.x.z.z.z.z.z.z.z.z.z.z.z.x.z.z.f.,.' ' ] { { { !.J.a a g p ",
"k p l K (. X,.*.g.x.l.p.i.i.p.p.p.p.p.p.p.p.i.p.k.k.y., O [ $X8.2.,.0.(.J.k a g ",
"p p F !.] +.a.c.v.j.u.*.t.t.t.t.t.t.t.t.r.t.r.r.t.2.S & ! w.hXf.*.*.>.[ !.x a p ",
"p a G ` b o v.ZXCXa.$.s.j.j.d.d.d.j.p.j.d.d.j.p.o.4 0.$X9.;.w.q.7.3.+.~ ).F a k ",
"p p G K A = gXAXCXv.s.g.c.x.z.z.z.z.z.x.z.z.c.l.O.3 uXkXS / zXMXBXpX^ b !.F p k ",
"p p F ).uXyX0XVXCX>Xs.k.z.z.z.z.z.z.z.z.z.k.z.l.y.%./ [ 5...MXVXNXfX{.` L.l k g ",
"p p F _.aXyX& 0XzX9Xu.u.k.z.z.k.k.z.k.z.z.z.j.p.d.y., 4 #X:XiXpX^ W /.).x k k p ",
"p p G !.' & Z 4X8X3.$.:.u.k.z.z.z.z.z.z.z.z.i.t.:.#.: Q iXiX$X$X[ A H J.k p k p ",
"p p G !.~ >.%X] $ O.;.;.;.u.k.k.k.k.k.z.k.u.:.;.;.O.+.q.fX..V OX.XK M x g g a p ",
"a p G !.} 7.;X[ - - ! %.@.;.<.r.r.r.r.r.:.;.;.-.6 ! 6.hXkXI @ _ W.F l g k p g p ",
"z a x J.} } ~ ! ^ 5.Z Q q.9.5 < -.O.O.9.w.9.2 * P ! $X,X8.+ & K G p p g a p p p ",
"M.k f c W.|.}.& D ;Xe.uXMX4X% V 7.7.%.iXMX4XO R / 9.e.#XV ; ' W.G k g k p g p p ",
"M.l M.L.^..XsX .^ e.;XlXCXgX+X%XlXlX,XxXCXgXq.6.e.#X;X6.X ' ).J k p k a p g p p ",
"z H._.*X+X>.5.+X .! ,.,XxXbXCXvXbXvXvXCXZXZXkX6.,.%X:X5.& ) L.l p a p p p p p p ",
"l `..X0.iXzXkX6.3   1 >.%XlXbXZXxXlXxXvXbXcXsX .0XfX8Xb  .W.x g a p i p p p g p ",
"c `.H > iXZXxXuX..0.#X6.S ! w.hXjX,XjXjXw.| E 0XNXNXW v *X^.k g a l l l k i p p ",
"F.R.^.} 0.hX:X8X..5.5.D 3   o %.f.f.=.=.<.X.< q.fX0.] XX X/.J.k a N.C.N.z j a p ",
"G.Y.`.]..X X=X(.A b ( C 4 3 2 o.a.v.8Xw.f.3.>.6 + # XX-X&.Q !.x j A.U.S.z i k i ",
"n.c M.D.I.^.[.'.`.^.]._.E * #.s.v.dXnXdXQ I C v $ V XX-X> Y W.g s N.U.S.k y a z ",
"q q q u a b.Z.Y.Y.Y.[._.b o #.z.f.! U Y P - Y Y @ # &.&.# _ W.q 0 n.G.n.s 0 u N.",
"7 7 7 u p z V.V.R.].Q.v X T 4X9X>XpX2X# # # C 2X7X5XY Z |.[.D.8 8 n.D.S.s 8 j N.",
"f j l c m.m.l A.^.` I < - U T ! q.MXmXqX6X5X3XqXtXwXL E aX[.V.j n.N.D.D.n.j n.C.",
"n.S.G.V.H.S.t d H . < t.3.5 .   X T <X<X1XwXtXrXwX7X2XW { _.R.U.C.U.U.Z.C.D.C.U.",
"M.G.G.G.U.S.d q H Y 2 o.o.5 R E ; # # b W | 5XrXrXeXeX1Xo ` '.Y.Z.U.Z.Z.U.Z.C.C.",
"k b.m.V.G.Z.c z M _ A = * ) !.` J J J K !.H - <X7XrXnX2X  H ^.Y.G.G.G.Z.C.U.n.n.",
"p p k B.G.G.G.H.n.h m m N G G x x x x x x F n v I 1.a.O.. ( W.H.G.G.U.Z.G.G.n.t ",
"p p a N.C.V.F.F.c y q h x l p p p p p p p B x B B > : 1 E N M H.Z.G.Z.G.U.C.n.s ",
"p p a l z z z z k f u i i p p p g p p k k a k l u r @ r m d l G.U.Z.Z.U.G.C.C.N.",
"p i p i i u i i i g g g g g p p p p p g i i g k u w 7 w 7 7 g H.Z.Z.Z.U.U.U.U.U.",
"k z z z z x z z l g g p p p p p p p p k z z f u u u s d s s c G.U.Z.Z.F.V.A.V.D.",
"c V.F.F.C.F.F.F.M.l p g p g p p p p p c S.S.k 8 e c D.S.A.F.F.G.Z.G.Z.V.s 0 j V.",
"M.G.G.G.Z.G.G.G.B.k p p p p p p g p p m.F.S.a 8 e F H.G.G.G.G.G.Z.U.G.A.t 8 s V."
};
