/* XPM */
static char *result[] = {
/* columns rows colors chars-per-pixel */
"40 40 235 2 ",
"   c black",
".  c #000A06",
"X  c #00000C",
"o  c #180203",
"O  c #031719",
"+  c #121615",
"@  c #2C0600",
"#  c #2B190E",
"$  c #381A15",
"%  c #07201C",
"&  c #362B13",
"*  c #001827",
"=  c #082C2F",
"-  c #34342A",
";  c #49150C",
":  c #74170F",
">  c #503019",
",  c #441F24",
"<  c #492A2A",
"1  c #51322E",
"2  c #553C35",
"3  c #6E302F",
"4  c #643439",
"5  c #014C03",
"6  c #0A4C04",
"7  c #0D4D08",
"8  c #105106",
"9  c #165707",
"0  c #125409",
"q  c #1B5A0B",
"w  c #1E5D11",
"e  c #205C11",
"r  c #1D610A",
"t  c #296708",
"y  c #28650E",
"u  c #2E6C0D",
"i  c #316E0F",
"p  c #357507",
"a  c #32700E",
"s  c #236411",
"d  c #266A12",
"f  c #2C6C12",
"g  c #326F11",
"h  c #2D7113",
"j  c #347312",
"k  c #367817",
"l  c #3B7C15",
"z  c #3B751C",
"x  c #3B7C1A",
"c  c #364B35",
"v  c #34692C",
"b  c #3A7629",
"n  c #41791E",
"m  c #524336",
"M  c #504931",
"N  c #445638",
"B  c #70422D",
"V  c #684837",
"C  c #79513D",
"Z  c #447B26",
"A  c #446A3D",
"S  c #457B39",
"D  c #52783F",
"F  c #183246",
"G  c #5C364A",
"H  c #683A43",
"J  c #1E444D",
"K  c #294341",
"L  c #344A51",
"P  c #3D5161",
"I  c #3C6B72",
"U  c #424643",
"Y  c #4C554F",
"T  c #55564A",
"R  c #585451",
"E  c #764948",
"W  c #685847",
"Q  c #765A46",
"!  c #456945",
"~  c #576D4C",
"^  c #557747",
"/  c #6E684E",
"(  c #656C58",
")  c #677C55",
"_  c #767C55",
"`  c #445E65",
"'  c #4A657B",
"]  c #5D6F7D",
"[  c #747274",
"{  c #892007",
"}  c #90372F",
"|  c #9C363A",
" . c #A9393E",
".. c #B5383C",
"X. c #C41B06",
"o. c #CF352C",
"O. c #C5393A",
"+. c #8D4E34",
"@. c #BE523C",
"#. c #DB4733",
"$. c #E54D33",
"%. c #A63B41",
"&. c #BB3A40",
"*. c #854C48",
"=. c #89534B",
"-. c #955251",
";. c #A1474B",
":. c #BC4846",
">. c #AE544F",
",. c #B95445",
"<. c #B35756",
"1. c #8E6D55",
"2. c #94675A",
"3. c #B06A57",
"4. c #A7765C",
"5. c #977769",
"6. c #B77F6F",
"7. c #C64644",
"8. c #C84744",
"9. c #C64C4A",
"0. c #D34D43",
"q. c #C85243",
"w. c #DF5545",
"e. c #D6554B",
"r. c #DA564B",
"t. c #DB594D",
"y. c #CA5959",
"u. c #DA5E51",
"i. c #E25B47",
"p. c #E45F4B",
"a. c #D26557",
"s. c #E3614E",
"d. c #EE664D",
"f. c #E36250",
"g. c #E56951",
"h. c #EA6B55",
"j. c #EC6B54",
"k. c #F06E55",
"l. c #EE7055",
"z. c #ED735A",
"x. c #F37156",
"c. c #CF5F65",
"v. c #EC7E6E",
"b. c #3E8116",
"n. c #3D821A",
"m. c #428713",
"M. c #42851A",
"N. c #458B1C",
"B. c #498E1D",
"V. c #4D9719",
"C. c #4C921E",
"Z. c #529C1D",
"A. c #478C21",
"S. c #498D23",
"D. c #47862A",
"F. c #4E9521",
"G. c #4F9922",
"H. c #519625",
"J. c #539D21",
"K. c #4D8333",
"L. c #518434",
"P. c #55853B",
"I. c #598A3E",
"U. c #579939",
"Y. c #56A023",
"T. c #59A226",
"R. c #5BA52C",
"E. c #5FA431",
"W. c #64AA3C",
"Q. c #68A83B",
"!. c #5C8747",
"~. c #649649",
"^. c #678A57",
"/. c #6A8D52",
"(. c #6D9356",
"). c #789A54",
"_. c #6BA946",
"`. c #74AD49",
"'. c #77A855",
"]. c #778964",
"[. c #708A6D",
"{. c #759267",
"}. c #838753",
"|. c #93885C",
" X c #939B5B",
".X c #81A456",
"XX c #849669",
"oX c #9A8D71",
"OX c #B58669",
"+X c #AE8872",
"@X c #8CAF6E",
"#X c #A4A773",
"$X c #C38E6B",
"%X c #C69477",
"&X c #D29975",
"*X c #F4876E",
"=X c #D4A37E",
"-X c #58728C",
";X c #657C9D",
":X c #5475A6",
">X c #617DA3",
",X c #7B8290",
"<X c #5886A3",
"1X c #6487A9",
"2X c #8F8A90",
"3X c #AC9F92",
"4X c #9DB491",
"5X c #A8AC8E",
"6X c #B6A494",
"7X c #8C8DA2",
"8X c #BA91A6",
"9X c #99A5B7",
"0X c #B0B5B2",
"qX c #C39B89",
"wX c #D79596",
"eX c #C7A795",
"rX c #D2A498",
"tX c #D0B79C",
"yX c #E4B09D",
"uX c #DDA1A2",
"iX c #F4B5A8",
"pX c #E6B8B7",
"aX c #EDC89B",
"sX c #DECBBF",
"dX c #F7C9AF",
"fX c #E5C8BC",
"gX c #A7B0C0",
"hX c #D8B6C0",
"jX c #E0BDC6",
"kX c #CCC9D5",
"lX c #D9D2D1",
"zX c #F1D5C5",
"xX c #FFF5D7",
"cX c #D7DFE4",
"vX c #F6EAEB",
/* pixels */
"i i i i g i i i g i i i g i i a B.J.N.g j N.Z.Z.Y.Z.Z.F.G.G.J.J.J.J.Y.Y.n.d 0 n.",
"i i i i i i i g i i i i i i i j C.T.B.g a B.J.Y.Y.J.J.J.Y.Y.J.J.J.J.Z.J.n.r 6 k ",
"g i i i i i a a i i a i j x M.M.J.J.S.j i x x A.G.J.J.J.Z.B.N.m.n.n.B.J.C.u q j ",
"i i i g i i i i i j j j g m.V.V.Z.Z.m.p t 9 5 t N.Y.Y.Y.Z.b.a y 0 0 n.J.A.k u u ",
"i i a j j j a j l j p t p D.W.W.Q.W.U.D.b b b b Y.Z.Z.Z.F.l u y 9 q x J.N.j i i ",
"i i j M.B.B.B.B.B.m.N.D.!.(. X X X X|._ _ ].}.}..X`.E.T.Z.k g g y y j n l g i g ",
"a i j C.J.J.J.Z.T.`.'.XXoX3.#.:.9.9.:.:.:.,.:.:.4.#X@X.XQ.l u g g i i i i i i i ",
"i i j N.F.V.Z.R..X#X3.3.y.s.s.s.s.p.s.p.p.p.s.p.u.a.<.4.oX~.x i g i i g i i i i ",
"a i g j j A.`.@XXX2.q.#.w.s.x.k.j.j.j.j.j.k.k.k.g.$.$.9.2.].(.L.j g g g i i i g ",
"i g i i j L.~.~ -.#.g.k.h.h.g.g.j.j.j.h.j.j.g.g.g.l.x.g.:.*./ ^ Z g g g g i i g ",
"i g i g D.!.! o >.z.j.l.j.k.j.k.k.k.j.k.k.k.k.j.z.l.g.z.z.} . ! /.Z i a g i i i ",
"g i i n !.^.Y > @.x.l.f.p.f.s.s.f.f.p.f.f.p.f.f.f.f.s.k.k.+.$ ! (.I.k i i g i i ",
"i i j D D < 3 #.g.l.g.e.9.7.8.8.7.7.7.7.7.7.8.8.7.8.t.j.z.u.,.V N ^ L.a g g a g ",
"i g n P.A . { *XiXwX9.#.e.e.e.e.e.r.r.e.e.r.r.e.r.r.o.y.uXiXa.: O ^ I.j i j a g ",
"a i n P.A   3 pXvXhXy.w.h.z.j.j.k.j.j.j.j.k.j.j.l.j.o.c.kXvXrX3 . ^ P.n i g a g ",
"j i g D ^.( [ gXcXpXz.d.j.l.j.j.j.j.j.j.j.j.j.j.l.k.$.v.zXcX0X[ [ ].I.a i a a g ",
"i i a L.@X0X[ P gXpXh.i.f.h.j.j.g.j.d.j.d.h.h.h.h.f.o.v.jX7X` 2X0X4X~.a i j a g ",
"i i z P.XX5.; * 7X8X9.O.0.u.j.h.j.j.j.g.k.h.d.h.f.9.X.c.8X-XO 2 5.@XI.a i a g i ",
"l i x I.~ @ B 1.Y G  ...&.7.e.h.k.j.j.j.h.h.f.e.7.&.O.%.G R / 1 # ) !.j i a a i ",
"M.i z P.N + 1.=XC   3 ;.%...O.0.i.r.r.r.t.t.0.O...%.;.3   =.%XQ % ~ I.j i a j i ",
"M.j l L.^ N / 4.=.E R J 4 ;.<.;.| %.&.%.%.| ;.<.-.H K R E -.1./ T !.L.j i g i i ",
"l B.C.H.~.'.^   < 2.OX1.] 7X7XG 1 *.*.*.E 1 R 2X7XR |.&X2., - ~ (.P.z u i i i j ",
"j J.T.Z.T.W.'.{.. V $X$XrXkX9XX V %XqX&X6.> . 9XlXqX&XOXm - ) !.D.a u i i i i u ",
"n.J.J.J.Z.Z.`.@XW @ < B $XfXlX6XeXdXdXdXiXeXeXlXfX6.C 1 X W (.L.l l j g u g a j ",
"Z.G.Y.J.J.J.W..XV , m Q -.1.+XrXiXdXdXzXdXyXqXoX=.2 X X 2X5X).N.F.H.n.h f i i M.",
"J.G.J.J.J.Y.W.).  B =XaX+X&   1 =.OXrXqX4.=.G F F K + & 2X5X(.S.G.G.n.h i i a M.",
"k h k n.M.N.E.'./ 2.$XqXOXR = O   # 1 < * ,XkXkX2X- L L O c ^ L.G.F.k r y m.N.C.",
"7 7 0 y u m.J.Q.@XXX  > 3 o m 6XlX3X@ - 3XzXsX2XL - >X:XF c ! K.G.F.h 0 s N.J.J.",
"9 q q h j l B.F._.) + ' -X= > tXxXtX@ - 4.OXM . ` 1X<X' [.[.! A.G.G.h r d C.Y.J.",
"j M.B.B.C.M.s d v ^ ( ] -XK = M +.Q ' ;X;X1X-XP I <XJ > @X'.S.B.J.Y.F.n.n.G.Y.J.",
"M.J.Y.J.Y.M.5 8 5 v ^.N   2 =.4   . ' 1X1X<X-X[ 2.=.#   /._.R.J.Y.Z.Z.Y.T.Y.J.G.",
"x B.B.J.J.B.d d q e S ! - 3  . .1 U & o # & @ :  .| < L !._.J.J.Y.Y.Z.Y.Z.n.n.n.",
"j j x V.J.J.F.A.f 8 v !.) M $ , / {.^.^ ^ ^._ M $ $ ( ^.K.H.Y.J.J.J.J.J.N.d 0 q ",
"u u j B.J.Z.H.G.g 8 9 z D D A A ^ P.n n x L.!.^ ! ! ^ v 8 C.G.Y.J.J.Z.J.N.r 5 0 ",
"i i j b.m.M.m.n g s y f i n D.n j p i a j i i z Z v d 9 w A.J.J.Z.Y.J.J.C.n.n.s ",
"i i u u u u u i u g i g i i p i g j i i i g g y 6 5 7 7 0 N.J.J.J.Z.Y.Y.J.G.G.n.",
"a j j k j k j j g g i g i j g g j i j k j g f d e e s w s B.Y.Z.J.J.G.A.G.G.G.n.",
"n C.F.C.C.C.F.C.n i i i i i g g u a x B.B.f 8 d D.S.A.B.A.G.J.G.J.V.n.w h A.J.G.",
"m.J.J.J.J.J.J.Z.m.i i i i i i g a u l J.G.f 5 s B.Y.Z.Y.J.Y.G.Z.Y.G.d 5 r A.J.J.",
"l B.B.Z.Z.J.T.Z.N.b.l j i g i a l b.N.G.Z.n.u k C.Y.J.J.J.J.Y.C.n.n.h h h n.n.A."
};
