/* XPM */
static char *result[] = {
/* columns rows colors chars-per-pixel */
"40 40 235 2 ",
"   c #3F393B",
".  c #743B33",
"X  c #044D04",
"o  c #10490A",
"O  c #005A06",
"+  c #1B5B0C",
"@  c #25581C",
"#  c #116D11",
"$  c #2C6D02",
"%  c #2B6B08",
"&  c #326E0E",
"*  c #29730A",
"=  c #35750C",
"-  c #2B6D12",
";  c #296C15",
":  c #326F11",
">  c #396F18",
",  c #2C7215",
"<  c #347313",
"1  c #397918",
"2  c #34572C",
"3  c #377124",
"4  c #3C7429",
"5  c #565311",
"6  c #6D5213",
"7  c #496E15",
"8  c #477927",
"9  c #4F712C",
"0  c #476938",
"q  c #4A7934",
"w  c #70722E",
"e  c #493F47",
"r  c #3F6845",
"t  c #504F48",
"y  c #595B57",
"u  c #75514F",
"i  c #615A5B",
"p  c #7C5756",
"a  c #55694B",
"s  c #577845",
"d  c #5C6859",
"f  c #68675C",
"g  c #657A56",
"h  c #586764",
"j  c #5D7178",
"k  c #676766",
"l  c #6B6C64",
"z  c #716B68",
"x  c #68716A",
"c  c #76736B",
"v  c #6B6D74",
"b  c #6D7675",
"n  c #737571",
"m  c #747C76",
"M  c #787A77",
"N  c #A50000",
"B  c #B63130",
"V  c #B93838",
"C  c #DE0003",
"Z  c #D5000C",
"A  c #CA0911",
"S  c #D9091A",
"D  c #DD1818",
"F  c #E50105",
"G  c #EA0101",
"H  c #F40202",
"J  c #F90309",
"K  c #E60518",
"L  c #E20C1C",
"P  c #F70019",
"I  c #E91719",
"U  c #F31719",
"Y  c #E8211C",
"T  c #D61A23",
"R  c #E50228",
"E  c #E9002B",
"W  c #FA002B",
"Q  c #E41424",
"!  c #E91623",
"~  c #E31B24",
"^  c #EC1B26",
"/  c #E91B2A",
"(  c #F91724",
")  c #F31B25",
"_  c #F31D29",
"`  c #F91E29",
"'  c #E91F31",
"]  c #CA272B",
"[  c #D72428",
"{  c #DB2D31",
"}  c #C43939",
"|  c #E82528",
" . c #F82425",
".. c #F3222C",
"X. c #FB242B",
"o. c #F72929",
"O. c #E9382B",
"+. c #F4392B",
"@. c #EA2E33",
"#. c #F72733",
"$. c #F12B32",
"%. c #FB2D33",
"&. c #E73538",
"*. c #FC3136",
"=. c #F3373A",
"-. c #FC343A",
";. c #FB3A3E",
":. c #905B2E",
">. c #A94330",
",. c #BB433F",
"<. c #A1673A",
"1. c #CB4A37",
"2. c #E8462B",
"3. c #E9582B",
"4. c #F14C30",
"5. c #F16F2F",
"6. c #FB0642",
"7. c #F73B40",
"8. c #FB3C42",
"9. c #93514D",
"0. c #AE4544",
"q. c #93744F",
"w. c #B66D4A",
"e. c #A9784C",
"r. c #8D736E",
"t. c #B47562",
"y. c #DA544F",
"u. c #E64A4C",
"i. c #FB4145",
"p. c #F84548",
"a. c #FC464A",
"s. c #FC494D",
"d. c #E74F51",
"f. c #FD4E52",
"g. c #EA5454",
"h. c #F05353",
"j. c #FD5053",
"k. c #CD6C64",
"l. c #CE756E",
"z. c #E66B6B",
"x. c #E77677",
"c. c #3A8213",
"v. c #3C811A",
"b. c #3C8327",
"n. c #478C04",
"m. c #44881B",
"M. c #458B1A",
"N. c #4C931F",
"B. c #4C9919",
"V. c #529D1E",
"C. c #498625",
"Z. c #4D9421",
"A. c #539D21",
"S. c #579C2C",
"D. c #578F30",
"F. c #659F2E",
"G. c #4EA122",
"H. c #55A126",
"J. c #5D8346",
"K. c #668F4D",
"L. c #72945B",
"P. c #70A949",
"I. c #718D68",
"U. c #778377",
"Y. c #7D837C",
"T. c #938631",
"R. c #EE8E2B",
"E. c #EC9932",
"W. c #F59831",
"Q. c #ECAC2C",
"!. c #F5A831",
"~. c #F3BA32",
"^. c #F8CF0F",
"/. c #FDF70C",
"(. c #F5D12B",
"). c #F6C532",
"_. c #FAD735",
"`. c #FCF428",
"'. c #F9E634",
"]. c #FBED34",
"[. c #FDF335",
"{. c #FFF836",
"}. c #9B995B",
"|. c #838873",
" X c #82827D",
".X c #8B9E79",
"XX c #AA8876",
"oX c #E7A368",
"OX c #F3CB60",
"+X c #677E8F",
"@X c #837D81",
"#X c #788C8A",
"$X c #73889A",
"%X c #748EA2",
"&X c #838B83",
"*X c #888A86",
"=X c #8A8C86",
"-X c #8E928C",
";X c #94958E",
":X c #8E9193",
">X c #959993",
",X c #9B9D95",
"<X c #B09D80",
"1X c #8AA395",
"2X c #9AA29A",
"3X c #8799B5",
"4X c #99A2AF",
"5X c #A7ACA4",
"6X c #ABB1A9",
"7X c #DF9396",
"8X c #EA8688",
"9X c #ED888A",
"0X c #EA8C92",
"qX c #E69899",
"wX c #EC9C9E",
"eX c #E4A496",
"rX c #EC9DA1",
"tX c #D5AEAB",
"yX c #DCB9BA",
"uX c #EBA1A2",
"iX c #E2B7B5",
"pX c #F6E88C",
"aX c #9EACC1",
"sX c #A3AFC4",
"dX c #DDBFC0",
"fX c #BAC0CB",
"gX c #DACBCB",
"hX c #D9D9D9",
"jX c #E9C3C3",
"kX c #EDC3C4",
"lX c #EDEBD9",
"zX c #CED6E5",
"xX c #E4E5E6",
"cX c #E8EAEB",
"vX c #EEF1F1",
/* pixels */
"& & & & & : & & = = < & * 8 K.<XeXx.s.;.z.oXXX}.P.G.G.H.A.V.V.A.G.G.H.A.m.+ o < ",
"& : & % : & & & * $ $ # 7 e.h.#.U J i.s.X.J X.7.w.P.G.G.V.B.M.M.v.Z.N.A.m.- + < ",
"& & & % # # # , 3 4 q w 1.J %.f.a.%.i.s.-.8.s.8.U K T.S.S.b.1 # O O c.G.Z.< % : ",
"& : : 8 7 7 :.q.<.XXl.u.U ..;.8.8.` i.s.%.%.i.8.+. .| w.}.e.e.q.6 5 C.n.M.1 : : ",
"& < 1 T.g.P =.J W G G I ..( X.a.8.X.i.s.-.%.i.;.( ....K G P P ` o.[ t.K.* $ - : ",
"- , 4 <.4.a.s.i.j.=.@.$..._ %.a.;.X.i.s.-.%.i.;._ ) #.$.@.a.a.i.a.i.h.tXL.q > = ",
"7 $ D.1. .f.8.-.s.$.! _ .._ %.i.;.X.i.a.%.%.i.;...) o.! / 8.8.-.p.i.H qXfXXX7 = ",
"B q.XXh. .f.;.-.s.$.! ...._ %.i.8.` i.s.%.-.i.;.` ^ #.^ ^ i.8.-.s.p.H eXlXz.q.8 ",
"y.iXdXh. .j.8.-.s.$.! ...._ %.a.8.X.i.s.*.*.8.8. ._ o.! _ i.8.-.s.8.H uXvXx.y.5 ",
"y.jXkXh. .f.;.-.s.$.! ....) %.i.8.` a.s.*.*.i.8.` ^ #.! / i.8.-.s.i.J rXvX9XF 6 ",
"u.kXkXh. .f.;.-.s.$.! ....) %.a.8.` i.s.*.%.8.8.` _ #.^ / i.8.;.a.8.J wXvX8XF 6 ",
"d.kXkXh. .j.;.-.s.$.! .._ ) %.i.8.` 8.s.*.%.8.8._ ) o.^ ^ i.8.-.a.4.J rXvX9XF :.",
"g.kXkXh.%.j.;.-.s.$.Q ....) %.a.i. .i.s.*.-.a.8.) ^ #.^ ^ i.8.=.s.8.H rXvX9XF :.",
"d.kXkXh. .j.;.-.s.$.! ....) %.4.-. .$.&.| $.4.-. . .#.! / i.8.-.s.i.H rXvX0XC :.",
"d.iXkXh. .j.8.-.s.$.Q ....| | | | I ~ ~ D Q / | ^ _ #.^ ^ i.i.-.s.i.H rXvX9XC w.",
"d.kXkXh. .j.8.-.s.$./ ..| L 2.R.Q.3.E | O.R.Q.5.T L o.^ / i.8.-.s.8.H rXvX9XC w.",
"g.kXkXh. .j.;.*.s.$.! | K 2.~.].'.~.O.+.W._.[.).5.S | ~ / i.8.-.a.i.H uXvX9XC k.",
"d.kXkXh. .j.;.-.s.$.D S R R.'.[.[.'.5.5._.{.{.'.E.T T D / 8.8.-.p.i.H uXvX9XC k.",
"d.kXjXu...f.;.-.s.+.| R O.!.[.[.[.[.).).].].].].~.2.E | | i.8.-.p.i.F qXvX9XC k.",
"d.iXyXu.I p.-.-.s.-.8.6.5.).[.].'.].[.[.[.].].[.).5.6.8.;.i.8.-.i.=.G 7XxX8XC k.",
"&.tXgXx.I ^ U  .#. .o.W 5.'.[.(.~.'.{.[.'.(._.{.'.5.W %. .o. .) ) Y | yXzXz.C l.",
"D x.gXdXz...L I U U K U R.].[.!.3.~.{.[.).3.!.[.].R.Y P U U I I Q u.qXhXyX&.C l.",
"Z &.7XgXgXtXqXuXuXuXrXuXOX`.'.E.E !.[.[.E.E E.'.`.OX0XrXuXwXuXqX7XgXhXyXg.F C l.",
"Z F | x.tXhXxXcXcXcXcXlXpX`._.5.E W.[.'.R.E 5._./.pXxXcXcXcXcXxXhXgX7Xd.F | N r.",
"V A I G R x.qXwXwXwXwXwXOX(.~.3.E E._.).5.E 5.~.^.oX0XwXwXqXwXwX8Xu.F I S } . =X",
"U.9.A ' | F F G G G G G Y 3.3.| E O.3.2.E / @.3.2.G G G G G G G C I @.S B r.d ;X",
"M  X9.T L | S L L L ! [ I T ! Q ~ Q ! I ~ Q Q Q I { { ! K L L L Q ' C V  X&Xt U.",
" X&X=Xq.B B ,.,.,.,.V ] O.+.+..._ $.+.=.o._ X.+.+.| T } ,.,.,.,.V B 0. X=X-Xf n.",
">X,X*Xm h y b &XM Y.b 0.! ( #.` %.8.8.8.i.=.X.` X.( ] z U.U.Y.U.k y x #X;X5Xz D.",
"-X6X2Xn y h x M m m h p ] U ( _ X.#.$.-.=.6._ ) U T >.h b m m b h y i =X6X5Xy C.",
"Y.2X6X=Xi i *X,X,X,X Xc r.V T ] T T T T [ T [ [ A t.n n ;X,X,X;XM i z 6X6X-Xt C.",
" X;X,X*Xk k ,X6X5X5X-X#X*Xr.p p p p p p p p p p u *X*X*X2X5X6X5XM y c ,X;X,Xy 8 ",
"=X,X,X Xk x *X,X>X>X#XM *Xm h j %X%X%X%X%X%X+Xh h =X Xn -X>X,X;XM k n -X5X=XM 2 ",
"g U.-Xl   t v  X X Xk i c c z $X3X3XsXfXfXaX3Xb l M x k M  X XM i e t *X-X@Xd @ ",
"= 9 g g l l s s s 0 0 a l k k :XsXsXfXcXxXzX4Xb f d d t 0 s K.J.q 9 0 L.J.K.b., ",
"% & > q s s 7 $ $ $ $ 9 d z n 4X1X1XzXzXzXfXsX#Xl a 2 o O M.A.V.S.S.S.F.H.V.G., ",
": 1 1 = = = 1 1 < - % q I.i t #XI.4 1X1XI.#X1Xx   l s O ; N.G.A.A.V.Z.Z.Z.A.Z.v.",
"8 Z.N.N.N.V.Z.N.1 & $ 1 L.|.a 9 4 $ C.D.n.- r d c .XK.n.Z.V.A.A.A.V., + ; Z.A.Z.",
"m.V.A.V.V.A.A.A.m.& & & 8 J.9 $ & & c.V.G.- X 4 P.P.H.V.A.A.A.A.A.Z.; X + Z.A.A.",
"= M.N.V.V.A.A.V.N.c.1 = & & = : 1 v.M.A.A.c.- < B.V.A.A.A.A.A.M.m.1 < ; , v.v.M."
};
