/* XPM */
static char *result[] = {
/* columns rows colors chars-per-pixel */
"40 40 170 2 ",
"   c #383517",
".  c #3C3519",
"X  c #363C19",
"o  c #3E3D18",
"O  c #422F1D",
"+  c #42321C",
"@  c #41391B",
"#  c #024603",
"$  c #084603",
"%  c #024B06",
"&  c #0B4C06",
"*  c #114D07",
"=  c #095107",
"-  c #0D5409",
";  c #105006",
":  c #145309",
">  c #19550A",
",  c #155D0E",
"<  c #1C5B0B",
"1  c #225E0B",
"2  c #325B0F",
"3  c #264A12",
"4  c #324115",
"5  c #394C15",
"6  c #255F12",
"7  c #2E5A11",
"8  c #375316",
"9  c #395415",
"0  c #335D10",
"q  c #3D5018",
"w  c #1F6210",
"e  c #24630E",
"r  c #29660E",
"t  c #2E6B0E",
"y  c #316E0F",
"u  c #33710F",
"i  c #246412",
"p  c #296711",
"a  c #266911",
"s  c #2D6C12",
"d  c #326E10",
"f  c #396C18",
"g  c #2F7514",
"h  c #347312",
"j  c #3C7315",
"k  c #357916",
"l  c #3A7B15",
"z  c #34761A",
"x  c #3D7218",
"c  c #367B18",
"v  c #3C7D19",
"b  c #44441C",
"n  c #434B1D",
"m  c #415F1B",
"M  c #44641B",
"N  c #446D1C",
"B  c #536C1E",
"V  c #417517",
"C  c #407A17",
"Z  c #42731A",
"A  c #4A761F",
"S  c #44791B",
"D  c #4B7D1E",
"F  c #5E7D15",
"G  c #57701E",
"H  c #51472E",
"J  c #544C30",
"K  c #586C23",
"L  c #5D6629",
"P  c #5A6D2E",
"I  c #4D7523",
"U  c #4D7D21",
"Y  c #577221",
"T  c #5B7524",
"R  c #537D23",
"E  c #5D7A26",
"W  c #5B7429",
"Q  c #567C2B",
"!  c #5C7D29",
"~  c #58683D",
"^  c #617C27",
"/  c #61712E",
"(  c #627E29",
")  c #627531",
"_  c #647F30",
"`  c #637B3D",
"'  c #6A7D3E",
"]  c #6E6E4E",
"[  c #6C7C44",
"{  c #767C4E",
"}  c #3E8216",
"|  c #3E831A",
" . c #418417",
".. c #42841A",
"X. c #49861E",
"o. c #458B1C",
"O. c #498D1D",
"+. c #46901D",
"@. c #4C931E",
"#. c #4E981E",
"$. c #529C1F",
"%. c #63811E",
"&. c #4D8422",
"*. c #478E20",
"=. c #4B8D21",
"-. c #558224",
";. c #5A8326",
":. c #558D24",
">. c #5C8B27",
",. c #5C8228",
"<. c #5C8A2F",
"1. c #4D9321",
"2. c #4F9920",
"3. c #539522",
"4. c #599526",
"5. c #539D21",
"6. c #5A9B25",
"7. c #5F9D28",
"8. c #638027",
"9. c #688726",
"0. c #6D8C26",
"q. c #65822B",
"w. c #69862D",
"e. c #638A2B",
"r. c #6C8A2E",
"t. c #66922F",
"y. c #6C922E",
"u. c #639B2C",
"i. c #71912F",
"p. c #658432",
"a. c #6A8534",
"s. c #668C33",
"d. c #6E8D31",
"f. c #6C843C",
"g. c #6F8F38",
"h. c #708E32",
"j. c #718C3A",
"k. c #6E9231",
"l. c #649834",
"z. c #749333",
"x. c #789736",
"c. c #739A34",
"v. c #7A9A37",
"b. c #74923A",
"n. c #789739",
"m. c #749E3F",
"M. c #7D9D3A",
"N. c #55A022",
"B. c #64A02B",
"V. c #6F8447",
"C. c #718640",
"Z. c #758D43",
"A. c #718448",
"S. c #768B48",
"D. c #788E4F",
"F. c #799242",
"G. c #7B924C",
"H. c #788457",
"J. c #768B50",
"K. c #788A56",
"L. c #7C9255",
"P. c #7E9061",
"I. c #81A23B",
"U. c #80994C",
"Y. c #82965B",
"T. c #828761",
"R. c #829161",
"E. c #889A65",
"W. c #8D926D",
"Q. c #94A474",
/* pixels */
"y y d y y y y y y y u y y y u l 5.3.v p } 2.5.5.5.5.2.2.3.N.5.$.5.N.5.+.a - c 2.",
"y y y y y u y u y y h h h V j D 4.u.R d ..3.5.5.2.N.N.5.N.5.N.N.5.5.$.O.e % h 5.",
"y y y y y y u h h V :.-.R q.( q.q.d.,.A R -.X.+.N.5.5.$.@.O.o.| | +.5.+.s < h o.",
"y y y y y y y j D 9.d.r.r.r.8.q.r.z.w.q.( ! I A u.4.$.N. .u t > - c 6.@.k t y h ",
"y y y u y h u j -.r.q.( z.i.( ( ( z.8.( q.w.r.q.z.>.$.$.} u t > ; k 3.@.k y y y ",
"y y h  .o. .o.O.:.c.z.r.r.( T r.E 8.( E q.r.9.z.M.j.m.l.=.h d p r h | v h y y y ",
"y y h #.5.$.$.$.7.t.d.8.T ( ( 8.( ( w.G q.d.r.z.9.w.Y.L.s.R U R x y u u y y y y ",
"y y j O.#.$.N.$.5.5.-.( ( q.r.8.r.z.r.r.d.d.9.F ~ P.L.U.j.q.x.d.! S y y y y y y ",
"y y y l l o.5.$.5.6.>.c.r.T r.z.( z.M.h.q.! ' K.J.Q.G.b.h.q.i.z.r.-.u y u y y d ",
"y y y y t  .5.5.$.4.y.w.( r.v.v.v.Y q.T q.q.[ E.F 0.T w.h.z.j.a.R x u u y y d y ",
"y y y y y k | o.#.4.c.w.T ( w.G z.( ( w.h.h.w.%.^ a.T d.w.d.G.` j y y y y y y u ",
"y y y y h s f -.-.;.v.w.w.q.G ^ T h.h.z.a.w.w.q.q.W ( r.T q.j.Q x h y u u y u y ",
"y y y y d N ! q.( q.h.r.r.r.w.d.8.v.( d._ K T w.9.w.i.r.( h.h.! ;.-.D D S y y u ",
"y y y y d A r.w.r.x.q.w.r.q.r.d.( z.B ^ T K ( ( ^ ^ r.r.r.z.w.z.z.w.9.k.;.S h y ",
"y y y y d A y.y.r.( B z.x.q.w.z.d.d.^ T ^ ^ w.( K w.x.d.z.d.( w.w.8.w.z.w.e.j y ",
"y y y y t I C.f.r.( T ( E ^ ( q.d.( ^ w.h.d.9.d.x.q.d.w.w.( E d.z.z.j.a.p.U j y ",
"y y l S Z e.q.W ^ T d.d.T G G d.M.d.^ G ^ h.z.( w.z.I.^ r.d.G _ q.( w._ E h t d ",
"V R q.w.( j.V.A.U.I.z.w.i.q.( d.q.v.D.' F.x.z.x.B ^ w.w.w._ B ^ r.w.h.w.! I -.S ",
"C e.z.q.z.I.h.n.w.( 8.^ v.z.G T ( G ' P ( w.q.d.B w.I.z.h.j.I.d.^ ^ G ( b.r.p.-.",
" .D r.a.d.w.( ( ( x.x.w.( T ^ r.I.d.U.' / ( ^ ^ h.w.a._ S.W.H.F q.d.M.z.w.h.h.h.",
"X.;.k.a.x.T ( ( w.r.j._ E d.z.d.T w.Q.Q.[ T r.q.( a.[ R.W.] a.I.z.d.r.r.q.q.c.;.",
" ...&.;.s.g.x.w.^ q.Z.) 8.r.q.d.G z.G.F.w.W ) w.( ^ L f./ G z.w.T c.x.z.x.! A x ",
"k 1.5.3.u.c.k.y.E N b.j.G ( q.w.q.w.8.v.w.^ f.w.w.h.( w.^ K _ ( T w.d.E ! Z y y ",
"z 5.5.$.5.5.6.:.f 6 ,.8.q.d.w.r.r.T w.z.j.Z.j.^ d.^ h.z.a.^ z.z.a.d.q.Y x d d u ",
"O.#.5.$.$.$.N.#.o.v Q w.r.w.r.h.8.r.z.T [ T.{ r.I.w.r.d.p.p.y.e.r.<.S j y y } o.",
"N.N.N.5.N.N.5.5.5.5.:.i.z.w.i.M.r.z.T b H J L z._ d.! Z x x S :.>.X.h h y t } 5.",
"+.1.+.2.#.#.5.$.5.$.2.>.r.d.z.p.! A b + O + b m D D V j h r k @.5.| s y h j  .N.",
"e i p h l o.N.5.$.5.$.B.r.e.k.<.&.O.8 + + O b V @.O.@.@.h * a 1.5.k < e ..@.#.5.",
"& & ; r t } $.5.6.5.N.2.+.:.3.$.N.3.7   + O 5 X.N.2.N.2.k # w *.5.z = , o.N.5.5.",
"e a s k } } | ..| | O.2.5.O. ...O.o.7   + + 5 l | o.5.5.| w g 2.2.| a g +.N.$.5.",
"v +.1.2.2.} - < > , z 2.2.s : e h h 2 o O + 5 e , a 1.N.#.+.1.5.N.#.@.1.5.N.5.N.",
"..5.5.5.N.| % > * - s 1.1.p & < y s 2 o O . 5 1 & e *.5.2.N.N.N.$.N.N.N.#.#.2.2.",
"l ..O.#.5.O.g s , ; i  . .s < e y d 2 o O + 5 r 1 e h k +.5.5.5.5.5.$.#.| k c c ",
"d t l #.5.5.5.*.i ; 1 t d d y y y d 2 o + + 5 y t p > = v 5.5.5.$.$.5.+.i = ; ; ",
"u y u +.5.#.6.O.p ; 1 s y y y y y d 0 o + + 5 y s p : & c 5.5.$.$.$.5.+.i : : * ",
"u u h l } } l l t r t d y y y y y d 9 @ O + 5 e < < > ; v N.5.N.$.$.$.#.*.| g : ",
"y t y r t t r t y d d y y y y y y d 5 + + + 5 < $ $ % % c 5.N.$.$.N.N.N.N.N.c % ",
"u l k l l j l l d y y y d y y y y u q @ O + 5 p i i i i | 6.2.$.$.2.*.2.2.N.| w ",
" .@.1.3.@.#.3.O.k y y y y y y y y u M b + O 4 z =.1.*.*.2.5.5.N.5.| , w | N.2.*.",
" .6.5.5.$.$.N.#.l y y y y y y d y h X.A n X 3 v 6.5.5.6.5.5.5.N.2.g % , *.N.N.N."
};
