/* XPM */
static char *result[] = {
/* columns rows colors chars-per-pixel */
"40 40 238 2 ",
"   c black",
".  c #040B03",
"X  c #0E0E0F",
"o  c #151602",
"O  c #251908",
"+  c #2F0A19",
"@  c #2D171A",
"#  c #182919",
"$  c #163310",
"%  c #252805",
"&  c #2D311B",
"*  c #221B2A",
"=  c #142E29",
"-  c #363626",
";  c #393526",
":  c #373728",
">  c #383829",
",  c #3A3828",
"<  c #2A3031",
"1  c #293937",
"2  c #363738",
"3  c #410D1C",
"4  c #482500",
"5  c #792615",
"6  c #4D0429",
"7  c #58092D",
"8  c #461228",
"9  c #580733",
"0  c #5A1636",
"q  c #670B34",
"w  c #660836",
"e  c #48272B",
"r  c #433727",
"t  c #533332",
"y  c #6A2B34",
"u  c #094C02",
"i  c #1A4D07",
"p  c #0B5306",
"a  c #1B5302",
"s  c #175709",
"d  c #1C4918",
"f  c #1E5B13",
"g  c #3A4406",
"h  c #245708",
"j  c #2F4D10",
"k  c #264818",
"l  c #285716",
"z  c #355C17",
"x  c #1E630A",
"c  c #2E6E06",
"v  c #26650C",
"b  c #2F6D0C",
"n  c #316E0F",
"m  c #357200",
"M  c #30710E",
"N  c #2C6513",
"B  c #266911",
"V  c #2B6D12",
"C  c #326E11",
"Z  c #376618",
"A  c #2D7114",
"S  c #347312",
"D  c #377914",
"F  c #3A7C15",
"G  c #37711B",
"H  c #3B761A",
"J  c #1F4121",
"K  c #2C4A2B",
"L  c #375D26",
"P  c #374439",
"I  c #385834",
"U  c #376527",
"Y  c #3C7224",
"T  c #346534",
"R  c #494F11",
"E  c #52471B",
"W  c #53640D",
"Q  c #477719",
"!  c #584E28",
"~  c #4E4F35",
"^  c #46463A",
"/  c #425738",
"(  c #6A5531",
")  c #446C28",
"_  c #46752D",
"`  c #496C38",
"'  c #4B7737",
"]  c #517036",
"[  c #2B3840",
"{  c #393944",
"}  c #670B45",
"|  c #6E0C49",
" . c #770948",
".. c #6C1549",
"X. c #74134C",
"o. c #731848",
"O. c #7B1552",
"+. c #7A1A53",
"@. c #562E43",
"#. c #453C4A",
"$. c #662546",
"%. c #6B2F54",
"&. c #673356",
"*. c #26424B",
"=. c #354B47",
"-. c #3A5A55",
";. c #3F605C",
":. c #206467",
">. c #4D4D42",
",. c #45444C",
"<. c #564B48",
"1. c #4B5449",
"2. c #525146",
"3. c #54554B",
"4. c #59554C",
"5. c #484A54",
"6. c #5F4552",
"7. c #475555",
"8. c #575956",
"9. c #65474C",
"0. c #70534F",
"q. c #675B57",
"w. c #765B53",
"e. c #526A4D",
"r. c #556651",
"t. c #687F48",
"y. c #67655B",
"u. c #63635C",
"i. c #677A57",
"p. c #4E4E6C",
"a. c #595A61",
"s. c #615F6C",
"d. c #566874",
"f. c #6A6B65",
"g. c #74736D",
"h. c #686C79",
"j. c #6E797C",
"k. c #7C7A75",
"l. c #787978",
"z. c #8A140E",
"x. c #B11504",
"c. c #88231F",
"v. c #8D2923",
"b. c #963536",
"n. c #CD0900",
"m. c #D41009",
"M. c #CE2522",
"N. c #D82624",
"B. c #8F4E37",
"V. c #A5433B",
"C. c #87104F",
"Z. c #97095E",
"A. c #811555",
"S. c #831B55",
"D. c #87175B",
"F. c #841B59",
"G. c #891C5C",
"H. c #84235A",
"J. c #833457",
"K. c #921B64",
"L. c #952566",
"P. c #9B2A6B",
"I. c #9A2F6C",
"U. c #A72F74",
"Y. c #A73479",
"T. c #AA337A",
"R. c #B3347D",
"E. c #8D4D49",
"W. c #96476F",
"Q. c #A9427D",
"!. c #AE5B7A",
"~. c #9B6A64",
"^. c #E47D7D",
"/. c #3F8216",
"(. c #3D821A",
"). c #4F9C0C",
"_. c #448617",
"`. c #42851B",
"'. c #458B1C",
"]. c #498E1D",
"[. c #4B931E",
"{. c #4E991D",
"}. c #52921F",
"|. c #529D1F",
" X c #4A8A25",
".X c #4C9421",
"XX c #4E9921",
"oX c #529525",
"OX c #539D21",
"+X c #508331",
"@X c #5D9938",
"#X c #56A124",
"$X c #5DA031",
"%X c #6D9252",
"&X c #7F8772",
"*X c #83857A",
"=X c #696F88",
"-X c #7A7C86",
";X c #AC3D81",
":X c #B53580",
">X c #B63A82",
",X c #BA3C85",
"<X c #B94687",
"1X c #BA578C",
"2X c #BF5590",
"3X c #827D8A",
"4X c #C75996",
"5X c #C06793",
"6X c #CD629C",
"7X c #D0649F",
"8X c #758691",
"9X c #8C8987",
"0X c #91918F",
"qX c #8B8A97",
"wX c #969596",
"eX c #9E9E9D",
"rX c #A89896",
"tX c #9FA09F",
"yX c #A1A19F",
"uX c #9A99B7",
"iX c #A19CB9",
"pX c #9DA5AB",
"aX c #A2A2A2",
"sX c #AAAAAA",
"dX c #B4ACB1",
"fX c #B6B6B5",
"gX c #B9B9B8",
"hX c #C5AAA0",
"jX c #AFADCA",
"kX c #C6C6C6",
"lX c #C8C6C7",
"zX c #D4CBCE",
"xX c #C5C2D8",
"cX c #D6D6D5",
"vX c #ECD2D2",
"bX c #E4E4E4",
"nX c #E8E8E8",
"mX c #F8F7F6",
/* pixels */
"n n n n n n S n n n S n n n c c Q {.[.F N n }.}.|.|.|.|.|.OXOXOXOX|.OXOXOX].B u ",
"n n n n C n n n n m n j % R R 5 ! ( ( ! E R R W Q }.|.}.|.OX}.}..X.X].{.OX[.B i ",
"n n n n n c n z & g R y q q q C.Z.Z.Z.Z.Z.C.w w y ( W W W _.'./.D V V (.XX.XD v ",
"C n C b n ) ! 0 w 7 } G.P.P.P.U.R.R.R.R.R.U.L.L.K.P.W.J.0 E Q M N s p H XXXXF V ",
"n V S Q ] 9.o. .O.A.K.U.>X:XR.>X,X,X>X,X,X,X,X,X<X4X6X1XY.H.! R N h s D ].'.D n ",
"n S G U ~ o. .S.L.Y.>X>X,X<X,X<X<XR.;X;XT.T.,X4X7X6X4X6X5XQ.H.r i h b C D D C n ",
"n H ' K + w A.D.I.4X4X4X,X4X6XQ.&.*.*.K = <.W.2X4X6X6X6X1XY.H.8 . k n M n n n C ",
"c ) r.@.8 X.D.K.R.4X4X4X4X5X!.E.x.x.~.lXlXaX7.&.Y.4X6X1XU.K.F.q 8 r z Z n n n n ",
"n z e o.O.O.K.U.;X,X2X1XQ.V.x.n.n.^.vXnXmXzX0Xk.0.W.<X,XT.L.G.O.X.0 - Z n n n n ",
"n a + | G.F.F.H.L.;XI.J.x.n.N.N.x.yXbXfXeXyXfXaX0.b.T.T.L.H.F.G.F.9 $ z n n n n ",
"S a @ | G.F.X...+.W.v.m.N.N.V.w.0.u.eXfXyXsXaXl.0.w.W.P.+.| +.G.S.7 % z n n n n ",
"S a @ | G.F.X...%.5 x.M.V.0.9.K P r ~ g.k.k.f.2.> 1.r.w...| O.G.H.7 % z C n n n ",
"S a @ X.K.F.X...t c.V.w.<.P > ; - , > : : - > > : : 3.q.$...+.G.F.9 % z S n S n ",
"M a @  .D.F.O.$.5 b.y.1., - : > , , , , , > , , : : ^ u.6...+.G.G.0 $ b n n n n ",
"C c j $.X.O.+.$.c.E.r., ; > > > > > > > > > > > : : - 2.3.$.+.O.X.t z n n n S n ",
"n n ) j 8 } S.c.V.r.>.; , > > > > > > > : > > : > > - >.<.$.F.w @ E ) n S n n n ",
"M b M h % } C.z.V.1.: > > : : > > > > : > : > : > > - >.4.o.H.7 O j M n M n S n ",
"C M M h O w S.c.E.3.: , > > > > > > > > > : > > : : ^ 3.&.S.S.7 % z M n n n M n ",
"S S M S >...O.o.B.<.: , > : : , > > : > > > > , > - >.8.$.C...e h n n n M M C C ",
"`.G x e.&Xq.6 0 r 2.^ : > > > > > : > > > : > : : ^ 3.6.X.w 3 j n n n n n n n M ",
"_.D Y %X8Xe.J e 0 <.u.>.: : : , : > , : : : : - ^ 4.<.| 0 ; k I ] ) n n n C C b ",
"F  Xt.&.r T T # + 8 4.u.2.> , : : > , , , : ^ 4.3.=.@.6 X & T I r / Q n n n n C ",
"D @X%Xw.1.I P < * < =.^ <.4.>.> : , ; ^ 4.3.2.^ -.:.{ { [ K I P r R H C n n b C ",
"F OX$X%X&X8.[ p.=Xh.=.% % P ^ r > P > ^ >.>.^ : P =.=.*.5.7.[ r.i.m G S C b C C ",
"].{.oX%Xi.8.h.iXjX3Xf.l.u.& o .         o o o % & & r 2.y.4.,.8.i.Q _.Q n n C b ",
"#X$X%Xr.< 5.qXxXjXqXeXzXbXdX9Xk.g.g.g.f.q.r.q.8.q.f.k.eX9X3.8.,.2 e.@X_.c b C b ",
" Xt.r.5.#.5.j.-X-Xs.g.gXcXnXbXbXbXbXbXcXgXgXgXsXwXeXtXsX*X-.d.5.{ 5.` ` Y A S D ",
"U P < ,.a.a.2 . #.-X3X9XtXfXkXkXkXkXkXkXgXsXsXaXaXaXaXwXf.1 7.8.a.#.X I ` V F .X",
"d K 1 #.#.< X   p.uXqXf.wXaXtXtXtXtXtXtXaXeXeXeXtXtXeXg.1 = * [ { { / T f x (.|.",
"B Y ` I & # # . #.uXuXl.g.wXaXtXtXtXtXaXyXaXyXeXaXeXk.>.{ # # # = r.%X XB (.(.#X",
"(..XoX X`.D d . a.jXxXjXh.q.9XsXaXtXtXaXaXyXaXaXwXf.f.=X,.) +X_. X@X$X{.XXXX|.|.",
"`.XXXXOX#X(.f $ q.hXxXxXjXqX-Xl.9XaXaXaXaXaX0Xk.j.qXdXrX2 ] $X|.#X#X).|.|.XX{.{.",
"F (.'.{.OX[.S $ t ~.sXlXxXjXiX8X8Xl.&X-X-X&Xj.8XpXkXhXB.O N .XXXOXOXOXOXXXXX(.(.",
"S S F ].OXOX.Xl O y ~.9XqX3Xj.h.d.7.;.;.;.-.d.8X8X*X( 4 X s `.#X#XOX|.|.XXXXA p ",
"n n S '.[.}..XQ / P = X & l u u u a a a i i L 1.* # 1 P & s (.XX|.#X|.|.XXXXA s ",
"n n S F _.`./.`._ L j i L Y Y G G G G G G G _ _ l k k L f x '.#X#X|.|.|.XXXX'.(.",
"n n C n n n n M c b C C C n n C C n C n C C b c N l f u u x (.OX|.|.|.#XOX#XXXXX",
"S S D D D D D D S C C n V n n n C n S S S S V N v f v f f V '.OX|.|.OXXX'..XXX#X",
"_.'.].].].].].'./.S n n C b b C n n S F ].`.v s B (. X`. X X{.|.|.|.OX(.B A '.#X",
"`.{.OXOXOXOXOX|.'.M n C C n n C M S S '.OX'.v p A .XXXXXXXXXXX#X|.#XXXA p s (.XX"
};
