/* XPM */
static char *result[] = {
/* columns rows colors chars-per-pixel */
"29 34 19 1 ",
"  c black",
". c #303038",
"X c #43613D",
"o c #681245",
"O c #5F224F",
"+ c #484850",
"@ c #774041",
"# c #606068",
"$ c #D65821",
"% c #841A59",
"& c #458C4D",
"* c #D79873",
"= c #B73A83",
"- c #E07AAF",
"; c #9089B6",
": c #F7D0BA",
"> c #D0C9E7",
", c #E8E8F7",
"< c white",
/* pixels */
"<<<<<<<<<<<<<<<<<<<<<<<<<<<<<",
"<<<<<<<<<<<<<<<<<<<<<<<<<<<<<",
"<<<<<<<<<<<<<<<<<<<<<<<<<<<<<",
"<<<<<<<<<<<<<<<<<<<<<<<<<<<<<",
"<<<<<<<<<<<ooooooo<<<<<<<<<<<",
"<<<<<<<<<oo%%===%%oo<<<<<<<<<",
"<<<<<<<<o%%=======-%o<<<<<<<<",
"<<<<<<< %%=======-=-% <<<<<<<",
"<<<<<<< %%-=-=====-%% <<<<<<<",
"<<<<<< %%==---=-====%% <<<<<<",
"<<<<<< %%===-=-=====%% <<<<<<",
"<<<<<  %%===========%% <<<<<<",
"<<<<<  %%%==%===%==%%% <<<<<<",
"<<<< = %%%%%*%%%*%%%%% <<<<<<",
"<<<< =% %%*:::::::*%% <<<<<<<",
"<<<< =% *%:%:::::%:%* <<<<<<<",
"<<<< =% *%:>@:::@>:%* <<<<<<<",
"<<<< =%% **, ::: ,** O<<<<<<<",
"<<<<< %o& *:::::::* &o<<<<<<<",
"<<<<< %oX  *::*::*  Xo<<<<<<<",
"<<<<<< % .,@@***@@,, .+<<<<<<",
"<<<<<<<  ,,>,@@@,>,,##+<<<<<<",
"<<<<<<< +#;>>$,$>>; #++<<<<<<",
"<<<<<<< ## +>>$$>+;;   <<<<<<",
"<<<<<<< ++ ;+$+++;; <<<<<<<<<",
"<<<<<<<<    ;;;;;;; <<<<<<<<<",
"<<<<<<<<<<<<  >>>; <<<<<<<<<<",
"<<<<<<<<<<<<<< ;;* <<<<<<<<<<",
"<<<<<<<<<<<<<< ++ <<<<<<<<<<<",
"<<<<<<<<<<<<<< ++ <<<<<<<<<<<",
"<<<<<<<<<<<<<<<  <<<<<<<<<<<<",
"<<<<<<<<<<<<<<<<<<<<<<<<<<<<<",
"<<<<<<<<<<<<<<<<<<<<<<<<<<<<<",
"<<<<<<<<<<<<<<<<<<<<<<<<<<<<<"
};
