/* XPM */
static char *result[] = {
/* columns rows colors chars-per-pixel */
"40 40 231 2 ",
"   c #000000",
".  c #080000",
"X  c #080316",
"o  c #170910",
"O  c #260501",
"+  c #370017",
"@  c #062B00",
"#  c #053500",
"$  c #0C3508",
"%  c #183205",
"&  c #1C3011",
"*  c #262300",
"=  c #292A1B",
"-  c #170023",
";  c #0E162B",
":  c #370023",
">  c #261E31",
",  c #2D3328",
"<  c #2C2D30",
"1  c #35353A",
"2  c #571800",
"3  c #580016",
"4  c #610000",
"5  c #4A2F1C",
"6  c #753F00",
"7  c #42002B",
"8  c #58062C",
"9  c #40112C",
"0  c #560437",
"q  c #67002D",
"w  c #691B2F",
"e  c #640133",
"r  c #6B0033",
"t  c #650839",
"y  c #76043C",
"u  c #51322F",
"i  c #663039",
"p  c #074804",
"a  c #154703",
"s  c #0A5204",
"d  c #135509",
"f  c #1B5B0C",
"g  c #1C5812",
"h  c #27430C",
"j  c #384400",
"k  c #24580D",
"l  c #28471B",
"z  c #295B19",
"x  c #3A5410",
"c  c #1B6408",
"v  c #2D6D03",
"b  c #296309",
"n  c #2E6C0E",
"m  c #32640D",
"M  c #316E0F",
"N  c #2C7106",
"B  c #357B00",
"V  c #32720F",
"C  c #266710",
"Z  c #2C6C12",
"A  c #376417",
"S  c #326E11",
"D  c #366E19",
"F  c #2F7112",
"G  c #347312",
"H  c #3B7C15",
"J  c #36721A",
"K  c #377818",
"L  c #3B7C1C",
"P  c #1E4A23",
"I  c #345428",
"U  c #2E4B34",
"Y  c #365634",
"T  c #356835",
"R  c #4A5A06",
"E  c #4C4511",
"W  c #49660C",
"Q  c #595025",
"!  c #4A5937",
"~  c #62552E",
"^  c #446A2D",
"/  c #447A29",
"(  c #4A6A39",
")  c #53713C",
"_  c #646129",
"`  c #3A3A42",
"'  c #3B3B53",
"]  c #690844",
"[  c #750648",
"{  c #6A1246",
"}  c #60154E",
"|  c #6D1449",
" . c #73154D",
".. c #771650",
"X. c #7B1551",
"o. c #761A50",
"O. c #7D1954",
"+. c #413C49",
"@. c #52394D",
"#. c #752355",
"$. c #703351",
"%. c #6A3766",
"&. c #3F4047",
"*. c #444648",
"=. c #564B45",
"-. c #545B45",
";. c #4D4C58",
":. c #545D55",
">. c #53545B",
",. c #655D51",
"<. c #477242",
"1. c #527D45",
"2. c #5C7252",
"3. c #676F53",
"4. c #4D4C68",
"5. c #585666",
"6. c #6B4C69",
"7. c #625F76",
"8. c #72706C",
"9. c #8C0551",
"0. c #870856",
"q. c #821456",
"w. c #811957",
"e. c #861459",
"r. c #841A59",
"t. c #891C5D",
"y. c #89215D",
"u. c #91315E",
"i. c #9A0061",
"p. c #8D1860",
"a. c #9A1061",
"s. c #8D2262",
"d. c #952767",
"f. c #9C2A6D",
"g. c #833F65",
"h. c #A02270",
"j. c #A22E72",
"k. c #A63375",
"l. c #AB3379",
"z. c #B3347F",
"x. c #B1387E",
"c. c #996D56",
"v. c #955578",
"b. c #39810E",
"n. c #3F8316",
"m. c #3D821B",
"M. c #4E910F",
"N. c #43861A",
"B. c #458B1B",
"V. c #468B1B",
"C. c #4C961B",
"Z. c #4C941F",
"A. c #50971F",
"S. c #529D1F",
"D. c #53A31C",
"F. c #498D22",
"G. c #4C852B",
"H. c #4D9421",
"J. c #4F9822",
"K. c #539D21",
"L. c #549A26",
"P. c #4F8336",
"I. c #629D3E",
"U. c #55A123",
"Y. c #5CA329",
"T. c #5EA630",
"R. c #5D834B",
"E. c #68904D",
"W. c #70A74F",
"Q. c #778E6C",
"!. c #B28A75",
"~. c #85A86B",
"^. c #765682",
"/. c #726C8E",
"(. c #787689",
"). c #796B95",
"_. c #7F7AA2",
"`. c #B53681",
"'. c #B93783",
"]. c #B73A83",
"[. c #B93C85",
"{. c #BA4687",
"}. c #BD448A",
"|. c #BC568D",
" X c #907893",
".X c #847AA7",
"XX c #C14C8E",
"oX c #C55392",
"OX c #C75995",
"+X c #C85996",
"@X c #CB5C99",
"#X c #CD629C",
"$X c #D0659F",
"%X c #D0699F",
"&X c #D167A0",
"*X c #D46BA3",
"=X c #DC75AB",
"-X c #DD76AC",
";X c #E07BB0",
":X c #898599",
">X c #909095",
",X c #B69E98",
"<X c #8A87AD",
"1X c #938DA6",
"2X c #958EAA",
"3X c #9995AB",
"4X c #8E88B1",
"5X c #928BB3",
"6X c #9187B8",
"7X c #9993B9",
"8X c #A08AAC",
"9X c #A69AB6",
"0X c #A8A5BB",
"qX c #B2AEB7",
"wX c #D7AF9F",
"eX c #E1BFB8",
"rX c #9B94C2",
"tX c #A19BC3",
"yX c #ACA6C7",
"uX c #B2A7C7",
"iX c #B7B5C5",
"pX c #B0AAD2",
"aX c #BDB5D7",
"sX c #BEB8DB",
"dX c #C2BBDA",
"fX c #C1BEE0",
"gX c #C7C2DC",
"hX c #D9CCD5",
"jX c #C9C4E2",
"kX c #CECBE4",
"lX c #D8D4EB",
/* pixels */
"M M M M M M M M G M M V M S V n V V.K.V.n F V.L.U.K.U.D.K.K.K.K.S.K.S.K.U.C.C p ",
"M M M M M S S G G K G n j j j E Q _ _ Q Q E R R W C.U.U.U.U.J.J.Z.Z.Z.A.K.Z.Z s ",
"M M M M S M v m x * x u t q q 9.a.i.i.i.a.9.y q e ~ ~ R W Z.B.n.K Z C m.L.H.G b ",
"M M M S v G ) u r 8 q 0.f.j.j.l.x.[.[.{.].x.j.f.d.h.k.u.r 5 D N C s p J L.K.N.n ",
"M M M V / ,.$.y w.e.p.j.].].`.'.'.'.].].].].'.[.{.@X*X%Xx.t.i W D f d G H.V.K n ",
"M M G D ^ @.y q.t.f.`.].].[.[.[.'.].'.].'.x.'.XX*X%XOX|.%XOXp.u a g S S G G M M ",
"S v G.<.; + q.q.r.{.$XoX].oX#X+X{.z.'.].].`.].}.oX#X%X#X|.x.d.0   h V M M M M M ",
"S v ^ ,.i 8 e.e.f.|.&X#X+X*X-X=X+X}.'.{.oXXX{.z.`.}.%X#Xk.0.r.| 8 u x D M V M M ",
"S G = 8 O.q.r.f.l.x.[.+X*X-X;X;X=X@XXXOX*X#X}.x.].].[.[.x.k.s.q.O.] = I V M M M ",
"S S a 7 e.t.r.O.y.f.`.}.oX*X-X*XoX@X*X*X+X}.'.].].].`.l.s.#.w.t.p.t @ x S M M M ",
"M G a 7 e.t.w.{ { d.`.].`.}.+XXX[.}.+XoX[.`.].].].[.[.k.o.] ..t.t.t * z V M M M ",
"M V a 7 e.r.w. .{ s.k.`.].].'.].'.].].`.`.].].].].].l.f.o.{ X.t.t.t * A S M V M ",
"M V a 7 e.t.w. .{ o.p.j.[.[.].].].].].].].'.[.[.'.l.d.w.{ | X.t.p.0 * A M M M M ",
"M G a 7 e.t.w. .{ | w.j.].[.[.].].[.].].].].].[.'.l.s...{ { O.r.p.] $ C G M M M ",
"M M v ! | [ O.O. . ...s.j.l.[.[.].].].].].[.[.`.l.d.w. . ...w.X.[ ~ ^ M M M M M ",
"M M S A k + O.t.w...{  .w.f.l.].[.[.].[.'.].x.j.s...|  .O.r.t.t * I W M M M M M ",
"S M S G a : w.t.w...{  .w.t.p.j.x.].].[.'.l.d.t.w.X.{  .O.t.r.t O I v V V V M V ",
"V M n S a : w.s.w. .{  .r.w.r.s.f.f.f.f.f.s.t.w.r.X.| | X.t.y.0 % A G M M M M M ",
"N.G G v ) ,. .[ w.O.....o.w.r.r.e.r.w.r.r.r.r.w.O. . .o.r.X.[ u b V M V M M M V ",
"J.n.S c ~.>XU : o.r.w...{  .r.r.w.w.w.w.w.r.r.O.|  .w.r.r.e O k D M M V M M S M ",
"F.n.L 3.8.R.<.P 9 ] O...{ | w.r.r.r.r.r.r.r.r.O.| | O...0 , T T -.) m S M M M M ",
"Z b.I.3.0 & <.P   O 3 t ..O...O.w.r.r.r.r.w.o.o.X.[ 8 + . $ T I + Q / V M S V n ",
"d / T.W.8.5.Y 1 ' ' @.%.X.[ |  .w.r.r.r.r.o. .] [ #.@.' ' ` U -.-.m J V M M M M ",
"v V.A.Y.~.Q.` 4._.<X_.^.o.t {  .w.r.r.r.r.o.| ] [ 6._._.<X/.; 7.Q.B H G M M M M ",
"A.S.U.E.1.Y 5.0XkXfXrX.X).%.4 q X.y.w.w.y.[ 4 } ^..X6XpXlXaX8.&.-.) S.m.F V M n ",
"K.L.E.3.+.> 8.0XiX3X/.<XyX9X Xv.#.9.q.q.X.g.v.8XtXrX/.:XiXiX:X&.> :.E.G.N F V n ",
"/ ) *.*.>.>.5.;.*.>.7.1XpXkXjX9X$.y q.y w  XdXgXdX9X(.5.&.*.>.5.>.*.1 Y 1.Z H m.",
"s I , < >.>.*.    (.qX3X(.0XjXuX$.q e.y w  XdXgX1X:XuX2X*.  1 >.>.` o Y ( g m.K.",
"d g T *.< - -   ; (.uXyX2X3X1X8.=.e [ r u 6.:X3X3X9XpX5X;.  X - X ' Q./ s c m.U.",
"C G F.P.^ m k $ o /.pXsXaX7X7.4.5.6.%.%.5.4.4..XyXaXaX1X' , T m A R.W.V.m.m.J.U.",
"G F.U.S.U.L.L # = >XhXgXyX7X4X4X5X5X5X5X5X4X4X5XtXaXlXiX+.( I.D.T.T.M.K.U.K.K.K.",
"G V.Z.H.U.J.m.d < c.wXhXkXjXdXsXsXsXdXsXsXsXsXfXkXhXeX!.5 A L.K.S.D.D.S.U.K.H.B.",
"M G K N.S.K.A./ . 2 c.,XdX0X2X1X3X2X2X2X2X2X3X0XiXqX!.6 O p F.K.S.S.S.K.K.J.F c ",
"M M n H S.S.K.H.l ` 1 ` 1 ! l @ # # # # # # & >.1 ` ` < & p L L.S.K.S.K.K.Z.C s ",
"M M M H V.V.V.V.G.2.& @ % ^ ^ J D D D J D J / R.l $ & ! I s m.K.U.S.S.U.U.J.m.F ",
"M M M M V G G G V v G S S M V Z S S G M S S S v A A z d p g m.U.S.S.S.U.U.J.J.J.",
"M M S S G M S M G G M M n S M M M M M M V G F Z C d s d p g m.K.S.S.U.K.K.K.J.U.",
"V H N.N.N.N.V.V.N.G M M M M S n M M M K N.N.Z f C J L L K m.Z.S.S.U.D.m.J K F.U.",
"G Z.S.K.S.K.K.K.Z.H M M M M M M M M S H K.H.F p g F.U.J.L.J.L.U.S.U.K.K s d m.U.",
"G V.J.S.S.K.S.U.A.n.G G M M M M G G G n.K.K.F d C J.U.K.K.U.U.K.K.J.F.K d c m.H."
};
