/* XPM */
static char *result[] = {
/* columns rows colors chars-per-pixel */
"25 30 20 1 ",
"  c black",
". c #303038",
"X c #4F2130",
"o c #43613D",
"O c #681245",
"+ c #484850",
"@ c #774041",
"# c #606068",
"$ c #8E212B",
"% c #D65821",
"& c #841A59",
"* c #458C4D",
"= c #D79873",
"- c #B73A83",
"; c #E07AAF",
": c #9089B6",
"> c #F7D0BA",
", c #D0C9E7",
"< c #E8E8F7",
"1 c white",
/* pixels */
"11111OOOOO111111111111111",
"111OO-----OOOOO1111111111",
"11O---------&--OOO1111111",
"1O--------;--&----OO11111",
"1O----;-;;-;--&-----O1111",
"O;;----;;;;---&------ 111",
"O;&;-----;-----O&---- 111",
"O&&&O=X--------O&&&--- 11",
"1O&O>>=-------&&&&&&-- 11",
"11@>>>>-----&&&&&&&&--- 1",
"11@>>&>&&&&&&&&&& &&&-- 1",
"11@>@<>&X&&&&&&& 1 &&-- 1",
"11@> <>&==&&&&& 11 &&-- 1",
"11=>>>>===&&&  1111 &-- 1",
"111@>>== $   111111 &- 11",
"1111@@= * 11111111 &-- 11",
"11111,, o 111111  &&- 111",
"1111.<,:O:11111 &&&  1111",
"111@%<,<<::1111    111111",
"111 <.<< ,:11111111111111",
"111 .### <, 1111111111111",
"11  .++ ,,, 1111111111111",
"11 +.  ,,  .1111111111111",
"111 ++   ==+ 111111111111",
"1111  111 ++ 111111111111",
"1111111111  1111111111111",
"1111111111111111111111111",
"1111111111111111111111111",
"1111111111111111111111111",
"1111111111111111111111111"
};
