/* XPM */
static char *result[] = {
/* columns rows colors chars-per-pixel */
"40 40 226 2 ",
"   c #040504",
".  c #171B0A",
"X  c #111319",
"o  c #32160D",
"O  c #290518",
"+  c #261817",
"@  c #052800",
"#  c #0A2B00",
"$  c #152309",
"%  c #043702",
"&  c #1B3B04",
"*  c #192C11",
"=  c #26310B",
"-  c #32241D",
";  c #253715",
":  c #131427",
">  c #3A0426",
",  c #331A20",
"<  c #102B3B",
"1  c #2A2A2F",
"2  c #3B2625",
"3  c #363224",
"4  c #35363A",
"5  c #4A2B0F",
"6  c #62211A",
"7  c #470E2D",
"8  c #550238",
"9  c #59163A",
"0  c #5A133C",
"q  c #670038",
"w  c #46272C",
"e  c #4A372D",
"r  c #583337",
"t  c #6E272E",
"y  c #044A05",
"u  c #0A4D06",
"i  c #184B06",
"p  c #0E5208",
"a  c #125109",
"s  c #155509",
"d  c #1C5B0B",
"f  c #1F4E10",
"g  c #24480C",
"h  c #275708",
"j  c #26550C",
"k  c #245B0B",
"l  c #295B0D",
"z  c #284814",
"x  c #344C17",
"c  c #2A5815",
"v  c #335614",
"b  c #1F620E",
"n  c #2B6B02",
"m  c #23620E",
"M  c #2B650E",
"N  c #2D6A0E",
"B  c #316E0F",
"V  c #2D7208",
"C  c #337B06",
"Z  c #32710F",
"A  c #2E6513",
"S  c #266911",
"D  c #2C6C12",
"F  c #336513",
"G  c #316D11",
"H  c #38691A",
"J  c #2E7115",
"K  c #337311",
"L  c #357915",
"P  c #3A7C15",
"I  c #387718",
"U  c #397B1A",
"Y  c #375724",
"T  c #34502E",
"R  c #367033",
"E  c #4F6C10",
"W  c #4B731F",
"Q  c #447E1C",
"!  c #484A27",
"~  c #465B2A",
"^  c #504938",
"/  c #6E5434",
"(  c #496628",
")  c #506E2D",
"_  c #6B6B2F",
"`  c #3B3C45",
"'  c #6A0A46",
"]  c #78044D",
"[  c #6A1446",
"{  c #74154D",
"}  c #741A4C",
"|  c #7B0953",
" . c #7C1853",
".. c #523B40",
"X. c #752A4C",
"o. c #733249",
"O. c #71334B",
"+. c #792652",
"@. c #6F3C52",
"#. c #3D434D",
"$. c #45454A",
"%. c #52544F",
"&. c #4A4B56",
"*. c #745054",
"=. c #586F53",
"-. c #767450",
";. c #555867",
":. c #626369",
">. c #6E6F74",
",. c #840658",
"<. c #811556",
"1. c #821A56",
"2. c #841A59",
"3. c #87195B",
"4. c #8A2E4F",
"5. c #87295D",
"6. c #842B5C",
"7. c #86335E",
"8. c #9A0067",
"9. c #951A66",
"0. c #8E2161",
"q. c #8B2662",
"w. c #932666",
"e. c #972769",
"r. c #962A68",
"t. c #9B2B6D",
"y. c #943768",
"u. c #9F2D71",
"i. c #A32E72",
"p. c #A52A74",
"a. c #AD2D7A",
"s. c #A53375",
"d. c #AC3275",
"f. c #A93579",
"g. c #AC347A",
"h. c #B2367E",
"j. c #B3397F",
"k. c #8B5254",
"l. c #907056",
"z. c #AC7154",
"x. c #B97A5E",
"c. c #994D6F",
"v. c #885666",
"b. c #AB487A",
"n. c #B45672",
"m. c #8E6B6F",
"M. c #A87A6E",
"N. c #B97465",
"B. c #A86776",
"V. c #AB7673",
"C. c #3D8117",
"Z. c #3E821A",
"A. c #43851A",
"S. c #46891A",
"D. c #458B1C",
"F. c #4B931E",
"G. c #4E991A",
"H. c #529D1F",
"J. c #51A115",
"K. c #488822",
"L. c #528521",
"P. c #4D9521",
"I. c #4F9921",
"U. c #539D21",
"Y. c #549824",
"T. c #4D9734",
"R. c #5A9231",
"E. c #6B8F33",
"W. c #56A123",
"Q. c #5AA428",
"!. c #5D9142",
"~. c #6D9156",
"^. c #6CA44E",
"/. c #A9A059",
"(. c #BA8E6B",
"). c #8DAB78",
"_. c #C78A69",
"`. c #CF9677",
"'. c #D69774",
"]. c #6B6F8B",
"[. c #7D7B8A",
"{. c #B30C81",
"}. c #B72B86",
"|. c #B53581",
" X c #B63982",
".X c #B93B85",
"XX c #BF3D89",
"oX c #BD458A",
"OX c #B9568D",
"+X c #917982",
"@X c #BE6A8D",
"#X c #C14B8E",
"$X c #C55493",
"%X c #C95997",
"&X c #CB5C99",
"*X c #CA6394",
"=X c #D1669F",
"-X c #D369A2",
";X c #DB74AA",
":X c #E17BB0",
">X c #8D8E97",
",X c #B7939C",
"<X c #9DAA91",
"1X c #A3BB98",
"2X c #9997AD",
"3X c #A49EB5",
"4X c #AEACB6",
"5X c #C8998D",
"6X c #D2AA95",
"7X c #E4AF91",
"8X c #D9B3AE",
"9X c #E4B9A6",
"0X c #E6BDAB",
"qX c #F0C3AB",
"wX c #ECC4B1",
"eX c #F3CBB4",
"rX c #F6D1BB",
"tX c #FAD4BE",
"yX c #B0B1C8",
"uX c #B6B4C8",
"iX c #CDCDD5",
"pX c #F5DACE",
"aX c #D9D5E6",
"sX c #D8D6F0",
"dX c #F1DBE8",
"fX c #FCE8E3",
/* pixels */
"B B B G B B B Z K G N Z B B B N C.U.I.Q N L H.W.U.H.I.W.I.U.U.H.U.U.U.W.I.L y m ",
"B B B B B Z B B G K Z Z N B K K A.H.U.C.B L D.F.G.W.H.W.W.H.H.F.P.P.F.U.I.P a m ",
"B B B B B B Z G G G G G G K A.F.F.U.H.P Z N S S A.U.U.U.H.F.C.P D m L P.U.Z.m N ",
"B B B B B B K K V V V V V C F.H.U.U.I.A.Z S u y L Y.U.U.H.D.Z N d y m P.U.A.G N ",
"Z N N K P Q A.Q ( ~ ( ( ~ ~ ( !.U.J.G.K F H S S Z.U.W.W.U.D.Z B m s N S.F.Q G B ",
"B Z G P Q W W / O.6.q.7.7.6.,.v./.^.~.=.~ ( ( ( R.Q.H.W.W.F.Z B N N B K Z G B B ",
"Z Z B E / ..o.6.d.h.a.h.a.a.a.g.c.+Xv.:.*.@.+.O.~.^.R.K.L.S.Z B Z Z B B B B B B ",
"B B v ^ 7.s.i.g..X.X.X.X.X.X.X|.8.8.8.,.,.9.p.a.c.m.*.t r ! F F F B B B B Z B B ",
"v ! O.y.h..X.X.X X X X X|. X}.oX%X&X.Xa.i.t.d.|.a.8.9.t.t.X.^ e ! F N Z B Z B B ",
"x 9 e.j.XX X.X X.XoXoXoX X#X#X$X=X-X%X#X|.t.w.i.h.XX.X.XXXd.3.5.+.! v Z Z B B B ",
"! o.i.#XXX|. X|.oX&X=X$X%X;X:X;X%X%X=X%X.X|.s.w.t.|.XX.X.Xj.j.j.s.6.r v M B B B ",
"*.*X-X=X$X X X X|.oX$X=X;X;X:X:X;X=X$XoX X.Xf.0.e.|..X|.|..X.X.X X X7.+ i B B B ",
"y.-X-XOX*X*XoX|.|.|..X$X&X&X;X;X-X$X|.j. X Xj.f.t.w.e.i.j..X.X.X XXXr.O & F B G ",
"7.OXj.4.b.OXs.f.n.b.t.a.}.|.$X&XoX|.|..X X|..X.Xr.[ ' 3.u.i.i.h. XXXs.+.e x N G ",
"*.} ,.<.| | +.V.`.z.O.s. X X X X X|.|..X.X.X.Xj.w.{ { 2.2.<.2.u.h.|..X|.+.+ j K ",
"H 5 q <.' k.6XeXqX7X(.n.}. X X X X.X.X|.|.|.g.w.2.1.2.2.1.2.1.3.e.h..X X6., j G ",
"G n -.v.M.8XeXpXrXeX9X*X{.|..X.X X|. Xf.e.e.0.2.2.2.3.2.3.2.1. .w.g.XX|.g.7.w & ",
"G D H _ 5XtXtXwX6X9XqX@X8.t.i.u.s.s.u.w.3. .2.2.2.2.3. .[ { 1.2.3.t.d.|.XXg.0 @ ",
"A.I N _ 5XeX8X,X,X8XwXB.] { ,.,.2.2.2.2. .2.2.2.2.3. .9 3 2 [  .1.<.e.j.XXf.0 @ ",
"Y.C ~.l.6X9X(.>XaXpX0XB.q 9 X.5.2.1.<.1.2.q.2.3.2. .8 * H z + [ 1.<.e.j.XXs.9 @ ",
"F.C =.l.6X9X=.].sXfX0XB.4.x._.N.c.,.<.3.3.2.2. .[ > * k H f   0 +.1.e.j.XXf.0 @ ",
"D Z._ (.qXwX5X6XpXpX0X5XN.'.'.`.c.,.<.3.1.' 8 8 w z l G K l ; 2 9 { e.|.XXg.0 # ",
"d A.E./.6X9XrXpXtXeX7X7X_.x.x.x.k.q ' { [ e T ; c H G N B B M & O [ r.h.h.7.w i ",
"B F.Q.Q._ l.7XqX9X7X'._.z.! 6 t 6 . + O 3 Y A A D D B B B F g = >  .i.|.q.2 x G ",
"F.H.W.G.F.W l.k.k._._./ ! R T . g M h h l G B B G D B G B g . w X.s..Xj.+.= k K ",
"U.Y.Y.U.W.H.E E E ~.k.o % R R   j K K K G G B B G N i % # - 0 [ r.|.f.X.e v M P ",
"U U U U A.S.T.^.!.T.U ) ~ o ^ ~ W Z.U G k M N G M x w 8 8 [  .} [ 5.O.; y G Z.D.",
"a a a k F E _ ).1X<X^.).<X+X[.>.!.Y.P.D p d N G g O 0 {  .} X.7 - 3 T f a K Y.U.",
"a p u c ! / z.7XiXyX>X4XiXiX>X^ =.!.T.J p d N N z . , > > > O * S Z.U d p C.U.W.",
"S U Z.Q & *.8XdXaX2X;.[.2X2X:.: ;.~.K.D S M N B l i i D I F F I I.W.I.K.Z.Z.H.W.",
"K P.Y.L.* &.uXsXsX>X  T %.` X ` >X>XT h G G B N m p d D.Q.W.Q.W.H.H.H.W.W.W.W.W.",
"K A.I.Q & 1 ].3X4X].: &.:.;.* &.3XuX$.@ A B B B M a d P F.F.H.H.H.W.H.W.H.I.D.D.",
"B I L I j X $.>.[.>.r $.#.#.X &.3XyX$.% F B B B N M S m b L I.U.H.H.H.H.I.Z.b b ",
"B B B P Q v ; >.3X,Xz.^   : 1 $.:.=.Y l B Z B B G G N s y D P.U.H.W.H.W.W.J p y ",
"B B B I F.A.H =.+Xm.m.%.1 4 4 1 # h N B B B B B S M m s a J I.W.H.H.H.H.I.Z.J S ",
"B B B B Z Z I h     < 4 ` 4 1 & c K B B B B Z B k a i a p S I.W.H.W.H.W.W.I.P.Z.",
"B B B B B B B G A ; $ . $ $ g A B G B Z K Z D N m a p p p J I.W.W.H.I.I.I.W.W.P.",
"Z Q A.A.S.S.S.D.Z.G l l k l N N Z B K P S.C.m d D U Z.U U Z.I.H.H.W.P.Z.J D.W.P.",
"C F.Y.Y.Y.U.U.U.F.L N B G N B B Z N K D.U.D.d y I Y.Y.I.T.I.W.W.H.W.Z.s y J I.W.",
"K D.H.H.H.H.U.U.F.P K K B B B B Z K P D.W.D.m s U U.W.U.W.H.H.H.I.P.Z.b d C.P.P."
};
