/* XPM */
static char *result[] = {
/* columns rows colors chars-per-pixel */
"23 31 15 1 ",
"  c black",
". c #303038",
"X c #43613D",
"o c #681245",
"O c #484850",
"+ c #606068",
"@ c #841A59",
"# c #458C4D",
"$ c #D79873",
"% c #B73A83",
"& c #E07AAF",
"* c #9089B6",
"= c #D0C9E7",
"- c #E8E8F7",
"; c white",
/* pixels */
";;;;;;;;;;;;;;;;;;;;;;;",
";;;;;;;;;;;;;;;;;;;;;;;",
";;;;;;;ooooooo;;;;;;;;;",
";;;;;oo@@%%%@@oo;;;;;;;",
";;;;o@@%%%%%%%&@o;;;;;;",
";;; @@%%%%%%%&%&@ ;;;;;",
";;; @@&%&%%%%%&@@ ;;;;;",
";; @@%%&&&%&%%%%@@ ;;;;",
";; @@o%%&%&%%%%o@@ ;;;;",
";; @@o%%%%%%%%%o@@ ;;;;",
";; @@o@%%%%%%%@o@@ ;;;;",
";; @@o@%%%%%%%@o@@ ;;;;",
";;; @@o@%%%%%@o@@ ;;;;;",
";;; @@o@@%%%@@o@@ ;;;;;",
";;; @@o@@@@@@@o@@ ;;;;;",
";;;; @@o@@@@@o@@ ;;;;;;",
";;;o# @o@@@@@o@ #o;;;;;",
";;;oX  @o@@@o@  Xo;;;;;",
";;;; . oo@@@oo . O.;;;;",
";;;; --.o@@@o**.OO.;;;;",
";;;; ++ =o@o== ...;;;;;",
";;;.++ +=o@o=O= ;;;;;;;",
";;;.OO =OOoOO=* ;;;;;;;",
";;;;    =---=** ;;;;;;;",
";;;;;;;;  ..== ;;;;;;;;",
";;;;;;;;;; OO$ ;;;;;;;;",
";;;;;;;;;; OO ;;;;;;;;;",
";;;;;;;;;; OO ;;;;;;;;;",
";;;;;;;;;;;  ;;;;;;;;;;",
";;;;;;;;;;;;;;;;;;;;;;;",
";;;;;;;;;;;;;;;;;;;;;;;"
};
