/* XPM */
static char *result[] = {
/* columns rows colors chars-per-pixel */
"40 40 233 2 ",
"   c #010001",
".  c #050A06",
"X  c #0F020F",
"o  c #011100",
"O  c #0D1708",
"+  c #111B09",
"@  c #141616",
"#  c #320C16",
"$  c #0A2703",
"%  c #162908",
"&  c #003400",
"*  c #183707",
"=  c #0D2418",
"-  c #1B3A13",
";  c #2D2F14",
":  c #213E11",
">  c #1E1B26",
",  c #3A0528",
"<  c #381227",
"1  c #262A25",
"2  c #293826",
"3  c #2F3130",
"4  c #323334",
"5  c #353839",
"6  c #4C0111",
"7  c #661C19",
"8  c #49311B",
"9  c #4C062C",
"0  c #441429",
"q  c #500832",
"w  c #570A38",
"e  c #59123B",
"r  c #532C2F",
"t  c #563535",
"y  c #61372C",
"u  c #65363B",
"i  c #044C05",
"p  c #0B4805",
"a  c #124403",
"s  c #1C4608",
"d  c #145309",
"f  c #185508",
"g  c #1C5B0B",
"h  c #1B4A13",
"j  c #04501F",
"k  c #254909",
"l  c #255D0C",
"z  c #354B1A",
"x  c #265914",
"c  c #355B15",
"v  c #1D6408",
"b  c #276709",
"n  c #2C650E",
"m  c #2E6B0E",
"M  c #33630F",
"N  c #316E0F",
"B  c #357500",
"V  c #32700F",
"C  c #286612",
"Z  c #2A6C12",
"A  c #326D11",
"S  c #396919",
"D  c #347312",
"F  c #377517",
"G  c #3B7D15",
"H  c #3C751A",
"J  c #3C7D1C",
"K  c #364B28",
"L  c #314E2B",
"P  c #3A5A38",
"I  c #346B2C",
"U  c #42571B",
"Y  c #474727",
"T  c #594939",
"R  c #6E4C37",
"E  c #556B2B",
"W  c #48762A",
"Q  c #5A762C",
"!  c #506632",
"~  c #3C3B43",
"^  c #6A0545",
"/  c #73004A",
"(  c #691745",
")  c #691646",
"_  c #77164C",
"`  c #7A0B52",
"'  c #7D1653",
"]  c #672942",
"[  c #623545",
"{  c #733057",
"}  c #44474A",
"|  c #50544D",
" . c #54545B",
".. c #715D44",
"X. c #546F48",
"o. c #495567",
"O. c #585467",
"+. c #5C5C63",
"@. c #4D5473",
"#. c #5D5977",
"$. c #655763",
"%. c #65696A",
"&. c #6F6972",
"*. c #993016",
"=. c #985227",
"-. c #A65938",
";. c #801B4F",
":. c #800958",
">. c #801555",
",. c #841B5A",
"<. c #871A5B",
"1. c #8B235C",
"2. c #8D365A",
"3. c #97066A",
"4. c #8E1F61",
"5. c #971B67",
"6. c #A21971",
"7. c #942466",
"8. c #942A67",
"9. c #9D2B6E",
"0. c #9E3271",
"q. c #A1336C",
"w. c #A62C76",
"e. c #A43274",
"r. c #AC337A",
"t. c #B2337F",
"y. c #8F5650",
"u. c #A05A40",
"i. c #8F6748",
"p. c #AA6652",
"a. c #B3755A",
"s. c #9A506B",
"d. c #A84A6F",
"f. c #AB5C64",
"g. c #916C6D",
"h. c #A8686C",
"j. c #B46A68",
"k. c #B2756C",
"l. c #A27B78",
"z. c #D76240",
"x. c #D47971",
"c. c #3E8216",
"v. c #3E831A",
"b. c #42841B",
"n. c #47831C",
"m. c #458A1B",
"M. c #498D1D",
"N. c #4C931E",
"B. c #4F991F",
"V. c #519C1F",
"C. c #478923",
"Z. c #4C9321",
"A. c #4F9920",
"S. c #539523",
"D. c #539D21",
"F. c #578C31",
"G. c #55A122",
"H. c #5DA52C",
"J. c #61A23B",
"K. c #618650",
"L. c #718B6E",
"P. c #B8825D",
"I. c #89857B",
"U. c #B18472",
"Y. c #C3825D",
"T. c #C4856B",
"R. c #D3946B",
"E. c #D69A76",
"W. c #DBA07E",
"Q. c #696484",
"!. c #77738D",
"~. c #777694",
"^. c #7D7DA5",
"/. c #B43481",
"(. c #B63982",
"). c #B93C85",
"_. c #BC4489",
"`. c #B65588",
"'. c #877D93",
"]. c #B27C83",
"[. c #847EA6",
"{. c #947FA0",
"}. c #C24E8F",
"|. c #C55292",
" X c #C45A94",
".X c #CB5D99",
"XX c #CE629D",
"oX c #D267A0",
"OX c #D56BA3",
"+X c #DC75AB",
"@X c #7F8384",
"#X c #8A8696",
"$X c #8D9094",
"%X c #BB8685",
"&X c #AF8E94",
"*X c #8883A6",
"=X c #8C88AA",
"-X c #9A97A9",
";X c #9C98B5",
":X c #A58DA6",
">X c #A797A9",
",X c #A39CB4",
"<X c #B79AB2",
"1X c #A7A4B8",
"2X c #B3AFB9",
"3X c #C88584",
"4X c #C99688",
"5X c #D29587",
"6X c #CB9597",
"7X c #DBA68A",
"8X c #CAA794",
"9X c #D6A798",
"0X c #E0A98A",
"qX c #E6B599",
"wX c #D2ACB3",
"eX c #E6BBA6",
"rX c #EEC5AE",
"tX c #EBC8B8",
"yX c #F2CAB5",
"uX c #F7CFB8",
"iX c #F7D0BB",
"pX c #FAD3BD",
"aX c #9F97C0",
"sX c #B3AECB",
"dX c #B9B8CA",
"fX c #D2B4C5",
"gX c #C9B7D1",
"hX c #CBC5DB",
"jX c #D7C8DD",
"kX c #EDD1CB",
"lX c #D4CFEB",
"zX c #D2D2E7",
"xX c #E2DAE5",
/* pixels */
"N N N N V V N V N V N N N N V V G N.G.N.D D n.S.D.D.D.D.D.D.D.V.S.A.A.A.G.N.Z i ",
"N N N N N N N N N N V V N N G b.m.N.S.m.D A D F J Z.D.V.D.V.M.m.b.J F m.G.Z.D g ",
"N N N N N N N N N N N N N D m.D.S.E Q E U K z : z E Q Q D.D.c.V Z d i F D.A.J m ",
"N N A N V D V D V D D V N N n.S.E u ) ( ) ) ) ) ) ( ) u F.Z.n.G Z f d F A.Z.G m ",
"N N N D m.M.M.M.m.m.M.b.A U t u ] >.>.<.9.e.e.e.9.>._ _ r 8 U V A C C D b.G D m ",
"N N N G B.D.D.V.D.D.D.n.Y u _ ' <.9.q.e./.).).).t.9.5.q.`.8.y B A D H H D V N N ",
"N N N G M.V.V.V.D.D.Z.! u ' <.1.9.t.).t.(.(.(.).t.).}.|.OX X2.e 8 Z A H H D N N ",
"N N N V G G M.G.D.D.S 0 _ >.<.e.t.)._.).).(.(.(.t._..XoX|. X X7.9 s S H C.A N N ",
"N N N N m N b.H.H.J.L.> _ >.1. X|.}.|.XX).t.t.t.t.t.}..XoX Xd.8.9 & B H F.S N N ",
"N N N N N A G C.Z.J.I.e _ <.0. XXXXXOX+X.X}.t.}.}.}.t.}.XX}.7.<.^ r X.A W A V N ",
"N N N N A A C g g k t ' >.9.t.).|.OX+X+X+X.X}.oX.X).t.)._.).r.7.>._ t d m N V V ",
"N N N N A D C i h 1 6 ;.,.9.).t.).|.OXOX.X.XoX.X}.t.t.)./.(./.7.;._ # 2 N N N N ",
"N N N N N H S f h 1 w >.,.9.t._.t.t.|.|.}.}.|.}.t.).).(.(.).t.7.>._ q K A A V V ",
"N N N N N b v d     e <.>.7.r.).).).t.t.t.).).)./.w.t.).).(.e.4.<.>.w K A V V V ",
"N N N A N W K.X.X . e <.<.,.7.w.t.t.6.5.w.t.t.t.w.5.9.t./.e.4.,.<._ 9 2 A V V V ",
"N N N A B X.I.h./ # e >.<.>.<.4.3.5.f.j.q.3.3.3.d.j.d.3.5.4.<.' <.>.6 * M V V V ",
"N N m V N s 9 5.9.) w ) :.:.1.s.j.%X7X7X3XU.].].4X9X4X].f.y.:.:./ { %.B A N N N ",
"V N V V N & , 0.r.<.9 < 2.<.2.k.7XeXtXiXuXyXtXyXuXiXtXqX7Xj.1.4.w | $XB F A V N ",
"b.G N N Z a < 0.r.,., y a.f.s.9X9X].9XiXpXpXuXpXiXyX6X%XeX6Xs.j.y.T L.F.H A A V ",
"D.G m N m * < 0.r.' # T R.j.s.eXkX<X&X8XrXpXuXpXeX4X:XwXtX6Xy.x.P.Y L H A N V N ",
"M.c.V D A a < 0.r.1.w [ p.a.l.7XkXjX#X=.wXkXpXpX8XT ,XjXtX5Xh.p.i.Y f m N N N N ",
"Z v.M.N.m.l , q.e.4.' ( < y.P.E.eXxX-X..eXpXpXpX4XT 2XxXqXR.U.R ; c m A N N N N ",
"d v.G.D.A.M.S t _ ,.:.[ I I i.Y.9XkXtX9XyXpXpXpXrX8XtXtXW.a...I P Y c A N N N N ",
"Z m.G.V.D.D.C.* 0 ' ` [ X.j   7 a.qXuXkXpXrXeXyXpXpXuX0Xu.6 . I X.u t D N N N A ",
"m.A.G.D.D.G.v.x 0 _ ` ] K | %.&.g.T.7XeXrXqX0XqXrXrXE.U.g.%.%.P Y | E n.N N N m ",
"G.G.D.D.D.G.D.M.U 0 ) ) X #XhXzX2Xg.y.U.W.W.R.5XE.l.y.%XdXzXdX%.o E S.M.V N N m ",
"v.b.v.C.M.N.N.D.M.M 8 q @ :XzX1X$X>X>X:Xh.-.f.u.l.-X:X,X$XdXzX#Xo c n.v.n n D G ",
"g g g C V D m.D.C.H L P  .#X>X~  .jXlXgXg.y.g.*.l.gXlXsX1 O.;X@X} 5 L c d g c.D.",
"d i i d n m m.V.S @ }  .$.O.o.4 &.dXlXfXx.x.wXx.6XhXlX2XO.~  .+.+. .5 $ i d v.G.",
"g Z Z D c.c.v.G x O ~  .O.3 4 #.~.*XsXfXx.z.3XwXgXhX;X=X,X'.1 3  . .5 $ g c.v.G.",
"F C.D.D.G.A.F i a $ 1 5 5 @ > #.Q.Q.*X:Xf.*.-.6XwX,X!.!.,X!.@ > 5 5 2 c C.G.B.G.",
"D M.D.A.G.A.F i d p $ O + O @ ~ Q.[.!.o.O.O.$.p.-.$.~.[.O.o @ + $ % S Z.G.D.A.B.",
"V c.b.M.V.S.m.F Z g p f S k } >XsXaX[.^.^.^.[.{.{.[.*X;XdX#X5 M M.M.N.V.V.B.v.c.",
"V D m c.B.D.V.D.C.Z p g D s | &XwXgXdXsX~.@.#.@.~.1XsXgXfXU.K S G.V.G.V.G.Z.Z i ",
"V V m G N.V.B.V.N.C d g N - 8 i.&X1XaX#X| * : : X.$X,X1XU.R ; I G.V.V.V.G.Z.Z d ",
"N V V V G c.b.b.G m b C N k % 5 } } ~ K c n M n h 4 5 } } 2 1 J V.V.G.G.G.A.m.v.",
"N N N m N m N N N V Z A N l h = X   $ f m N A D l &     X = x Z.G.V.V.G.G.G.D.G.",
"N D G D D D D D D V N N N N M k * : x F F D N n Z x h - $ h v.G.V.G.D.A.Z.Z.D.G.",
"V n.N.N.N.N.N.N.M.G A N N N m A n m N G M.M.Z d C v.C.J v.C.Z.D.V.V.V.v.C Z v.G.",
"D N.D.D.V.D.D.D.B.G m N N N N N V N m c.S.D.Z i g Z.D.D.D.D.D.D.G.G.V.G i d v.G."
};
