/* XPM */
static char *result[] = {
/* columns rows colors chars-per-pixel */
"30 32 26 1 ",
"  c black",
". c gray12",
"X c #202020",
"o c gray13",
"O c #222222",
"+ c #232323",
"@ c #303038",
"# c #4F2130",
"$ c #43613D",
"% c #681245",
"& c #484848",
"* c #484850",
"= c #774041",
"- c #606068",
"; c #8E212B",
": c #D65821",
"> c #841A59",
", c #458C4D",
"< c #D79873",
"1 c #B73A83",
"2 c #E07AAF",
"3 c #9089B6",
"4 c #F7D0BA",
"5 c #D0C9E7",
"6 c #E8E8F7",
"7 c white",
/* pixels */
"o77777777777777777777777777777",
"O77777777777777777777777777777",
"o77777777777777777777777777777",
"O77777777%%%%%7777777777777777",
"X777777%%11111%%%%%77777777777",
"O77777%111111111>11%%%77777777",
"o7777%11111111211>1111%%777777",
"o7777%111121221211>11111%77777",
"o777%2211112222111>111111 7777",
"O777%2>211111211111%>1111 7777",
"+777%>>>%<#11111111%>>>111 777",
"O7777%>%44<1111111>>>>>>11 777",
"o77777=444411111>>>>>>>>111 77",
"+77777=44>4>>>>>>>>>> >>>11 77",
".77777=4=64>#>>>>>>> 7 >>11 77",
"O77777=4 64><<>>>>> 77 >>11 77",
"o77777<4444<<<>>>  7777 >11 77",
"O777777=44<< ;   777777 >1 777",
"O7777777==< , 77777777 >11 777",
"+77777777-& $ 777777  >>1 7777",
"o7777777@65@%377777 >>>  77777",
"O777777=:6@66537777    7777777",
"o777777 -*@66 3777777777777777",
"O777777 366@** 377777777777777",
"O777777 ***@@@ 377777777777777",
"O77777733355  33 7777777777777",
"O77777**<<33333* 7777777777777",
"+77777 ***  7 ** 7777777777777",
".777777   7777  77777777777777",
"o77777777777777777777777777777",
"O77777777777777777777777777777",
".77777777777777777777777777777"
};
