/* XPM */
static char *result[] = {
/* columns rows colors chars-per-pixel */
"31 31 20 1 ",
"  c black",
". c #303038",
"X c #4F2130",
"o c #43613D",
"O c #681245",
"+ c #484850",
"@ c #774041",
"# c #606068",
"$ c #8E212B",
"% c #D65821",
"& c #841A59",
"* c #458C4D",
"= c #D79873",
"- c #B73A83",
"; c #E07AAF",
": c #9089B6",
"> c #F7D0BA",
", c #D0C9E7",
"< c #E8E8F7",
"1 c white",
/* pixels */
"1111111111111111111111111111111",
"1111111111111111111111111111111",
"111111111111111OOOOO11111111111",
"1111111111OOOOO-----OO111111111",
"1111111OOO--&---------O11111111",
"11111OO----&--;--------O1111111",
"1111O-----&--;-;;-;----O1111111",
"111 ------&---;;;;----;;O111111",
"111 ----&O-----;-----;&;O111111",
"11 ---&&&O--------X=O&&&O111111",
"11 --&&&&&&-------=>>O&O1111111",
"1 ---&&&&&&&&----->>>>@11111111",
"1 --&&& &&&&&&&&&&>&>>@11111111",
"1 --&& 1 &&&&&&&X&><@>@11111111",
"1 --&& 11 &&&&&==&>< >@11111111",
"1 --& 1111  &&&===>>>>=11111111",
"11 -& 111111   $ ==>>@111111111",
"11 --& 11111111 * =@@1111111111",
"111 -&&  111111 o ,,11111111111",
"1111  &&& 11111:O:,<.1111111111",
"111111    1111::<<,<%@111111111",
"11111111111111:, <<.< 111111111",
"1111111111111 ,< ###. 111111111",
"1111111111111 ,,, ++.  11111111",
"1111111111111.  ,,  .+ 11111111",
"111111111111 +==   ++ 111111111",
"111111111111 ++ 111  1111111111",
"1111111111111  1111111111111111",
"1111111111111111111111111111111",
"1111111111111111111111111111111",
"1111111111111111111111111111111"
};
