/* XPM */
static char *result[] = {
/* columns rows colors chars-per-pixel */
"19 30 20 1 ",
"  c black",
". c gray12",
"X c #202020",
"o c gray13",
"O c #222222",
"+ c #232323",
"@ c #303038",
"# c #43613D",
"$ c #681245",
"% c #484850",
"& c #606068",
"* c #841A59",
"= c #458C4D",
"- c #D79873",
"; c #B73A83",
": c #E07AAF",
"> c #9089B6",
", c #D0C9E7",
"< c #E8E8F7",
"1 c white",
/* pixels */
"XOOO.+OOO+X.OoO+oXo",
"1111111$$$$$$$11111",
"11111$$**;;;**$$111",
"1111$**;;;;;;;:*$11",
"111 **;;;;;;;:;:* 1",
"111 **:;:;;;;;:** 1",
"11 **;;:::;:;;;;** ",
"11 **$;;:;:;;;;$** ",
"11 **$;;;;;;;;;$** ",
"11 **$*;;;;;;;*$** ",
"11 **$*;;;;;;;*$** ",
"111 **$*;;;;;*$** 1",
"111 **$**;;;**$** 1",
"111 **$*******$** 1",
"1111 **$*****$** 11",
"111$= *$*****$* =$1",
"111$#  *$***$*  #$1",
"11@% @ $$***$$ @ 11",
"11@%%@>>$***$@<< 11",
"111@@@ ,,$*$, && 11",
"11111 ,%,$*$,& &&@1",
"11111 >,%%$%%, %%@1",
"11111 >>,<<<,    11",
"111111 ,,@@  111111",
"111111 -%% 11111111",
"1111111 %% 11111111",
"1111111 %% 11111111",
"11111111  111111111",
"1111111111111111111",
"1111111111111111111"
};
