/* XPM */
static char *result[] = {
/* columns rows colors chars-per-pixel */
"40 40 230 2 ",
"   c #120C0A",
".  c #260218",
"X  c #231A11",
"o  c #002900",
"O  c #152A03",
"+  c #053A00",
"@  c #153C02",
"#  c #1A3E0C",
"$  c #2F3011",
"%  c #293716",
"&  c #370821",
"*  c #1A2E2A",
"=  c #232527",
"-  c #373228",
";  c #292A39",
":  c #303437",
">  c #4B3301",
",  c #542D1F",
"<  c #45002E",
"1  c #48192C",
"2  c #4C0433",
"3  c #530838",
"4  c #4D1630",
"5  c #581A3B",
"6  c #661C30",
"7  c #46272A",
"8  c #56312F",
"9  c #4C2832",
"0  c #6E2332",
"q  c #034B05",
"w  c #094906",
"e  c #0D4D06",
"r  c #124202",
"t  c #174C07",
"y  c #0D520E",
"u  c #135309",
"i  c #185308",
"p  c #1B5B0C",
"a  c #1E5C11",
"s  c #234B06",
"d  c #275905",
"f  c #225D0C",
"g  c #284815",
"h  c #255515",
"j  c #345114",
"k  c #375A18",
"l  c #26630E",
"z  c #2A640D",
"x  c #2E6C0E",
"c  c #33650D",
"v  c #316E0F",
"b  c #217000",
"n  c #32710F",
"m  c #246612",
"M  c #2B6811",
"N  c #2C6C13",
"B  c #336413",
"V  c #326D11",
"C  c #3A6518",
"Z  c #3C6B1A",
"A  c #2F7116",
"S  c #347312",
"D  c #387417",
"F  c #357915",
"G  c #3B7C15",
"H  c #3B741B",
"J  c #3C7C1A",
"K  c #334C32",
"L  c #2E6D2F",
"P  c #405F1C",
"I  c #50681B",
"U  c #46771B",
"Y  c #574233",
"T  c #4F5130",
"R  c #6C542C",
"E  c #436320",
"W  c #487727",
"Q  c #546F31",
"!  c #383843",
"~  c #680944",
"^  c #75054B",
"/  c #691446",
"(  c #73174C",
")  c #7B0552",
"_  c #7D1553",
"`  c #7D1A54",
"'  c #682845",
"]  c #6D254A",
"[  c #7C2256",
"{  c #4C504D",
"}  c #494C53",
"|  c #53535B",
" . c #65584D",
".. c #72534F",
"X. c #5E6742",
"o. c #507148",
"O. c #586559",
"+. c #547457",
"@. c #4F496C",
"#. c #5B5B64",
"$. c #6E5E70",
"%. c #64626A",
"&. c #6D6D73",
"*. c #6B7270",
"=. c #955314",
"-. c #840858",
";. c #91055D",
":. c #801656",
">. c #821857",
",. c #87145C",
"<. c #841A59",
"1. c #8B1E5E",
"2. c #88275C",
"3. c #92295F",
"4. c #863858",
"5. c #8A1D62",
"6. c #951567",
"7. c #A11D70",
"8. c #8D2361",
"9. c #8C2964",
"0. c #932466",
"q. c #952D67",
"w. c #962669",
"e. c #9A246B",
"r. c #9B2B6D",
"t. c #8E3263",
"y. c #99336C",
"u. c #9F2E71",
"i. c #993A70",
"p. c #A62D75",
"a. c #AD2C77",
"s. c #A33274",
"d. c #AC337A",
"f. c #AA3479",
"g. c #B2347D",
"h. c #B03D7C",
"j. c #92455C",
"k. c #926B4C",
"l. c #A86159",
"z. c #AA765A",
"x. c #8E4D67",
"c. c #AB4B72",
"v. c #836665",
"b. c #9D6D74",
"n. c #A86C6E",
"m. c #BB7868",
"M. c #C9765A",
"N. c #3D830F",
"B. c #3F8116",
"V. c #3D811A",
"C. c #408317",
"Z. c #42851A",
"A. c #448A1C",
"S. c #498C1D",
"D. c #4C931E",
"F. c #4C981D",
"G. c #529E1F",
"H. c #51A11D",
"J. c #448820",
"K. c #4A8C21",
"L. c #568627",
"P. c #4D9421",
"I. c #4F9921",
"U. c #539D21",
"Y. c #539826",
"T. c #559333",
"R. c #668932",
"E. c #55A122",
"W. c #58A124",
"Q. c #5B8E41",
"!. c #718D57",
"~. c #8F8A5E",
"^. c #BB8260",
"/. c #B38A78",
"(. c #BA967E",
"). c #C7876C",
"_. c #D79772",
"`. c #E1A279",
"'. c #696786",
"]. c #736D8E",
"[. c #777686",
"{. c #757094",
"}. c #B52E81",
"|. c #B53681",
" X c #B63982",
".X c #B93B85",
"XX c #BB3886",
"oX c #AF4F83",
"OX c #BD458A",
"+X c #947D93",
"@X c #B47681",
"#X c #C14B8D",
"$X c #C65594",
"%X c #C95A97",
"&X c #CD639B",
"*X c #D1659E",
"=X c #D266A0",
"-X c #D46BA3",
";X c #DB74AA",
":X c #E37EB2",
">X c #89879A",
",X c #909495",
"<X c #BE8E92",
"1X c #96AA98",
"2X c #9B99AC",
"3X c #928FB0",
"4X c #A898A9",
"5X c #9EAFA7",
"6X c #B2AAB9",
"7X c #CC9491",
"8X c #D0AC8F",
"9X c #E3AC8E",
"0X c #CCAAA9",
"qX c #DCB5A2",
"wX c #E2B9A7",
"eX c #E8BCB8",
"rX c #EBC0AC",
"tX c #F0C4AC",
"yX c #ECC8B3",
"uX c #F3CCB5",
"iX c #F9D3BD",
"pX c #BAB7C4",
"aX c #C1BACF",
"sX c #C1C2CF",
"dX c #C7C5D7",
"fX c #F8D7C6",
"gX c #F0D9D1",
"hX c #D3CFE6",
"jX c #E5DCEA",
"kX c #E9E1E9",
/* pixels */
"v v v v n v v n v n v v v v n n B.G.U.J S W T.T.H.E.E.U.E.G.G.U.I.I.I.E.G.S e p ",
"v v v v v v n v v v v S V D C.C.F.H.G.N.Q  .X.X.U Y.H.E.E.F.A.C.V.S V.I.U.G f l ",
"v V v v v v v v N v S H H W U L.L.L.L.U ..t.-.-.-.R R.L.L.U S c l q m P.E.V.n x ",
"v v v v n S n S S S Z W H E 8 ( ] ' ' ( y.|.g. Xg.g.XXq.6 , V N p e l K.Y.V.S x ",
"v v x G A.S.S.S.W R 8  ...x.u.e.-.,.7.p.a.|.XX X.XXX|.a.7.3.P v B l x G C.S v v ",
"v v v B.F.Y.Q Q X.4.i.e.6.a.|.s.e.p..X$X#X|.g.XX Xg. XXXXXg.3.v.Z v n n v v v v ",
"v v n G I.L...1.t.d..X XXXg.s.r.d.XX%X=X%X#X#X.XOX#X#Xg.g.XXg.0.E S V v v v v v ",
"v v n S E 0 y.g.d. XXX.X.Xu.w.f.|.%X=X%X&X;X-X#X$X*X#Xg..XXXXX;.d b v v v V v v ",
"v v V t 9 q.|..X.X X.X.X.Xw.0.|.XX#X%X=X:X7X:X;X&X$XOX Xg.g.%X&Xb.v.Q n n N v v ",
"v v D + 5 f.XX X.X.X|.f.s.r.s. XXX}.OX=X:X;X=X=X%XXX}.|.#X$X%X;X-Xi.T x n x v v ",
"V c B % ] d.XX|.g.|.r.` ^ r. XXX|.|.XXOX=X=X#XXXg.f.h.h..X%Xc.oX&X2.j B n v n v ",
"v c g ] s. X.Xd.w.0.5.( 5 r..XXX X X}.XXOXXX|.g.e.j.m.c.5.u.8.9.t.[ 8 c n n v v ",
"V f O [ XXXXf.0.>._ <.` _ 9.f. XXX X X.Xg.g.XX.Xi.z.8X8Xb.^ ) _ 6 8 P B n V n n ",
"f j 9 9..X Xe._ <.<.<.<.>.>.0.f.d.|..X.X.X.XXX Xm.9XuXiXqXb.4.( 8 k C B V n V n ",
"s 9 q. X.Xg.w._ <.<.<.<.<.>.<.5.1.s.h. X X.X}.}.7XeXuXiXfXrXn., P v n n n V n n ",
"@ 5 s.XX Xr.2.>.` ~ / <.<.<.<.>._ 8.w.e.7.7.;.7.7XeX7XqXfXuX/.> c v V v v v n v ",
"@ 9 s..Xd.1.>.>.5 - 7 ( <.<.<.<.>.>.>.>.-.) ~ ^ <XeX6X7XqXtX/.> c S V v v v n c ",
"r 5 s.XXd.1.>.~ X Z Z & ( <.<.<.<.<.>.<.3.4.0 ( @XfXjX4Xk.qX/.> c n v v S v n n ",
"s 5 s.OXd.1.>./ X U P.k & / <.,.<.<.-.<.l.).m.j.@XfXkX>XY qX<X> c V v v v v n v ",
"d 5 d..Xd.1.~ 9 P S.W.P.C 1 5 5 _ 1.,.1.m.`._./.7XfXgXqX8XuX(.I V n v v v v n v ",
"B 9 4.|.f.2.< g S.F.S.U.P.j X . 5 ( ( ( l.m.^.).9XtXiXiXyX8X~.U S v v v v v x v ",
"m C - [ |.8.< # U S m V.U.S.H B X . . . 0 6 Y ^._.9XwXyX8XQ.U S v v v v v v v S ",
"p N # >..Xf.` 1 % t w S U.U.W.U.H i s t $ $ L  .z.).^.~.!.c x v v x v x v v v c ",
"m G E ' r. Xu.^ 4 % + f U.G.F.D.A.S V B O g L + Y k.R c c V v V S G S S v v v S ",
"D.F.Y.k ' r.0._ ` 5 1 7 U S.B.F S S n x K : K O.X.W H L H v V S Z.F.A.S v n x S ",
"Y.U.U.S.E 8 2 5 >.:.( 5 - P F x x n N A o. .$.6X5X!.1X,Xo.D c S P.E.D.S v n x S ",
"A.Z.Z.A.U d f j 2 2 3 <   j B.B.J G W Q K &.pXjXsX5XhX0X=.Q B M J.E.A.N l S G C.",
"p p p m S G P.W @ @ @ @ # I F.F.G.G.T.+.; %.dXdX2X3XhXeXM.R g u V.E.J.p i F F.U.",
"e e q i z n A.U.A.Z.A.A.S.F.G.U.G.D.T.[.@.: &.&.} %.aXjXaXT # y V.W.J.p e V.E.E.",
"f N N A B.V.V.G V.V.J S.U.U.V.V.J d *.6X{.* | %.= #.aXhX3X: h m S.E.P.A N V.I.H.",
"S K.U.U.E.I.A q u e u A Y.P.m y h o &.pX>X  | #.! } 2X3X@.* C Y.U.U.E.U.H.E.H.E.",
"S S.U.G.E.I.A q i e y A Y.P.m e a w %.2X+X! ! ! 8 | %.#.: % H I.U.H.U.H.E.I.I.I.",
"S B.Z.S.G.F.A.S N i e M Z.V.z l l x k { ].'.;   R 7X6X[.o k P.G.U.U.U.H.U.J.F F ",
"v n v B.Y.G.G.U.J.f e f S V x x x S M s } '.].].+X<X,XO.+ N P.E.G.H.U.U.I.F y e ",
"n n x G F.G.Y.U.J.m e f V v v v v n B V s { '.{.{.'.K g w N P.G.U.E.H.U.U.F p u ",
"v n n S G C.C.C.G z z x v v x v v v v n x h : : ; * r y u A I.E.G.H.U.G.H.A.J.F ",
"v v v v v v v v x v v V v v v v v v v v v z d t w + u e q N P.E.U.H.E.E.E.U.E.J.",
"v S S D S n S S S V v v v v v v n x n n S S M N m a a a a F I.E.U.U.I.P.P.I.E.P.",
"n A.S.D.D.D.D.D.A.G V v v v v V n x n U D.Z.l u A J.J.J.J.P.I.E.H.U.S.N m V.I.I.",
"S D.U.U.G.G.U.U.D.G x v v v x v n n S S.U.S.u q D Y.U.Y.U.U.U.U.U.W.A.u q F I.E."
};
