/* XPM */
static char *result[] = {
/* columns rows colors chars-per-pixel */
"40 40 230 2 ",
"   c #000000",
".  c #0F1608",
"X  c #261B0F",
"o  c #002201",
"O  c #003F00",
"+  c #183A00",
"@  c #000124",
"#  c #103332",
"$  c #292B2B",
"%  c #343331",
"&  c #510000",
"*  c #6A0000",
"=  c #6C1D14",
"-  c #593710",
";  c #65341D",
":  c #51352F",
">  c #702E31",
",  c #69393C",
"<  c #014C03",
"1  c #074A06",
"2  c #0B4C06",
"3  c #045603",
"4  c #165A07",
"5  c #135309",
"6  c #1B5A0B",
"7  c #165014",
"8  c #245C07",
"9  c #275915",
"0  c #365917",
"q  c #036400",
"w  c #1B6407",
"e  c #10750B",
"r  c #2D6E02",
"t  c #25630E",
"y  c #286709",
"u  c #2E6B0E",
"i  c #306F04",
"p  c #3A6B02",
"a  c #316E0F",
"s  c #357601",
"d  c #32700F",
"f  c #246311",
"g  c #276715",
"h  c #2B6C12",
"j  c #326E11",
"k  c #366E19",
"l  c #2C7514",
"z  c #337211",
"x  c #347A14",
"c  c #3A7B15",
"v  c #3A7719",
"b  c #367C1A",
"n  c #36472C",
"m  c #37552D",
"M  c #37692C",
"N  c #3B7525",
"B  c #425A1B",
"V  c #58561B",
"C  c #714C1F",
"Z  c #4C6C0D",
"A  c #45761C",
"S  c #71690B",
"D  c #4C4B27",
"F  c #664D34",
"G  c #6D5430",
"H  c #437423",
"J  c #42752A",
"K  c #4A7C36",
"L  c #537031",
"P  c #72782E",
"I  c #003A40",
"U  c #2C3C46",
"Y  c #533D50",
"T  c #763F41",
"R  c #31504A",
"E  c #36655B",
"W  c #1F5F60",
"Q  c #2D4D70",
"!  c #396468",
"~  c #346474",
"^  c #524D4F",
"/  c #674645",
"(  c #7A4944",
")  c #6E5A55",
"_  c #755150",
"`  c #4A764C",
"'  c #587945",
"]  c #547C54",
"[  c #707753",
"{  c #605B6C",
"}  c #536271",
"|  c #716B71",
" . c #910C06",
".. c #B93C19",
"X. c #9E1926",
"o. c #8F2F37",
"O. c #B7332E",
"+. c #AC3A3D",
"@. c #B73535",
"#. c #B93D3E",
"$. c #DC1500",
"%. c #CC320E",
"&. c #C9382D",
"*. c #8E4F0F",
"=. c #AA4733",
"-. c #8A6020",
";. c #976835",
":. c #A56138",
">. c #D4461E",
",. c #EB4D0B",
"<. c #D74A39",
"1. c #D15630",
"2. c #E45B28",
"3. c #E55C3C",
"4. c #CE6B38",
"5. c #ED663F",
"6. c #933D43",
"7. c #C33E40",
"8. c #844E4A",
"9. c #BA4241",
"0. c #B55351",
"q. c #926A4F",
"w. c #AD734F",
"e. c #A37758",
"r. c #965B6B",
"t. c #887664",
"y. c #AA7D6B",
"u. c #CD4842",
"i. c #DB5747",
"p. c #DA594A",
"a. c #CC5253",
"s. c #E15C42",
"d. c #E35E49",
"f. c #CF6E4F",
"g. c #EB6447",
"h. c #E5614B",
"j. c #EE694E",
"k. c #F3674D",
"l. c #F06A4E",
"z. c #E96B54",
"x. c #F06E53",
"c. c #CB5F62",
"v. c #D07477",
"b. c #E77969",
"n. c #0D9200",
"m. c #3A8707",
"M. c #318E0F",
"N. c #3E8116",
"B. c #3D821A",
"V. c #278120",
"C. c #448A0A",
"Z. c #4B9C06",
"A. c #438418",
"S. c #42851A",
"D. c #448A1B",
"F. c #498E1D",
"G. c #4C931F",
"H. c #4A971E",
"J. c #50971F",
"K. c #529C1F",
"L. c #768216",
"P. c #4BA01B",
"I. c #478727",
"U. c #498E21",
"Y. c #4D9421",
"T. c #4E9626",
"R. c #539D21",
"E. c #559A27",
"W. c #578637",
"Q. c #528F31",
"!. c #569835",
"~. c #69942F",
"^. c #55A022",
"/. c #5AA228",
"(. c #5AA032",
"). c #708F4E",
"_. c #669842",
"`. c #628653",
"'. c #759167",
"]. c #769876",
"[. c #7AAB6E",
"{. c #AD8600",
"}. c #AE8429",
"|. c #838459",
" X c #948E53",
".X c #A58A5D",
"XX c #919075",
"oX c #B68868",
"OX c #BA9B78",
"+X c #8FA471",
"@X c #B2A26C",
"#X c #A7A878",
"$X c #CB9274",
"%X c #EB8677",
"&X c #C9AD75",
"*X c #336889",
"=X c #396AA2",
"-X c #58618A",
";X c #4C67A1",
":X c #8C7687",
">X c #7B8A8E",
",X c #8E918A",
"<X c #B79788",
"1X c #AC9691",
"2X c #9AAE89",
"3X c #BDB186",
"4X c #9A97A7",
"5X c #99A3B0",
"6X c #ACA6A7",
"7X c #BEA8B4",
"8X c #D08D95",
"9X c #E88D87",
"0X c #D1AE8E",
"qX c #C2B387",
"wX c #E3B699",
"eX c #D99FA3",
"rX c #D0B1AC",
"tX c #E9AEAE",
"yX c #A0C58F",
"uX c #E0C29F",
"iX c #D6C9B2",
"pX c #EAC6AB",
"aX c #BBB3C9",
"sX c #CDC4D1",
"dX c #DED6D8",
"fX c #E5C7CC",
"gX c #F2D9CF",
"hX c #E4D8D5",
"jX c #DBE1C9",
"kX c #E4DCEA",
/* pixels */
"a a d a a a a d a d a a a a a a d H./.D.z z G.R.^.R.^.^.R.K.^.^.E.^.R.R.R.S.6 2 ",
"a a a a a d z a d d d d a d x c A.J.R.F.d h c B.F.Y.K.R.R.K.G.F.D.S.S.H.E.D.y 6 ",
"a j a a a a a a a a a a a d B.R.K.R.R.F.v k g 7 g H.^.R.R.J.c d y 5 6 S.R.G.z u ",
"a a a a j z j a d d d d a d S.R.R.R.E.C.q 3 < < 3 M.K./.R.J.c d f 5 6 b E.F.z a ",
"a a a d A.D.A.D.D.A.F.A d a A.K.K.P.Z.I.`.].].].+X[.Z.M.K.K.c u u 8 f x S.c j a ",
"a a a z G.R.R.K.R.R.K.F.c a F.P.E.~.~.+XiXdXhXhXjXjXyX[./.Z.c d j a j j d z a a ",
"a j a z F.R.J.R.K.R.R.J.c l V.T.:.a.w.c.y.c.c.a.a.8XdXjX2XC.r k z j a a a a a a ",
"a a a a c c A.R.R.K.R.R.K.Z S :.h.3.s.s.s.s.s.s.3.h.$Xv.eX2XB.w a k a a a a a a ",
"a a a a a u A R.K.R.^.P.L...&.3.l.l.j.j.j.j.j.j.j.g.>.$.p.<X2X[.s e a j a a a a ",
"d a a a a a x S.D.H.F.~.1.3.5.l.j.j.j.j.j.j.j.j.j.j.j.j.2.=.oX1XyX_.i u a a a d ",
"a a a a a a h 5 t A ;.1.5.k.d.i.p.p.i.i.p.p.i.i.p.p.p.h.k.5.&.0.7X2XJ r j a a a ",
"a a j a a j t < 2  .g.%Xb.i.u.u.u.<.u.u.u.u.u.u.<.u.u.<.z.%Xb.%.0.XXK r j d a a ",
"a a j a a j g g 0  .9XfXeX>.3.d.h.h.h.h.h.h.h.h.h.h.z.$.v.fXtX0.o.] N r j d a a ",
"a a j a a a u k L r.sXkXtX2.3.x.j.j.j.j.j.j.j.j.j.j.x.,.9XkXdX1X) ` k z p a d a ",
"a a a a a a j r ] 6X,XaXtXg.g.x.j.j.j.j.j.j.j.j.j.j.k.,.9XfX5X,XXXW.i a z z a a ",
"j a a a j j p A |.| U 4X8Xu.1.h.j.j.j.j.j.j.j.j.j.g.i.%.v.aX{ ^ ,X+Xv i j a a a ",
"u a a d a d r K | & ) :Xr.&.&.i.p.j.l.j.j.j.j.j.h.i.7.%.0.:X{ = ( '.H i a a j j ",
"c z a a a h r W.`.-.oX/ > o.+.@.&.p.h.h.d.d.d.d.<.@.+.+.o.: y.q.G ] N a a a a a ",
"G.A.z u a a c Q.' ;.w.8.T T , o.9.9.=.7.#.#.7.=.9.+.o.( T > w.q.V J z d a a a a ",
"E.S.d a d u N.K.(.).C > r.e.) :X:X_ = 6.6.6.o.> :X:X^ t.y.8.; V A z u a a a a a ",
"B.b N.N.c c D.R.J.T.K , e.$XoX7XsX-XG e.q..Xq.% >X6XXX$XoXF n z d a a a a a a a ",
"4 x Y.R.R.R.K.^.J.a 3 K  Xf.&XpXhX1X$X&XQ.@X@XXX+XiXwXf.P k z a a a a a a a a a ",
"5 x R.R.P.^.^.^.Y.l 1 g A - w.&XpXuX#XyXqX3X0XuXuXwX$X> 0 k j j u d d a a a a a ",
"B.D.R.R.K.K.R.^.P.B.B.I.C.8 F w.$X<X|.@X0XwXpXwX&XoX;.. 3 r j a c S.S.v a a d d ",
"R.^.^.^.^.^.R.R.^.^.(.~.+XyX@X-.n 8.oX@X X.X|.Z 6 V }.#X].W.p z N.Y.R.B.d d a u ",
"Y.U.G.G.G.J.K.P.P._.L.e.rXgX&XS n X.=.p Z Z k H J N {.hXkX<XZ q B.R.Y.N.u u x x ",
"f g g g z c D.E.~..X<X6X6X,X[ V G p.4.V.8 9 j i a H S t.4XrX1XL l K.T.z 6 y B.Y.",
"2 2 1 5 y h C.!.t.y.gXfX:X    @ / a.f.l 9 7 g m m n @   Y 7XgX#Xq Y.T.h 2 t U.^.",
"6 6 t h v c A.I.`.'.OX0Xt.$ % # %  .*.Z 7 7 + X $ $ % # [ qXqX).M.Y.T.b f x Y.^.",
"h c Y.G.Y.T.S.3 g M     O $ R m I Q ! E c r R Q I # E $ x n.n.m.J.R.R.H.G.G.R.P.",
"z A.R.^.R.^.S.1 5 1 9 J K o : ( { ;X=X~ ~ W *X=X-X) ( D B.E.E./.R.R.R.^.^.R.K.R.",
"z c S.D.J.R.G.l g 9 5 9 J D X.O.8.E E E ! } ! ! ^ 6.X.V l B.Y.R.K.^.K.K.R.G.B.b ",
"a z d z H.R.R.R.U.h 5 5 k [ 8.* V W.p A A H A A L * * B 3 6 U.R.R.K.K.^.^.B.w 2 ",
"a a a z F.R.R.E.Y.h 5 6 j K ` ] ' N u j a a a v K '.] 4 5 5 U.R.K.R.R.K.^.B.g 5 ",
"a a z z c A.N.A c a t y a r v W.K r j z d a j u a `.` 4 5 6 U.E.R.R.R.R.Y.H.B.B.",
"a a u u y u r u u a a j a j a i i j j a a u a z t < < 2 1 5 U.P.R.R.R.^./././.R.",
"a z v v c z c z z z j a a a a a a a a z c x h y t 9 f f 9 g U.^.R.^.R.Y.U.Y.P.R.",
"d A.G.J.J.J.J.E.Y.c a a a a a a a a a c Y.U.h 5 f D.U.Y.U.U.R.R.P.^.Y.l w h U.R.",
"z A.R.R.K.R.R.R.R.c a a a j a a d a u N.R.Y.h < f Y.^.R.^.R.R.^.K.^.Y.g < f U.^.",
"a c F.F.J.K.K.R.K.F.A.c j a a a d c A.F.K.T.N.h b Y.^.P.P.R.R.R.H.B.b x g l b B."
};
