/* XPM */
static char *result[] = {
/* columns rows colors chars-per-pixel */
"40 40 227 2 ",
"   c #000004",
".  c #14150E",
"X  c #2F0300",
"o  c #122914",
"O  c #323116",
"+  c #341C22",
"@  c #123132",
"#  c #2E3330",
"$  c #5A0900",
"%  c #7F191D",
"&  c #4C3112",
"*  c #593817",
"=  c #6F290E",
"-  c #6C3117",
";  c #550B2E",
":  c #6F1023",
">  c #51372C",
",  c #653C3C",
"<  c #793D36",
"1  c #044703",
"2  c #0C4C06",
"3  c #0B5208",
"4  c #145309",
"5  c #15570A",
"6  c #12560F",
"7  c #1A590C",
"8  c #295A07",
"9  c #225E0C",
"0  c #34500C",
"q  c #39530C",
"w  c #3F4C1F",
"e  c #2C5A14",
"r  c #315C17",
"t  c #1E610E",
"y  c #1D6312",
"u  c #24630E",
"i  c #29660E",
"p  c #2D6B0E",
"a  c #356F06",
"s  c #316E0F",
"d  c #357704",
"f  c #32710F",
"g  c #256512",
"h  c #276813",
"j  c #2C6B11",
"k  c #316E11",
"l  c #366A19",
"z  c #2D7113",
"x  c #337311",
"c  c #357915",
"v  c #3A7C15",
"b  c #377818",
"n  c #3A7D1B",
"m  c #2B4E25",
"M  c #37423C",
"N  c #2D622C",
"B  c #376D2E",
"V  c #4F581F",
"C  c #615613",
"Z  c #4D492E",
"A  c #684B2E",
"S  c #7A4D2E",
"D  c #76572D",
"F  c #516D2D",
"G  c #437626",
"H  c #4E7D38",
"J  c #597A3A",
"K  c #6F6E37",
"L  c #34294C",
"P  c #233D6B",
"I  c #411F44",
"U  c #763F40",
"Y  c #365043",
"T  c #4A4C4A",
"R  c #6D5351",
"E  c #576F4F",
"W  c #6F644A",
"Q  c #695C6D",
"!  c #717175",
"~  c #86291F",
"^  c #AC2319",
"/  c #853531",
"(  c #AE2E2B",
")  c #A83B3A",
"_  c #B7373B",
"`  c #D33413",
"'  c #CE3632",
"]  c #825C00",
"[  c #AB5217",
"{  c #8E4C30",
"}  c #B64438",
"|  c #B85335",
" . c #986B3E",
".. c #A77D3C",
"X. c #C94734",
"o. c #D64C31",
"O. c #C5553E",
"+. c #DB523B",
"@. c #E44835",
"#. c #E85A37",
"$. c #ED623A",
"%. c #AF3C41",
"&. c #BC3B41",
"*. c #C13E43",
"=. c #8A4A4A",
"-. c #BC5048",
";. c #8E6446",
":. c #997849",
">. c #8B6950",
",. c #996557",
"<. c #937958",
"1. c #B16D4F",
"2. c #A57748",
"3. c #9E7A64",
"4. c #B3736D",
"5. c #C64845",
"6. c #CA5749",
"7. c #D65649",
"8. c #CC5750",
"9. c #E55A45",
"0. c #E45E4A",
"q. c #E25F50",
"w. c #C0654C",
"e. c #DE634E",
"r. c #D96352",
"t. c #EC6543",
"y. c #E4614D",
"u. c #EA664C",
"i. c #ED694E",
"p. c #E76752",
"a. c #EF6E51",
"s. c #EC6B54",
"d. c #C5737A",
"f. c #DC7E7A",
"g. c #3E8315",
"h. c #3D821B",
"j. c #418517",
"k. c #428619",
"l. c #458B1C",
"z. c #498E1C",
"x. c #4B941E",
"c. c #4F981F",
"v. c #529D1F",
"b. c #52A11E",
"n. c #458223",
"m. c #448B22",
"M. c #558826",
"N. c #4D9421",
"B. c #4D9727",
"V. c #509721",
"C. c #539D21",
"Z. c #599D2A",
"A. c #5B8835",
"S. c #599438",
"D. c #6E8F35",
"F. c #689838",
"G. c #55A023",
"H. c #59A228",
"J. c #5FA537",
"K. c #66A23B",
"L. c #6A9642",
"P. c #658B5D",
"I. c #718C50",
"U. c #68A244",
"Y. c #7BA049",
"T. c #71A753",
"R. c #A08200",
"E. c #9A8D23",
"W. c #AC933A",
"Q. c #918B50",
"!. c #AE8F4B",
"~. c #AE825C",
"^. c #82A14F",
"/. c #9D846D",
"(. c #AA8468",
"). c #BA8C6F",
"_. c #92A865",
"`. c #CA9B49",
"'. c #DEB559",
"]. c #E4B85B",
"[. c #C28071",
"{. c #CA9879",
"}. c #D29F79",
"|. c #E78476",
" X c #C8A775",
".X c #EBC858",
"XX c #F2D15F",
"oX c #2B5389",
"OX c #326695",
"+X c #777791",
"@X c #4478A2",
"#X c #787AA5",
"$X c #887682",
"%X c #9A7682",
"&X c #5A8393",
"*X c #948890",
"=X c #879399",
"-X c #A98E86",
";X c #A88B98",
":X c #A99996",
">X c #8E8DAA",
",X c #9596AD",
"<X c #B192A4",
"1X c #A29DB4",
"2X c #97A0AB",
"3X c #9FA0BC",
"4X c #A3A3AC",
"5X c #A9AABA",
"6X c #B7A6B4",
"7X c #DC8383",
"8X c #CD9A8B",
"9X c #E79993",
"0X c #D5A384",
"qX c #D6AC92",
"wX c #DAA3AA",
"eX c #CEB5B8",
"rX c #E5B4A6",
"tX c #DFCA98",
"yX c #D7C3A6",
"uX c #E8C4A7",
"iX c #EFCCB4",
"pX c #B8B6CB",
"aX c #C1B8C2",
"sX c #B6C2CD",
"dX c #CFCFD6",
"fX c #EACFC7",
"gX c #ECEEF4",
/* pixels */
"s s s s s f s s s f s s s s p v c.C.z.x x l.C.G.C.C.G.G.c.v.G.G.G.G.C.C.V.h.7 2 ",
"s f s s f s x f s f s s f v g.k.v.C.z.x x b h.l.V.C.C.b.b.c.z.z.k.k.l.c.C.k.u 7 ",
"s s s s s s s s s s s s x l.V.V.v.C.l.x j 9 4 g l.C.C.C.v.x.f f u 4 h m.C.l.x p ",
"s s s x k f f s k f s s x x.C.G.C.v.l.x h y 3 g m.G.C.C.C.l.f p 9 3 u k.C.z.b p ",
"s x v l.j.k.k.j.k.k.v f x z.v.b.v.C.m.l F J A.A.F.F.F.G.v.l.x j i 9 i v k.v f s ",
"s x z.V.V.v.v.v.v.c.v s f x.b.H.F.U.I.;.( ( } } ( }  .U.B.m.f s s s s s x x s s ",
"s x z.V.V.C.C.C.Z.v.k.k h.S.T._.~.2.4.r.7.9.y.y.0.0.w.W B J G f f s s s s s s s ",
"s s v g.k.v.v.C.C.V.x.B.L.Q.(.d.r.o.+.7.e.s.s.s.s.s.y.| }  .F k s s s s s f s s ",
"s s s s v x.C.C.v.v.J.^.2.X.' +.u.s.0.5.7.p.i.s.s.s.u.u.i.-.0 e x f s s s s s s ",
"s s s s x l.N.x.G.J.^.1.' 9.u.u.s.s.q.5.7.s.s.s.s.s.s.s.a.7.= V l s s s f s s s ",
"s s s s s h y h.D.Q.6.+.9.s.s.s.s.s.q.8.8.p.s.s.s.s.p.s.s.q._ * r s s s s s f s ",
"s s s s p 2 1 H { O.e.t.s.s.s.s.s.i.7.' X.9.s.s.s.s.s.s.s.q.-.- 0 j s s s s s s ",
"s s p k p 9 6 K O.t.s.s.s.s.s.p.i.a.#.' o.t.i.i.s.s.s.p.7.5._ - q k s s k a x s ",
"s s s s k p g = 7.s.s.i.p.s.s.$.s.9XwXwXwX9X|.t.9.7.7.5.5.&._ - q k x s x s s s ",
"s s s s k k l & } y.t.t.t.$.$.s.9XeXaXpXsXeXwXf.7.' %.&.&.*._ - q j x l s s s f ",
"s s s s k k k V ~ -.f.7X7Xf.|.8X1X,X=X=X=X=X4X<Xd.*.&.&.' *.) * 0 k s a s s s f ",
"s s s s f p p n.V ! *X<X<X<X6X5X=X>X5X5X5X1X=X2X6X%X( _ %.) U O e s s s s f s s ",
"s s s s x x f j.V.P.E R Q $X,X3X>X1XpXpXpX6X,X,X6X%X/ / U > O r k s s f s s f s ",
"s s s s x k.k.x.G.v.c.C = : R #X5X6X-X$X*X;X*X+XQ Q M > M @ o e x s f s f s s s ",
"f s s p v x.V.C.C.b.H.K / < X ! pXeX~.D <.).(.W # # M Y M # O i s s k f s s s s ",
"x f c f c c.b.C.x.N.Z.I.(.)./.2XdXiX{.<.(.{.}.<.T @ M # o w r j f s s s s s s s ",
"z.z.z.x.x.c.C.l.x z z.^. XuXiXiXfXiXrX0X}.}.{.3.T @ # o m l l k s f f s s s s s ",
"V.G.b.v.C.G.b.h.5 1 x K._. XqXuXuXqX0X0X}.[.3.=., +   o E b f s p s s s s s s s ",
"C.C.v.v.C.b.G.g.h i h.V.H.K.Y._.(.,.,.,.R I ; =.....W.W.Q.G k f x v x s s k s s ",
"C.b.C.v.v.C.C.v.x.x.V.C.c.j.d L.S : ; $ ] R.W.:.:.!.].XXW.N p x k.N.m.v p s s x ",
"G.C.G.C.G.b.v.C.G.C.C.C.c.n.P.(.8.^ =.-XyXtX).D Z :.'.XXW.N l x l.C.N.v s s p k ",
"h.k.m.l.x.V.C.v.v.C.C.C.V.S.Q.8.9.` d.fXgXdX! . > :.'..XE.N 9 p l.C.z.x u s v j.",
"7 7 j x v v.v.C.v.C.H.G.b.F.:.X.@.` 4.dXdX5XQ   > W.`.W.K n 4 7 h.C.m.g 4 j l.C.",
"2 3 i p v x.v.c.G.S.G B T.T.P.[ o.-., R :XuXqX>.& O & V Z.k.2 7 h.C.m.y 4 p x.G.",
"x x g.k.j.c c b n.B > % ,.P.&X#X%X>XoXL -XuXuX~.+   + e V.z.z c m.C.V.h.z h.x.G.",
"B.V.V.C.z.t 4 4 2 6 F S =.! &X@XOXOXP @ W <.>.A , , A l C.C.V.V.v.v.C.c.C.C.b.v.",
"V.C.C.G.N.t 4 4 2 4 b M.J E Y Y B N e e 8 8 8 0 w & w n.N.V.G.G.G.C.v.b.G.C.c.x.",
"h.j.x.G.c.j.b j 5 4 j n n.l 8 8 a a a k k k l k 9 4 8 l z h.C.G.v.C.C.v.C.l.c z ",
"s x x.C.C.C.C.n 7 4 9 p s k k s k k k k s k s s k k h 4 2 b V.C.v.b.v.G.C.h.6 3 ",
"s s l.c.c.c.V.v 9 5 9 p s s s s s s s s s s s s k i 9 4 2 b V.G.v.G.v.b.C.h.h 7 ",
"s s v v v v v k j h s s s s s s s s s x k s s p 8 7 7 5 5 c C.C.v.v.C.C.b.c.l.h.",
"s p k i p p p a s k k s s s s s s s s p p s x p 4 1 1 1 2 l C.C.G.v.b.G.H.G.b.B.",
"v v v v v v v x k s s s s s s s s s x v v j i u h g h g h n C.C.G.v.C.z.m.z.C.C.",
"x.c.c.c.x.V.V.j.v s s s s s s s p f j.N.z.x 4 t n B.N.N.N.V.C.C.v.C.z.h 6 z x.b.",
"V.Z.v.v.v.v.Z.z.x s s s s s s s k k j.V.N.z 3 9 k.Z.C.C.C.C.C.C.C.C.m.y 3 h x.G."
};
