/* XPM */
static char *result[] = {
/* columns rows colors chars-per-pixel */
"40 40 225 2 ",
"   c #000008",
".  c #000011",
"X  c #152A1A",
"o  c #2B3315",
"O  c #03022B",
"+  c #2E2D28",
"@  c #3A3B27",
"#  c #233838",
"$  c #393C36",
"%  c #6E0000",
"&  c #632315",
"*  c #490F24",
"=  c #6A1D23",
"-  c #50372E",
";  c #70332C",
":  c #643938",
">  c #733635",
",  c #044803",
"<  c #0E4E07",
"1  c #13480A",
"2  c #0A5207",
"3  c #0C5106",
"4  c #135309",
"5  c #15560A",
"6  c #1B5A0C",
"7  c #344306",
"8  c #245E0C",
"9  c #1D620D",
"0  c #1F6210",
"q  c #2A6902",
"w  c #24630D",
"e  c #29650E",
"r  c #2D6B0E",
"t  c #316E0F",
"y  c #33710F",
"u  c #256612",
"i  c #296713",
"p  c #2C6C11",
"a  c #326E11",
"s  c #356B19",
"d  c #2D7216",
"f  c #337311",
"g  c #377617",
"h  c #367A15",
"j  c #3B7C15",
"k  c #3B751A",
"l  c #3C7D1B",
"z  c #2C4122",
"x  c #344934",
"c  c #2F6628",
"v  c #386327",
"b  c #397727",
"n  c #7A5E1C",
"m  c #426A1E",
"M  c #4F522B",
"N  c #595927",
"B  c #794527",
"V  c #725933",
"C  c #477A2A",
"Z  c #527D2D",
"A  c #4B6537",
"S  c #546A32",
"D  c #4B7B39",
"F  c #597937",
"G  c #7F7B2A",
"H  c #636D37",
"J  c #797F3A",
"K  c #1F0845",
"L  c #1E2745",
"P  c #3C3642",
"I  c #543644",
"U  c #6E3348",
"Y  c #3B4342",
"T  c #3D6849",
"R  c #314D6F",
"E  c #505157",
"W  c #794C49",
"Q  c #53714E",
"!  c #6E6F50",
"~  c #7A5B64",
"^  c #586C65",
"/  c #577978",
"(  c #777C67",
")  c #85001B",
"_  c #8C2928",
"`  c #953B3E",
"'  c #AB2C2C",
"]  c #A83A3B",
"[  c #B83938",
"{  c #D02F00",
"}  c #CE342F",
"|  c #BD4800",
" . c #885630",
".. c #B84539",
"X. c #AE5636",
"o. c #8B6B3F",
"O. c #D54A35",
"+. c #D74939",
"@. c #E24B36",
"#. c #ED623A",
"$. c #BD3C41",
"%. c #C13D41",
"&. c #855C45",
"*. c #925454",
"=. c #B44A44",
"-. c #976647",
";. c #936A4F",
":. c #987746",
">. c #866A55",
",. c #AD714F",
"<. c #BD5D62",
"1. c #8D7778",
"2. c #AE6C67",
"3. c #CA4B45",
"4. c #CB4C47",
"5. c #D75646",
"6. c #D0594A",
"7. c #DB5D4C",
"8. c #E65D48",
"9. c #D1654E",
"0. c #D76554",
"q. c #E96549",
"w. c #EB654C",
"e. c #E76754",
"r. c #EC6B53",
"t. c #F37156",
"y. c #D36766",
"u. c #C37767",
"i. c #E97968",
"p. c #F07B6B",
"a. c #3F8117",
"s. c #3E831B",
"d. c #418417",
"f. c #42851A",
"g. c #458B1C",
"h. c #498E1C",
"j. c #47901D",
"k. c #4B931E",
"l. c #4F991D",
"z. c #51961F",
"x. c #529C1F",
"c. c #458825",
"v. c #5A872E",
"b. c #4D9421",
"n. c #4E9823",
"m. c #509621",
"M. c #539D21",
"N. c #53972B",
"B. c #478439",
"V. c #578438",
"C. c #579633",
"Z. c #6D9A3A",
"A. c #55A123",
"S. c #58A227",
"D. c #5FA632",
"F. c #62A438",
"G. c #568845",
"H. c #7B9B47",
"J. c #648857",
"K. c #718753",
"L. c #759851",
"P. c #72A54B",
"I. c #6B8B65",
"U. c #9C822E",
"Y. c #A89E3A",
"T. c #838B5E",
"R. c #AD9A5D",
"E. c #B9A546",
"W. c #8D906E",
"Q. c #B7886B",
"!. c #AA8D72",
"~. c #B98C75",
"^. c #8EAA69",
"/. c #96A57A",
"(. c #D3AA51",
"). c #E4BF56",
"_. c #C8946E",
"`. c #C88673",
"'. c #C8977D",
"]. c #D19B77",
"[. c #D9BF6C",
"{. c #EBC557",
"}. c #3B74B2",
"|. c #727687",
" X c #4B7EB4",
".X c #8C758D",
"XX c #B1778D",
"oX c #6989A7",
"OX c #858397",
"+X c #93899D",
"@X c #B9968C",
"#X c #B8B094",
"$X c #898EA5",
"%X c #9388A1",
"&X c #949BA7",
"*X c #9596B1",
"=X c #A893AC",
"-X c #9AA7AF",
";X c #A8A2AD",
":X c #ACA4BA",
">X c #B5AAB9",
",X c #A5B2BC",
"<X c #D4898C",
"1X c #C8948C",
"2X c #D79896",
"3X c #E99690",
"4X c #D6AC95",
"5X c #D2B593",
"6X c #E8B492",
"7X c #C69EA1",
"8X c #CDAEB2",
"9X c #DAB5B5",
"0X c #E2B0B3",
"qX c #A8C595",
"wX c #D9C6B5",
"eX c #EEC4AA",
"rX c #F3CCB7",
"tX c #F9D3BB",
"yX c #ADA9C1",
"uX c #B7AFC4",
"iX c #B6B4C9",
"pX c #CABEC8",
"aX c #B9C3DA",
"sX c #E7DBD7",
"dX c #DFE9F9",
/* pixels */
"t t t t t t t y t t t t t t t y h.A.l.j y j b.A.A.M.x.x.A.A.M.M.M.A.M.M.A.x.a.6 ",
"t y t t t t y t t t y t f f j d.k.A.m.j r f s.s.h.n.A.x.x.x.l.k.h.f.f.g.x.m.f.e ",
"t t t t t t a t t t t t f a.b.x.x.M.m.j f r 6 5 d k.A.x.A.x.d.y a w 5 i h.M.h.f ",
"a t t f a f t y y t t t f f.m.A.x.x.l.j y u 5 2 p k.A.x.A.x.d.y r 6 3 u c.m.h.f ",
"t y j f.d.f.d.f.f.f.j y y f.A.A.M.S.n.d 6 w y h s.l.M.M.x.x.d.t p e 8 e j g.j f ",
"t y h.x.m.x.x.x.x.m.g.h k v.Z.H.H.H.H.H v b c.m.l.l.A.A.A.x.d.t t a r t f y f t ",
"t f g.z.m.x.M.M.A.A.c.s.F o.[ [ =.=...' ;.T.L.P.F.S.A.l.n.k.C q t t t t t t t t ",
"t t j d.f.z.M.x.S.C.V.A W 9.8.8.e.q.8.5.0.u.<.,./.^.P.N.d r f y t t t t t t t f ",
"t t t t h k.M.M.N.:.o.X.6.e.r.r.r.r.r.e.6.5.5.0.`.'.Q.W.D , q t t t t t t t t r ",
"t t t t f f.h.N.d B 5.t.w.r.e.e.r.r.r.4.3.8.w.w.#.O.O.u.W.Q d r y y t t t t t t ",
"t t t t t e 9 l N ' 7.t.r.r.r.r.r.r.e.4.3.7.r.r.q.q.q.} 9.!.K.C t r t t t t t y ",
"t t t t r 4 , 1  .3.w.r.r.r.r.r.r.r.e.6.4.7.r.r.e.r.r.w.O.+.,.! Z g t y y t t t ",
"t t a t r 8 6 o _ O.7.e.r.r.r.r.r.t.8.O.} +.r.r.r.r.r.t.r.q.3.X.o.c.h y t t t f ",
"t t t t s r t 7 _ ] 3.6.w.r.r.r.w.r.p.y.u.i.i.w.q.r.r.t.r.r.w.+.X.H C q y t t t ",
"t a t a r t r 7 _ [ $.3.4.4.5.8.q.3X0X9X8X9X3Xp.#.q.w.w.q.w.t.7._ N C y t f y t ",
"t r t t a r r o _ $.$.$.$.$.} %.].8X:X,X,XiX>X7Xi.#.#.q.q.q.7.O.; M C y t t t t ",
"t t t t t t p 5 ; =.$.] [ $.<.@X=X&X&X&X&X&X&X;X7X2X<X<X<X<X<.` V C d a t t a y ",
"t t t t t f y s M > ` $.] $.XXuX:X$XyXiXiXuX*X$X:XuX:X.X.X*X|.! F l a a t t t t ",
"t t t t f d.g.N.k X $ : > U 1.$X%X%X>X>X:XuX:X*X*X%X~ > B ~ ( G.k t t t a t t y ",
"a t t t f b.M.M.m X # Y Y Y Y E E W.@X1.( 2.8X:X|.P & % ~ K.F d t a a t t t t t ",
"f y h y h k.x.M.m o $ x Y $ # x >.].].>.V Q.9XpX.X* -. .W.W.c.d f t t y a t t t ",
"g.h.h.k.k.x.x.k.h c z + $ x L E Q.6X].~.~.5XrXsX8X1X3X_.!.T.C f a f t t t t t t ",
"M.A.x.M.x.A.A.s.0 < c v X O O I ;.u.2X].6X6XrXtXtXtXeX5X/.V.y r y r r t t t t t ",
"x.M.x.x.l.x.A.g.p w V.H.G n  .&.&.U 2.~.Q.Q.'.4XeXwX5X^.V.y t y y f j f f r f r ",
"x.M.l.M.x.M.A.l.n.b S Y.).(.E.,.-.V n B > > > *.#XqXK.l q a f t f g.k.g.h t t t ",
"M.A.A.A.A.x.A.x.S.B.S E.{.(.:.V o.(.[._.W U ) ' @XI.k q f f a t h j.M.m.j t a r ",
"s.s.g.h.j.l.l.x.A.B.! E.).(.&.+ M !.sXdXpX<.} +.9.!.L.c.j j a u d g.A.j.a w r j ",
"6 6 i f j l.M.A.S.c.S U.(.(.:.- . R aXdXpXy.+.@.} Q.^.S.F.F.l , 0 s.M.c.u 4 r h.",
"< 2 e r f j.m.M.l.n.C.J  . .N + >.1X9X>X|.> | { { R.qXqX/.W.J.c 9 c.n.s.0 3 d j.",
"d f a.f.d.h h h h j C.D o     - Q.eXtX!.K R .XXX.XoX-X@X*.E T B.s.j.A.b.s.d s.l.",
"m.m.l.M.k.u 4 5 4 3 l m o * : - -.'.5X;.K R }. X}. XOX*.) ! G.D.M.M.x.A.l.M.M.M.",
"m.M.x.A.n.u 4 4 1 4 d c.Z - = ; ! ( I.! ^ ^ / / ^ |.+X.XK.L.F.A.x.A.x.x.x.A.M.l.",
"a.a.l.M.m.f.j d 6 4 w C C M o M Q B.C D D Z Z F S @ ^ ! B.b h.x.x.A.x.x.x.x.j.d ",
"f y h.M.M.M.A.s.u < 6 r y s i 8 m y y y y t y g k e s i 5 3 s.M.M.x.x.x.x.n.s.9 ",
"t y g.z.l.z.m.d.w 5 8 r t t a a t t t t t t t t a i i 6 < 4 l M.A.M.M.M.M.x.s.0 ",
"t t h j j j j y p e e t t t a a t t t t t t t t e 8 6 6 4 6 a.n.M.x.A.x.x.x.l.b.",
"r t r r r e r t r a t t t t t t t t t t r t t t u < , , , < l M.x.A.A.x.A.S.A.A.",
"g j j j j j j h t a t a s t t t t t t g j f i e u u i i u i g.M.x.x.M.l.h.h.j.l.",
"z.m.z.m.z.z.m.g.j t t t t t t t t t h g.m.f.w 4 e c.b.b.b.b.n.M.x.A.x.j.u 5 d n.",
"m.M.M.M.x.M.M.k.j t t t t r t t t t h j.M.g.6 < p b.M.M.N.M.M.M.A.M.x.g.9 2 u j."
};
