/* XPM */
static char *result[] = {
/* columns rows colors chars-per-pixel */
"40 40 221 2 ",
"   c #0B080A",
".  c #12150D",
"X  c #201F03",
"o  c #12310D",
"O  c #2C2A0F",
"+  c #3B3610",
"@  c #0D2032",
"#  c #252B25",
"$  c #283428",
"%  c #2D3532",
"&  c #5B0018",
"*  c #681A1C",
"=  c #51341D",
"-  c #68251C",
";  c #5D1F2D",
":  c #4B332F",
">  c #6C2D2C",
",  c #7D3C2A",
"<  c #743934",
"1  c #054704",
"2  c #0C4C06",
"3  c #124E07",
"4  c #0D5207",
"5  c #135309",
"6  c #14570A",
"7  c #19560A",
"8  c #1B5A0C",
"9  c #0A5011",
"0  c #234807",
"q  c #38460B",
"w  c #215E0C",
"e  c #354B1A",
"r  c #285B15",
"t  c #1D610E",
"y  c #24630E",
"u  c #2B640E",
"i  c #26680F",
"p  c #2D6B0E",
"a  c #33660F",
"s  c #316E0F",
"d  c #32700F",
"f  c #2C6512",
"g  c #256912",
"h  c #2B6C12",
"j  c #326E11",
"k  c #37661A",
"l  c #2D7314",
"z  c #347312",
"x  c #377813",
"c  c #3A7C15",
"v  c #377418",
"b  c #3B7E1A",
"n  c #095A24",
"m  c #254127",
"M  c #2E502F",
"N  c #32413E",
"B  c #3A6527",
"V  c #396C2E",
"C  c #4B420B",
"Z  c #564618",
"A  c #6F5216",
"S  c #4F4C30",
"D  c #724E2E",
"F  c #476F2C",
"G  c #457334",
"H  c #636030",
"J  c #6A7537",
"K  c #5C3749",
"L  c #6C284E",
"P  c #354441",
"I  c #254670",
"U  c #494745",
"Y  c #5E5C4E",
"T  c #535053",
"R  c #78494A",
"E  c #79525E",
"W  c #536B44",
"Q  c #6B6E56",
"!  c #5E636C",
"~  c #47637A",
"^  c #717171",
"/  c #8C0E0E",
"(  c #A80F17",
")  c #A51E16",
"_  c #A12A1C",
"`  c #9A2F2E",
"'  c #8D362D",
"]  c #99342B",
"[  c #AF3231",
"{  c #BA363D",
"}  c #CC352F",
"|  c #8B5236",
" . c #AE4E38",
".. c #957138",
"X. c #A87434",
"o. c #DB4B3A",
"O. c #D85037",
"+. c #E55032",
"@. c #CE6837",
"#. c #8B3F56",
"$. c #BE3D41",
"%. c #C23E42",
"&. c #8D514F",
"*. c #AC4D4A",
"=. c #9F6B5B",
"-. c #967051",
";. c #A87847",
":. c #AC6A50",
">. c #A47A54",
",. c #8D5F69",
"<. c #BE5B6C",
"1. c #957767",
"2. c #AF7471",
"3. c #C54544",
"4. c #CD524F",
"5. c #CE5948",
"6. c #D45649",
"7. c #DC5C4A",
"8. c #E25544",
"9. c #E45845",
"0. c #E35D4C",
"q. c #D36A54",
"w. c #EB6547",
"e. c #E4644D",
"r. c #EB664C",
"t. c #EE694E",
"y. c #E66753",
"u. c #EC6B53",
"i. c #EE7159",
"p. c #C26B78",
"a. c #E87E6F",
"s. c #3E8116",
"d. c #3D821A",
"f. c #408317",
"g. c #42851A",
"h. c #448A1C",
"j. c #498D1D",
"k. c #4C931E",
"l. c #4F991F",
"z. c #519B1F",
"x. c #488625",
"c. c #55822F",
"v. c #4D9421",
"b. c #4F9921",
"n. c #509721",
"m. c #539D21",
"M. c #549D2A",
"N. c #599A2D",
"B. c #588B36",
"V. c #5C9835",
"C. c #748C38",
"Z. c #639D3D",
"A. c #56A023",
"S. c #5BA12C",
"D. c #5FA233",
"F. c #65A13A",
"G. c #558643",
"H. c #728A47",
"J. c #74A448",
"K. c #9A8C3B",
"L. c #B68D3B",
"P. c #928A52",
"I. c #AC8344",
"U. c #B38F4F",
"Y. c #84A555",
"T. c #9B887E",
"R. c #BC8B6E",
"E. c #94B46C",
"W. c #B8AD75",
"Q. c #C89F55",
"!. c #DBAF53",
"~. c #D5AC58",
"^. c #E3BA5A",
"/. c #C79372",
"(. c #D49E7E",
"). c #EF8475",
"_. c #DBBA62",
"`. c #D7A07E",
"'. c #E5BF60",
"]. c #E8C563",
"[. c #32548A",
"{. c #756C83",
"}. c #5E71A1",
"|. c #8A798C",
" X c #BC7D86",
".X c #D47780",
"XX c #788E90",
"oX c #7A8E91",
"OX c #5E86BC",
"+X c #5B86C3",
"@X c #618DCC",
"#X c #8A909E",
"$X c #B2938C",
"%X c #B9A891",
"&X c #9294A6",
"*X c #9796B4",
"=X c #A290AB",
"-X c #A59CBB",
";X c #9AA3AF",
":X c #A5A2A9",
">X c #AAA4B9",
",X c #B5A2B9",
"<X c #CD8A94",
"1X c #CE9192",
"2X c #E58A84",
"3X c #D5A587",
"4X c #E2B99B",
"5X c #CCB0B0",
"6X c #E2A9AB",
"7X c #E7C0A5",
"8X c #EECAB3",
"9X c #F3D1BA",
"0X c #ADACC0",
"qX c #B3AEC3",
"wX c #BDBDD4",
"eX c #D0BECD",
"rX c #D0CBD3",
"tX c #D5CDD9",
"yX c #E1C4C3",
"uX c #F2D6C4",
"iX c #E4EAF7",
/* pixels */
"s s s s s s s s d d d s s z c f.k.A.m.c j z b g.v.n.A.z.m.z.l.k.j.h.g.h.m.m.f.u ",
"s s s s s s s s s p j j z d.n.n.z.z.l.c z j w 7 z v.m.A.A.z.h.d s y 6 h x.m.h.z ",
"s s d z z d d d z j s p z h.n.A.A.A.N.J F F F B F m.m.m.z.z.f.d u 8 4 y h.n.j.x ",
"s j c s.s.f.f.s.f.s.c z d g.m.S.F.J.-._ ) ) ) ) ' C.F.M.m.z.f.d p y w p d.h.s.z ",
"s d j.n.l.l.l.l.z.l.g.x b V.Y.P. .>.q.9.8.8.8.9.6.-.W V V.M.f.d s a p s d x z s ",
"s s j.n.m.m.m.m.A.b.k.c.H.T./.q.O.7.6.7.i.u.u.u.t.q. . ...V.s.d s s d s s s s s ",
"s s c g.h.l.z.m.A.A.J.P.:.} o.e.t.0.o.5.y.u.u.u.t.y.t.e.| 9 z h s s s s s s s d ",
"s s s s x l.m.z.A.F.-.} 8.9.9.y.u.e.$.4.y.u.u.u.t.u.i.i.[ + k j s s s s s s s s ",
"s s s s z j.v.S.J.-.O.o.t.i.u.u.u.y.%.4.u.u.u.y.u.u.u.i.6.' q h s s s s s s s s ",
"s s s s j z v G.I.5.6.e.u.y.u.u.u.y.%.8.y.u.u.r.u.u.u.u.0.` = u s s s s s s s s ",
"s s s s p 5 n -.5.r.u.u.u.u.u.u.r.+.} } +.t.u.u.u.i.y.e.6.] C y s s s s s s s s ",
"s s s s p 8 o  .u.u.u.u.u.t.w.w.a.2X.X.X).i.w.y.e.0.6.3.} ] C u s s s s s s s s ",
"s s s s j r o | e.t.r.r.r.r.w.a.6XrXtXtXyX`.t.0.3.$.$.$.$.` C f s z s z s s d s ",
"s s s s s a 1 ] 5.y.a.i.y.t.a.5X,X#XoXXX;X,X/.4.$.{ $.$.%.` = a s s s s z z s d ",
"s s s s s j k Z &..X1X<X<X1X1X:XoXXXoXXX#X;X=X X4.{ { %.$.' q p z s s s s s s s ",
"s s s s s s v a W ^ {.&X=X,XqX*X&XwXwXeX>X&X*X,X<.` ` *.< e y p s s s s z s d s ",
"s s p d d p p s.M.G.Y R E |.*X-X>X,X0XqX,X*X*X&X,.< < U # 0 a j s d s s d s d s ",
"d d d d d x s.d.k.S.J > * K {.-XeXT.Y |.$X|.! T U : P N @ 3 s j s s j d s d s d ",
"d s d p z j.l.l.z.S.C.D &.= ! >XyXU.$ >./.I.H m N P P P # 0 a j s s s d s s s s ",
"d s d p x k.A.m.m.M.C.U./.R.W.rXuX(.,.R.(.`.1.P P % $ $ m r j s s s s s d s s s ",
"s.c s.c s.l.m.z.h.h.Z.W.4X8X9X9XuX7X3X(.(./.1.K # # o o a v s s d s d s s s s s ",
"k.m.z.l.z.m.m.d.g 4 F Y.%X7X9X8X4X3X(.(./.=.R > % O F B j s s s s s s s s s s s ",
"m.m.m.m.m.m.A.d.t 4 d V.E.%X$X2.2.=.=.=.>.;.;.U.U.K.H B j s a s s p p s s s s s ",
"z.m.z.m.m.m.A.j.s.b x.H.P.1.#.L L > | < D X.!.^.~.;.- X r j s s z s.f.s.z p s s ",
"A.m.m.m.A.z.A.z.z.S.C., / ( <.,X>X1.>.A Z X.'._.>.L ; : M h z j l k.m.j.x p d s ",
"b.b.m.m.m.m.A.m.z.D.K.@.+.} p.tXiXtX^ . = I.'._.=.> ; + f z j p l k.m.v.x l s d ",
"x l d.f.f.z.m.z.z.S.J X.O.[ ,.qXiXrX!   > L.^.].Q...* O v g.z 7 g h.A.l.h y p d.",
"4 5 i p x k.A.m.z.S.c.= , 2.%X5X5X#XS . + A L.!.!.X.J B.M.v.x 1 t h.m.d.t 4 i k.",
"6 6 p d x h.l.k.v.V.G . X #XuX8X2.& [.}.[.I Y ;...A B.M.m.b.v 4 g d.A.d.g 6 l k.",
"b d.g.h.h.x h p V B : : : 1.4X3XX.K }.OX@X+X[.@     B x.b.m.h.d.s.l.A.l.d.d.d.l.",
"m.m.b.A.v.y 2 2 8 M ! |.E = O o o m m N ~ OX@X}.L - e v b.A.m.m.m.m.m.m.A.A.m.m.",
"v.n.l.A.b.l 8 6 9 r M V S r 0 7 r f a f O ,.,X&XQ S w l d.k.b.m.m.m.m.m.m.A.m.k.",
"c s.k.m.z.j.f.x 8 5 y k v j i u a j s j F - | Q V h g g y l g.m.m.m.m.m.m.m.d.l ",
"s d j.m.m.m.m.x.y 4 8 u s s s s s s s s x j k k z z s y 2 5 d.m.z.m.m.m.m.l.d.t ",
"s d g.l.l.k.k.b y 7 y p s s s s s s s s s s j s s p f 8 5 5 d.M.m.m.m.m.m.m.d.l ",
"s z z x x x c d h f p p s s s s s s s s z s s s u 8 7 7 3 6 d.b.m.m.m.m.m.m.z.b.",
"s a a p p p s p s s j s s s s s s s s s p s s z w 2 1 1 1 4 d.b.A.A.z.A.A.A.A.A.",
"c c b b c c c x j s s s s s s s s s s x c z p y f g h g f h g.m.A.z.z.l.k.h.d.l.",
"l.n.n.n.z.l.n.j.x s s s s s s s s s x h.n.g.t 5 h x.v.v.v.v.v.m.z.z.z.k.t 6 l k.",
"n.m.m.m.z.A.m.k.x s s s a s s s j s x v.m.g.t 4 h v.A.A.M.M.m.m.A.A.m.d.t 4 g k."
};
