/* XPM */
static char *result[] = {
/* columns rows colors chars-per-pixel */
"40 40 232 2 ",
"   c #060400",
".  c #07130F",
"X  c #271612",
"o  c #0D3115",
"O  c #292B16",
"+  c #082F29",
"@  c #2E2D2A",
"#  c #293639",
"$  c #460000",
"%  c #540000",
"&  c #6C000C",
"*  c #503B0E",
"=  c #692B0F",
"-  c #5A2F29",
";  c #6B322F",
":  c #044904",
">  c #104D07",
",  c #095107",
"<  c #175906",
"1  c #155409",
"2  c #1B5A0B",
"3  c #185317",
"4  c #314706",
"5  c #265C0B",
"6  c #255C18",
"7  c #1C6307",
"8  c #106900",
"9  c #1F6211",
"0  c #236A00",
"q  c #24640E",
"w  c #2A6909",
"e  c #2D6B0D",
"r  c #316C06",
"t  c #316E0F",
"y  c #2B7100",
"u  c #307001",
"i  c #32710F",
"p  c #286614",
"a  c #2B6D13",
"s  c #326E11",
"d  c #36651A",
"f  c #2E7316",
"g  c #347312",
"h  c #3A7416",
"j  c #367815",
"k  c #3B7C15",
"l  c #367119",
"z  c #367B18",
"x  c #3A7D19",
"c  c #37572D",
"v  c #324733",
"b  c #376A24",
"n  c #3D7523",
"m  c #4C5516",
"M  c #724904",
"N  c #517118",
"B  c #667D19",
"V  c #505530",
"C  c #744933",
"Z  c #4A7726",
"A  c #4D6932",
"S  c #557636",
"D  c #6E7534",
"F  c #00344E",
"G  c #28374F",
"H  c #503446",
"J  c #6F3F41",
"K  c #394D55",
"L  c #1B466A",
"P  c #36516F",
"I  c #524B4A",
"U  c #7B4441",
"Y  c #655548",
"T  c #6A504D",
"R  c #4B6D45",
"E  c #55754A",
"W  c #6B724F",
"Q  c #656451",
"!  c #5A586C",
"~  c #795268",
"^  c #546674",
"/  c #70726E",
"(  c #890000",
")  c #BB0010",
"_  c #B61A12",
"`  c #B53407",
"'  c #AF2B10",
"]  c #9D1B2A",
"[  c #8F2329",
"{  c #B13134",
"}  c #B3353A",
"|  c #C73320",
" . c #C2373A",
".. c #A56013",
"X. c #98512E",
"o. c #B94D32",
"O. c #88762C",
"+. c #A6722E",
"@. c #A8613C",
"#. c #C64800",
"$. c #D84A28",
"%. c #CC4C34",
"&. c #D44B3A",
"*. c #DD5A3A",
"=. c #E75A37",
"-. c #EF6027",
";. c #8E3C48",
":. c #AE3C48",
">. c #844444",
",. c #904744",
"<. c #955F4C",
"1. c #B4444D",
"2. c #8E694E",
"3. c #B56641",
"4. c #A77655",
"5. c #AC7654",
"6. c #8B587A",
"7. c #9A5E7C",
"8. c #AE5567",
"9. c #8C726D",
"0. c #AC7C6B",
"q. c #C74541",
"w. c #CC4841",
"e. c #CF564F",
"r. c #D85546",
"t. c #E35D44",
"y. c #E95A43",
"u. c #E35E4A",
"i. c #D36F55",
"p. c #EB6347",
"a. c #EB664D",
"s. c #EE694E",
"d. c #F2674A",
"f. c #F1694E",
"g. c #E56B51",
"h. c #EF6D50",
"j. c #F16D50",
"k. c #E87566",
"l. c #389000",
"z. c #3E8217",
"x. c #3D821A",
"c. c #38891C",
"v. c #50940D",
"b. c #418515",
"n. c #41851A",
"m. c #458A1B",
"M. c #498D1C",
"N. c #47951A",
"B. c #4B931E",
"V. c #4F991F",
"C. c #53961E",
"Z. c #529D1F",
"A. c #65821B",
"S. c #54A11F",
"D. c #458B24",
"F. c #4D9421",
"G. c #4E9623",
"H. c #519721",
"J. c #539D21",
"K. c #57902B",
"L. c #579928",
"P. c #568A3B",
"I. c #63912C",
"U. c #4FA321",
"Y. c #55A122",
"T. c #5BA22A",
"R. c #65A53C",
"E. c #5A8446",
"W. c #6A8E46",
"Q. c #678A57",
"!. c #79955B",
"~. c #73A653",
"^. c #758D65",
"/. c #7FA470",
"(. c #89905E",
"). c #938E71",
"_. c #AE866F",
"`. c #B78868",
"'. c #DD8768",
"]. c #D3976D",
"[. c #C68E71",
"{. c #C49371",
"}. c #D69875",
"|. c #D9A07A",
" X c #2C5D95",
".X c #355D98",
"XX c #456796",
"oX c #727288",
"OX c #566FA5",
"+X c #567DBC",
"@X c #9F5F8B",
"#X c #85768B",
"$X c #AB7994",
"%X c #947DA2",
"&X c #C77686",
"*X c #7C8A96",
"=X c #5B87CB",
"-X c #638ED4",
";X c #8F8F8F",
":X c #9BA491",
">X c #A5A293",
",X c #9592AD",
"<X c #A394AA",
"1X c #BBA1AE",
"2X c #A9B4A4",
"3X c #B9AABA",
"4X c #CB9E83",
"5X c #D4949B",
"6X c #E9928B",
"7X c #DAA686",
"8X c #D4AC95",
"9X c #D0B199",
"0X c #E7A19F",
"qX c #E6B799",
"wX c #C09CB1",
"eX c #CEB8B0",
"rX c #ECB8A3",
"tX c #A7C496",
"yX c #E9C1A9",
"uX c #F3C6AB",
"iX c #F3CEBA",
"pX c #FBD3BA",
"aX c #AFA5C5",
"sX c #A9B2C0",
"dX c #D3BDC4",
"fX c #BDC2D6",
"gX c #CAC1CC",
"hX c #D8C9D6",
"jX c #FBD9C5",
"kX c #ECCDD0",
"lX c #D7D6E6",
"zX c #E6DBE7",
/* pixels */
"s t t t s t t i i t t t t i e i m.L.M.a g M.J.Y.J.J.H.G.G.Y.Z.Z.J.J.U.N.a , j J.",
"t t t t t t i t t t i s t t i i M.Y.B.g g M.J.J.J.J.Y.Y.Y.J.J.Y.J.J.J.M.p : g H.",
"t t t t t t i s t i i t e g z.z.B.Y.M.i s j x m.J.Z.Z.Z.B.M.m.b.x M.J.B.a 2 g m.",
"t t t t t t t t t t e t s x F.J.Z.Z.B.g a 2 , a F.Y.Y.Z.B.i t 2 , f H.H.x e t t ",
"t t t t g g i g i j i i e z.H.Z.Z.J.M.s s 5 2 s C.Y.J.J.M.i e 2 1 a F.F.j t t t ",
"t t t g m.M.M.M.M.M.M.k i N H.S.Y.Y.m.q 9 f c.F.J.J.Z.Z.M.i s e q s k k g t t t ",
"t t t k H.Y.C.J.Z.J.Z.z.i z.H.L.A.A.N 4 4 N B A.C.Z.C.J.M.t s s t t t i t t t t ",
"t t t j M.B.C.S.Z.Y.C.b.j Z A.X.) _ _ _ _ _ _ ' O.I.K.m.b.s s t t t t t t t t t ",
"t t t i g j M.J.Z.Z.Z.L.O.@.3.r.y.y.y.y.y.y.y.y.u.+.X.c e r t s s t t t t t s t ",
"t t t t e t m.C.Y.Y.C.+.*.t.p.h.h.h.j.j.j.h.h.j.h.a.=.%.m Z Z r e t t i t t t t ",
"t t t i s i g j N B ..=.s.d.a.a.a.a.a.a.a.a.a.f.a.a.f.a.$.3.D W P.h t s t t t t ",
"i t t t s a 5 : = ' =.d.a.r.r.r.r.r.r.r.r.r.r.r.r.r.u.h.p.$.o.0.:XE.0 g t t t t ",
"t t r s t s d o ` h.6Xk.r.%.w.w.w.w.w.w.q.q.w.w.w.w.w.g.6X'.=.] ).Q.7 l s i i t ",
"t t s s s r S + ` 0XzX5X&.t.s.a.a.a.a.a.s.a.a.a.f.f.$.e.hXkXk.& / Q.7 g t t t t ",
"t t s s s r S R ;XlXlX0Xp.p.d.d.j.j.a.j.s.s.s.s.f.f.-.k.kXlX3XQ R Z r s i t i t ",
"t s t t s b 0 2X,X;XgX0Xa.p.s.s.a.a.f.a.s.s.s.f.f.a.=.k.hXsX*X:X!.0 l s i t s t ",
"s t e t g w Q.>XI P <X&Xw.&.u.j.j.a.h.a.a.a.h.a.a.r. .e.wXoX. / ).E.y g s g t i ",
"t i s g s y ^.T = 9.#X8. . .w.u.a.j.f.j.h.g.h.a.r. .| :.@X9.T % / ^.8 j t t t t ",
"n.j g e a u E.: 5.[.- & { :.} | t.u.u.u.p.p.p.&.| } :.[ $ <.[.; Q P.0 g t t t i ",
"H.n.s s s s z.E.4.5.U U I J ;.1.:.} } } } } } 1.1.J T T C <.4.V < u s t s t t t ",
"F.z.g g i g v.~.!.V J 0._.Q #X<X! = >.>.>.; - oX<X^ 2.{.<.- V Z l g t t t t t t ",
"a x B.N.B.N.G.v.m.E * 5.].4XgXfX! M {.`.{.4.* ;XlX9X].|.C A g i t t s t t t i i ",
", j J.Y.Y.Y.Z.L.c.< ;X_.`.|.iXkX9X8XrXuXuXrX8XeXkXuXi.2.S s g s e t t t t t i t ",
"e x.J.J.V.Z.Z.U.F.8 /.;XU X.}.uXjXjXiXyXuXjXjXpXqX[.0.;X^.P.i j z.g t t t s g k ",
"H.J.Y.Y.J.J.J.J.Y.l.tX*X^ )._.`.9XyXrX7XqXrXrX4X4.; ;XaX;X^.Q.P.V.m.i t t t z.H.",
"J.J.H.J.J.J.Z.Y.U.v.tX:X;XdX<XH J i.}.}.}.[.9.H X   ;XdXaXoXA W.R.b.g i i e z.Y.",
"f l l z z.z.B.J.v.R.Q 2.}.8X3X%X:.%.a.w.q.8.,XoX# + 2.4X3X1X`.; E.P.< p k M.N.J.",
"> , , 1 e i M.Z.R.~.c ^.sXeXaX,X~ o.p.y.&X<XoXI v # @ C _.7X`.- Z D.: 2 n.L.J.Z.",
"1 1 1 q g g n.B.E.W.).eXdX#X! ^ K X.&.a.k.&XT + # O Q ^.2.= C W L.x.q q M.J.Z.J.",
"a j m.m.B.B.j p : Y eXjX9XV G XXG % ' =.-.#.=   O P oX(.^.Z Z H.Y.B.D.m.V.J.Y.Y.",
"g m.J.J.Y.Y.g : c c ).>X(.E.^ .XG F ! $X&X7.! L P =X.X# ~.T.S.S.U.Z.Y.Y.J.J.J.J.",
"t k M.B.V.Z.x.9 p d o . n E.R # X P XXOXOXOX+X+X=X=X X@ !.T.Z.Z.Y.Z.V.V.m.x.x.x.",
"s g i z.H.Y.V.B.x.2 3 4 l s r b c . X . + P +X-X-X+X X# Q.T.V.Z.Z.U.Z.B.a 1 2 < ",
"t t e j H.H.J.L.m.2 1 p s s s l d 5 5 d 4 G OX-X=X XoXR n L.Z.Y.Z.Z.J.N.p , > > ",
"t t i j b.n.b.n.j q q e t s s t r s g j 6 - ~ @X6.@ ^.c a H.Z.J.Y.J.J.B.x.x.a 1 ",
"t e t r e e e e t t s t t t t t s s s r b W ,.( [ Q 3 : a H.Y.Z.J.Y.Y.Y.Y.H.x : ",
"s s j j g j g g g i a i t t t t t e g j j E.E @ v W 9 2 z H.Z.J.Z.H.G.G.J.U.c.2 ",
"s b.B.B.M.C.C.H.m.g i e t t t t t i j B.M.a 3 9 D.G.D.D.G.J.Z.Y.Y.x.9 9 m.J.V.D.",
"g c.Y.Z.J.J.J.J.B.i e i t t t t i e x Z.B.e : e G.Y.J.L.J.J.J.Y.J.z , 1 c.Y.L.J.",
"s N M.B.J.J.Z.J.B.m.N g t t s t k z.b.Y.H.z a z.G.U.J.U.J.J.H.c.x.z a f z x M.J."
};
