/* XPM */
static char *result[] = {
/* columns rows colors chars-per-pixel */
"40 40 238 2 ",
"   c #000305",
".  c #111900",
"X  c #2D0004",
"o  c #391D0A",
"O  c #013800",
"+  c #1E261D",
"@  c #2F2E0C",
"#  c #392A11",
"$  c #273415",
"%  c #001627",
"&  c #3F0024",
"*  c #193737",
"=  c #2B3A24",
"-  c #2A3439",
";  c #293738",
":  c #581300",
">  c #6A0000",
",  c #6A3F06",
"<  c #541E20",
"1  c #7D1E25",
"2  c #563728",
"3  c #49323A",
"4  c #593636",
"5  c #6D2D22",
"6  c #6E3131",
"7  c #054905",
"8  c #0B4C06",
"9  c #114D07",
"0  c #0B5104",
"q  c #085308",
"w  c #135309",
"e  c #175D0A",
"r  c #1C5B0C",
"t  c #155D16",
"y  c #215F0C",
"u  c #2C5112",
"i  c #395811",
"p  c #1E620E",
"a  c #296A07",
"s  c #25640E",
"d  c #29650E",
"f  c #2E6B0E",
"g  c #316D07",
"h  c #316E0F",
"j  c #32700F",
"k  c #39760F",
"l  c #246311",
"z  c #276A11",
"x  c #2C6C12",
"c  c #286519",
"v  c #326E11",
"b  c #356B1C",
"n  c #2E7213",
"m  c #337312",
"M  c #387714",
"N  c #367915",
"B  c #3B7C15",
"V  c #38761B",
"C  c #3B7C1B",
"Z  c #304F2B",
"A  c #326D2C",
"S  c #3C7627",
"D  c #514C17",
"F  c #68411C",
"G  c #457D1E",
"H  c #5F493D",
"J  c #55533A",
"K  c #70492D",
"L  c #456C2D",
"P  c #586A2F",
"I  c #457928",
"U  c #46643C",
"Y  c #4C7736",
"T  c #517A33",
"R  c #706B36",
"E  c #081841",
"W  c #1A3B4E",
"Q  c #5C2F53",
"!  c #733D45",
"~  c #6F3F58",
"^  c #354141",
"/  c #344B66",
"(  c #414745",
")  c #4F544E",
"_  c #6F4F4C",
"`  c #795548",
"'  c #53744C",
"]  c #4A476D",
"[  c #765875",
"{  c #726F6F",
"}  c #9F120E",
"|  c #812A1D",
" . c #A5231D",
".. c #883836",
"X. c #983839",
"o. c #B72B2D",
"O. c #A33536",
"+. c #BB393D",
"@. c #D40000",
"#. c #CB3010",
"$. c #C01626",
"%. c #93690C",
"&. c #914E3B",
"*. c #8A593D",
"=. c #AF483B",
"-. c #BE4A36",
";. c #956F2E",
":. c #D44A2F",
">. c #C6483B",
",. c #D64434",
"<. c #E6563A",
"1. c #BB3D41",
"2. c #C23E41",
"3. c #93514A",
"4. c #B84A4A",
"5. c #916F54",
"6. c #A26953",
"7. c #B16D55",
"8. c #A95762",
"9. c #9C6D6D",
"0. c #9D7B68",
"q. c #A77164",
"w. c #B17E65",
"e. c #C74845",
"r. c #D54F49",
"t. c #CC5246",
"y. c #D85849",
"u. c #D55953",
"i. c #E35C46",
"p. c #DB614A",
"a. c #D56656",
"s. c #EC6446",
"d. c #E5644E",
"f. c #EB654B",
"g. c #EC694B",
"h. c #EC6B53",
"j. c #E86955",
"k. c #F17257",
"l. c #F1765A",
"z. c #CF7A70",
"x. c #EB7A6A",
"c. c #3E8116",
"v. c #3D821A",
"b. c #3E891C",
"n. c #3D8323",
"m. c #408316",
"M. c #478C17",
"N. c #42861A",
"B. c #448A1B",
"V. c #498E1D",
"C. c #4C931E",
"Z. c #4F981D",
"A. c #51971F",
"S. c #529C1F",
"D. c #478625",
"F. c #498E21",
"G. c #518D2C",
"H. c #4D9421",
"J. c #4C9425",
"K. c #539D21",
"L. c #529827",
"P. c #44813C",
"I. c #568637",
"U. c #599836",
"Y. c #649B2B",
"T. c #55A022",
"R. c #57A329",
"E. c #6AA53F",
"W. c #558243",
"Q. c #648844",
"!. c #718F50",
"~. c #77A758",
"^. c #728E62",
"/. c #7B9461",
"(. c #829646",
"). c #8F865B",
"_. c #B38A50",
"`. c #84A05D",
"'. c #918B6A",
"]. c #A2846F",
"[. c #B9866C",
"{. c #8CAA74",
"}. c #A6A676",
"|. c #C59749",
" X c #D4AC53",
".X c #C59377",
"XX c #D49C7B",
"oX c #E98270",
"OX c #DBBB61",
"+X c #DBA27D",
"@X c #E8BE62",
"#X c #E7C664",
"$X c #F2CB64",
"%X c #145F8F",
"&X c #3C5C8D",
"*X c #52698A",
"=X c #797898",
"-X c #5178AE",
";X c #8A728B",
":X c #BA7D8B",
">X c #798797",
",X c #7580B8",
"<X c #558FCA",
"1X c #6994C7",
"2X c #878997",
"3X c #8F8E96",
"4X c #AC9282",
"5X c #B99E83",
"6X c #AAB39F",
"7X c #8F8FAB",
"8X c #8B96A1",
"9X c #AC99A7",
"0X c #A79DB6",
"qX c #98A1AD",
"wX c #9EA9B7",
"eX c #BAABA7",
"rX c #A8A9B8",
"tX c #B3A4BA",
"yX c #C69A87",
"uX c #CC8C9B",
"iX c #D5939A",
"pX c #E28A83",
"aX c #D1AE93",
"sX c #E0A783",
"dX c #E5B89B",
"fX c #CA96A5",
"gX c #CCA5A9",
"hX c #D6BCB1",
"jX c #E3B0B1",
"kX c #D9C2B5",
"lX c #F1C9B3",
"zX c #B7B2CA",
"xX c #B9B7CD",
"cX c #D2C8D2",
"vX c #F5D7C8",
"bX c #FFE3CA",
"nX c #D9D8E6",
"mX c #DEE3EA",
/* pixels */
"h h h h j h j h h h j j h h f j Z.R.V.j m V.K.R.S.K.K.K.K.K.K.T.K.K.T.K.B.r 7 N ",
"h h h h v j m j h j j x j m c.v.H.T.V.m j B v.B.Z.K.T.S.S.C.C.M.N.N.H.K.V.l r m ",
"h h v h h h h h f h h h m N.A.Z.Z.K.M.k f y q z C.T.K.K.Z.B j d w e N.K.C.m f h ",
"h h h j m h m h j m m h f m.R.R.R.R.F.V x e 0 z H.T.K.K.Z.B j s w r C H.V.m v m ",
"h h j m.N.N.N.M.M.B.G B M G.!.(.!.(.!.R P I F.B.Z.S.K.S.A.B f x s s m N.B m h h ",
"h h M C.K.K.K.S.K.K.J.c A ).-.$.e.>.+.o.=.).`.!.E.R.S.S.K.B h v v f m j m v h h ",
"h h m V.A.A.K.K.K.E.!.L ) 7.d.f.d.d.d.d.i.a.7.7.}.{.~.U.M.M h h h h h h h h h h ",
"h h h B B N.K.S.R.Q.*.:.>.y.h.h.h.h.k.p.t.r.i.i.z.[.[.).P.g h v h h h h h h h h ",
"h h h h f B K.K.U.)  .s.k.h.f.h.h.h.h.y.>.y.h.h.<.#.,.u.5.W.m g v v v h h h h v ",
"h h h h h M N.B.I.K -.d.h.h.h.h.h.h.k.y.e.y.h.h.f.h.f.,.4.0.Q.I j m h h h h h h ",
"h h h h h f t q @ O.y.h.h.f.h.h.h.h.k.u.e.u.j.h.h.h.k.h.<.t.6.R D.m f h h v h h ",
"h h h h j s 9 7 # O.r.d.h.h.h.h.j.h.s.,.o.,.s.h.h.h.h.h.g.g.,.=.R S j j h j h j ",
"h h h h h f u w # O.2.e.y.j.j.h.f.f.l.j.r.j.l.g.g.h.h.h.h.j.h.t.*.T n h v j h h ",
"h h h h h v v y o O.2.1.e.e.e.i.<.x.jXcXcXcXjXoXs.s.g.g.s.g.k.,.1 L N h m h j j ",
"h h h v h f v y o O.2.1.+.1.+.e.oXgXtXwXwXwXtXgXpXs.s.g.g.h.i.o.5 S M h h h j v ",
"h h h h v h v y $ ..1.1.+.o.1.:X9XqX8X3X3X3X8X8XeXiXuXuXfXfX8.6 P I h j h h h h ",
"f h m f j j f v L H 6 X.1.} 8.zXwX>XrXxXxXxXrX>XqXxX9X;X;X;X{ U I m h j h h j h ",
"m h h h j j M c.Q.'   3 _ 1 _ 2X7X,XtXrX0XzXtX0XwX;X_ ! 6 ) ' A j h h h h j h h ",
"m.m f h f B C.H.Y.U   - ^ ; ( ) ] { yX].) ].fXzX=X3 5 > 5.^.n.n h j h j j h h h ",
"B.j m j f c.K.K.U.L = = ; ^ ; ; R [.+X0.Z 6.dXcX,X4 q.&.9./.v.n v j h h h h h v ",
"v.c.c.c.c.b.K.S.V.D.Y Z + ; ; * 5.sXsX.X[.aXlXvXkXaXkXXX4X/.v.n m h h h h h h h ",
"m H.K.A.S.S.K.S.j 0 b T =   % - ` 0.XX+XsXdXlXlXbXlXdXaX}.Q.m x v f h h h h h h ",
"N H.T.T.T.S.T.H.x 0 b Y J 2 R 5.&.3._.[.w.[..XyXyXaXhX{.I.j m h j j v j h h h h ",
"B.S.S.S.S.S.T.S.N.v.I @ 6 _. X X|._.3.H &.6 6 ~ | 0.6X/.Q.T m M N.N.B f h h m B ",
"T.T.T.T.T.K.S.T.K.K.G.$ 4 3._.OX#X|.F 2 ;.6.;X7X:X8.6.9.4X`.G C K.L.v.j j f f N.",
"C.H.H.H.K.A.K.S.K.T.G.@ < 3 ` OX$X|.D   R 9XnXnXfX$.#.@.z.'.S M H.K.c.f f m N N.",
"l z z m B B.S.K.S.T.G.Z 4 3.|.@X$X|.K   - wXmXnX7X} i.:.[.^.c n H.H.n e z B.H.Z.",
"0 7 q d f B K.T.K.K.T.I.) ;. X@X|.%.o . @ [ 9XkXgX].3.> { ^.t z L.J.x 7 s M.K.K.",
"y l z N B B N.B.N.v.V.G.A D ;.;.K / &X*X*XQ 6.dXbXkX(   _ ^.' b.K.H.v.z n C.K.K.",
"B F.C.H.Z.N.e r r e n D.Z X & E %X<X1X-X&X] 6 q.5X[.H _ _ 3 Y U.T.K.J.C.C.S.T.T.",
"N.K.K.K.T.N.7 q 9 8 s D.I , 3.=X1X,X] W Z u 7 O O i # [ =X' G L.K.S.T.T.T.S.Z.K.",
"B N.B.K.K.H.n n r 9 s C D.P _ 3XtX3.: d b I b b c A i ) W.!.Y.S.K.S.S.S.C.v.N v.",
"v m m C.T.K.K.F.v w r d j v I ' ` F P V v f h h v v c u a B.K.S.K.S.S.S.B.p 0 w ",
"h h m V.H.K.K.H.v w r d h h M v 7 c k g v h h h x v y 8 w D.T.S.K.K.S.T.B.p w w ",
"j j j G c.c.v.B x s d h v h v v b h h m h h h d y y r w p F.K.T.S.S.S.K.J.b.b.n ",
"h f f a a f f f h v v v h h v v h h h f f h v d 9 7 9 7 w B.K.K.T.T.T.R.T.T.J.n ",
"j B M M M M B m m v h h h h v h f h m B N j d z y y l y z F.T.S.S.S.J.F.H.K.K.b.",
"G C.Z.A.H.H.H.Z.G h h h h h h h j f B C.V.x w s n.G.H.F.H.H.S.K.S.S.n e z F.K.H.",
"m.K.K.S.K.K.T.A.c.j h h h h h h n j c.K.H.x q p H.T.K.T.K.K.K.Z.T.J.z q p b.R.K.",
"B M.V.A.K.K.T.A.M.c.B m h h h v N c.B.K.S.v.x N C.K.K.K.K.K.R.C.b.v.n n n v.v.b."
};
