/* XPM */
static char *result[] = {
/* columns rows colors chars-per-pixel */
"40 40 234 2 ",
"   c black",
".  c #0C0700",
"X  c #140615",
"o  c #00191B",
"O  c #330200",
"+  c #27001E",
"@  c #0F2613",
"#  c #2B2C12",
"$  c #2C2618",
"%  c #0A0B34",
"&  c #391F28",
"*  c #0F2A2E",
"=  c #37352D",
"-  c #263E3E",
";  c #2F3C3C",
":  c #4E0E09",
">  c #4D2E11",
",  c #6F311B",
"<  c #5F082A",
"1  c #513539",
"2  c #75372A",
"3  c #69373A",
"4  c #77393D",
"5  c #064603",
"6  c #0C4E06",
"7  c #164C08",
"8  c #035202",
"9  c #0A5305",
"0  c #135206",
"q  c #145409",
"w  c #17590C",
"e  c #1B5B0D",
"r  c #165B13",
"t  c #245C08",
"y  c #315806",
"u  c #275816",
"i  c #325B15",
"p  c #17610C",
"a  c #1E6410",
"s  c #2A6B04",
"d  c #24630E",
"f  c #2A650D",
"g  c #2D6B0D",
"h  c #356705",
"j  c #316E0F",
"k  c #2B7308",
"l  c #347200",
"z  c #32700F",
"x  c #256612",
"c  c #256B11",
"v  c #2C6B11",
"b  c #2A6419",
"n  c #316E11",
"m  c #36691C",
"M  c #2E7413",
"N  c #337312",
"B  c #357A15",
"V  c #3A7B15",
"C  c #397419",
"Z  c #3C7C1B",
"A  c #2E562D",
"S  c #3A5426",
"D  c #386B24",
"F  c #3A7325",
"G  c #386331",
"H  c #6F510F",
"J  c #427417",
"K  c #6A621B",
"L  c #4B4538",
"P  c #415534",
"I  c #525932",
"U  c #744136",
"Y  c #635835",
"T  c #447927",
"R  c #48673A",
"E  c #566739",
"W  c #467133",
"Q  c #5B7C3F",
"!  c #716F32",
"~  c #0D2957",
"^  c #2E3F40",
"/  c #2E3766",
"(  c #643F40",
")  c #7A3942",
"_  c #024448",
"`  c #2C4544",
"'  c #2C4747",
"]  c #364546",
"[  c #395757",
"{  c #185276",
"}  c #5D4647",
"|  c #4E514C",
" . c #445454",
".. c #4F5754",
"X. c #734B49",
"o. c #685647",
"O. c #576A46",
"+. c #546350",
"@. c #527853",
"#. c #70704D",
"$. c #647A55",
"%. c #42526A",
"&. c #596462",
"*. c #546B6D",
"=. c #666B61",
"-. c #8C0F08",
";. c #881519",
":. c #B4070D",
">. c #B8000D",
",. c #902619",
"<. c #8D2F29",
"1. c #9A2627",
"2. c #883B3D",
"3. c #913B3D",
"4. c #9E3B3E",
"5. c #AE2E31",
"6. c #A4383B",
"7. c #B53537",
"8. c #BD373B",
"9. c #BE393C",
"0. c #C03538",
"q. c #C03A3C",
"w. c #91640B",
"e. c #885624",
"r. c #8D532D",
"t. c #854C3B",
"y. c #A54C38",
"u. c #88672C",
"i. c #99663A",
"p. c #AB7D30",
"a. c #C0781E",
"s. c #C6443C",
"d. c #D25736",
"f. c #9D3341",
"g. c #824D43",
"h. c #895744",
"j. c #90554E",
"k. c #B35C4B",
"l. c #8F6E4E",
"z. c #936344",
"x. c #966945",
"c. c #B9674C",
"v. c #A57644",
"b. c #AB7557",
"n. c #887364",
"m. c #937967",
"M. c #AA7D64",
"N. c #C74240",
"B. c #C94540",
"V. c #CE4B42",
"C. c #D14D43",
"Z. c #D55244",
"A. c #DA5647",
"S. c #DD5A48",
"D. c #E45D43",
"F. c #E85E44",
"G. c #E15D49",
"H. c #D3644A",
"J. c #E76349",
"K. c #E9644C",
"L. c #EE6A4E",
"P. c #F06B4E",
"I. c #228300",
"U. c #3D821A",
"Y. c #3C8418",
"T. c #499800",
"R. c #418417",
"E. c #42851A",
"W. c #458B1C",
"Q. c #4A8A18",
"!. c #498D1C",
"~. c #4C941E",
"^. c #4E981A",
"/. c #58971E",
"(. c #529C1E",
"). c #478D20",
"_. c #4E832B",
"`. c #4D9421",
"'. c #4E9A20",
"]. c #509622",
"[. c #539D21",
"{. c #569D2A",
"}. c #578A38",
"|. c #569435",
" X c #699525",
".X c #4EA223",
"XX c #55A022",
"oX c #5AA325",
"OX c #699948",
"+X c #6D8150",
"@X c #648B52",
"#X c #71A552",
"$X c #7AAA62",
"%X c #B98B37",
"&X c #BC9135",
"*X c #C6963B",
"=X c #D4A63D",
"-X c #B58842",
";X c #B68F4B",
":X c #909268",
">X c #98917C",
",X c #A98974",
"<X c #C69643",
"1X c #C39C53",
"2X c #DCB24E",
"3X c #CEA953",
"4X c #E3BE55",
"5X c #C8906A",
"6X c #D5A972",
"7X c #E6C65D",
"8X c #EFD05F",
"9X c #E7C561",
"0X c #3574A8",
"qX c #6C5F98",
"wX c #4C6C97",
"eX c #76768A",
"rX c #5070A6",
"tX c #897887",
"yX c #8878B3",
"uX c #7C879E",
"iX c #3F86C8",
"pX c #4582C6",
"aX c #919490",
"sX c #AEA8B0",
"dX c #CDAD8B",
"fX c #CFAD8F",
"gX c #CEB1A7",
"hX c #E5BFAA",
"jX c #EBCFB1",
"kX c #C9BFC3",
"lX c #D1CBCC",
"zX c #FFE3CA",
"xX c #DDDDE6",
"cX c #E4DDE6",
/* pixels */
"j j j j j n z z z j j j n j j g V `.[.!.z B W.[.[.[.[.XXXXXXXX(.[.XXXX(.[.[.U.w ",
"j j j j j z j z z N z z j n V V R.[.[.Q.z z V R.W.`.(..X(.(.^.~.!.W.E.W.`.[.E.d ",
"j n j j j j j j z g v n g B W.[.[.[.XXY.N k p 9 x Y.XXXX(.XXW.N N d q x W.[.!.N ",
"j j j z n N j z z N z k k k !.]././.[.!.J h y 7 p Y.XXXX[.(.W.z v e 6 d E.{.!.C ",
"z j z Z E.R.R.E.E.Y.R.Z J K ,.>.>.>.>.>.:.:.:.,.K `.(./.XX(.W.j j f t f Z W.Z N ",
"j z z !.[.(.(.(.'..Xu.y.k.H.F.F.F.F.F.F.F.F.F.J.H.H.i.! .XXXW.j j j v j z z z j ",
"z j z Q.].(.(.{.{.v.d.Z.D.F.L.L.P.P.P.L.L.L.L.L.K.J.d.a.-X!.E.k j j j z j j j j ",
"j j j V R.R.{.OXr.7.D.P.K.S.Z.Z.A.Z.Z.Z.Z.Z.Z.Z.S.J.P.D.y.r.v C z j j j j j N g ",
"j j j j h J +X,.5.s.d.G.S.Z.V.V.V.V.V.V.V.V.V.V.C.S.S.G.G.s., Y D s z n j j g N ",
"j j j j m Y -.0.7.s.B.B.V.G.K.K.K.K.K.K.K.K.K.K.G.V.N.B.N.q.7.;.# A J N j j z j ",
"j j j j m 1 -.q.0.V.G.G.G.L.L.L.L.L.L.L.L.P.L.P.L.J.J.S.V.0.0.-.1 G T j j j j z ",
"j j j j t @ ;.0.0.q.C.G.L.L.L.L.L.L.L.L.L.L.L.L.L.L.J.V.s.0.0.;.$ i Z j n j z j ",
"j j j j f i X.,.7.8.9.V.Z.A.S.S.A.A.A.A.A.A.A.A.A.A.C.9.8.5.1.t.S h z z n z z z ",
"j j j j j C @X* 1.0.9.8.9.9.9.9.q.q.q.q.q.9.q.9.q.q.q.q.q.5.@ R T z z z z n z z ",
"n j j j j F $.> 6.8.0.8.9.9.8.9.8.9.9.8.8.8.8.8.8.8.8.q.q.5.> E T n n z n z n z ",
"j j j j m I l.b.j.4.7.8.9.9.9.9.9.9.q.9.q.9.q.q.9.9.9.8.f.j.b.l.E m h n z n z z ",
"j j j j b $ v.5Xj.) ) 2.4.7.9.9.9.9.9.9.8.9.9.8.8.4.f.4 4 j.,Xv.= t j j z z j z ",
"j j j j f i l.u.U S ~ ] } ) f.3.3.3.3.3.2.2.3.3.2.( A _ ^ 2 i.! i f j j h z j j ",
"V j j j z Z }.E $ | =.+.] ] ] A ` - - - ^ ^ ` ' ] ' ..=.L X P J C j j z N j j j ",
"E.j j j j B ^.|.A Y M.m.&.[ ' - - ` ` ` ' ^ ^ ' [ &.n.,Xl.A D h j j j j j j j j ",
"E.B z B z V (.oXA : t.b.:Xo.* o ;  . . . .A o o o.m.b.t.#.F j j j z j j j j n j ",
"V W.~.!.~.[.#X:X$.uXaXdX6X-Xe.<.3 ^ _ ' ^ 3 <.e.w.w.u.@.F k n j j j j z j j z j ",
"B ].(.(. XOX:X,XlXxXcXjX7X=XH.6.;.< X X + < y.a.;X>XaX@Xl j j j j g g j j j j j ",
"B (.(.XXJ S r.dXcXxXlXfX1X=X<Xv.g.) X.x.z.g.j.c.dXlXsX+.W F j j j z V B N j j j ",
"~.[.XX(._.| i.6XfX,Xn.} l.3X8X4X;Xz.1X9X7X;Xj.tXsXgX,X| * S F n z W.~.W.V n j j ",
"[.XX[.[.{.OX>XX., O   H -X9X9X1Xz.X.x.3X8X7X;Xo.n.sXkXsX%.  m C C W.[.~.V j N g ",
"U.U.U.W.W.^.@XY.I.@.L e.<X2X1Xh.g.x.2.h.3X2X&XH ^ eXsXlXgX:X$.s a U.'.`.B d v V ",
"e e r v j Y.T..X/.$XO.e.-X<Xp.h.v.<Xx.h.%X*X&Xw..   m.zXzXhX> P b Y.{.).x 0 g W.",
"6 6 0 d g B ~.(.^.#XR H %X&X%Xh.i.-Xz.i.-X<X-XX.%   #.fXjX6XO.b r U.[.).x 6 v ~.",
"v v B Z R.Y.B C k @XS O > %Xv.j.X.g.) z.%Xp.&.wXrX[ L | } O.|.M M ).[.`.Y.N Y.'.",
"U.`.].[.[.~.a 0 8 O.# ~ wXuXeX} > & + > > # % ~ *.@.7 8 s |.'.'.^.[.[.[.'.[.'.[.",
"R.].[.[.[.~.a q 9 9 @.*.rXpXiX0X{ &.+.5 8 6 y y h b 8 c Y.'.'.[.XXXX[.[.[.[.[.^.",
"V R.R.~.[.(.R.V v 9 D A ^ qXqXyX/ =.$.s z z j n j f t d v B U.[.[.[.[.[.(.'.~.B ",
"j g z !.[.[.[.{.Z e 9 G } 3.5.f.4 $.@.s j j j j j n n f q 6 M ].[.XX(.XX[.[.Y.w ",
"j j N W.(.~.(.].Z d 0 b O.Y : < #.Q N j j z z j n v v t q 7 C `.XXXXXX(.[.'.U.c ",
"j j j V V V V V z g g g Z m r u T C j j z z z j v t e e q q M {.(.(.(.XX[.[.'.).",
"g g j f f s g f j n j j z j j j j j j j g g j n f q 5 5 5 6 M '.XX(.(.[.XXoXXXXX",
"N V V Z V Z V V B n j j j j j j j j j N V V n x x x x x x b Z [..X(.[.'.W.).W.'.",
"J ~.].].(.].].(.E.V j j j j j j j j j R.`.!.M q t Z `.`.`.`.`.[.(.XX[.~.c r M ~.",
"W.[.[.[.].(.XX[.Q.z j j j j j j N g z E.].`.N 9 a ).{.[.'.[.[.[.(.[.[.).a 6 c ~."
};
