/* XPM */
static char *result[] = {
/* columns rows colors chars-per-pixel */
"40 40 225 2 ",
"   c #000005",
".  c #0D0217",
"X  c #330A08",
"o  c #19310A",
"O  c #1A3110",
"+  c #2D260F",
"@  c #030622",
"#  c #0A1429",
"$  c #132D2B",
"%  c #272629",
"&  c #2B322E",
"*  c #333E38",
"=  c #750E14",
"-  c #4D3311",
";  c #6E3016",
":  c #701E21",
">  c #543332",
",  c #6B3629",
"<  c #054A05",
"1  c #0C4D07",
"2  c #104E08",
"3  c #0A5507",
"4  c #145409",
"5  c #19560A",
"6  c #13580A",
"7  c #1B5B0C",
"8  c #1D4E1E",
"9  c #225E0C",
"0  c #2C4F13",
"q  c #384A15",
"w  c #1B6410",
"e  c #24630D",
"r  c #26670F",
"t  c #2E6C0E",
"y  c #316E0F",
"u  c #32700F",
"i  c #276715",
"p  c #2B6512",
"a  c #2C6B11",
"s  c #326E11",
"d  c #386B1A",
"f  c #2D7213",
"g  c #337312",
"h  c #387614",
"j  c #357A16",
"k  c #3A7B15",
"l  c #3A731C",
"z  c #35781A",
"x  c #3C7D19",
"c  c #115038",
"v  c #2F5227",
"b  c #3C6D21",
"n  c #396924",
"m  c #3E7221",
"M  c #584818",
"N  c #76540F",
"B  c #427A1E",
"V  c #425B2E",
"C  c #585A2A",
"Z  c #4D4633",
"A  c #684925",
"S  c #6F592C",
"D  c #436929",
"F  c #556928",
"G  c #45762A",
"H  c #4D6937",
"J  c #4A7937",
"K  c #6A6A34",
"L  c #463854",
"P  c #3B4544",
"I  c #15536F",
"U  c #554841",
"Y  c #505347",
"T  c #67524A",
"R  c #754B53",
"E  c #53655D",
"W  c #716F4A",
"Q  c #6F706B",
"!  c #850F0E",
"~  c #AB0D0B",
"^  c #8D231D",
"/  c #9B1E29",
"(  c #B81E24",
")  c #963434",
"_  c #AF2F2E",
"`  c #BD2E33",
"'  c #B83236",
"]  c #BB393E",
"[  c #C60019",
"{  c #CB3832",
"}  c #A4431A",
"|  c #8F4C3C",
" . c #895A3A",
".. c #B94634",
"X. c #8E6B33",
"o. c #A57C3A",
"O. c #D64526",
"+. c #C9493B",
"@. c #D54838",
"#. c #ED5E3B",
"$. c #ED6239",
"%. c #933F48",
"&. c #B93C41",
"*. c #C03E41",
"=. c #844843",
"-. c #BA4544",
";. c #986B46",
":. c #8F6E53",
">. c #A57A49",
",. c #AE7556",
"<. c #905B65",
"1. c #9A7471",
"2. c #A57B65",
"3. c #AE6771",
"4. c #C24344",
"5. c #CB4D49",
"6. c #C25947",
"7. c #D5564A",
"8. c #D85748",
"9. c #DD5F50",
"0. c #E55A45",
"q. c #D96453",
"w. c #ED6543",
"e. c #E9654D",
"r. c #EA644C",
"t. c #E86853",
"y. c #EC6B53",
"u. c #EE745D",
"i. c #F4755A",
"p. c #C06C70",
"a. c #DB7C7C",
"s. c #F07761",
"d. c #E47C73",
"f. c #3E8117",
"g. c #3D811A",
"h. c #3D8122",
"j. c #408317",
"k. c #428519",
"l. c #458B1C",
"z. c #498E1C",
"x. c #538F1E",
"c. c #4C931E",
"v. c #4B961E",
"b. c #529C1E",
"n. c #4A8D27",
"m. c #4C9321",
"M. c #4F9922",
"N. c #539D21",
"B. c #539926",
"V. c #488434",
"C. c #5E8E33",
"Z. c #589934",
"A. c #678A3D",
"S. c #55A023",
"D. c #5AA12B",
"F. c #5CA532",
"G. c #60A52F",
"H. c #61A538",
"J. c #588946",
"K. c #6F8C4B",
"L. c #6A9B47",
"P. c #67A342",
"I. c #7BA853",
"U. c #B18735",
"Y. c #8E9448",
"T. c #879756",
"R. c #AF8949",
"E. c #82A35A",
"W. c #9C9E69",
"Q. c #AB8267",
"!. c #B8866D",
"~. c #BE8A71",
"^. c #B79271",
"/. c #99B067",
"(. c #A0A66E",
"). c #C49949",
"_. c #D1A44F",
"`. c #D9B752",
"'. c #E5BF52",
"]. c #C89578",
"[. c #E78275",
"{. c #D6AA6E",
"}. c #E8C465",
"|. c #F2CE67",
" X c #7B7585",
".X c #727193",
"XX c #4675AE",
"oX c #85778B",
"OX c #957CA8",
"+X c #7B8889",
"@X c #7A8894",
"#X c #908B99",
"$X c #AC8D96",
"%X c #AC9598",
"&X c #9FB68F",
"*X c #BCBA87",
"=X c #8B8CA7",
"-X c #989EA9",
";X c #AB91A5",
":X c #9EA3B2",
">X c #BEA2AE",
",X c #A8A9B8",
"<X c #DA9890",
"1X c #E08584",
"2X c #DBA583",
"3X c #CFAF93",
"4X c #D4A695",
"5X c #E6B596",
"6X c #D6ABB0",
"7X c #C2B3BF",
"8X c #E3BAA1",
"9X c #E7B0B1",
"0X c #D7CCAF",
"qX c #E4C7B8",
"wX c #F1C7B0",
"eX c #FCD4BC",
"rX c #9CA9C9",
"tX c #B1A9C7",
"yX c #B1AFCD",
"uX c #B9BBC6",
"iX c #C4BBD4",
"pX c #B3C0CB",
"aX c #EFD9D1",
"sX c #C7D1E5",
"dX c #E4D9E3",
/* pixels */
"y y y u y u y y y y u y y y y t f.S.N.k t f.b.S.S.b.S.S.b.S.S.S.S.S.b.N.l.7 < h ",
"y y y s y y u u u y u u y u k k l.b.N.k t j f.l.v.S.b.N.b.v.z.l.k.k.v.N.z.a 5 h ",
"y y y y y y y y y y y y y u l.N.b.N.N.B u r 6 w g.S.N.N.b.k.j t 7 6 x B.M.h r y ",
"y y y y y g s y u y y y y h c.S.b.b.b.k t 9 3 6 f.N.b.N.b.f.u r 5 4 z N.c.h t y ",
"y y u u j.k.k.k.k.k.k.B u h x.b.b.b.N.G J J J.J.H.H.D.b.b.k.u s 9 e g k.k.g y y ",
"y u y h c.N.b.b.b.b.b.k.u u c.S.D.H.I.:.:.2.Q.!.2.Q.T.D.S.k.t s y y y u y y y y ",
"y y y h c.b.N.N.N.S.b.l.j j n.L.T.W.~.+.{ O.O.O.O.@.,.K.n.G g g y y y y y y y y ",
"u y u u k B z.b.N.b.b.B.C.A.T.:.` [ @.#.w.r.r.r.r.r.+.! = A F g y y y y y y y y ",
"y y y y t y j.N.N.b.D.E.>._ ( 7.0.0.5.5.9.y.y.y.y.y.r.8.9...M d y y y y y y y y ",
"y y y y y y k m.v.H.T.,.7.#.8.e.u.i.8.*.8.y.y.y.y.y.y.y.i.+.; D h u y y y y y y ",
"y y y y y u u w V.T.p.$.r.y.y.y.y.y.7.*.9.y.y.y.y.y.r.y.y.@.) S B y y y y y y y ",
"y y y y u u p q :.6.{ e.y.y.y.y.y.y.7.4.9.y.y.y.y.y.y.y.y.e.+.: + d y y y y y y ",
"y y y y y g G  .{ #.r.t.y.y.y.y.y.w.@.{ @.r.y.y.y.y.y.y.t.q.{ = o t y y u y u u ",
"y y y y g d C ..0.t.u.y.t.y.y.r.y.s.9.5.q.u.y.y.y.y.y.y.7.4.' ! o p y y y u u u ",
"y y y y s d M ..u.y.t.y.e.y.r.$.d.9XiX9X9X9Xy.#.0.8.5.5.*.&.` ! o t y y y h y u ",
"s y y y s d M / e.$.$.$.$.$.w.[.6XuXuXuXuXiX<Xd.5.{ &.&.] &.{ = o 0 B y y y y s ",
"y y y y s s D ; &.a.1Xa.a.d.[.>X,X#X+X+X+X-X,X%Xp.4.] &.] 5.' = o p h y y y y y ",
"y s y y y t B d T #X;X;X;X7X7X:X@X:X,X,X,X-X@X-X6X3.~ &.&.) ) - 0 d s s y y y y ",
"k.B y y y y g.g.J.E E <.oXOXrX:X=XyXpXiXiXtX=X:XtX3.! %.=.> % V d g y y y y y y ",
"b.j.y s t t f.S.D.n.C , : R  X=XtX>X$X#X;X;X=X.X XE > U Y $ O D l y u u y y y y ",
"x.k.j u g g f.N.b.Z.K.S | , % =XiX4XX.Z Q.^.:.Y & * * P P % % D l y u y y y y y ",
"a k l.c.z.z.b.S.c.h.K <.^.2.T ,XdX5X>.T Q.].].:.* & P P * & v G h t u y y y y y ",
"< j N.S.S.N.N.S.z.w H ^.5X8X8XqXaXwX4X].].2X2XQ.P * v &   & H b t t y s y y y y ",
"e f.b.b.b.N.b.S.m.f G (.8X8XeXeXwXwX5X2X2X].2.=.L #   # H n l z h j h t y y s g ",
"m.v.N.N.N.N.N.S.N.c.m.P./.*X0XqX<X].!.!.Q.,.;.X.=.S N Y.Y.h.u j z.c.x y y y u j.",
"S.S.N.N.S.S.S.N.N.N.N.N.F.I.&X%XR , =.K A  .o.R.).).`.`.X.8 d k M.B.k.g y y t k.",
"g.g.h.k.l.c.v.b.b.N.N.b.G.L.W ) / = U.`.).X.M X._.}.}.R.+ v d g m.M.x r t k g.l.",
"7 7 5 w t u l.N.N.N.b.F.E.Q.-.~ <.,XaXaX3XM   A ).|.{.>   v v i m.M.g 4 e k.N.b.",
"1 1 1 4 r u j.b.N.M.b.P.W ) @._ I sXdXsX.X@ +  ._.|.}.>.X O 8 i m.M.f 3 e z.S.b.",
"e a f j j.k.f.h z z h n.A.;.5.} E uXdXsX X% + A ).}.'.U.X.J z g.M.N.l.z j v.S.M.",
"g g.M.M.M.M.k < 5 4 6 f F.K.Y X.2XqXaX8X1.$ . . A U.U.K P.B.M.B.S.b.b.b.M.b.N.S.",
"u k.b.M.S.S.g.3 6 2 4 i M.G c ;.5XeX8X3..XXXXXI # - C V.B.b.S.S.b.M.N.S.S.b.v.v.",
"y h j.l.b.N.z.x g 7 2 r B B D K  .<X4X;XrXrXOXL $ v n z f n.b.b.S.b.N.N.v.f.f f ",
"y y u u c.N.N.N.n.i 1 9 t u s l M ^ 3.-X,X$X%., D B p 1 2 x S.b.b.b.b.N.l.w < 1 ",
"y y y h c.b.x.b.k.r 4 9 y y s s l C T Q Q E C F l s e 4 1 x N.b.b.b.S.S.z.i 5 6 ",
"y u u u k k k k j t r t y y y g f z m d b n l h 9 5 5 5 4 k.N.b.S.S.b.b.M.v.h.f ",
"y t t t p t t r t t s s y y y y y y s t t y g t 5 < 1 < < x N.N.b.S.S.D.S.S.N.j ",
"y h k k k k k k h s y y y y y y y y g k x g a r i p i i i k.N.N.b.b.M.h.v.N.b.g.",
"g j.x.M.x.M.c.N.z.k s y y y y y y y u l.m.B 6 7 z n.m.m.m.M.N.b.S.v.g.3 w v.N.M.",
"u l.N.N.N.N.N.S.c.h y y y y y y g y u c.N.f.4 6 g.N.N.N.N.N.N.N.S.M.f 3 w l.S.M."
};
