/* XPM */
static char *result[] = {
/* columns rows colors chars-per-pixel */
"40 40 232 2 ",
"   c #04060E",
".  c #140400",
"X  c #00190B",
"o  c #2B1016",
"O  c #003E00",
"+  c #272113",
"@  c #3A2116",
"#  c #0C192B",
"$  c #3A1F29",
"%  c #00272B",
"&  c #1D3F3F",
"*  c #2E3B3D",
"=  c #540A0D",
"-  c #720512",
";  c #45311B",
":  c #6B2917",
">  c #6C3416",
",  c #5B0033",
"<  c #5B1D32",
"1  c #76003C",
"2  c #552024",
"3  c #45322F",
"4  c #6D3331",
"5  c #693B3E",
"6  c #054802",
"7  c #0B4C06",
"8  c #0B5406",
"9  c #135309",
"0  c #12540C",
"q  c #1A5409",
"w  c #155A0A",
"e  c #1B5A0B",
"r  c #1C5511",
"t  c #235709",
"y  c #3C5B07",
"u  c #2A5414",
"i  c #1C6705",
"p  c #1D7900",
"a  c #276A06",
"s  c #24650D",
"d  c #29660E",
"f  c #2E6B0D",
"g  c #31680A",
"h  c #316E0F",
"j  c #2B7407",
"k  c #327100",
"l  c #32700F",
"z  c #266612",
"x  c #286717",
"c  c #2C6B11",
"v  c #326E11",
"b  c #34681B",
"n  c #2B7013",
"m  c #337312",
"M  c #357A15",
"N  c #3A7C15",
"B  c #35721A",
"V  c #38791A",
"C  c #1D4435",
"Z  c #2E4E26",
"A  c #2D6A20",
"S  c #39742E",
"D  c #49530B",
"F  c #7B451E",
"G  c #4B7411",
"H  c #524E3C",
"J  c #75533B",
"K  c #447726",
"L  c #477836",
"P  c #517132",
"I  c #6A7537",
"U  c #767534",
"Y  c #071940",
"T  c #333645",
"R  c #703240",
"E  c #10464A",
"W  c #2B4141",
"Q  c #294747",
"!  c #384C4B",
"~  c #2F5150",
"^  c #3B5756",
"/  c #356F60",
"(  c #484342",
")  c #534546",
"_  c #485557",
"`  c #545053",
"'  c #794341",
"]  c #675347",
"[  c #6A5D58",
"{  c #557043",
"}  c #6C7252",
"|  c #697B51",
" . c #71476C",
".. c #506370",
"X. c #646C67",
"o. c #970606",
"O. c #AD080F",
"+. c #953219",
"@. c #BA2B1B",
"#. c #911520",
"$. c #962C30",
"%. c #853837",
"&. c #853D3E",
"*. c #893C3E",
"=. c #963A3A",
"-. c #AD2D2D",
";. c #B22A2D",
":. c #A93A3B",
">. c #B63538",
",. c #BC373B",
"<. c #BD393C",
"1. c #C91312",
"2. c #CF3607",
"3. c #D13803",
"4. c #C13A3C",
"5. c #BC471E",
"6. c #816718",
"7. c #8C4638",
"8. c #86533F",
"9. c #BF4930",
"0. c #8F6E2A",
"q. c #AF7331",
"w. c #C7433C",
"e. c #D75436",
"r. c #C2783F",
"t. c #8F3E71",
"y. c #8D514B",
"u. c #945C49",
"i. c #8A6447",
"p. c #986841",
"a. c #857548",
"s. c #8F704F",
"d. c #937456",
"f. c #B16743",
"g. c #A77A44",
"h. c #A06A58",
"j. c #A7765B",
"k. c #9E5068",
"l. c #95756A",
"z. c #987373",
"x. c #C64140",
"c. c #C94540",
"v. c #CE4A41",
"b. c #D04F43",
"n. c #D55144",
"m. c #DA5747",
"M. c #DC5847",
"N. c #DE5A48",
"B. c #E75D43",
"V. c #E25E49",
"C. c #DE6347",
"Z. c #EE6646",
"A. c #EA654C",
"S. c #EE694F",
"D. c #F16548",
"F. c #F06B4E",
"G. c #F16B50",
"H. c #3D8116",
"J. c #3E831A",
"K. c #3C8D1D",
"L. c #408217",
"P. c #428519",
"I. c #458B1C",
"U. c #498E1D",
"Y. c #4B931E",
"T. c #4D981A",
"R. c #58941D",
"E. c #529D1E",
"W. c #498724",
"Q. c #4C9321",
"!. c #4F9A21",
"~. c #509721",
"^. c #539D21",
"/. c #57992B",
"(. c #4C8433",
"). c #58883B",
"_. c #5F9239",
"`. c #6C8C33",
"'. c #55A023",
"]. c #58A129",
"[. c #5CA331",
"{. c #5A8745",
"}. c #658844",
"|. c #679A46",
" X c #688A56",
".X c #709351",
"XX c #729B5B",
"oX c #75876A",
"OX c #76966A",
"+X c #78A460",
"@X c #A7813D",
"#X c #B4873E",
"$X c #CC9A19",
"%X c #D1A832",
"&X c #97905A",
"*X c #A8824B",
"=X c #B68845",
"-X c #AF8B53",
";X c #918A73",
":X c #AB8568",
">X c #B79171",
",X c #C69944",
"<X c #C2924D",
"1X c #D7AA4A",
"2X c #C8A756",
"3X c #D5AF50",
"4X c #E0B74F",
"5X c #C69270",
"6X c #E6C55D",
"7X c #F2D15E",
"8X c #FBDD64",
"9X c #385697",
"0X c #37679E",
"qX c #7A758B",
"wX c #889890",
"eX c #AE9388",
"rX c #99A595",
"tX c #A2A69F",
"yX c #BABA92",
"uX c #8B87A4",
"iX c #9C97B6",
"pX c #B2ACAA",
"aX c #CCBF98",
"sX c #C4A9A7",
"dX c #D1BBBA",
"fX c #E0B9A3",
"gX c #C3C0BB",
"hX c #F2D2B6",
"jX c #BDBCD1",
"kX c #CFCCD8",
"lX c #FBDAD1",
"zX c #E6E1EE",
/* pixels */
"h h h h l h h l h h l h h h l h P.'.~.N h H.!.'.'.!.E.'.'.'.'.'.^.^.^.'.^.P.e 7 ",
"h h h h v l h l h h l h f m N H.U.'.E.H.h m J.J.Q.^.E.'.E.T.Y.U.I.P.I.Q.^.I.d q ",
"h h h h h h h h h h h h m M Y.~.T.E.T.M h s w w M !.'.!.^.Y.m l s 9 e I.^.I.m f ",
"h h h h m v l l h m l l h N ^.^.[.[./.V B A 0 8 M ~.'.E.'.T.m l z 9 e J.~.Q.B h ",
"h h m N P.L.P.P.P.P.L.m j H.T.`.:X&X:Xs.s.d.I M K.'.^.E.^.Y.m h d t d N I.N h h ",
"h h l U.^.^.E.E.E.^.Y.N g G 6.1.3.3.3.3.2.2.5.6.R.R.E.E.'.Y.l h h h v m l l h h ",
"l h m U.^.^.^.^.'.E.Q.I +.@.e.Z.D.Z.D.D.Z.Z.Z.e.O.+.R.Q.T.U.m h l v h g l v h h ",
"h h m N N P.^.^.E.].I f.C.A.A.S.D.A.A.A.A.A.A.A.B.e.0.{.S a h h h h h h l v h h ",
"h h h h h N ~.!.].}.f.A.S.S.m.v.v.v.v.v.v.v.v.V.G.D.9.' oX{ n a h h h h h h h h ",
"h h h h h M U./._.+.w.M.M.m.n.v.b.b.b.b.b.b.b.b.M.V.w.O.7.;XXXS h l h h h h h h ",
"h h h h v c x oX- -.4.w.c.v.N.A.A.A.A.A.A.A.A.m.w.w.4.>.$.$ rXXXg l l v h h v l ",
"h h h h m z u tX= >.,.e.N.N.S.S.G.A.G.A.G.G.S.A.V.V.b.4.;.. tX+Xv v h v h l h v ",
"h v h h h g b rX= :.<.w.V.S.S.S.G.S.F.S.G.G.S.G.D.V.4.4.;.$ oX).g l l l l l h l ",
"h h h h v g b K ] $.>.,.w.M.A.V.V.V.V.V.V.V.V.V.m.c.4.;.:.[ L B v l l l v l h h ",
"h h h h v v g b | + $.,.4.w.x.x.x.x.x.x.x.x.x.x.4.4.4.o.[ P B h v h l v l l l h ",
"h h h h v v v v {.X $.<.4.<.,.,.,.,.,.,.,.,.,.,.,.4.4.o...{.N l v l v v l l h h ",
"h h h h v v v B | J 7.>.<.4.<.<.,.<.<.<.<.<.<.<.4.4.>.=.l.wX;XW.l h h h l h h l ",
"v h h h h v B {.> 5Xu.=.:.>.<.4.4.,.4.4.4.<.<.<.>.:.*.h.5X` tX.Xh h l h l h h h ",
"N l v h g M W.|.= C.y.) 5 *.>.,.<.<.,.,.<.,.4.:.&.5 5 h.5X. rXXXh h h l h h h h ",
"P.m v v g N ~.^.).J 4 T Q ) ' *.&.&.&.&.*.*.*.5 ( E * : d.oX X(.h h h h h h l v ",
"P.M l m l H.E.E./.K + H X._ C Q & & C E & T Q Q ~ [ H % { .Xk a h l h h h h h h ",
"N I.U.Y.U.U.E.!.H.S Z } l.X.^ Q * W W Q W W ~ _ X.:XJ oXL i v v h h h l h h h h ",
"m ^.'.E.^.'.'.!.m 6 u | &Xj.] # % _ _ _ ! % % _ :Xj.eX Xg v v v h f h h h h h h ",
"V T.'.E.E.E.'.!.H.s d S } 2Xg.> 4 ! ! Q H : F *X<XJ rXi B h h h m N m m f h h v ",
"T.'.'.!.'.E.'.E.!.U.Q.{.&X3X1Xq.$.+ o X 2 :.r.4X3Xa.OXL m m h h J.Q.I.N c m h h ",
"^.'.^.^.'.^.'.E.'.'.x oXyX3X$Xq.1 , 4 < , *.q.%X1XgXwX X}.K v h I.^.^.N h h h v ",
"J.J.J.Q.U.Y.E.!.E._.0.sXzXpX&X@X2X2Xu.*X2X2Xg.l.sXzXpXU wXp a s J.!.Q.M s c N L.",
"w r e c h H.E.E.E.U.>XdXjXuXz.,X8X6Xp.-X6X7X-Xz.iXkXdX:X;XpXL 6 M !.Q.x 9 d U.^.",
"8 7 8 d f N ^.|./.aXpXqX_ ) q.4X6Xi.' R *X6X1Xs.) _ uXkXfXz.a.S V ^.Q.z 8 s Q.'.",
"c m B J.P.H.V (.K hXlXeX3 ; *X1X<XR q.y.u.,X1X0.$ = sXlXhX  { (.I.^.Q.J.B J.T.'.",
"J.~.!.~.'.I.w r q } ;Xs.$ 3 @X%Xq.J =Xg.p.=X,X0.; 2 l.>XeXtX.X/.!.E.E.^.~.^.'.^.",
"L.~.^.!.'.U.w 9 9 O 6 g & ! s.,X=Xy.=Xp.p.q.<Xi.* # H P _.+X[.'.E.'.^.E.'.^.T.Q.",
"M L.P.T.'.Q.H.V z r r m / 0XX.0.#XJ 8.J u.#XU ..9XY A A j j T.E.^.'.E.^.^.U.M n ",
"h g m Y.'.^.^.!.V 9 9 s H t.k.D ; + o o @ > %.k. .  c r 7 z T.'.E.E.E.E.^.J.e 7 ",
"h v m I.~.T.R.Q.M e e d y > > g q t q t 7 t : #.: t d r 7 z Q.'.E.'.'.E.E.K.z e ",
"h h h M N N N N h d d f c y D h h h g h h h D D y r e q 9 z Q.^.^.E.E.'.!.T.W.K.",
"g h g c f d d f f h h v m f v h h h h h f f m f q 6 6 6 6 e Q.^.E.^.E.'.'.'.'.'.",
"m N N N N N N N m v h h v v h h h h l M N m d d z z x x z B ^.^.E.'.!.W.K.Q.!.!.",
"L.~.~.~.~.~.~.~.P.m v h h h h h v h m I.~.P.e w v W.Q.Q.Q.Q.^.^.E.'.T.n w n Q.!.",
"P.~.^.^.^.~.'.E.I.l f h h h h h v g M Q.^.J.w 9 B ^.'.^.^.^.^.'.!.'.Q.z 8 z Q.!."
};
