/* XPM */
static char *result[] = {
/* columns rows colors chars-per-pixel */
"40 40 224 2 ",
"   c #010305",
".  c #040017",
"X  c #180012",
"o  c #271308",
"O  c #310916",
"+  c #342A11",
"@  c #133032",
"#  c #392525",
"$  c #2D3630",
"%  c #263E3E",
"&  c #4B0F05",
"*  c #4A1817",
"=  c #770709",
"-  c #4E3114",
";  c #500326",
":  c #65002D",
">  c #543032",
",  c #58393A",
"<  c #78283B",
"1  c #6A3D3D",
"2  c #743D3F",
"3  c #783E3F",
"4  c #034402",
"5  c #0C4D06",
"6  c #174A09",
"7  c #065104",
"8  c #135409",
"9  c #165708",
"0  c #1A5A0B",
"q  c #0E5F14",
"w  c #1C5112",
"e  c #2D4D0C",
"r  c #225A0B",
"t  c #265A13",
"y  c #0F6207",
"u  c #2B6C07",
"i  c #24640E",
"p  c #29650E",
"a  c #2E6B0D",
"s  c #336A0B",
"d  c #316E0F",
"f  c #2A7306",
"g  c #32710F",
"h  c #266612",
"j  c #276716",
"k  c #2C6C11",
"l  c #366517",
"z  c #326E11",
"x  c #2A7113",
"c  c #337312",
"v  c #357A15",
"b  c #3A7C15",
"n  c #3A741A",
"m  c #37781A",
"M  c #0D5B28",
"N  c #2F5627",
"B  c #394939",
"V  c #376A22",
"C  c #3B7128",
"Z  c #755200",
"A  c #795518",
"S  c #446D11",
"D  c #736A1B",
"F  c #594A2A",
"G  c #435638",
"H  c #535230",
"J  c #634939",
"K  c #76433F",
"L  c #447729",
"P  c #496735",
"I  c #516B33",
"U  c #707134",
"Y  c #042545",
"T  c #22384D",
"R  c #003C6F",
"E  c #543E40",
"W  c #663F41",
"Q  c #763E42",
"!  c #045454",
"~  c #274748",
"^  c #374A4A",
"/  c #284E50",
"(  c #375555",
")  c #484546",
"_  c #495644",
"`  c #4E4F52",
"'  c #445654",
"]  c #784242",
"[  c #6F504B",
"{  c #5A6B52",
"}  c #7D624B",
"|  c #6A695E",
" . c #677757",
".. c #494862",
"X. c #55666C",
"o. c #72736C",
"O. c #736B75",
"+. c #941212",
"@. c #AA0912",
"#. c #94282D",
"$. c #8A3D3F",
"%. c #983438",
"&. c #A62E2E",
"*. c #A4363A",
"=. c #A93A3C",
"-. c #B83234",
";. c #BC373B",
":. c #B23A3C",
">. c #BE393C",
",. c #CC3411",
"<. c #C23A3D",
"1. c #88590B",
"2. c #906A14",
"3. c #90493A",
"4. c #B7433E",
"5. c #A35A30",
"6. c #966C30",
"7. c #B06825",
"8. c #C6413F",
"9. c #C8433E",
"0. c #D74F32",
"q. c #C95233",
"w. c #E25936",
"e. c #834F44",
"r. c #865845",
"t. c #915F40",
"y. c #B44942",
"u. c #986745",
"i. c #8A6F54",
"p. c #956656",
"a. c #BB6A40",
"s. c #A67844",
"d. c #A46E53",
"f. c #A67D5F",
"g. c #8C7C6D",
"h. c #AC7E66",
"j. c #C94440",
"k. c #CF4B43",
"l. c #D14D43",
"z. c #D95646",
"x. c #DE5B48",
"c. c #E25C42",
"v. c #E25D49",
"b. c #E5614A",
"n. c #EA654B",
"m. c #EF6A4F",
"M. c #F26547",
"N. c #F06B4F",
"B. c #F06B50",
"V. c #D36E60",
"C. c #318200",
"Z. c #3D8116",
"A. c #3E821A",
"S. c #4F9609",
"D. c #408217",
"F. c #428519",
"G. c #458B1C",
"H. c #498E1D",
"J. c #4B931E",
"K. c #4C9A1D",
"L. c #52921C",
"P. c #529C1E",
"I. c #4FA01F",
"U. c #4F8B2C",
"Y. c #4C9321",
"T. c #4F9921",
"R. c #519721",
"E. c #539D21",
"W. c #589A25",
"Q. c #588937",
"!. c #628C32",
"~. c #55A023",
"^. c #59A225",
"/. c #65A339",
"(. c #5B8645",
"). c #63884B",
"_. c #688856",
"`. c #788E5C",
"'. c #75A75B",
"]. c #7A8B67",
"[. c #B58737",
"{. c #BB8E33",
"}. c #CA993A",
"|. c #CDA13D",
" X c #DDB633",
".X c #958C57",
"XX c #AB844D",
"oX c #B48744",
"OX c #8E8F75",
"+X c #AF8C6E",
"@X c #B88A66",
"#X c #87AA6B",
"$X c #C89A46",
"%X c #D6AF50",
"&X c #E3BE5B",
"*X c #CF9771",
"=X c #E6C55C",
"-X c #F6D662",
";X c #37698F",
":X c #336EA3",
">X c #556B99",
",X c #6A609D",
"<X c #897485",
"1X c #877FBB",
"2X c #7F89AF",
"3X c #4183C6",
"4X c #8B9C87",
"5X c #AE9B90",
"6X c #8CA587",
"7X c #ABA297",
"8X c #A79CA8",
"9X c #9FA2AB",
"0X c #AAADAE",
"qX c #C0B089",
"wX c #C7A895",
"eX c #D1B2A8",
"rX c #9CC582",
"tX c #DCC18F",
"yX c #DCC5BF",
"uX c #E8CAAE",
"iX c #BCC2C2",
"pX c #CECCD0",
"aX c #FFE0C8",
"sX c #E3DBE0",
/* pixels */
"d d d d c d d d d g d a c d d g F.~.P.b g Z.T.~.~.E.I.E.E.~.E.~.~.E.E.E.E.A.0 5 ",
"d d d d d d d g c g g d a c b Z.H.E.P.b a c Z.A.H.E.~.E.~.K.J.H.G.F.G.T.E.F.p 0 ",
"d d d d d d d d a k g g c v J.P.K.P.K.b c j q y v T.E.I.~.L.v g i 9 0 G.E.H.c a ",
"d d d d c z g g g g g g d b J.W.W.W.W.Q.)._.(.{ U.E.P.P.~.J.g d i 8 0 A.R.Y.m a ",
"d d d D.F.D.F.F.F.F.D.v f Z.D @.4.4.4.4.y.4.>.;.d.#X/.^.P.J.g s p r j b G.S z d ",
"d d c H.E.P.E.P.P.P.J.S S U a.w.c.c.c.c.c.c.c.w.v.V.h..X/.J.f g z s d g v c d d ",
"d d c H.E.P.E.E.^.~.L.1.,.q.n.N.N.N.N.N.B.m.m.m.n.0.,.0..XU.n f u c g a g d d d ",
"d d c b b F.E.I.L.U ,.w.M.n.x.x.c.x.x.x.v.v.x.v.v.M.M.n.@.i.{ Q.n u d d d g d d ",
"d d d d s b R.!.= q.w.n.n.x.k.j.9.j.9.9.j.<.j.j.k.v.n.b.9.+.J ].).n g d d d d d ",
"d d d d z n !.$.&.9.j.j.j.l.x.v.v.v.v.v.v.v.v.v.v.k.j.j.<.-.*.Q  .).d g d d d d ",
"d d d d z C | = >.;.j.z.x.x.n.m.m.B.B.m.B.N.B.B.n.x.z.z.8.<.-.* _ _.d d d d d d ",
"d d d d k V { = <.>.j.x.n.m.N.N.N.N.N.N.B.N.B.B.B.m.n.z.8.<.-.* G (.d g d d g d ",
"d d d d d l N 3.&.;.;.9.z.b.b.b.v.v.b.b.v.b.v.b.b.b.0.<.<.-.=.Q P n d d g g z s ",
"d d d d s s l 7XO #.;.>.8.9.9.9.j.j.j.j.j.j.j.j.j.j.j.;.<.+.W OX).z z d s g z g ",
"d d d d z c (.iXX #.8.>.;.>.;.;.;.;.;.;.;.;.;.;.;.;.;.<.;.+.E 4X`.c g z z z g g ",
"d d d d z L OX7Xr.3.:.;.<.;.>.>.>.>.>.>.>.>.>.>.>.>.<.<.*.3.[ _.Q.n g z g z g g ",
"d d d g k L O.2.*Xp.$.%.=.;.<.<.<.<.<.<.<.<.<.<.>.:.=.*.$.d.@XF e n d d d d d d ",
"c d d k c C | u.@Xr.W , J $.=.:.:.:.:.:.:.:.-.=.=.$.2 ) > p.XXF e d d d d d g d ",
"b z z z k n ).OX> * % / ^ E 2 3 2 2 2 2 3 3 2 K 1 ) ^ ! $ - G S d z g d g d d d ",
"F.g s d z b K.'._.. > i.| / / ~ T % % % % % ~ ~ ^ / | g.# 6 r z a d d d d d d d ",
"F.v g g g Z.T.S.'._.g.f.g.| ( % $ ^ ^ ^ ' T % T ( o.OX@XO l z d d d d d d d d d ",
"b H.H.J.G.J.~.E.C.(.].i.f.f.J . # ) ' ' ' ) # o F @X@X} N n l d d d d g a d d d ",
"x E.~.~.~.~.T.T.m 4 y 6Xg.Z 7.5.#.> $ @ @ > #.5.{.&XtX0XQ.f g c a s a d z d d d ",
"b K.~.P.~.T.~.T.A.m #X0X9X7X}.7.%.; X O ; : #.y.}. XuXsXsX0X.XU n b v c d d g z ",
"J.~.~.T.~.P.~.E.S.'.4XO.0XyXwXp.W d.XXXXr.r.XX$X|.{.5XiXsXyXwXJ e Y.H.b k c z z ",
"^.E.~.W.~.I.P.^.rX| Y ` +XeX8X<X6.=X-X=Xp.XX%X-X&Xs.> ` g..XXXI L T.T.b g g a z ",
"A.A.A.G.H.J.P.E.rXB X.0XpX8XO.} $X-X&Xu.] Q d.%X=X$XA   4   6 n U.T.Y.c i a b D.",
"0 0 0 k g Z.W./.`.wXeXpX0XX.# 1.$X%XoX< u.t.e.s.%X|.2.$ U.n w 5 v T.Y.x 8 p H.E.",
"5 8 8 p a b W.'.X wXaXuX}   o 1.$X}.s.3.[.oXu.u.$X$X2.B T.H.0 7 m E.Y.j 8 h J.~.",
"j x c b F.A.m (.o.wXuXqXH . T i.$X$Xs.e.s.s.6.u.}.{.2.G R.Y.m x G.E.T.m c Z.K.P.",
"D.R.E.T.E.H.8 7 { ].` _ _ ' ;X>XJ {.[.] ] ] K s.[.Z + B R.E.T.E.E.E.P.P.T.T.~.~.",
"D.R.T.E.~.H.q 8 7 N M C Q._.X.Y   - - O # - F ,X2X>XR   G.T.E.E.I.E.E.~.~.E.J.Y.",
"b A.F.J.E.J.A.b j 7 t n F.F.V 6 e 7 7 9 G ( ;X3X3X:XX.P k b T.E.E.E.P.~.I.Y.v x ",
"d a g J.^.E.E.R.b 9 8 p d s s s d d k g V ..,X1X>XY  .j 5 i Y.^.P.I.I.P.~.A.0 5 ",
"d d c H.L.K.R.Y.m 0 9 p z d z s d d d d { [ $.;.#.F L 8 5 h T.E.P.I.E.P.I.A.h 0 ",
"d d d b b b b b d p p d d k z z d d d d L U - & * P t 8 8 j Y.I.E.~.P.~.T.J.Y.G.",
"s a s a a p p a a d z z d d d d g d d a a n j 5 5 w 4 4 4 h Y.~.P.~.~.~.^.~.~.T.",
"c b n b b b b b v z d d d d d d g a g b b n j a h h j j j x T.E.E.E.T.Y.G.J.T.T.",
"D.Y.R.R.L.T.T.Y.D.c z d d d d s s g g H.R.L 0 9 x Y.Y.Y.Y.Y.E.E.E.E.J.x 8 x Y.~.",
"F.E.E.E.~.E.E.E.F.g a d d z z z g g c J.E.Z.9 8 m E.E.E.E.W.E.~.E.~.J.h 7 h Y.T."
};
