/* XPM */
static char *result[] = {
/* columns rows colors chars-per-pixel */
"40 40 220 2 ",
"   c black",
".  c #072508",
"X  c #063D01",
"o  c #282B0E",
"O  c #2F2F34",
"+  c #5B1300",
"@  c #492809",
"#  c #692E17",
"$  c #480F2A",
"%  c #533738",
"&  c #7B3634",
"*  c #024501",
"=  c #084000",
"-  c #024D05",
";  c #0C4C06",
":  c #154C09",
">  c #055502",
",  c #195606",
"<  c #135309",
"1  c #155D0B",
"2  c #1C5A0C",
"3  c #195616",
"4  c #215F0D",
"5  c #2B5B17",
"6  c #076503",
"7  c #1E610A",
"8  c #276C00",
"9  c #2E6D01",
"0  c #24630E",
"q  c #29660D",
"w  c #2E6B0E",
"e  c #306C07",
"r  c #316E0F",
"t  c #2C7308",
"y  c #337601",
"u  c #32700F",
"i  c #236212",
"p  c #2C6C12",
"a  c #296815",
"s  c #326E11",
"d  c #33681B",
"f  c #2F7313",
"g  c #337312",
"h  c #367915",
"j  c #3B7C15",
"k  c #3A721C",
"l  c #377919",
"z  c #3A7C1B",
"x  c #085B2C",
"c  c #255527",
"v  c #394136",
"b  c #387727",
"n  c #3A6A30",
"m  c #5F5E16",
"M  c #744E0E",
"N  c #79553A",
"B  c #486C26",
"V  c #467527",
"C  c #4E633A",
"Z  c #497335",
"A  c #547A37",
"S  c #706B34",
"D  c #283150",
"F  c #290066",
"G  c #003464",
"H  c #62285A",
"J  c #325048",
"K  c #364D6B",
"L  c #2B457C",
"P  c #1D6368",
"I  c #535551",
"U  c #7A4C43",
"Y  c #6B584C",
"T  c #744E52",
"R  c #4E794F",
"E  c #567747",
"W  c #706D51",
"Q  c #697A5A",
"!  c #4D5B6E",
"~  c #58667A",
"^  c #6A616C",
"/  c #6B7D60",
"(  c #810800",
")  c #8A130B",
"_  c #882D29",
"`  c #883735",
"'  c #9B373C",
"]  c #AE322C",
"[  c #B93639",
"{  c #C80000",
"}  c #CB191B",
"|  c #D42A01",
" . c #C6172F",
".. c #CA352C",
"X. c #925637",
"o. c #876934",
"O. c #A57238",
"+. c #EC4E05",
"@. c #D34B2D",
"#. c #CC4336",
"$. c #D95D3C",
"%. c #E7583C",
"&. c #F0613E",
"*. c #8F3F4D",
"=. c #993C41",
"-. c #A53340",
";. c #91454B",
":. c #875B53",
">. c #B54D44",
",. c #8A6F4F",
"<. c #97654E",
"1. c #976355",
"2. c #9A795C",
"3. c #AE6E4F",
"4. c #A87756",
"5. c #895766",
"6. c #A05767",
"7. c #8D756C",
"8. c #AC6E71",
"9. c #CB4C49",
"0. c #D24F43",
"q. c #D45145",
"w. c #DA5947",
"e. c #E55E47",
"r. c #CF6956",
"t. c #E6654D",
"y. c #EB674D",
"u. c #EA6948",
"i. c #EE694E",
"p. c #F06B4F",
"a. c #EB6A54",
"s. c #F16C51",
"d. c #D16D69",
"f. c #2C8700",
"g. c #358A04",
"h. c #3D9800",
"j. c #3D8116",
"k. c #3D8219",
"l. c #4D8700",
"z. c #479802",
"x. c #509D0A",
"c. c #418417",
"v. c #42861A",
"b. c #458A1B",
"n. c #498E1D",
"m. c #48961B",
"M. c #4C931E",
"N. c #529C1F",
"B. c #438621",
"V. c #498E21",
"C. c #4D9421",
"Z. c #539D21",
"A. c #55992A",
"S. c #598D33",
"D. c #5C9B36",
"F. c #668B2E",
"G. c #619A3C",
"H. c #55A022",
"J. c #59A226",
"K. c #588542",
"L. c #658748",
"P. c #6C984D",
"I. c #698654",
"U. c #64A644",
"Y. c #6CA359",
"T. c #72906D",
"R. c #7AA970",
"E. c #BD845E",
"W. c #889679",
"Q. c #969D77",
"!. c #AF926F",
"~. c #B48876",
"^. c #86BA78",
"/. c #A9A17D",
"(. c #C99358",
"). c #C98E6E",
"_. c #D39C76",
"`. c #EC867B",
"'. c #365B86",
"]. c #355C9D",
"[. c #2F6B8D",
"{. c #4A6E93",
"}. c #7A7886",
"|. c #526DA6",
" X c #AD6E8F",
".X c #7F899C",
"XX c #6F82BD",
"oX c #578DD4",
"OX c #5D90D6",
"+X c #6990D4",
"@X c #898C9A",
"#X c #AD9B90",
"$X c #B5BC91",
"%X c #9790A1",
"&X c #AD90AD",
"*X c #B1ACA7",
"=X c #B1AFBA",
"-X c #CB9586",
";X c #E8918A",
":X c #DAA787",
">X c #DCB199",
",X c #E2AE8D",
"<X c #E3B59A",
"1X c #D9AAAB",
"2X c #E7AEA6",
"3X c #A1C48F",
"4X c #CFCCAD",
"5X c #DCC8BB",
"6X c #EFC8B1",
"7X c #EBCAB8",
"8X c #F2CBB5",
"9X c #ACAAC3",
"0X c #B3B3C7",
"qX c #CCB9C6",
"wX c #DCCCC2",
"eX c #D4CDCF",
"rX c #ECD0CE",
"tX c #FFDBC1",
"yX c #E3D6D9",
"uX c #E0D7E3",
/* pixels */
"r r r r r r r u r r r r r r w u N.J.n.u g n.Z.H.H.Z.H.Z.H.H.H.N.Z.Z.Z.Z.v.2 ; g ",
"r r r r u u r u r r u r r h j c.M.H.n.u s z k.B.C.H.Z.Z.N.n.n.b.v.v.C.Z.n.a 2 g ",
"r r s r r r r r r r r r u c.C.A.Z.A.V.l f i 3 a C.H.N.H.N.j u w , 1 c.A.M.g w s ",
"r r r u g s u g u g u r g B.x.h.h.h.f.6 > - * > g.N.J.H.N.j w q < 2 z Z.n.g r r ",
"u r u c.b.v.v.b.v.b.c.g 8 t U.^.^.^.R.T.T.T.R.R.R.h.f.x.C.j r p 0 0 g v.j g r r ",
"r u g M.Z.N.N.N.Z.N.n.g b Y.4XrX5XwXwX5XwXeXwXwX4X3X3XU.z.z r r r r r u g r r r ",
"r r g n.M.N.Z.N.H.H.M.y L.$X2X} {  .} } } } { { ).wXrX$Xn.y s r s r r r r r r r ",
"r r r j j b.Z.Z.N.N.N.S.>.r.r.y.t.y.u.t.t.a.t.t.t.d. .-XW.w e s r r r r r r r r ",
"r r r s w j Z.Z.Z.N.A.O.$.e.y.p.s.i.i.s.p.p.p.s.y.y.%.w.~./ b 8 r s r r s r r s ",
"r r r r s h v.b.m.S O.$.y.i.y.y.y.i.y.y.i.y.y.y.y.y.s.u.$.3.W A g r r r r r r r ",
"r r r r s w , 2 m ] %.u.i.w.0.0.q.q.q.q.q.q.q.q.0.q.e.s.u.@.>.2.A h r r r r r r ",
"r r r s s q - X ( a.,X`.q.#.w.0.q.q.q.q.q.q.q.q.q.q...a.2X`...=.Q b 9 u r r r r ",
"r r r r r w 4 , ' 2XuX1X@.e.a.y.y.y.y.y.y.y.y.y.y.a.| d.rXrX6.& E V e u u u r r ",
"r r r r s s w e W =XuX2X&.e.s.i.i.i.p.i.i.i.i.i.i.a.+.;XyXeX&X/ k e u u u u r r ",
"r r s r s s e Z / ^ 0X2X&.%.i.i.i.i.i.i.i.i.i.i.i.t.+.`.qX.X}.T.V 9 u r u u g r ",
"r r r r s e e B % D %X X@...w.y.i.i.i.i.i.p.i.y.t.9.| d.&X~ % Y A s r u r u r r ",
"w r u r u u d B # 2.T *.[ [ -.0.t.y.y.y.e.i.y.e...-.] ' T 7.X.# Z g r r r r u r ",
"g r r r u u b V ;.(.N # ` ;.[ ..0.0.0.q.0.9.0.9.-.-.*.& + 4.3.S V s r r r r r r ",
"c.u w r w j m.A.,.,.X.T W T 5. X;._ =.' =.' ` 6.8.I Y ,.U ;.S k s g r r r r r r ",
"b.u u u r j.Z.J.F.. % 4.~.2.%X9X! @ 1.1.1.U o @X0X XE.).T o : w u r u r r r r r ",
"k.j.j j.j.k.N.Z.m.z C 2.(._.7XeX XW :X,X,X!.Y *XyX>X(.4.C d w s r r u r r r r r ",
"h C.Z.N.Z.N.H.m.f > K.W.4.E.>X7X8X6X8X6X8X8X8X8X2X_.X.S V 9 r p s w r r r r r r ",
"g Z.Z.H.Z.Z.H.C.t n T.@X&X7.4.-X6X7X8X<X<X8X8X<X_.o.@ 5 r r r r u u r r r r r w ",
"b.N.N.N.Z.Z.Z.C.S.W }.9X0X^ @ X.2._.:X_.,X:X~.:.7.W.R 6 g r r h v.v.j r r r g j ",
"H.H.H.H.H.N.Z.G.S 1.&X0X#X^ $ # ] 9.3.4.(.r.& M 2.4X/.y d d w z Z.A.k.u u w r c.",
"C.C.M.M.N.N.D.Q ) :X1X!.X.& >.e.s.3.N S <.<.U O.(.-X1X#Xc < q j C.Z.z w u g h v.",
"i a a h j c.A.P.S 3.4.,.,.@.u.u.3.F.b c x x v M ,.@X0XwXQ.z 3 g C.C.f 2 q k.C.N.",
"; - ; q w j N.H.U.* > I./.d.a.$.M = v v v O O K K   !.tX8X7.. p C.C.p > 7 M.H.N.",
"4 i a j j j.k.v.j.M.D.Y.! |.&Xd.T G J e n D O L {.J F.$X4XW - z Z.C.k.a f m.H.N.",
"j n.M.m.N.k.1 2 2 - A W.F ].+XXX|.+X{.P [.'.D D R n k.l.g.x.V.N.Z.Z.m.V.C.N.H.Z.",
"v.Z.H.H.H.b.> < : - n I.! |.oXoX+X|.K '.{.! I C R 3 t D.D.A.H.H.N.H.H.H.H.Z.C.Z.",
"j v.b.C.H.V.f p 2 < 7 j E ! |.oXOX'.o A A E E s > , p j.k.m.H.N.Z.N.N.Z.m.k.l l ",
"s g g M.Z.Z.Z.C.s : , s e   $  X XH X Z 9 8 8 s s w i : 1 V.H.N.N.N.Z.H.b.1 1 < ",
"r r g n.Z.Z.A.M.p < 2 q k Q 6.+ ( :.R e k s s r p w 2 : < V.Z.H.H.N.N.Z.V.1 > 3 ",
"u u u j j j j j r q q w h L.Q c c E K.9 s r r w i 2 2 < 7 B.H.N.N.Z.N.Z.C.B.k.f ",
"r w w w w e r e w r s s r 9 9 B k 9 9 w w r s q < = ; = < b.Z.Z.H.H.H.H.H.H.Z.f ",
"u h j k j j k j g s r r r r r r r r g j h s w a i i i 2 a V.Z.Z.H.N.C.V.C.C.Z.k.",
"j M.C.M.M.M.C.M.j r r r r r r r u u j M.n.p > i k.C.C.V.C.Z.Z.Z.H.m.l 1 a C.H.C.",
"b.Z.Z.N.N.Z.J.N.c.r r r r r r r s w j Z.C.p - 0 C.H.Z.Z.Z.Z.Z.Z.H.C.a - 7 b.H.Z.",
"j b.n.N.N.N.N.N.b.c.j g r r r g j j.b.Z.Z.k.p j C.H.Z.Z.Z.Z.Z.M.k.k.f f f k.k.b."
};
