/* XPM */
static char *result[] = {
/* columns rows colors chars-per-pixel */
"40 40 229 2 ",
"   c black",
".  c #060304",
"X  c #031907",
"o  c #280000",
"O  c #0E360E",
"+  c #2F2C14",
"@  c #001A2F",
"#  c #0D2925",
"$  c #00363D",
"%  c #2F3C2B",
"&  c #2B3735",
"*  c #333E3A",
"=  c #401E11",
"-  c #6B0000",
";  c #482815",
":  c #553117",
">  c #682F08",
",  c #6E1D21",
"<  c #54342F",
"1  c #6D3932",
"2  c #054A05",
"3  c #0C4C06",
"4  c #114D08",
"5  c #0C5107",
"6  c #135309",
"7  c #165909",
"8  c #1C5B0B",
"9  c #1C5416",
"0  c #215E0C",
"q  c #344917",
"w  c #1E620E",
"e  c #276B05",
"r  c #24630D",
"t  c #29650E",
"y  c #2E6C0E",
"u  c #316E0F",
"i  c #3A6D0F",
"p  c #307006",
"a  c #32700E",
"s  c #246311",
"d  c #276A11",
"f  c #2C6C12",
"g  c #2A6816",
"h  c #326E11",
"j  c #376C1C",
"k  c #2D7315",
"l  c #337312",
"z  c #357A15",
"x  c #3A7B15",
"c  c #367719",
"v  c #3B731C",
"b  c #3A7D19",
"n  c #095F29",
"m  c #36522E",
"M  c #3C6C2A",
"N  c #3A7624",
"B  c #545112",
"V  c #684E19",
"C  c #47562D",
"Z  c #70502D",
"A  c #457726",
"S  c #5C673C",
"D  c #4D7130",
"F  c #4E7E30",
"G  c #697433",
"H  c #002349",
"J  c #442147",
"K  c #364544",
"L  c #544B4D",
"P  c #72504B",
"I  c #547B4C",
"U  c #687747",
"Y  c #78774A",
"T  c #786658",
"R  c #4A6875",
"E  c #686D78",
"W  c #8E0D18",
"Q  c #8E2206",
"!  c #B3211B",
"~  c #8F3A3B",
"^  c #A83031",
"/  c #BB373C",
"(  c #B4393B",
")  c #CD0014",
"_  c #D8361E",
"`  c #C61F36",
"'  c #D52F2D",
"]  c #C2373C",
"[  c #874F0C",
"{  c #8B4938",
"}  c #964737",
"|  c #AB4336",
" . c #96702C",
".. c #8D673D",
"X. c #9A6A39",
"o. c #9E7B38",
"O. c #A57D39",
"+. c #C84E35",
"@. c #CE493B",
"#. c #D9533E",
"$. c #E2573A",
"%. c #92314B",
"&. c #BA3B41",
"*. c #8B5A4D",
"=. c #B75349",
"-. c #B2514D",
";. c #8F6D4D",
":. c #99685C",
">. c #A4714D",
",. c #BA6957",
"<. c #965762",
"1. c #8A6271",
"2. c #A37863",
"3. c #B37F6F",
"4. c #C84845",
"5. c #DD5C46",
"6. c #D4554A",
"7. c #DD5C4D",
"8. c #E35C44",
"9. c #E25F4E",
"0. c #D56250",
"q. c #E76047",
"w. c #EA6245",
"e. c #E7644E",
"r. c #EC654B",
"t. c #ED694E",
"y. c #EA6651",
"u. c #E76855",
"i. c #EB6A53",
"p. c #F06E56",
"a. c #ED7155",
"s. c #C6736F",
"d. c #DB7468",
"f. c #E37E6E",
"g. c #3E8115",
"h. c #3D8219",
"j. c #4F9D0B",
"k. c #408316",
"l. c #458A15",
"z. c #42861A",
"x. c #448A1B",
"c. c #498E1D",
"v. c #4B941E",
"b. c #4C941E",
"n. c #50971F",
"m. c #529C1F",
"M. c #418624",
"N. c #498E21",
"B. c #528D2A",
"V. c #4D9521",
"C. c #4A9425",
"Z. c #539D21",
"A. c #529528",
"S. c #478332",
"D. c #578A33",
"F. c #599C38",
"G. c #648D36",
"H. c #55A023",
"J. c #58A228",
"K. c #5CA43A",
"L. c #4D8244",
"P. c #5D8743",
"I. c #7C9D49",
"U. c #788B50",
"Y. c #70A950",
"T. c #708665",
"R. c #858437",
"E. c #B0923D",
"W. c #878E5D",
"Q. c #B3954C",
"!. c #81A153",
"~. c #8B8C6F",
"^. c #B78C6F",
"/. c #98AC74",
"(. c #ACA176",
"). c #C79A53",
"_. c #CCA54A",
"`. c #DCB257",
"'. c #E0B859",
"]. c #C18D70",
"[. c #D39D7B",
"{. c #E0826E",
"}. c #EB8274",
"|. c #E2BC62",
" X c #EECC66",
".X c #1E5F91",
"XX c #717084",
"oX c #9E7E95",
"OX c #8573A9",
"+X c #72898B",
"@X c #8F8893",
"#X c #AD8780",
"$X c #B1969E",
"%X c #8E8FA9",
"&X c #8896A2",
"*X c #9899AA",
"=X c #9796B3",
"-X c #AE8EAA",
";X c #AD9AAF",
":X c #9AA6B0",
">X c #A5A7B4",
",X c #AFA7B5",
"<X c #AFB1BF",
"1X c #B8B6BD",
"2X c #C89E8F",
"3X c #E99993",
"4X c #DCA684",
"5X c #DCA892",
"6X c #D0B296",
"7X c #C097A3",
"8X c #CFAEB1",
"9X c #E7BCA3",
"0X c #E8B1B6",
"qX c #F0CB92",
"wX c #C0C0A1",
"eX c #E8C2AA",
"rX c #EFC7B1",
"tX c #F6D3BA",
"yX c #8598C1",
"uX c #96A6D6",
"iX c #ABAEC5",
"pX c #B1B5C5",
"aX c #BBB6D1",
"sX c #CFBAC6",
"dX c #AEC1D0",
"fX c #CBCFD7",
"gX c #EFD3C8",
"hX c #DFDDEF",
"jX c #EFEEF5",
/* pixels */
"u u u u u u a u u u a u u u y a v.H.c.l a c.Z.H.Z.Z.H.H.m.Z.H.H.Z.Z.H.Z.x.8 2 c ",
"u u u u u u u a u u l y u z g.z.m.H.c.l u x h.c.m.H.m.Z.m.v.c.x.h.x.V.Z.x.g 8 l ",
"u u u u u u u u u u u u l h.m.V.m.Z.x.l u r 5 d v.H.Z.H.m.g.a t 6 7 z.Z.v.l y h ",
"u u u l l h a l a l u a y z.H.H.H.H.C.l e 7 5 d c.Z.Z.Z.m.x y t 6 8 b V.c.z u u ",
"a u u k.x.z.z.l.l.c.x a v D.I.I.I.!.U.F D c a g.n.H.Z.Z.v.x y y r r z z.x l u u ",
"u u l b.Z.Z.Z.m.m.m.V.F Y -.=.,.,.,.=.-.~.T.Y.Y.H.j.m.H.Z.x y u h y u u l u u u ",
"u u l c.V.m.Z.Z.J.K.A G >.5.8.8.9.8.$.8.d.s.^.(./.Y.J.v.c.c u u u u u u u u u u ",
"u u u x x x.Z.V.D.;.! ^ +.e.p.y.i.p.e.6.#._ ' d.(.Q.W.L.r u h u u u u u u u u u ",
"u u u u y x m.C.B ! w.t.y.i.p.i.i.p.7.4.4.e.i.8.' ) 0.;.D k u h a u u u u u u h ",
"i u u u u x z.D Z | i.a.i.y.i.y.u.p.7.4.6.u.a.i.e.e.$.@.:.U A a i u u u u u u h ",
"u u u u u t 4 = ( 5.i.i.i.i.i.i.i.p.9.4.6.i.i.i.u.p.i.e.#.>.U.F a u u u u u u u ",
"u h u u u r O = ( 7.i.i.i.i.y.i.i.t.#.] @.8.t.i.i.u.i.u.q.5.,.;.F l u u u u u u ",
"u u u u u t 4 ; ( 4.6.e.i.i.i.i.i.p.$.` ' w.a.i.y.y.y.i.i.r.#.=.G v i h l a a u ",
"u u u h h h 0 ; ( &.4.4.6.7.u.r.y.3X0X0X0X0X}.w.y.p.p.t.i.i.a.| : v h u u i u u ",
"u u u u u h 0 : ( / / &.&.] ] 9.3X8XpXpXpX1X5X}.r.r.r.r.r.t.t.} + v l u u u h a ",
"u u u u u h 0 ; ( =.&./ / / ] s.,X*X+X+X+X&X>X7X{.u.f.d.f.d.=.> q h u a u u u u ",
"u u u u u u t q 1 ( ( ( ! -.$X>X&X=X<XpXpX>X%X*X8X8X-X-X-XoXP B j u u a u u u a ",
"l u u u u z b N C < 1 *.W <.;XiX&X>XaXaXaXiX*X=XiX=X1.1.XXE I M l a u u u a u u ",
"k.h u u y x A.D.C . * J < L E XXXX$X$X@X@X7X,X=XXXP , > Z F N f y u u u u a u u ",
"z.l a a u x Z.A.C X * K K K & # T ^.^.Z ..2XsX%X@ : ~ P U A u u u u l u u u u u ",
"g.h.b g.g.x.m.Z.m % % % * * H T [.4X^.;.2.6XgX1XL 2.[.2.U N l h u u a u u u u u ",
"l Z.Z.m.m.m.H.v.c 9 O # # & $ T [.4X[.[.5XrXgXgXrXeXeX2XU.j a h y u u u u u u u ",
"z V.Z.m.H.m.H.V.f 7 M C o + < P :.].[.[.4X9X9XgXtXeX6X/.D.a h h a a u u u u y h ",
"x.Z.Z.m.m.m.H.Z.x.b D.Q.E.X.X.X.O.*.*.:.2.:.3.6XwX/.U.F p h y x z.z.x f u u u x ",
"H.H.H.Z.H.Z.m.m.J.D.B Q.|.`._.).E.V V  .[ - - <.T.S.p e k a a g.Z.V.h.a a u y l.",
"v.v.b.V.n.m.H.m.J.B.X < ^. X`. .+ Z `.qX6X<.-.^ *.W.P.h.z a t g.Z.V.x f u l z z.",
"s s d z x z.m.m.H.B.X < ). X`.X.+ . ~.fXjXdXE W #.-.U.P.l.d 5 l C.V.k 7 t h.v.m.",
"5 3 5 t y k.Z.Z.H.V.C E.'. X`.o.: . R aXhXdXR Q #.| P.K.v.s 2 k Z.V.f 5 r c.H.H.",
"0 d d z x x z.z.h.M.D.R.Q._.o.B o . T 8XgX8X^...{ Y F.m.V.l w b H.Z.z d k v.H.m.",
"x N.v.v.m.z.7 8 8 8 k S.G.V   H .X.XXX#X9XtXqX^.# n M.Z.Z.v.N.V.m.H.V.C.v.m.H.H.",
"z.Z.H.Z.H.x.5 5 4 3 s V.B.m X J OXuXyX@X7X5Xs.Y m 5 z V.Z.H.H.H.H.m.H.m.H.m.Z.V.",
"x z.c.V.Z.c.k k 8 4 s x x.l 0 < %.oX:X:X3.~ > M g w d z h.v.Z.Z.m.m.m.Z.v.h.z z ",
"h h z b.Z.Z.Z.B.f 4 8 y l u h A B B T.T.S B A j y h 0 4 7 N.H.Z.H.m.Z.Z.h.w 5 7 ",
"u y a c.Z.m.Z.V.h 6 8 t u u y h j N i i j j l u u t 0 4 6 N.Z.Z.Z.Z.m.Z.c.d 7 6 ",
"u u l x x k.x x a t t y h u y h u i h h k u h t 0 8 8 6 8 N.H.m.m.H.m.Z.v.h.h.k ",
"u y y u e y u u y h u h u u u u u u h u d h h t 4 2 4 2 5 x.H.m.H.m.H.H.H.H.C.z ",
"a l v x x i x c l h u u h u u u y u z c x f t d 0 s r 0 g c.H.m.m.m.C.c.v.C.Z.h.",
"b n.V.n.n.n.V.c.x h u u u u u u a y x b.c.f 6 d M.N.C.N.N.Z.H.m.m.m.k w k v.H.C.",
"l.Z.Z.Z.Z.Z.H.Z.k.u u u u u u h y a g.Z.V.f 2 w V.J.m.H.Z.Z.Z.m.H.C.k 2 w c.H.H.",
"x z.b.n.m.m.Z.m.c.k.x h u u u u b g.x.Z.m.h.f x b.Z.m.Z.Z.Z.Z.C.h.h.k k k z h.h."
};
