/* XPM */
static char *_43d4403492941b2b7688021f54004f44bOgMnM9U5YLxWzY[] = {
/* columns rows colors chars-per-pixel */
"40 40 177 2 ",
"   c black",
".  c #001300",
"X  c #1D1E00",
"o  c #250000",
"O  c #3C2502",
"+  c #202E17",
"@  c #323219",
"#  c #003A2D",
"$  c #143727",
"%  c #003E31",
"&  c #1C3F32",
"*  c #213626",
"=  c #243625",
"-  c #293A2C",
";  c #353727",
":  c #3D3C2F",
">  c #293D31",
",  c #3B3F32",
"<  c #512000",
"1  c #542F1C",
"2  c #702C1B",
"3  c #4A3A2B",
"4  c #7C2D22",
"5  c #693527",
"6  c #793426",
"7  c #773930",
"8  c #004134",
"9  c #00443A",
"0  c #1B4439",
"q  c #25473E",
"w  c #284339",
"e  c #344134",
"r  c #34453B",
"t  c #494135",
"y  c #474639",
"u  c #554A3D",
"i  c #174F47",
"p  c #005047",
"a  c #00524B",
"s  c #005D57",
"d  c #0E5A55",
"f  c #254B43",
"g  c #354F47",
"h  c #275A55",
"j  c #305751",
"k  c #315D57",
"l  c #385D59",
"z  c #00625D",
"x  c #2A625E",
"c  c #37625E",
"v  c #146F6C",
"b  c #06716E",
"n  c #007270",
"m  c #017B79",
"M  c #0C7D7C",
"N  c #177674",
"B  c #127877",
"V  c #137E7D",
"C  c #4D4D42",
"Z  c #584B41",
"A  c #575448",
"S  c #415650",
"D  c #415A55",
"F  c #5D5E55",
"G  c #4F665D",
"H  c #69635C",
"J  c #666661",
"K  c #6B6761",
"L  c #6B6964",
"P  c #6E6E6B",
"I  c #71716C",
"U  c #787774",
"Y  c #777976",
"T  c #7E7E7B",
"R  c #8B0700",
"E  c #821600",
"W  c #8C1500",
"Q  c #801A00",
"!  c #9E1F0A",
"~  c #9F1F10",
"^  c #BD0B00",
"/  c #A71B09",
"(  c #BC170C",
")  c #A21F10",
"_  c #B51D12",
"`  c #9D2009",
"'  c #9C261B",
"]  c #A62610",
"[  c #8A2B20",
"{  c #8B3524",
"}  c #9E3C35",
"|  c #B83125",
" . c #A93932",
".. c #CA0000",
"X. c #C60A00",
"o. c #D30000",
"O. c #C9160F",
"+. c #CB1610",
"@. c #C51A12",
"#. c #CC1B14",
"$. c #D41712",
"%. c #D51C16",
"&. c #DB1B15",
"*. c #D31E19",
"=. c #DE1D18",
"-. c #E50E08",
";. c #F20001",
":. c #FC0303",
">. c #F50E0E",
",. c #E5120F",
"<. c #E31A15",
"1. c #E41D18",
"2. c #EF1C19",
"3. c #F61412",
"4. c #FD1311",
"5. c #FB1913",
"6. c #F51E1B",
"7. c #F91E1C",
"8. c #E82819",
"9. c #F6281E",
"0. c #C92721",
"q. c #D02C25",
"w. c #CF3D2E",
"e. c #C43731",
"r. c #F0372C",
"t. c #B9443B",
"y. c #E14C3D",
"u. c #F84136",
"i. c #8E4940",
"p. c #9D4D46",
"a. c #8F554E",
"s. c #A1605F",
"d. c #A37270",
"f. c #F5594D",
"g. c #C96A6A",
"h. c #F56B62",
"j. c #F7756B",
"k. c #11807F",
"l. c #82827E",
"z. c #F58177",
"x. c #058685",
"c. c #0C8382",
"v. c #108180",
"b. c #648580",
"n. c #788682",
"m. c #848582",
"M. c #8B8B87",
"N. c #8D8D8A",
"B. c #91908D",
"V. c #979695",
"C. c #999897",
"Z. c #9D9D9D",
"A. c #A0A09F",
"S. c #98A8A4",
"D. c #A1A1A1",
"F. c #A8A8A8",
"G. c #ACACAC",
"H. c #B4B4B3",
"J. c #B8B8B7",
"K. c #BDBDBD",
"L. c #FB8F86",
"P. c #F69A92",
"I. c #F6A49D",
"U. c #F6A8A1",
"Y. c #F7BAB5",
"T. c #B8C4C4",
"R. c #C4C4C4",
"E. c #CBCBCB",
"W. c #CFCFD0",
"Q. c #C9D2D1",
"!. c #D9D9D9",
"~. c #F7D4D0",
"^. c #E2E2E2",
"/. c #E9EAEA",
"(. c #F7E5E3",
"). c #F3F3F3",
"_. c #FCFDFD",
/* pixels */
"k.k.k.k.k.k.k.k.v.V v.v.V v.k.k.k.k.k.k.v.v.V v.v.V k.k.k.k.k.k.k.k.k.k.k.k.k.k.",
"k.k.k.k.k.k.k.k.v.v.v.v.v.v.v.v.k.k.k.k.V v.v.v.v.v.k.k.k.k.k.k.k.k.k.k.k.k.k.k.",
"k.k.k.k.k.k.k.k.V v.v.v.v.v.v.v.v.c.v.c.c.c.c.v.v.v.v.k.k.k.k.k.k.k.k.k.k.k.k.k.",
"k.k.k.k.k.k.k.k.v.v.V V V v.v.v.V b n n n n n M v.v.v.v.k.k.k.k.k.k.k.k.k.k.k.k.",
"k.k.k.k.k.k.k.k.V v.v.v.v.v.v.x.l < 1 1 1 1 < l x.k.v.v.k.v.v.v.k.k.k.k.k.k.k.k.",
"k.k.k.k.k.k.k.k.v.v.V v.c.c.i % 2 ( *.#.#.*.( 4 8 f c.c.v.V k.k.k.k.k.k.k.k.k.k.",
"k.k.k.k.k.k.k.k.v.v.v.m a a ] w.y.r.;.6.8.2.2.*./ [ a a M v.k.k.k.k.k.k.k.k.k.k.",
"k.k.k.k.k.k.k.k.v.c.m S W ! 8.j.L.j.9.7.6.7.6.6.<.%.` W S m v.k.k.k.k.k.k.k.k.k.",
"k.k.k.k.k.k.k.k.v.m D R O.,.h.Y.~.Y.h.>.6.6.6.7.7.7.<.+.R D m c.k.k.k.k.k.k.k.k.",
"k.k.k.k.k.k.k.k.x.s E +.&.3.P.(._.(.P.;.6.6.6.6.6.7.6.=.O.E s c.k.k.k.k.k.k.k.k.",
"k.k.k.k.k.k.k.k.x.z W 1.6.6.f.U.Y.I.f.3.6.6.7.6.6.6.6.=.X.Q z x.v.k.k.k.k.k.k.k.",
"k.k.k.k.k.k.k.c.z 7 O.9.7.7.9.h.z.h.5.:.:.:.5.7.6.=.<...p.Z > x v.k.k.k.k.k.k.k.",
"k.k.k.k.k.k.k.x.p W &.7.7.6.>.r.u.8.%.g.| t.q.-.&.X.#.p.F * o g x.v.k.k.k.k.k.k.",
"k.k.k.k.k.k.V B u ) &.7.6.6.6.3.;.+.d.T.S.b.a._ 0.} ' F e L K w N k.k.k.k.k.k.k.",
"k.k.k.k.k.k.V & / +.1.6.6.6.6.6.o.d.T._._.T.n.i. .G * = F H.F.  , V k.k.k.k.k.k.",
"k.k.k.k.k.k.k.0 ! #.&.1.7.6.6.o.s.T.).E.E.).R.L O ; X u H.K.l.  r V k.k.k.k.k.k.",
"k.k.k.k.V v.V 0 ] +.%.%.1.7.4.] J./.!./.).R.^.H.  , H.J.H.F.C.T - v.v.v.v.V k.k.",
"k.k.k.k.v.v.v.0 ~ +.=.%.%.1.;.{ Q.).W._./.A.!.H.: F.W.K.D.Z.F.V.* V V v.v.v.k.k.",
"k.k.k.k.v.v.v.0 ~ @.*.%.$.$.e.6 J.^.E.^.K.G.K.N.I E.K.Z.A.D.Z.m.- V k.k.k.k.k.k.",
"k.k.k.k.k.k.V 0 ) ( @.%.0._ H - P G.R.Z.A.R.G.T T D.Z.D.A.D.N.C e V k.k.k.k.k.k.",
"k.k.k.k.v.v.V & / ( ^  .H 3 3 = C l.H.E.E.H.J P D.D.D.D.A.D.N.A ; V v.v.k.k.k.k.",
"k.k.k.k.v.V v.N Z 2 6 5 e =   @ U M.L I P P l.V.D.Z.D.Z.A.F.m.g N k.v.v.k.k.k.k.",
"k.k.k.k.v.v.v.c.i + $ * t y N.D.H.H.V.P P T C.F.D.D.D.D.D.F.l.# x.k.k.k.k.k.k.k.",
"k.k.k.k.v.v.v.c.x , ; F B.M.E.E.R.R.K.D.F.D.D.D.D.D.D.D.D.C.I d c.k.k.k.k.k.k.k.",
"k.k.k.k.k.k.k.k.x.h 3 M.W.E.E.F.C.Z.Z.Z.Z.D.Z.D.Z.D.D.D.D.L a c.k.k.k.k.k.k.k.k.",
"k.k.k.k.k.k.k.k.c.h 3 n.F.D.D.D.D.D.D.D.D.D.A.D.Z.D.D.D.T t h x.k.k.k.k.k.k.k.k.",
"k.k.k.k.k.k.k.k.v.V l Z l.D.D.D.D.D.D.D.D.D.D.D.D.D.F.l.Z k V v.k.k.k.k.k.k.k.k.",
"k.k.k.k.k.k.k.k.v.c.B j Z U D.D.D.Z.Z.D.D.Z.A.D.D.D.U Z j B c.V k.k.k.k.k.k.k.k.",
"k.k.k.k.k.k.k.k.k.k.c.B f % m.N.C.D.D.D.A.D.D.C.N.m.9 f B c.v.v.k.k.k.k.k.k.k.k.",
"k.k.k.k.k.k.k.k.k.k.v.v.c.v.f . Y D.Z.Z.Z.Z.A.Y . q v.c.v.v.k.v.k.k.k.k.k.k.k.k.",
"k.k.k.k.k.k.k.k.v.k.v.V v.v.V c.c 3 3 y y t 3 c c.B k.k.k.k.k.k.k.k.k.k.k.k.k.k.",
"k.k.k.k.k.k.k.k.v.V v.v.v.v.c.c.B v v v v v v B v.v.k.k.k.k.k.k.k.k.k.k.k.k.k.k.",
"k.k.k.k.k.k.k.k.k.k.k.k.k.k.k.k.v.c.c.c.c.c.c.c.V k.k.k.k.k.k.k.k.k.k.k.k.k.k.k.",
"k.k.k.k.k.k.k.k.k.k.k.k.k.k.k.k.k.k.v.k.k.k.k.k.v.k.k.k.k.k.k.k.k.k.k.k.k.k.k.k.",
"k.k.k.k.k.k.k.k.k.k.k.k.k.k.k.k.k.k.k.k.k.k.k.k.k.k.k.k.k.k.k.k.k.k.k.k.k.k.k.k.",
"k.k.k.k.k.k.k.k.k.k.k.k.k.k.k.k.k.k.k.k.k.k.k.k.k.k.k.k.k.k.k.k.k.k.k.k.k.k.k.k.",
"k.k.k.k.k.k.k.k.k.k.k.k.k.k.k.k.k.k.k.k.k.k.k.k.k.k.k.k.k.k.k.k.k.k.k.k.k.k.k.k.",
"k.k.k.k.k.k.k.k.k.k.k.k.k.k.k.k.k.k.k.k.k.k.k.k.k.k.k.k.k.k.k.k.k.k.k.k.k.k.k.k.",
"k.k.k.k.k.k.k.k.k.k.k.k.k.k.k.k.k.k.k.k.k.k.k.k.k.k.k.k.k.k.k.k.k.k.k.k.k.k.k.k.",
"k.k.k.k.k.k.k.k.k.k.k.k.k.k.k.k.k.k.k.k.k.k.k.k.k.k.k.k.k.k.k.k.k.k.k.k.k.k.k.k."
};
