/* XPM */
static char *result[] = {
/* columns rows colors chars-per-pixel */
"38 39 196 2 ",
"   c #141413",
".  c #032B11",
"X  c #08391A",
"o  c #30300C",
"O  c #252511",
"+  c #2D2D14",
"@  c #382E14",
"#  c #30301E",
"$  c #2F2F22",
"%  c #353525",
"&  c #373B26",
"*  c #373728",
"=  c #383829",
"-  c #3E3E31",
";  c #562B10",
":  c #6B2611",
">  c #7A2D1A",
",  c #753B18",
"<  c #064704",
"1  c #104E07",
"2  c #104C08",
"3  c #145309",
"4  c #19560A",
"5  c #14590B",
"6  c #1B5B0B",
"7  c #1A5816",
"8  c #215E0C",
"9  c #2E541B",
"0  c #355A16",
"q  c #35571B",
"w  c #1C620D",
"e  c #24640E",
"r  c #29660E",
"t  c #2D6B0E",
"y  c #316E0F",
"u  c #32700F",
"i  c #266513",
"p  c #266D12",
"a  c #2C6B14",
"s  c #2D6C19",
"d  c #346314",
"f  c #396714",
"g  c #316E11",
"h  c #396C16",
"j  c #34691C",
"k  c #2D7213",
"l  c #347312",
"z  c #367915",
"x  c #3B7C15",
"c  c #317519",
"v  c #38761E",
"b  c #3B7E19",
"n  c #1B5637",
"m  c #3B4328",
"M  c #2E5022",
"N  c #3A5D2B",
"B  c #2F4E3F",
"V  c #384836",
"C  c #325C35",
"Z  c #315839",
"A  c #1E6F3D",
"S  c #2C6A29",
"D  c #3B6523",
"F  c #346928",
"G  c #29702D",
"H  c #3B7323",
"J  c #2A6737",
"K  c #396837",
"L  c #31663C",
"P  c #2E7E34",
"I  c #49500A",
"U  c #564815",
"Y  c #465915",
"T  c #61561F",
"R  c #41402D",
"E  c #544B24",
"W  c #475B2A",
"Q  c #535321",
"!  c #424235",
"~  c #454639",
"^  c #49473B",
"/  c #484A3D",
"(  c #544C39",
")  c #4A5739",
"_  c #635D29",
"`  c #654C35",
"'  c #754733",
"]  c #517422",
"[  c #457B35",
"{  c #075D4C",
"}  c #2D5A52",
"|  c #26754E",
" . c #107773",
".. c #4F4E42",
"X. c #534C40",
"o. c #4C5849",
"O. c #515146",
"+. c #545449",
"@. c #535B4D",
"#. c #5A5948",
"$. c #59594E",
"%. c #5D5C53",
"&. c #704F45",
"*. c #71564E",
"=. c #635D54",
"-. c #6C5C53",
";. c #586349",
":. c #59634C",
">. c #486753",
",. c #5D655D",
"<. c #576B59",
"1. c #64655C",
"2. c #6A655D",
"3. c #6E695E",
"4. c #72645C",
"5. c #6D6B64",
"6. c #6D766D",
"7. c #76726C",
"8. c #777772",
"9. c #7A7A75",
"0. c #7E7B78",
"q. c #871D0B",
"w. c #9B1408",
"e. c #B61C10",
"r. c #99240D",
"t. c #892C1D",
"y. c #982615",
"u. c #AC2716",
"i. c #B2261E",
"p. c #903726",
"a. c #AA342C",
"s. c #A33D35",
"d. c #D90D09",
"f. c #D4140C",
"g. c #C91912",
"h. c #D41B14",
"j. c #D5211C",
"k. c #CB2C27",
"l. c #C1322C",
"z. c #89473D",
"x. c #98463E",
"c. c #8D534B",
"v. c #915048",
"b. c #827C75",
"n. c #817C79",
"m. c #DB4B4A",
"M. c #3E8116",
"N. c #3D821A",
"B. c #3D923D",
"V. c #408317",
"C. c #41851A",
"Z. c #458B1C",
"A. c #498E1D",
"S. c #4C931E",
"D. c #4E981F",
"F. c #519B1F",
"G. c #468B27",
"H. c #558F22",
"J. c #4D9422",
"K. c #4F9922",
"L. c #4A962E",
"P. c #4E9829",
"I. c #509621",
"U. c #539D21",
"Y. c #56A023",
"T. c #59A225",
"R. c #7A8075",
"E. c #82847C",
"W. c #7C8582",
"Q. c #858581",
"!. c #898984",
"~. c #8B8985",
"^. c #8C9485",
"/. c #90908D",
"(. c #969694",
"). c #989897",
"_. c #9E9D9D",
"`. c #AE9E98",
"'. c #A0A09F",
"]. c #A1A1A1",
"[. c #A7A7A8",
"{. c #ACADAC",
"}. c #B1B1AF",
"|. c #B3B4B2",
" X c #B8B8B6",
".X c #BDBDBD",
"XX c #CC8281",
"oX c #E29F9C",
"OX c #C4C4C3",
"+X c #CCCCCC",
"@X c #D4D4D4",
"#X c #DCDCDC",
"$X c #E7DEDD",
"%X c #E7E7E7",
"&X c #F6EBEA",
"*X c #F5F4F5",
/* pixels */
"y y y y y y y y y u y y l x b A.Y.F.x y x V.Z.J.U.F.Y.F.D.S.S.Z.C.Z.D.U.Z.r ",
"y y y t y y y y y g g y z S.L.G { { X . . X 7 v U.Y.U.U.D.z u r 5 e Z.I.A.l ",
"y y y l g y u u y y y y c ] ' r.w.y.`.{.|.^.>.n J.U.U.U.S.u u e 1 6 b F.A.l ",
"y l x V.V.V.V.V.V.b c D ' r.e.d.m.oX$X*X*X+X~.1.;.[ U.U.S.u y r 8 d x A.b l ",
"y l A.U.F.F.D.D.K._ , r.g.d.d.f.XX&X@X@X#XOX{._.b.` _ U.S.u u y t t y l l y ",
"y l A.U.F.U.U.L.T u.g.f.h.k.i.a.W.$X+X).Q.(.{.}.~.z.p.H.A.u y u y y y y y y ",
"y y b C.A.I.L.U i.h.j.j.l.c.=.-.,.0. X X}. X{.Q.2.-.-.:.v y y y y y y y y u ",
"y y g y b G.U r.h.h.s.c.*.X.V ! - ^ 8.0.9.R.9.2...= +.2.:.D y y y y y y y y ",
"f y y y z [ ; e.x.v.&./ ! - % * = = ~ ~ ~ ~ ^ ^ - % = +.1.N d y u y y y y y ",
"y u y y d E t.z.4.$.^ = * = * * = = = = = = = = * = % ~ 1.:.D y y y y y y y ",
"y y y y 0 : i.2.$.~ = = = = = * = = = = = = = * * * = - +.1.) d u y u u y y ",
"y y y f E t.x.5.~ = = = * = = = = = = = = = = = = = * = ! :.( 0 u u u u y u ",
"y y y Y > s.1.%.= = = = = * = = = = = = = * = * = = = * = %.) q y l y h y y ",
"y y y I q.s.,.- = = = = = = * = = % = = = = = = * = = * - %.) 0 y y y y l u ",
"y y y I q.s.,.% = = = = = = = = = = = = = * = = = = * = ! $.W d y y y y y y ",
"y y y Y > s.,.% = = = = * = * = = = = % = = * = * = % - $.O.D u y y l y y y ",
"t y y f Q ' 1.& = = = = = * = = = = = = = = * * = * % ^ 1.N 0 g y y u u y y ",
"y y y y d m +.O.= = * = = = = = = % = = = * = = = * ! +.o.D g y u y y y y u ",
"l y g y l Y R 3.+.- % = * = = = = = = = * * = = * ! +.@.N d g y y y y y y y ",
"l y g g b J.W #.1.+.! * % = = = % = = % % % * ! ~ +.+.Z a y y y y y u y y y ",
"x x x x Z.F.U.V %.=.+.! = = = = = = * - - = ! $.%.o.} G a g g g y y y y u t ",
"D.U.F.D.F.U.K.| V V ..%.$.~ * = = = * +.%.1.$.~ V }  .S s s j g y y y y u u ",
"U.Y.Y.F.F.U.D.L * $ * - ! = % % = * = ~ / / ! = * } } V B Z C j g g y l y y ",
"D.U.F.F.F.U.D.#.+...* O + # % % # $ $ # # # % % $ @ @ o @ ( $.) H M.l t y u ",
"Y.Y.U.U.U.F.] !.'. X}.Q.@.R o         O O O O O + ~ +.%.8.~.8.( Y D.x l y y ",
"K.K.Y.K.U.U.Y.E.|.#X%X@X X}.{.[.[.].]./.!.!.!.Q.8.9.Q.~.].].8.o.[ D.x t y y ",
"c z M.M.V.F.U.0 !.{.+X%X*X*X*X*X*X*X*X#X+XOXOXOX}.].[.].'._.=.} B.S.k w t N.",
"3 3 r u x F.F.D.^._.).]. XOX.X.X.X.X.XOX}.]._._.'.'.'.'.'.(.,.N L.S.p 1 r A.",
"5 6 t u x S.S.F.q 9._.].'._.'._.].'.'.]._.].].'.].'.].].)...n P U.S.p w p S.",
"x N.Z.Z.V.u a t 9 #.E.'.].'.].'.].].].'.].'.'.'.'.].].).5.~ F N.Y.D.N.N.N.D.",
"U.U.U.Y.Z.3 1 1 2 M :.E._.].].].'.'._.].].'.].].].].(.1.) B.P.Y.Y.F.U.U.Y.Y.",
"S.K.K.Y.A.w 6 4 2 7 K ) 5.).[.]._.'.'.].]._.].[.].Q.( ) [ P.U.Y.U.U.Y.U.D.D.",
"x x D.F.F.C.b a 3 4 f H K <.7.~.[.].[.].[.[.).0.5.>.A i c K.F.F.Y.F.U.U.S.k ",
"g l A.T.U.U.U.v 3 3 8 t c S K <.n.9.0.0.9.b.6.>.J S 6 < e J.F.Y.F.Y.U.F.N.w ",
"y l Z.D.S.D.A.l 8 4 t y g a s F K L L L } L L S i i 4 2 e K.U.U.U.U.U.U.N.p ",
"y y l x x z z y t r y y y g l k a s s s t a a e 4 4 4 3 p K.U.U.U.U.U.U.D.S.",
"y y t t t t t y g g g y y y y y y y y y g g g 6 < < < < 6 J.F.U.U.U.Y.T.Y.Y.",
"x x x x x x x z y y y t y y y y g g z b l r r r r s s i v K.Y.U.U.F.S.N.S.F.",
"H.D.D.D.D.I.I.b l y y y y y y y g l A.I.V.6 5 c J.J.J.J.K.U.F.U.Y.D.p 5 p S."
};
