/* XPM */
static char *result[] = {
/* columns rows colors chars-per-pixel */
"40 40 221 2 ",
"   c #2D2D09",
".  c #28281A",
"X  c #232D22",
"o  c #283A26",
"O  c #3A3427",
"+  c #771201",
"@  c #5D2412",
"#  c #463B14",
"$  c #663C14",
"%  c #443B28",
"&  c #5D3528",
"*  c #433F30",
"=  c #6E3528",
"-  c #034604",
";  c #044905",
":  c #0C4C06",
">  c #114E08",
",  c #095007",
"<  c #0D5409",
"1  c #145409",
"2  c #1B560A",
"3  c #165B0C",
"4  c #1B5A0B",
"5  c #125118",
"6  c #3C480B",
"7  c #235D07",
"8  c #3A4E17",
"9  c #265B16",
"0  c #355A18",
"q  c #1E6408",
"w  c #04671F",
"e  c #196118",
"r  c #246805",
"t  c #2D6B05",
"y  c #24630E",
"u  c #29660E",
"i  c #2E6B0E",
"p  c #316E0F",
"a  c #32710E",
"s  c #246411",
"d  c #296711",
"f  c #256A16",
"g  c #2D6C12",
"h  c #2B6D1A",
"j  c #376414",
"k  c #316E10",
"l  c #34631B",
"z  c #2F7514",
"x  c #337312",
"c  c #357915",
"v  c #3B7C15",
"b  c #307418",
"n  c #367B19",
"m  c #3B7E19",
"M  c #0F5D22",
"N  c #165D2D",
"B  c #2C4E2F",
"V  c #3C442E",
"C  c #3E492A",
"Z  c #365D2A",
"A  c #294536",
"S  c #384937",
"D  c #295632",
"F  c #036323",
"G  c #196828",
"H  c #246A27",
"J  c #356525",
"K  c #2C7029",
"L  c #367B25",
"P  c #346D36",
"I  c #434C19",
"U  c #465B1B",
"Y  c #704118",
"T  c #4E7C18",
"R  c #484628",
"E  c #585925",
"W  c #444737",
"Q  c #525130",
"!  c #6F4236",
"~  c #7D443B",
"^  c #4A6F29",
"/  c #4B6A2C",
"(  c #374C43",
")  c #237043",
"_  c #4E4E42",
"`  c #475C55",
"'  c #4C5C54",
"]  c #585852",
"[  c #67584F",
"{  c #4A6D48",
"}  c #5C675A",
"|  c #65655A",
" . c #637456",
".. c #5C6764",
"X. c #6A6B64",
"o. c #6E726A",
"O. c #77716C",
"+. c #777871",
"@. c #797A74",
"#. c #7D7E79",
"$. c #991101",
"%. c #94100C",
"&. c #99180B",
"*. c #B60C0F",
"=. c #A5190B",
"-. c #B6190B",
";. c #B51B11",
":. c #BC1C13",
">. c #8B240E",
",. c #9D2613",
"<. c #A62716",
"1. c #B62218",
"2. c #833B2F",
"3. c #963328",
"4. c #A6342C",
"5. c #B43935",
"6. c #CD0000",
"7. c #C7190D",
"8. c #DB110E",
"9. c #C91414",
"0. c #C41C14",
"q. c #CB1C14",
"w. c #D41914",
"e. c #D91C16",
"r. c #EA0504",
"t. c #F40000",
"y. c #F4120F",
"u. c #E61A15",
"i. c #ED1C17",
"p. c #E51D18",
"a. c #EC1D19",
"s. c #F71917",
"d. c #F51E1B",
"f. c #C6251F",
"g. c #D62117",
"h. c #F2211E",
"j. c #D82923",
"k. c #D3382D",
"l. c #F52421",
"z. c #F72C29",
"x. c #F1322D",
"c. c #F7302C",
"v. c #98433C",
"b. c #B54333",
"n. c #826D39",
"m. c #AB4E47",
"M. c #AB5B59",
"N. c #B25B52",
"B. c #84736E",
"V. c #837C7C",
"C. c #CA595A",
"Z. c #EE4F4A",
"A. c #F44743",
"S. c #F5645F",
"D. c #C17370",
"F. c #F2726D",
"G. c #F7726D",
"H. c #3E8117",
"J. c #3E831A",
"K. c #3D8E25",
"L. c #3C8832",
"P. c #418416",
"I. c #428519",
"U. c #4E841A",
"Y. c #458B1B",
"T. c #498E1D",
"R. c #46901D",
"E. c #4C931E",
"W. c #4E991F",
"Q. c #539D1F",
"!. c #56A01E",
"~. c #468D21",
"^. c #4B8C22",
"/. c #478A28",
"(. c #4C9321",
"). c #4E9921",
"_. c #489827",
"`. c #529523",
"'. c #539D21",
"]. c #468737",
"[. c #55A022",
"{. c #59A224",
"}. c #7E837C",
"|. c #81827D",
" X c #878885",
".X c #8A8984",
"XX c #908A8A",
"oX c #8D918C",
"OX c #91918E",
"+X c #8F9B98",
"@X c #969492",
"#X c #999593",
"$X c #959995",
"%X c #9D9D9D",
"&X c #9FA09C",
"*X c #A0A09F",
"=X c #A3A3A3",
"-X c #A8ABA8",
";X c #ABABAB",
":X c #B7ABAB",
">X c #B3B3B3",
",X c #B7BFBD",
"<X c #BDBDBD",
"1X c #F6A29F",
"2X c #F6ACA8",
"3X c #F6B9B5",
"4X c #C0C0BF",
"5X c #C3C3C3",
"6X c #C8C8C7",
"7X c #CBCBCB",
"8X c #D3D4D5",
"9X c #D7D8D8",
"0X c #DBDBDB",
"qX c #F7CFCB",
"wX c #E4E5E5",
"eX c #E7E8E7",
"rX c #EBEBEB",
"tX c #F7E5E2",
"yX c #EEF1F0",
"uX c #F3F3F3",
"iX c #F9F9F9",
/* pixels */
"p p p p p p k p p p p p p p a v ).`.v g n W.[.[.Q.'.).).`.[.'.!.'.Q.[.R.f < c [.",
"p p p p p p p p p p p p p p i H.'.`.H.i v ).[.'.'.Q.[.'.'.'.'.[.'.'.'.Y.q ; b `.",
"p p k p p p a a a p p p z v J.Y.'.Q.H.p x J.J.E.[.'.[.Q.E.Y.Y.J.I.E.'.T.g 2 x Y.",
"p p p p p p p k a g p i x Y.'.W.[.`.v x u < 3 H.'.Q.W.[.P.x i 2 < n `.`.c i k x ",
"p p p a x x a x a a x a c T.'.'.'.`.n g u 1 3 J.'.'.'.'.P.a u 2 1 c ).E.c i p p ",
"p p x I.Y.U.Y.Y.Y.Y.T a a E.Q.'.!.Q.x 2 t v P.E.'.Q.'.'.Y.a g u y x m v x p p p ",
"p p c E.'.`.Q.Q.Q.`.Y.p a E.'._._.K.w 5 F L /._.!.Q.[.'.P.p p p p p p x p p p p ",
"p p x T.W.W.'.Q.'.'.Y.v c ~.L./ ^ E R R W O S ) L._.E.T.v p p p p p p p p p p p ",
"p p p v c Y.Q.Q.'.Q.Q.(.T 0 Q &.*.:.1.1.;.;.,.! W P H f d k k p p p p p p p p k ",
"p p p p p P.'.'.'.`.T T Y %.*.u.i.i.s.i.a.p.e.w.-.3.R > 9 k p k p p p p p p k k ",
"p p p p p v I.Y./.n.b.f.6.Z.F.G.x.t.d.d.d.d.d.s.d.g.=.>.$ l k p k p p p k p p p ",
"p p p p p d 1 7 E b.x.c.Z.2XqXqX1XZ.l.y.d.d.d.d.d.d.p.7.=.$ Z k p p p p p p p p ",
"p p i p p 7 - O <.j.c.c.S.3XtXtX2XS.z.y.h.d.d.d.d.d.d.p.w.=.% G t a a a p p p p ",
"p p p p k j 9 # <.k.x.c.z.G.2X2XG.c.s.s.s.h.d.d.d.d.d.d.u.7.= N K a a p p k a a ",
"p p p p k j 8 % & 3.k.a.t.z.A.A.l.r.y.a.a.d.d.d.d.d.d.d.a.q.<.& D b x p a k p k ",
"p p p p k J R _ A O >.:.f.8.t.6.5.m.N.D.C.8.d.d.d.d.d.d.a.w.:.+ D K k p a p a k ",
"a p a t J } #.#...o O = [ k.f.4.O.+X,X7X:Xm.e.a.d.s.d.p.e.0.;.=.= D K a a a i a ",
"p p a r D  X>X:X#XO.] X W [ = B.-X8XwXwX9X:XM.j.a.s.h.p.q.;.;.:.$.V G z a a a a ",
"x a p r A oX4X6X8X<X@X] O O ] ;X0XeX9X9X0X0X>XM.9.i.a.e.0.;.;.:.$.C G a i a i i ",
"P.k a r B }.>X7XwXwX6X>X X. o.7X0X0XyXrX7X4XyX@X1.w.w.0.;.;.;.;.$.R G p a p a a ",
"I.x a t D +.-X7XrXiXwX8X;X] X.<X8X9XrX9X>X<XuX+X<.9.7.;.;.;.;.:.$.I H k p p a i ",
"J.H.J.n J [ #X6XrXiXuXwX8XOXO.*X,X6X5X>X>X4X,Xo.>.:.;.;.;.;.;.:.$.I f x p i x a ",
"c ).'.`.L W  X4X0XrXiXiXyX4X XV.=X>X;X>X>X;X@.W @ 2.v.4.-.-.;.:.&.I h p p p g p ",
"c '.[.[.].Q V.>X6X9XeXeXyX8X;XOX XoX*X&X$X#.| _ o o W ~ 3.4.1.=.$ l g p p p a a ",
"Y.W.'.Q.).P | &X<X<X5X6X6X6X7X6X@XX.] ] X.+.+.+.| Q *   S [ 3.+ h m k p p k c Y.",
"[.[.'.'.'.L. .OX=X=X;X4X6X5X5X5X;X%X#X%X%X%X%X%X%XOXo._ W * R I U.Y.x p i p T '.",
"R.(.Y.W.)._.].} .X*X=X=X;X;X=X=X=X=X=X=X*X=X=X=X=X*X%X@X|.] Z ^.[.I.i a x c Y.Q.",
"s s d c c Y.~.6 | @X*X%X%X%X%X%X%X*X*X*X%X%X*X*X*X*X=X=XOX| l ^._.c 3 y P.(.W.Q.",
": : > u p P.'.].{ | XX=X=X%X*X=X*X*X*X=X*X*X*X*X%X*X*XOXo.S q (.`.b < 4 Y.[.Q.'.",
"y s g v v m I.I.L Z [ V.%X;X=X*X%X*X%X%X%X%X*X=X-X*XV.| U q b ).'.J.f x R.[.Q.W.",
"n E._.).).J.1 4 4 9 0 J #.XXoX*X=X;X=X=X=X-X=X@XXX@.^ T ^.).).).[.W.E.).'.[.'.[.",
"P.'.'.'.'.J.; > : : K L.{ ( ..XX#X@X@X$X@X#X@X..S J /.[.`.[.'.'.'.'.'.'.W.W.).).",
"v I.Y.Q.'.Y.z g 4 1 u P.L G D ` ' ' ' ' ' ' ' P M y g n ^.'.!.'.!.Q.Q.W.J.c c c ",
"k k c E.[.'.'.~.s < 4 i x p b e 5 M M e e e y t g d 3 , m '.'.Q.W.[.Q.Y.y : 1 1 ",
"g i a T.W.W.`.T.u 1 7 p p k x k a a p p x k k k d u 1 : n '.!.'.Q.Q.Q.~.f 1 1 : ",
"a a a T H.v T v i u d g p g k k k k a k k k k s 7 4 1 1 m '.'.Q.Q.Q.).W.~.J.x 1 ",
"i i i u u p u i i k k p p p p p p p i p i k k 2 - : - ; n '.Q.'.Q.[.{.[.[.'.n - ",
"x c v v v v v v x p p p p p p p p p c c x i d s s 9 s s I.'.'.Q.!._.~._.).).J.s ",
"P.(.E.`.E.E.`.E.c p p p p p k p p x I.).m 4 3 n (.^.(.^._.'.'.Q.).J.3 q R.[.).~.",
"Y.'.'.'.Q.Q.'.E.v p p p p p p k p x T.'.J.3 1 m '.'.'.'.'.'.'.{.).b , 3 ~.[.'.'."
};
