/* XPM */
static char *result[] = {
/* columns rows colors chars-per-pixel */
"40 40 204 2 ",
"   c #2E2E1B",
".  c #35331F",
"X  c #253C24",
"o  c #3A3626",
"O  c #4E3B08",
"+  c #463A16",
"@  c #593B1C",
"#  c #6E3216",
"$  c #403726",
"%  c #064905",
"&  c #0C4B06",
"*  c #104E07",
"=  c #114F08",
"-  c #075307",
";  c #0F5108",
":  c #145507",
">  c #145409",
",  c #1A560B",
"<  c #14580C",
"1  c #1B5B0C",
"2  c #00451B",
"3  c #0A5C18",
"4  c #18541C",
"5  c #215902",
"6  c #225F0D",
"7  c #335010",
"8  c #335112",
"9  c #375917",
"0  c #1E620D",
"q  c #1D7118",
"w  c #24630E",
"e  c #2A660E",
"r  c #26680E",
"t  c #2D6B0E",
"y  c #33660D",
"u  c #316E0F",
"i  c #32700F",
"p  c #256511",
"a  c #2C6512",
"s  c #266B11",
"d  c #2C6B13",
"f  c #376415",
"g  c #326E10",
"h  c #2E7113",
"j  c #2A781B",
"k  c #347412",
"l  c #367915",
"z  c #357917",
"x  c #3B7C15",
"c  c #3A7D19",
"v  c #004B28",
"b  c #045628",
"n  c #125627",
"m  c #004931",
"M  c #394423",
"N  c #3A493C",
"B  c #1B652A",
"V  c #397021",
"C  c #434B12",
"Z  c #4A4913",
"A  c #485618",
"S  c #6B4617",
"D  c #785818",
"F  c #5A6116",
"G  c #457E1B",
"H  c #6A681B",
"J  c #51483A",
"K  c #4A5131",
"L  c #446829",
"P  c #477927",
"I  c #4E633B",
"U  c #526438",
"Y  c #507331",
"T  c #2E5F4C",
"R  c #3F5348",
"E  c #3C6942",
"W  c #4F554C",
"Q  c #45584D",
"!  c #67544B",
"~  c #4E6B4C",
"^  c #5A654A",
"/  c #596558",
"(  c #696956",
")  c #6A6C66",
"_  c #6D736A",
"`  c #72726C",
"'  c #767673",
"]  c #7A7A75",
"[  c #7C7C79",
"{  c #B71A0D",
"}  c #B41B10",
"|  c #BD1B12",
" . c #8A2D09",
".. c #892818",
"X. c #992917",
"o. c #963316",
"O. c #9C321B",
"+. c #A62818",
"@. c #B7271B",
"#. c #A43214",
"$. c #903A31",
"%. c #BD352A",
"&. c #BE3D37",
"*. c #D90D09",
"=. c #D3170C",
"-. c #C21B11",
";. c #D31C15",
":. c #D81A13",
">. c #DA1C16",
",. c #E10604",
"<. c #E5110E",
"1. c #F6150F",
"2. c #EC1714",
"3. c #E31C15",
"4. c #EB1D19",
"5. c #F91614",
"6. c #F41916",
"7. c #F61816",
"8. c #F91816",
"9. c #F41E1B",
"0. c #C62318",
"q. c #D42617",
"w. c #DA211A",
"e. c #F5221D",
"r. c #CF2923",
"t. c #EA2E2B",
"y. c #F52823",
"u. c #8A4213",
"i. c #964217",
"p. c #AF4033",
"a. c #C4433D",
"s. c #F8463D",
"d. c #994C45",
"f. c #90736E",
"g. c #AE7F79",
"h. c #C14441",
"j. c #F54A42",
"k. c #E25345",
"l. c #EB5D52",
"z. c #F65E53",
"x. c #F2766B",
"c. c #3E8116",
"v. c #3E831B",
"b. c #3B8626",
"n. c #3E8A2E",
"m. c #41851A",
"M. c #458B1C",
"N. c #498E1D",
"B. c #4C931E",
"V. c #4E9A1F",
"C. c #50961E",
"Z. c #529C1F",
"A. c #488C23",
"S. c #578B22",
"D. c #4D9521",
"F. c #4E9920",
"G. c #48972C",
"H. c #4B9B2B",
"J. c #509621",
"K. c #539D21",
"L. c #448E39",
"P. c #55A022",
"I. c #58A125",
"U. c #82827E",
"Y. c #8D827E",
"T. c #858582",
"R. c #8B8B89",
"E. c #918F8C",
"W. c #92928F",
"Q. c #949493",
"!. c #989896",
"~. c #9C9C9C",
"^. c #B08C8A",
"/. c #B1908E",
"(. c #A09F9F",
"). c #9EA09E",
"_. c #A09FA0",
"`. c #A1A1A1",
"'. c #A7ADAB",
"]. c #ACACAC",
"[. c #B4B1AF",
"{. c #B3B3B3",
"}. c #B7BAB9",
"|. c #BBBBBB",
" X c #F58B84",
".X c #F69A92",
"XX c #F6A39C",
"oX c #F7B7B1",
"OX c #C1C0BF",
"+X c #C4C4C4",
"@X c #C8C7C5",
"#X c #CBCBCC",
"$X c #D3CFCF",
"%X c #D3D4D4",
"&X c #D8D7D8",
"*X c #D9DADA",
"=X c #F7CAC6",
"-X c #F7D6D2",
";X c #DEE0E0",
":X c #E3E4E4",
">X c #ECECEC",
",X c #F8E6E5",
"<X c #F4F4F4",
"1X c gray99",
/* pixels */
"u u u u u u u i u i i u t k x x N.P.Z.x u x c M.D.K.K.Z.P.Z.N.N.M.M.M.F.K.m.e , ",
"u u u u u u u u u u u u i x N.V.Z.K.K.x g e 1 1 z K.K.Z.K.V.x i e , r v.K.A.k e ",
"u u u u k g u u u u u i i x D.P.Z.P.D.x g p > > z K.K.K.Z.B.i i 6 * 1 m.K.N.k t ",
"u u g x c.c.c.c.c.m.x i i x V.Z.Z.P.D.k p p s g v.K.K.Z.Z.V.i i a 1 w x A.m.k u ",
"u u i N.V.B.C.C.V.C.N.x t x F.P.Z.P.K.s : s A.D.V.Z.Z.K.I.C.i u f u t u k k u u ",
"u u k N.K.K.K.K.Z.P.C.c.h x F.K.V.m.V 4 2 4 f m.Z.P.K.K.K.N.k u u u u u i u u u ",
"u u i m.M.B.K.K.Z.P.V.M.c.v.b.j A  .#.O.o.O.o.S P A.V.m.z x i u u u u u u i u u ",
"u u u k i x K.K.Z.Z.Z.V.V.P S u.p.q.<.3.>.3.>.0.o.D Y q - 6 g u u u u u u u u u ",
"u u u u u x B.F.K.K.P.S.H u.@.k.x.l.1.9.9.9.9.4.;.@.O.S . 5 u i u i u u u i u u ",
"u u u u u g x c M.K.S.D +.0.l..XoXXXz.e.9.9.9.9.6.4.>.{ X.Z f i u u i u u u i u ",
"u u u u u u : : z K.D #.*.t. X-X,X=X.Xe.7.9.9.9.9.9.9.3.{ X.C g u u u i i i u u ",
"u u u u u e : & z V.i.;.2.y.x.oX-X=Xx.9.7.9.9.9.9.9.9.4.;.| @ 9 i u u u i i u i ",
"u u u u u y w 6 a F @.4.9.e.s.x..X Xs.1.5.5.5.9.9.9.e.9.3.q...A y u u u i i i u ",
"u u u u u u u t 1  .;.9.e.6.y.s.l.j.<.w.=.;.w.4.9.9.9.9.4.;.} @ f i u u i i u i ",
"u u u u u u u t C X.>.9.e.9.9.y.t.w.r./.g.f.d.%.4.9.9.9.4.>.| # 8 i i i i i u u ",
"u u u u u u y A o.} =.2.7.8.8.7.,.r./.%X$X[.Y.d.| 2.5.5.7.:.-.+.S A i i y i i u ",
"u u u u u g 9 O } } } =.2.9.6.<.h./.%X;X;X*X}.U.$.=.5.8.6.;.| } ..C y u u u u i ",
"u u u u u k g + ....$.&.p.&.@.+.^.%X:X;X:X*X%X'.( O.a.a.&.+.....# 8 u u u u u u ",
"x u t u u k G C     W ! ! ! o J [.<X%X>X>X+X#X|.` $ ! ! ! . o o . 8 u u u u u u ",
"m.i u u u x A.C N N Q / / / R W '.>X#X>X*X{.|.{.) X Q Q R R R o M 8 i k u u u u ",
"m.l i x i c.J.K U.~.|.+X@X+X`.' U.+X+X+X{.{.{.!.' _ T.T.[ T.T.) K 9 k t u u u u ",
"x M.M.M.M.B.J.U _.OX>X1X1X<X%X'.U.R.{.{.{.{.~.T.T.~.`.`._._._.[ U 9 u u u u u u ",
"k C.P.Z.K.Z.H.Y U.[.%X>X1X<X:X#X[.R.R.~.`.!.[ [ Q.`.`.`.`._._.' L g u u u u u u ",
"x Z.P.P.P.K.H.n.J Q.{.%X:X>X>X&X+X{.' ` ` ' T.!.`.`._._._._._.( f k k u u u u u ",
"N.V.P.V.P.Z.P.G.9 f.).'.}.#X#X#X+X|.E.R.R.R.!.`.`.`._._.)._.Q.~ c N.m.x u u u u ",
"P.P.K.P.P.Z.Z.V.L./ T.Q._.`.'.'.[.].`.'.`.'.`.`.`._._._.`.~._ P m.K.J.x u u t u ",
"N.A.B.B.V.V.P.Z.H.5 ( Q._.).~.~.~.~.`._._._.~.`._._._._.~.U.7 1 v.K.D.l t u k x ",
"p p s l x v.K.Z.H.P I _ W._._._._._._.`._.`.`.`._._.`._.T.^ a : c F.D.h , d M.B.",
"& & * s t x V.Z.K.H.A.I _ E._._._._._._.`.`.~.`.`.`.~.T.^ L : & z H.D.p ; s B.P.",
"1 1 r k x x M.M.M.m.A.P L ^ R.~._.`.`.`.`.`.`.`.`.!.[ f A.A.s 0 v.K.D.h r h B.P.",
"x m.M.M.B.m.r w p p d A.G.n.~ ) T.`._._.`.(.`.W.' / E b.K.F.M.v.B.F.V.N.v.B.V.P.",
"m.K.P.P.P.M.; & = & 1 m.H.c b b / [ ' ' ' ' ] ) T v 3 v.K.P.P.P.P.P.Z.P.P.P.K.K.",
"c N.B.C.K.B.s p , = , z D.G 6 < B v m m m m v n B : 1 x M.M.K.K.K.K.Z.P.K.B.N.M.",
"x x x B.K.J.M.m.d > , u l k e p e u e y t t t u y w e w 0 h F.K.K.K.Z.Z.P.M.s 0 ",
"u u i B.K.K.K.K.z > : 6 u u u g u u u u u u u u g g t : & p D.P.P.Z.Z.P.K.v.1 - ",
"u i i m.D.B.J.N.z 1 6 e u u u u u u u u u u u u e e e 1 = p D.K.Z.P.Z.Z.F.M.h 0 ",
"u i i i x i k k g t e t u u u u u u u u i u u d w , , = = a J.K.Z.P.K.K.K.V.B.D.",
"t u t e t t t t u g g g u u u u u u u u t u g g 1 & % & % 6 D.K.P.Z.P.P.P.P.P.H.",
"k x x G c.x x x k g u g y u u u u u g x c.k e e a d d d d z D.K.Z.P.V.N.v.N.V.V.",
"m.C.J.J.Z.C.K.J.m.k u u g u u u u u k M.J.m.1 > k D.G.A.D.D.K.K.Z.P.B.s < s F.P."
};
