/* XPM */
static char *result[] = {
/* columns rows colors chars-per-pixel */
"40 40 214 2 ",
"   c #0D0D00",
".  c #1D1D00",
"X  c #002400",
"o  c #00350A",
"O  c #183C15",
"+  c #242403",
"@  c #28280A",
"#  c #33311F",
"$  c #2D3B2A",
"%  c #363626",
"&  c #3A3825",
"*  c #373728",
"=  c #363829",
"-  c #383829",
";  c #323F31",
":  c #3E3E31",
">  c #503C16",
",  c #782A07",
"<  c #723512",
"1  c #783B19",
"2  c #413927",
"3  c #094B06",
"4  c #0B4B06",
"5  c #124E08",
"6  c #0F5007",
"7  c #0F5008",
"8  c #125107",
"9  c #135309",
"0  c #145A0B",
"q  c #1C5A0B",
"w  c #115118",
"e  c #225D0E",
"r  c #3E580C",
"t  c #215F16",
"y  c #39571C",
"u  c #1E610F",
"i  c #1C6518",
"p  c #24630E",
"a  c #296809",
"s  c #2E6B0E",
"d  c #32630D",
"f  c #316E0F",
"g  c #357500",
"h  c #32700F",
"j  c #266612",
"k  c #2B6613",
"l  c #2C6C13",
"z  c #2A661A",
"x  c #2E6D1A",
"c  c #376315",
"v  c #326E11",
"b  c #2D7113",
"n  c #2F7C1A",
"m  c #347412",
"M  c #387713",
"N  c #367815",
"B  c #3B7C15",
"V  c #3D7F19",
"C  c #38482B",
"Z  c #3A552A",
"A  c #3D4635",
"S  c #255439",
"D  c #385D33",
"F  c #1B6930",
"G  c #2A6A24",
"H  c #2E622B",
"J  c #2A6B29",
"K  c #396727",
"L  c #397826",
"P  c #276535",
"I  c #276536",
"U  c #396B3A",
"Y  c #2E7033",
"T  c #3C7734",
"R  c #5D4E1C",
"E  c #42591B",
"W  c #64411C",
"Q  c #46771C",
"!  c #72781E",
"~  c #4E4624",
"^  c #42532C",
"/  c #48562B",
"(  c #5A5628",
")  c #424235",
"_  c #474639",
"`  c #4A453A",
"'  c #49483C",
"]  c #48583A",
"[  c #7E462F",
"{  c #457529",
"}  c #50722B",
"|  c #486435",
" . c #497436",
".. c #005D47",
"X. c #3B4D43",
"o. c #036648",
"O. c #1E704D",
"+. c #376441",
"@. c #266752",
"#. c #266764",
"$. c #454D43",
"%. c #4E4E43",
"&. c #524E43",
"*. c #4D5044",
"=. c #4D5B43",
"-. c #47594A",
";. c #515245",
":. c #54534A",
">. c #58584A",
",. c #5A5B4D",
"<. c #495851",
"1. c #555B51",
"2. c #5C5B52",
"3. c #5E5E5D",
"4. c #704E44",
"5. c #6B594D",
"6. c #735C54",
"7. c #7A5F58",
"8. c #566148",
"9. c #4A6951",
"0. c #5D6554",
"q. c #546A58",
"w. c #63625B",
"e. c #646659",
"r. c #6B645C",
"t. c #716251",
"y. c #677655",
"u. c #646861",
"i. c #6C6B63",
"p. c #726F67",
"a. c #6B736A",
"s. c #73736C",
"d. c #767670",
"f. c #797873",
"g. c #7E7E7A",
"h. c #961104",
"j. c #AC190C",
"k. c #BF1D11",
"l. c #932F1F",
"z. c #913513",
"x. c #B72214",
"c. c #903027",
"v. c #923227",
"b. c #A4312A",
"n. c #AD3028",
"m. c #AF3B35",
"M. c #D50A04",
"N. c #CA180E",
"B. c #D61B16",
"V. c #CA221B",
"C. c #D22B28",
"Z. c #A9443D",
"A. c #8F4F47",
"S. c #88544D",
"D. c #91534C",
"F. c #865D55",
"G. c #D95250",
"H. c #3F8116",
"J. c #3D8119",
"K. c #3E8627",
"L. c #4B8800",
"P. c #458715",
"I. c #42861A",
"U. c #458B1C",
"Y. c #498D1D",
"T. c #4C931E",
"R. c #4B951F",
"E. c #50971F",
"W. c #529C1F",
"Q. c #51A20E",
"!. c #52A119",
"~. c #448B24",
"^. c #448F2B",
"/. c #4D9421",
"(. c #4D9921",
"). c #4B982C",
"_. c #509721",
"`. c #539D21",
"'. c #4C8F30",
"]. c #4BA02B",
"[. c #56A023",
"{. c #62814E",
"}. c #6B9357",
"|. c #78876B",
" X c #84837D",
".X c #878882",
"XX c #8A8A86",
"oX c #8C8C8A",
"OX c #8E9189",
"+X c #92918D",
"@X c #959593",
"#X c #999795",
"$X c #9D9C9C",
"%X c #A89993",
"&X c #A1A19F",
"*X c #A1A1A1",
"=X c #A7A7A8",
"-X c #ABACAB",
";X c #B0AFB0",
":X c #B2B3B2",
">X c #BDBDBC",
",X c #D5908F",
"<X c #DE9C99",
"1X c #C0C0BF",
"2X c #C0C0C0",
"3X c #C8C8C7",
"4X c #CBCBCA",
"5X c #D3D2D1",
"6X c #DCDCDC",
"7X c #E5DCDB",
"8X c #E3E3E4",
"9X c #EDEDED",
"0X c #F5E8E7",
"qX c #F3F3F3",
/* pixels */
"f f f v h h h f f h h s m m V H.T.[.R.B f M J.I./.(.W.`.!.`.R.T.Y.U.I.U.`.`.I.p ",
"f f f f f f f f f f v v m H./.K.o.o...o X X o w m T.[.W.`.`.P.m f p 0 l ~._.U.m ",
"f f f s v s f f f f f m b K.} [ h.h.l.%X=X-XOXq.S K.`.`.[.E.J.h s q 6 p U.`.U.M ",
"f v B H.H.H.H.H.H.J.n x ( 1 z.N.B.G.<X7XqXqX5X@Xu.8. .).!.E.I.h v p q l I.U.Q m ",
"f h U._.E.R.E.T.R.~.W < l.N.M.M.C.,X0X5X6X8X4X-X&X X5.( _._.I.f f d s s h M M f ",
"f v U.`.`.`.!.].I.[ x.N.N.B.V.V.m.$X9X4X&XOX@X-X:X@XS.l.! _.Q f f f v f f f f f ",
"f v P.P.Y.E.].{ z.x.B.B.B.C.D.6.5.a.@X1X:X-X:X:X@Xs.r.6.t.{ h h f f f f f f f f ",
"f f h h B ~.Q 1 k.M.V.Z.D.6.&.A $.' :..XoXXXOXXXs.2._ %.e.0.| f f f f f f f f f ",
"f f f f m K.y h.n.Z.A.4.&._ : % - - - ;.:.:.:.:.;._ & - *.2.8.c f f f f f f h f ",
"f f f f m / 1 c.S.6.>._ : - * * - - - - - - - - - - - % : 2.0.| f f f f f f f h ",
"f f f v k > j.A.w.1.2 : * - * - - - - - - - - - - - - % - %.3.8.K d s h f f h f ",
"f v f v y < l.F.1.2 * * * - - - - - - - - - * - - - - * * ) :.,.^ d h h f f h h ",
"f f f c W v.S.r.:.* * - * - * - - - - * * - - - - * - * % - &.,.^ d h h h f h f ",
"f f s r , b.7.<.: * - * - - - - - - - - - - * - - - - - * * *.,.^ d h h v h f f ",
"f v f r , b.7.X.* * * - * * - * - - - * * - - - * - - - * - %.,./ d h h h h f h ",
"f f f r , b.7.$.% * * - - - - - - * - - - - * - * - - * - ' :.] E f h h h v v h ",
"s f h c R c.t.$.% - - - - - - - * * - - - * - * - - - % - :.,.Z d h h f f h h f ",
"h h f v c ~ 2.*.- * * - * * - * - - - * - * - - - * % - _ ,.=.c f h v h f f f f ",
"m s h s b y ) ,.:.: * * - - - - - * - - - - - - % - - _ :.*.K x f f h f h f h f ",
"h f h s N Q E ,.w.:.) - % % - - - - - * - % % - - - ` :.<.D k v v f f f f v f f ",
"M m m h J.R.Y.| 2.w.:.) * % - - - * - - - - % - %.&.<.<.+.G f f v f f h f f f f ",
"U.U.T.U.U.W.!.T -.*.:.:.;.$.- * - - - - ' ;.*.%.:.:.<.#.O.x f f l m f f f f f f ",
"_.`.W.W.[.[.!.+.S % - ;.:.*.= % - * - - &.2.2.:._ * X.#.@.S H H z v f f f f f v ",
"`.`.`.!.!.[.[.{ A & + + # & = % % % % % : - : : % % = ; C $ C ^ ] K m m v f f f ",
"`.`.W.`.W.W.T.y.s.F.oXu.A @ + .         . . . . + @ # 2 2 ` 2.r.w./ Q P.M v f f ",
"[.[.`.[.[.W.L.|.$X1X5X2X$Xf.a.u.3.3.3.3.:.:.:.<.:.%.:.3.i.g.+XoXi.] Q T.B f f f ",
"~.T.R.R.R.W.Q.{.@X2X8X8X6X5X4X4X3X4X3X3X;X=X*X=X*X@XoXoX@X$X=X+X0.+.^.T.m a v m ",
"j j m B H.R.[.g y.@X;X4X8X9X9X9X9X9X9X9X6X4X2X2X>X:X=X=X=X*X*XoX$.Y ).U.j q l I.",
"4 4 a s m R.W.Q.}.XX@X@X*X;X:X;X;X:X;X:X>X=X$X#X#X$X*X*X$X*X@Xf.-.L ).U.u 7 s T.",
"j p m m B P.U.T.a =.XX$X*X$X$X$X$X$X$X$X$X$X*X*X*X*X*X*X*X$Xp.O F K.[.~.b j b R.",
"J.U.U.R.U.b u j e Z e.XX$X*X*X*X*X$X*X*X$X*X$X*X*X*X*X*X#Xf.;.D ~.(.`.E.U.U.T.(.",
"_.`.`.[.(.j 3 4 4 5 Z e..X$X*X*X*X*X*X*X*X*X*X*X*X*X*X#Xd.=.{ '.].!.`.`.[.[.[.!.",
"/.T.E.[./.b p q 9 9 z K ] s.#X*X&X*X*X*X*X*X*X*X*X$XoX,.C T ^.`.`.`.W.`.`.`.(.U.",
"B B T.W.`.T.U.n q 9 e v L | q.s.XX=X&X&X*X&X*X#Xg.r.q.I i s I.`.`.`.W.`.`.`.U.j ",
"s f U.`.`.`.[.U.j 8 q a l x G U q.f.d.d.d.d.d.a.9.I J t 4 7 L `.[.W.!.`.`.(.J.0 ",
"v v P.T.T.Y./.J.p q e f f l s x J H P P I I I I J z p q 9 9 V `.W.`.[.`.!.(.U.b ",
"h v h m M M M h s s d f f f f f v l l l l l l l u q 9 9 8 q J.`.!.`.!.`.`.`.W.R.",
"f s s s s s s s l v v v f f f f f f v s f s v v p 6 3 3 3 7 V _.`.`.W.[.[.[.[.[.",
"B B B Q H.H.H.M m f f f f f f f f f v B V M s p j l l z j l U.`.`.W.[.R.~.U.U.R.",
"_._._._.R.E.(.U.M f f f f f f f f v m U._.I.u 9 l ~././././.(.`.`.[.`.U.i 0 b R."
};
