/* XPM */
static char *_1c78ff8daa14367efc8550a4a2c1a4aaxkEnrtSOS1sLETH[] = {
/* columns rows colors chars-per-pixel */
"40 40 152 2 ",
"   c None",
".  c #020000",
"X  c #0C1209",
"o  c #250202",
"O  c #260B09",
"+  c #3C100E",
"@  c #371504",
"#  c #1F261B",
"$  c #20330F",
"%  c #223610",
"&  c #262F21",
"*  c #3F2F23",
"=  c #293324",
"-  c #343F2D",
";  c #460404",
":  c #4A0505",
">  c #570606",
",  c #5D0707",
"<  c #570A0A",
"1  c #5C1D07",
"2  c #4B1A17",
"3  c #581A17",
"4  c #620707",
"5  c #640A0A",
"6  c #6D0E0E",
"7  c #720D0D",
"8  c #761111",
"9  c #7B1212",
"0  c #46200B",
"q  c #4E201B",
"w  c #54221E",
"e  c #662B0B",
"r  c #5C2621",
"t  c #6A2522",
"y  c #742623",
"u  c #2E431C",
"i  c #394533",
"p  c #455C2D",
"a  c #496E29",
"s  c #5A7D3B",
"d  c #4D5B44",
"f  c #506047",
"g  c #596A4F",
"h  c #6D7D49",
"j  c #617356",
"k  c #8B0F0F",
"l  c #800D0D",
"z  c #851414",
"x  c #891A17",
"c  c #8C1515",
"v  c #941514",
"b  c #9B1B1A",
"n  c #9E1212",
"m  c #A41515",
"M  c #AF1515",
"N  c #AF1C15",
"B  c #AE1C1C",
"V  c #A71B1B",
"C  c #B21616",
"Z  c #BA1A1A",
"A  c #B41B1B",
"S  c #8F330F",
"D  c #833C1A",
"F  c #AF2415",
"G  c #AF2C15",
"H  c #A1211F",
"J  c #AF3615",
"K  c #AF3A15",
"L  c #9A2623",
"P  c #AA2725",
"I  c #BA2725",
"U  c #B13C35",
"Y  c #C31E1E",
"T  c #CF2323",
"R  c #C62222",
"E  c #D52525",
"W  c #D82626",
"Q  c #DB2C29",
"!  c #DD322D",
"~  c #DD3B36",
"^  c #DE3E38",
"/  c #D63C36",
"(  c #E63E33",
")  c #80401A",
"_  c #954A1D",
"`  c #AE4215",
"'  c #AC4F18",
"]  c #B04415",
"[  c #B34917",
"{  c #B74E18",
"}  c #A9511D",
"|  c #B5501A",
" . c #BC541A",
".. c #BD581D",
"X. c #A95423",
"o. c #B05824",
"O. c #B85B24",
"+. c #C15A1C",
"@. c #DF413A",
"#. c #E74337",
"$. c #E3443A",
"%. c #E84B3E",
"&. c #C26128",
"*. c #C46126",
"=. c #D94B42",
"-. c #E04640",
";. c #E24C43",
":. c #E65045",
">. c #E45248",
",. c #EA5549",
"<. c #EA574A",
"1. c #E95D51",
"2. c #EC6457",
"3. c #ED6B60",
"4. c #ED7167",
"5. c #EE756A",
"6. c #EE786E",
"7. c #EF7C72",
"8. c #5F8D37",
"9. c #6A8E3B",
"0. c #6B9E3E",
"q. c #6E9949",
"w. c #7E9454",
"e. c #77A74D",
"r. c #7AA754",
"t. c #9CBF5B",
"y. c #9DB364",
"u. c #F0857C",
"i. c #8CC35C",
"p. c #9BC157",
"a. c #98C559",
"s. c #A3C35F",
"d. c #96CE64",
"f. c #ADCD66",
"g. c #A2D367",
"h. c #F18C83",
"j. c #F5A6A0",
"k. c #F6ABA5",
"l. c #F7B3AD",
"z. c #F7B7B1",
"x. c #F8B6B0",
"c. c #F9BBB6",
"v. c #F9BDB8",
"b. c #F9C0BB",
"n. c #FBC5C0",
"m. c #FBCBC7",
"M. c #FDD3CE",
"N. c #FEE1DD",
"B. c #FEE8E6",
"V. c #FEE4E2",
"C. c #FFF6F5",
"Z. c snow",
/* pixels */
"                                                                                ",
"                                                                                ",
"                                                                                ",
"                                                                                ",
"                                                                                ",
"                                                                                ",
"                                                                                ",
"                                                                                ",
"                          % a 8.e.i.0.e.q.u                                     ",
"                      % 9.p.t.f.f.f.a.d.d.s                                     ",
"                      p h d f g j j y.g.r.X 2 +                                 ",
"                                # i d w.= O t y                                 ",
"                              o > , ; & i 2 w O                                 ",
"                          6 B Y Z M M v * r 3 9 7 ,                             ",
"                        b E ~ @.~ I P z q 3 m m Z R A 7                         ",
"                      v ! 2.l.m.h.2.>./ P L U =.:.$.^ ;.b                       ",
"                    < W 1.v.Z.C.M.j.7.2.2.2.2.4.h.n.x.2.;.z                     ",
"                    V ^ 4.B.C.N.C.V.M.5.b.u.2.j.b.c.k.@.! R                     ",
"                  . T -.6.M.v.h.b.z.l.6.m.4.2.4.4.2.2.W W W 5                   ",
"                  < E ! 2.2.2.2.2.2.2.2.2.2.2.2.2.2.%.W W W z                   ",
"                  8 Q E #.,.,.%.$.#.%.:.<.2.2.2.2.:.W W W W c                   ",
"                  z W W W ! ( ( #.#.( ( #.#.#.#.! W W W W W 9                   ",
"                  9 W W W W ! ( ( ( ( ( ( ( ( W W W E W E Z :                   ",
"                  7 W W W W W ( ( ( #.( ( ( W W W W E Y M m .                   ",
"                  o E E W W W W Q Q ! ! Q E W E E Y C M M k                     ",
"                    B E W W W E W W W E E E Y Z M M M M M 4                     ",
"                    , M C Z Z Y Y Z Z M M M F J M M C M n                       ",
"                      n C M N M M M M C M F K ] G M N N 5                       ",
"                      : m N ] ] G M G ` K ] [ [ J J [ S                         ",
"                        1 ` { ..{ ] ` ] {  .+. .[ { ' @                         ",
"                          e ..+.+...| +.+.+.+.+.+.} @                           ",
"                            0 _ O.*.X.D o.&.&.o.)                               ",
"                                                                                ",
"                                                                                ",
"                                                                                ",
"                                                                                ",
"                                                                                ",
"                                                                                ",
"                                                                                ",
"                                                                                "
};
