/* XPM */
static char *_76494aabd0847dfcc605481d3a2182frtqahUCnoiwuXwbP[] = {
/* columns rows colors chars-per-pixel */
"40 39 130 2 ",
"   c None",
".  c black",
"X  c #2B2000",
"o  c #453500",
"O  c #6E5601",
"+  c #7C6101",
"@  c #896C01",
"#  c #8B6E01",
"$  c #9A7A02",
"%  c #AB8802",
"&  c #B58B0A",
"*  c #BE930A",
"=  c #C99801",
"-  c #CB9A01",
";  c #CC9B02",
":  c #CE9D01",
">  c #CF9E02",
",  c #CF9E05",
"<  c #C0940A",
"1  c #C1960A",
"2  c #C69A0A",
"3  c #C89C0A",
"4  c #CA9D0A",
"5  c #CBA203",
"6  c #D2A102",
"7  c #D4A302",
"8  c #D0A603",
"9  c #D7A502",
"0  c #D8A602",
"q  c #D3A803",
"w  c #D4A903",
"e  c #DAA802",
"r  c #D8AD04",
"t  c #D3A50A",
"y  c #D4A60A",
"u  c #D6A70A",
"i  c #DCAC0A",
"p  c #DEAE0A",
"a  c #DFAD0F",
"s  c #D3A313",
"d  c #D4A413",
"f  c #D6A613",
"g  c #DAA912",
"h  c #D9A814",
"j  c #D9A914",
"k  c #E1AE02",
"l  c #E0AE0E",
"z  c #E1AF0E",
"x  c #E2B003",
"c  c #E4B203",
"v  c #E6B303",
"b  c #E7B403",
"n  c #E0B304",
"m  c #E1B304",
"M  c #E4B604",
"N  c #E9B603",
"B  c #EAB703",
"V  c #EDB903",
"C  c #E8B904",
"Z  c #E6B509",
"A  c #E7B609",
"S  c #E6B709",
"D  c #E4B20D",
"F  c #E5B30D",
"G  c #E9B809",
"H  c #EBBA09",
"J  c #EDBB08",
"K  c #ECBB09",
"L  c #EFBB08",
"P  c #EDBA0B",
"I  c #ECB80C",
"U  c #ECB90C",
"Y  c #F0BC07",
"T  c #F1BD07",
"R  c #F3C205",
"E  c #F0C007",
"W  c #F1C107",
"Q  c #F1C207",
"!  c #F2C207",
"~  c #F3C307",
"^  c #F6C205",
"/  c #F5C206",
"(  c #F4C207",
")  c #F5C307",
"_  c #F7C505",
"`  c #F5C507",
"'  c #F6C507",
"]  c #F6C607",
"[  c #F7C707",
"{  c #F8C304",
"}  c #F9C404",
"|  c #F9C504",
" . c #FAC504",
".. c #FAC604",
"X. c #FBC604",
"o. c #F8C507",
"O. c #F9C607",
"+. c #FAC707",
"@. c #FCC704",
"#. c #FAC805",
"$. c #F8C807",
"%. c #F9C807",
"&. c #F9C907",
"*. c #FAC907",
"=. c #FDC804",
"-. c #FDC904",
";. c #FDC805",
":. c #FDC905",
">. c #FEC905",
",. c #FECA05",
"<. c #FECB05",
"1. c #FDCA06",
"2. c #FDCA07",
"3. c #FECA06",
"4. c #FECB06",
"5. c #FFCC05",
"6. c #FFCD05",
"7. c #FECD07",
"8. c #FECE07",
"9. c #FFCE07",
"0. c #F1C208",
"q. c #F2C208",
"w. c #F4C408",
"e. c #E1C119",
"r. c #E7C41A",
"t. c #FDD212",
"y. c #FFD614",
"u. c #FEDA19",
"i. c #FFDA19",
"p. c #FFDB19",
/* pixels */
"                                                                                ",
"                                                                                ",
"                                      ` e                                       ",
"                                      *.V                                       ",
"                                      7.<.                                      ",
"                                    R 7.<.0                                     ",
"                                    *.<.7.N                                     ",
"                                    7.7.<.=.                                    ",
"                                  Q 6.=.7.<.6                                   ",
"                                  [ 6.6.=.7.v                                   ",
"                                  7.6.6.6.6.X.                                  ",
"                                Q 7.7.=.6.6.7.:                                 ",
"                                ` 6.6.6.6.6.=.x                                 ",
"                                7.7.7.=.6.7.6. .                                ",
"                              Q 6.6.6.6.6.=.=.7.-                               ",
"  r.u.u.p.p.p.p.p.p.p.p.p.p.p.y.6.6.=.6.6.6.6.7.t.p.p.p.p.p.p.u.p.p.p.p.u.u.e.  ",
"    g o.6.=.6.7.6.6.=.6.6.6.7.<.6.6.6.6.=.7.6.=.6.6.7.6.6.6.6.6.6.6.6.7.*.4     ",
"        T 6.6.=.=.6.7.6.6.6.=.7.=.7.6.=.6.6.6.6.6.6.=.6.6.=.=.6.6.=.=.L &       ",
"          F 7.6.6.6.6.6.=.7.w $ 6.6.6.6.6.6.*.# r 7.=.6.6.6.7.6.7.7.i           ",
"            g o.6.6.=.6.6.6.O . x 7.=.6.=.7.w . @ <.6.6.6.=.6.6.o.4             ",
"                Y 7.=.7.6.=.o . w 6.6.=.7.6.5 . + =.6.6.6.6.6.J                 ",
"                  D =.6.6.6.$ X R 6.6.6.6.6.C . % 6.6.=.=.7.i                   ",
"                    g  .=.7._ b 6.6.6.6.=.6.6.m *.6.<.7.o.2                     ",
"                        J 6.6.6.=.7.6.=.6.6.=.7.6.6.7.H                         ",
"                        w.7.6.6.7.=.6.6.=.6.7.=.=.6.6.0                         ",
"                        *.7.7.=.6.6.6.=.6.6.6.6.6.6.6.C                         ",
"                        7.=.6.6.6.6.6.6.6.6.6.6.6.6.6.=.                        ",
"                      Q 6.6.6.6.6.=.6.7.=.6.6.=.=.7.6.=.7                       ",
"                      *.6.=.6.7.6.=.7.6.7.=.7.6.6.6.=.6.b                       ",
"                      7.6.6.6.=.6.6.7.C P 7.6.6.=.6.6.6.@.                      ",
"                    Q 6.6.6.<.7.<.<.u     D =.=.7.6.7.6.7.:                     ",
"                    o.6.7.=.7.7.R 1         f ^ 6.6.=.7.<.v                     ",
"                    7.7.=.7.6.b                 U 7.<.7.=.X.                    ",
"                  w.7.<.6.<.u                     l <.=.7.<.:                   ",
"                  ` 7.7.q.1                         d R <.7.k                   ",
"                  7.7.b                                 I 7.{                   ",
"                E 2.u                                     l @.-                 ",
"                S *                                         d ,                 ",
"                                                                                "
};
