/* XPM */
static char *c9a8211d2d0c49dae275250a22b0a4379zC8gKMkbkdQnLSg[] = {
/* columns rows colors chars-per-pixel */
"40 40 160 2 ",
"   c None",
".  c #070E02",
"X  c #090D02",
"o  c #0B1302",
"O  c #0E1904",
"+  c #141504",
"@  c #1E1707",
"#  c #121C05",
"$  c #181D07",
"%  c #211C0A",
"&  c #152205",
"*  c #192607",
"=  c #1C2709",
"-  c #1D2C09",
";  c #21200A",
":  c #29220D",
">  c #22350B",
",  c #263A0D",
"<  c #293E0E",
"1  c #2F2A12",
"2  c #393317",
"3  c #41361A",
"4  c #463A1C",
"5  c #4B3E1F",
"6  c #4D3F20",
"7  c #2B410F",
"8  c #2E4311",
"9  c #314612",
"0  c #354A15",
"q  c #384E16",
"w  c #394E19",
"e  c #3A5017",
"r  c #3C5219",
"t  c #40571C",
"y  c #435A1E",
"u  c #4D4121",
"i  c #524524",
"p  c #564926",
"a  c #594B27",
"s  c #5B4D29",
"d  c #465B20",
"f  c #485F21",
"g  c #5F512C",
"h  c #62542E",
"j  c #67582F",
"k  c #665730",
"l  c #675831",
"z  c #6B5C33",
"x  c #705F37",
"c  c #4C6323",
"v  c #516626",
"b  c #516926",
"n  c #556D29",
"m  c #596D2B",
"M  c #57702A",
"N  c #5B732D",
"B  c #5F782F",
"V  c #5F7830",
"C  c #60772F",
"Z  c #716137",
"A  c #756439",
"S  c #7A693D",
"D  c #617730",
"F  c #647B32",
"G  c #687E34",
"H  c #7E6C40",
"J  c #816F41",
"K  c #678035",
"L  c #698035",
"P  c #6A8035",
"I  c #688136",
"U  c #698136",
"Y  c #6A8136",
"T  c #6B8137",
"R  c #698237",
"E  c #6A8337",
"W  c #6B8337",
"Q  c #6D8337",
"!  c #6C8337",
"~  c #6B8437",
"^  c #6D8437",
"/  c #6D8338",
"(  c #6D8438",
")  c #6D8538",
"_  c #6C8438",
"`  c #6E8438",
"'  c #6E8538",
"]  c #6F8539",
"[  c #6F8739",
"{  c #6E8639",
"}  c #708739",
"|  c #71873A",
" . c #70883A",
".. c #71893B",
"X. c #73893B",
"o. c #72893B",
"O. c #738A3B",
"+. c #728A3B",
"@. c #748A3B",
"#. c #738B3C",
"$. c #748B3C",
"%. c #758B3C",
"&. c #748A3C",
"*. c #768B3C",
"=. c #758C3C",
"-. c #748C3D",
";. c #758C3D",
":. c #758D3D",
">. c #768C3D",
",. c #768D3D",
"<. c #778D3D",
"1. c #778D3E",
"2. c #778E3E",
"3. c #788E3E",
"4. c #798E3E",
"5. c #788F3F",
"6. c #798F3F",
"7. c #788E3E",
"8. c #79903F",
"9. c #7A903F",
"0. c #799040",
"q. c #7B9140",
"w. c #7A9140",
"e. c #7B9241",
"r. c #7B9240",
"t. c #7C9240",
"y. c #7C9241",
"u. c #7C9341",
"i. c #7D9341",
"p. c #7D9441",
"a. c #7D9442",
"s. c #7E9442",
"d. c #7E9542",
"f. c #7F9542",
"g. c #7F9543",
"h. c #7E9543",
"j. c #7F9643",
"k. c #809543",
"l. c #809542",
"z. c #809643",
"x. c #819743",
"c. c #809743",
"v. c #819644",
"b. c #819744",
"n. c #829744",
"m. c #829844",
"M. c #829845",
"N. c #839945",
"B. c #839845",
"V. c #849945",
"C. c #849A46",
"Z. c #859A46",
"A. c #859B46",
"S. c #869B46",
"D. c #869B47",
"F. c #869C47",
"G. c #879C47",
"H. c #879D47",
"J. c #899E48",
"K. c #899E49",
/* pixels */
"                                                                                ",
"                                                      9.Q q.                    ",
"                              0.F   [         ^ [ C ^ c.$.*.c.                  ",
"                            G 2.>.4.>.#.^ F >.2.8.h.c.c.c.9.h.*.                ",
"                h.c.$.B F U >.h.M.c.Z.c.4.>.8.Z.D.Z.D.F.Z.c.q.n.8.U             ",
"                8.h.4.>.=.8.h.c.n.Z.A.A.M.M.h.A.Z.Z.F.F.Z.Z.c.Z.M.8.F           ",
"              o.r.r.h.>.o.^ 0.c.h.Z.A.A.Z.c.M.A.Z.M.J.D.J.G.Z.Z.A.A.O.N         ",
"          h.$.0.2.8.>. .D B G [ >.h.M.Z.h.>.^ O.h.h.q.n.B.Z.H.H.J.J.c.F F       ",
"        >.0.n.n.q.M. .D N n N F U [ #.$.#.*.0.4.[ [  .-.0.M.A.J.A.J.c.2.U c.    ",
"        q.U $.q.>.-.K V M b ^ 8.G K U | c.c.X.$.V N V U >.M.M.A.H.J.h.^ b N 8.  ",
"          N B F F F V N n f [ M.#.[ [ $.$.$.<.} M v c V K >.8.Z.A.N.h.E M r     ",
"          b M N V V N M c 0 c F | [ ` U Q 4.Z.D t r r c C =.h.h.8.O.o.K n f     ",
"          n m M N N M b r 8 0 r c b n v b c v r 9 w r t c M [ >.K I I B b y     ",
"      D F ^ F N M B B y 9 8 r y y f f C U N 9 < w m N c b n G K K K K M c c     ",
"  >.>.[ Q *.4.*.O.F b r 9 9 D F C G y ^ | t - * 0 D D n N F K K K N M b c c     ",
"  D v t c N | 4.>.b r 0 9 r [ o.n b < y C & X X < 9 F K n N N V B b c b y b     ",
"  f 0 e y c f c b w w 0 8 9 0 N & - - o = . X X < < < f y f c F o.>.v r 0       ",
"    0 0 0 q r r q t C c d < , & X X o X X + % X = 8 < < 7 q y =.F K y 7 9       ",
"    9 7 9 0 q 0 9 c m m d , & X . # o o $ 2 + o . * , < < 7 9 y q 0 8 7 0       ",
"    7 7 9 7 8 9 7 < n , & o o O O O 1 & 2 u O o X X o > , < 7 7 8 8 7 > ,       ",
"    b r 9 9 < < , > > O o # * = $ % h   3 u * # : % X & , > , 7 < < > > >       ",
"    N r w 9 < < , ,   9 = # $ s u 3 5 g 4 z p 4 : o o o , , > > > > > >         ",
"      w y                     p h u u l g s z u # O o o o & , > > > >           ",
"                            i 5 u i g l S z u       # O . o O > , , <           ",
"                              i j 4 s z A z             # O O - < < r           ",
"                              i A 5 g z z                                       ",
"                            s z A 4 s p                                         ",
"                            A p z i i                                           ",
"                          J z A g j a                                           ",
"                          A z z s j i                                           ",
"                          Z z s h k u                                           ",
"                          z h j a z u                                           ",
"                        S j h p z z h i                                         ",
"                        p z h l z s 5 A S A S A                                 ",
"                        S A a u s a u l z z z S                                 ",
"                    H S H S 3 i g A l g Z h a h S                               ",
"                h g Z k i 4     u h H S 3     i Z J A H                         ",
"            p   u a 4   3       Z g H H g       i i a s z                       ",
"                              h s i i i i               k                       ",
"                                                                                "
};
