/* XPM */
static char *b43c7b88d3124daae9cf54f7a40ef766yoGxOHX5btGzb2Vr[] = {
/* columns rows colors chars-per-pixel */
"40 40 109 2 ",
"   c #000617",
".  c #030D1B",
"X  c #0C1421",
"o  c #121721",
"O  c #131A26",
"+  c #141B29",
"@  c #191F2C",
"#  c #1C222E",
"$  c #1E2431",
"%  c #26282E",
"&  c #212632",
"*  c #252A35",
"=  c #2A2D37",
"-  c #262B39",
";  c #292D39",
":  c #2D313D",
">  c #32343E",
",  c #2D3240",
"<  c #333642",
"1  c #363944",
"2  c #393A44",
"3  c #3C3E4A",
"4  c #3E414D",
"5  c #3F4351",
"6  c #444247",
"7  c #43434D",
"8  c #48474F",
"9  c #444652",
"0  c #484750",
"q  c #464955",
"w  c #494A56",
"e  c #474A58",
"r  c #4C4E59",
"t  c #4A5155",
"y  c #4E515D",
"u  c #525055",
"i  c #53545D",
"p  c #58575E",
"a  c #535A5F",
"s  c #625D5F",
"d  c #4E5261",
"f  c #525563",
"g  c #555C62",
"h  c #5A5D64",
"j  c #565A69",
"k  c #5A5D6B",
"l  c #625E62",
"z  c #596066",
"x  c #5D636C",
"c  c #5F6271",
"v  c #646166",
"b  c #686365",
"n  c #66646A",
"m  c #686469",
"M  c #68656B",
"N  c #68666E",
"B  c #68676F",
"V  c #6A686E",
"C  c #626470",
"Z  c #616573",
"A  c #646673",
"S  c #626675",
"D  c #686771",
"F  c #656876",
"G  c #666977",
"H  c #656B77",
"J  c #666C77",
"K  c #6A6971",
"L  c #686872",
"P  c #696872",
"I  c #6A6973",
"U  c #6A6A73",
"Y  c #696975",
"T  c #696A75",
"R  c #6A6A76",
"E  c #6A6B77",
"W  c #6B6C77",
"Q  c #6D6C76",
"!  c #656A7A",
"~  c #6B6C79",
"^  c #6C6D7A",
"/  c #6D6E7A",
"(  c #696E7C",
")  c #6D6F7D",
"_  c #6E6F7C",
"`  c #6B707D",
"'  c #6B707E",
"]  c #6E707E",
"[  c #70707B",
"{  c #70727F",
"}  c #6C7080",
"|  c #6E7080",
" . c #6F7180",
".. c #6E7283",
"X. c #6F7383",
"o. c #6F7385",
"O. c #707383",
"+. c #707585",
"@. c #717585",
"#. c #707486",
"$. c #707586",
"%. c #727687",
"&. c #747686",
"*. c #727688",
"=. c #737788",
"-. c #727789",
";. c #737789",
":. c #757A8C",
">. c #767A8C",
/* pixels */
"& 6 d y d y d y y y y d y d y y y y d y y y y y d d y d y d q X # : y d d y y y ",
". ! >.o.o.o.%.o.%.#.o.o.%.o.%.o.o.o.%.o.o.%.-.` H %.' %.o.%.} S 1 g ' o.o.o.o.o.",
"X ! %.z g g z g g g g g g g g a g g g z g a z z g g a g g g a ' r t x z g g g a ",
"# f n y a a a z z g z h g z z z z g g a g z z f x j a z z z r w & y H H g z z z ",
"& 3 9 9 9 9 q r y y t g g g f r e t t 7 i z y y i r y r t r r r 4 w t w y g g f ",
"$ 7 r q q q w 9 w 9 w w w w w q q q 9 q q 2 3 q 9 q 9 q q 9 r < # ; 4 9 9 w q w ",
"& * - = ; - : 9 9 4 = ; ; * ; ; : ; ; : : $ & ; ; ; : ; ; ; * * # & # - = : = ; ",
": : : - = - * # # & - ; - , ; ; : - ; # X * ; ; ; : # $ : , : : : = : : $ - : ; ",
"' T ] o.} *.! = < 3 k %.| T } } T } *.C e O 5 &.' o.k q ' H W T _ o.} %.4 w ' ] ",
"] ~ ] L B B &.i 3 i l B T o._ ) O.K n _ -.: 3 &.o.-.o.d K v v v n K A &.9 7 v Q ",
"v n v v v v } 9 8 n m l D _ | T ^ m l n } e 3 &.n W ' y O.v v n v v l Q q 6 G B ",
"v v v n T n x ; i m n T _ l n v l n l K } < > A n v ' < k ~ l v v n l T 9 6 K A ",
"v n V K K v w > u n ~ D n l m _ n n l #.c < = i m m h & q ^ l n v v m l ; 7 m v ",
"N N v v v v y < u m n l l m v T n l l O.j < * h m l r : f T l n n l m l ; 1 l v ",
"n n v v v v h : r b l n m n v v n m n C q = = h m l 7 < w m v n v n v f ; 1 l n ",
"v n h p n n v < 9 h n l l B n l l l w 9 8 & - l m f < : r h m v v n u e < < v n ",
"f h r 5 p h p 1 0 r r q r l f 9 q q 9 9 q 1 & p r q : ; 4 3 4 4 3 2 < 3 $ < i u ",
"3 3 5 3 ; 1 ; * = ; ; < < & : 9 9 3 9 7 4 < 1 , = ; # & # # @ O - 3 3 2 1 3 4 4 ",
"#.#.>.c < r h Z c c S j ; C G [ o.%.o.*.} } ! 1 S S C S S C A S G ^ Q *.*.*.*.%.",
"T m o.S 1 l T n T *.&.c * &.^ V A ) ) | N ] ! 2 *.} n T Q O.%.O.T B _ _ } _ N C ",
"Q l o.C 3 m D D l T *.C o c D l l n O.n s Q d 3 } B l v l _ T l v v T l B B l K ",
"l [ [ p 3 D m I [ l *.S   c ^ l n v v n v ^ e 3 *.B v v v K n n n v v v l v n l ",
"l n l 9 3 l n l l l ~ e # h [ l v v v n v Q q 2 | K v v v v v v v n v v l n n v ",
"D l h 3 3 y l n I ^ | 9 & r l l m n n l l w 4 2 f B v v v v n v v v m m v n l n ",
"l i w 3 7 w u l h f r 9 - q f l h h h p p r 3 - w p v m m m m m m m v h l m m m ",
"3 1 3 > > 3 1 3 3 7 3 ; O 3 3 2 < 3 7 3 8 > . X = 2 3 7 7 7 8 7 7 0 3 1 1 0 w 9 ",
"j j j j j j j 3 O , k k j j j f k < & f j j j j j k j j j j j j j f j j k 9 + y ",
";.Q D I D ^ &.| ^ f _ Q [ B I ^ [ S f >.} | %.>.*.O.%.O.#.[ [ %.[ B K B &.S & ! ",
"^ l m l l l D ;.^ 3 n l ^ l l T l l k :.D l l K n l l l m m l l l v l l %.S $ C ",
"N l m l l l l Q S 1 w l m m m l B p j ;.n l n l v n Q _ ! A m n v n v D %.g : h ",
"i m l I ^ l l | k 3 2 f n l m n l r 3 C n K n l l } C n l l n v v v l } j 4 < r ",
"9 l m I l n l T r 3 1 u n n l l B w 1 l m l n v f i h v n n v v N l m n w < ; 9 ",
"q h m m b m m p w < 4 i m b m m m r 2 h v n K m B m Q [ b n m V u % V b p 3 < r ",
"- - 2 1 1 < 1 > = * : : 1 1 2 < 1 : ; * > 1 > < > 2 > > 1 < 2 2 = # 2 > : ; - : ",
"1 1 < < < 2 2 < < 2 2 < < > > < : $ $ 1 2 < < < < < > 2 < < < < < 4 2 2 < 2 < $ ",
"d r u i y w q w y i r y i y k f 9 < q r y q i i i i i i y y y t a g z a y y q $ ",
"h j z y g a g y y a z z h z x x r 1 y g g a a y g h z z h z z z z g i g z h t # ",
"g x g f g g g g a a g x g g a z g < ! ( z g a g h g g z z h z g g g g g g x k # ",
"x C x x x x x x x n ] o.' ' X.G x x , S } o.c z g g g g g g x x x x x x H o.c @ ",
"%.%.*.*.%.%.%.%.-.-.%.o.%.%.X.%.) ) 1 . q d } } H H H ) S H o.o.%.%.%.%.%.-.H # "
};
